<?xml version="1.0" standalone="no"?>
<!DOCTYPE svg PUBLIC "-//W3C//DTD SVG 1.1//EN"
"http://www.w3.org/Graphics/SVG/1.1/DTD/svg11.dtd">
<svg width="124.913" height="128.693" viewBox="0 0 2602.36 2681.1" version="1.1"
xmlns="http://www.w3.org/2000/svg"
xmlns:xlink="http://www.w3.org/1999/xlink">
<g fill-rule="evenodd"><path d="M 257.873,2246.06 L 257.873,1773.62 L 259.765,1754.42 L 265.366,1735.95 L 274.461,1718.94 L 286.701,1704.02 L 404.811,1585.91 L 416.556,1575.88 L 429.724,1567.81 L 443.994,1561.9 L 459.011,1558.3 L 474.409,1557.09 L 533.465,1557.09 L 533.465,1542.32 L 534.002,1537.21 L 535.592,1532.31 L 538.164,1527.86 L 541.606,1524.04 L 545.768,1521.01 L 550.467,1518.92 L 555.499,1517.85 L 558.071,1517.72 L 787.021,1517.85 L 792.053,1518.92 L 796.752,1521.01 L 800.914,1524.04 L 804.356,1527.86 L 806.928,1532.31 L 808.517,1537.21 L 809.055,1542.32 L 809.055,1768.7 L 808.517,1773.82 L 806.928,1778.71 L 804.356,1783.16 L 800.914,1786.99 L 796.752,1790.01 L 792.053,1792.1 L 787.021,1793.17 L 784.449,1793.31 L 555.499,1793.17 L 550.467,1792.1 L 545.768,1790.01 L 541.606,1786.99 L 538.164,1783.16 L 535.592,1778.71 L 534.002,1773.82 L 533.465,1768.7 L 533.465,1753.94 L 515.178,1753.94 L 454.724,1814.39 L 454.724,2205.29 L 554.548,2305.12 L 945.45,2305.12 L 1625.28,1625.28 L 1640.2,1613.04 L 1657.21,1603.95 L 1675.68,1598.35 L 1694.88,1596.46 L 1872.05,1596.46 L 1872.05,1557.09 L 2147.64,1557.09 L 2147.64,1596.46 L 2205.29,1596.46 L 2226.38,1575.37 L 2226.38,672.658 L 2205.29,651.574 L 1853.76,651.574 L 1819.6,685.738 L 1804.68,697.978 L 1787.66,707.074 L 1769.2,712.675 L 1750,714.566 L 801.181,714.566 L 801.181,729.331 L 800.643,734.447 L 799.054,739.339 L 796.482,743.794 L 793.04,747.617 L 788.878,750.64 L 784.179,752.733 L 779.147,753.802 L 547.625,753.802 L 542.593,752.733 L 537.894,750.64 L 533.732,747.617 L 530.29,743.794 L 527.718,739.339 L 526.128,734.447 L 525.591,729.331 L 525.591,502.953 L 526.128,497.837 L 527.718,492.945 L 530.29,488.49 L 533.732,484.667 L 537.894,481.643 L 542.593,479.551 L 547.625,478.481 L 550.197,478.346 L 779.147,478.481 L 784.179,479.551 L 788.878,481.643 L 793.04,484.667 L 796.482,488.49 L 799.054,492.945 L 800.643,497.837 L 801.181,502.953 L 801.181,517.715 L 1709.23,517.715 L 1743.39,483.551 L 1758.31,471.311 L 1775.32,462.216 L 1793.79,456.615 L 1812.99,454.723 L 2246.06,454.723 L 2261.46,455.935 L 2276.48,459.541 L 2290.75,465.451 L 2303.92,473.521 L 2315.66,483.551 L 2394.4,562.291 L 2406.64,577.206 L 2415.74,594.223 L 2421.34,612.687 L 2423.23,631.889 L 2423.23,1616.14 L 2421.34,1635.34 L 2415.74,1653.81 L 2406.64,1670.82 L 2394.4,1685.74 L 2315.66,1764.48 L 2303.92,1774.51 L 2290.75,1782.58 L 2276.48,1788.49 L 2261.46,1792.09 L 2246.06,1793.31 L 2147.64,1793.31 L 2147.64,1832.68 L 1872.05,1832.68 L 1872.05,1793.31 L 1735.65,1793.31 L 1055.82,2473.14 L 1040.9,2485.38 L 1023.88,2494.48 L 1005.42,2500.08 L 986.219,2501.97 L 513.779,2501.97 L 494.577,2500.08 L 476.113,2494.48 L 459.096,2485.38 L 444.181,2473.14 L 286.701,2315.66 L 276.671,2303.92 L 268.601,2290.75 L 262.691,2276.48 L 259.085,2261.46 L 257.873,2246.06 z " style="fill-opacity:1.000000;fill:rgb(167,241,217);stroke:rgb(0,0,0);stroke-width:2"/></g>
<g fill-rule="evenodd"><path d="M 525.591,1009.84 L 528.602,981.193 L 537.504,953.796 L 551.907,928.848 L 571.183,907.441 L 594.488,890.508 L 620.805,878.791 L 648.982,872.802 L 677.789,872.802 L 705.967,878.791 L 732.283,890.508 L 755.589,907.441 L 759.168,911.415 L 1394.27,911.415 L 1467.8,837.881 L 1482.72,825.641 L 1499.73,816.546 L 1518.2,810.945 L 1537.4,809.053 L 1914.06,809.053 L 1917.64,805.078 L 1940.94,788.146 L 1967.26,776.429 L 1995.44,770.44 L 2024.25,770.44 L 2052.42,776.429 L 2078.74,788.146 L 2102.05,805.078 L 2121.32,826.486 L 2135.72,851.434 L 2144.63,878.831 L 2147.64,907.48 L 2144.63,936.13 L 2135.72,963.527 L 2121.32,988.474 L 2102.05,1009.88 L 2078.74,1026.81 L 2052.42,1038.53 L 2024.25,1044.52 L 1995.44,1044.52 L 1967.26,1038.53 L 1940.94,1026.81 L 1917.64,1009.88 L 1914.06,1005.9 L 1578.17,1005.9 L 1504.64,1079.44 L 1489.72,1091.68 L 1472.7,1100.77 L 1454.24,1106.37 L 1435.04,1108.27 L 759.171,1108.27 L 755.589,1112.24 L 732.283,1129.18 L 705.967,1140.89 L 677.789,1146.88 L 648.982,1146.88 L 620.805,1140.89 L 594.488,1129.18 L 571.183,1112.24 L 551.907,1090.84 L 537.504,1065.89 L 528.602,1038.49 L 525.591,1009.84 z " style="fill-opacity:1.000000;fill:rgb(42,130,200);stroke:rgb(0,0,0);stroke-width:2"/></g>
<g fill-rule="evenodd"><path d="M 533.465,2049.21 L 536.476,2020.56 L 545.378,1993.17 L 559.781,1968.22 L 579.057,1946.81 L 602.362,1929.88 L 628.679,1918.16 L 656.856,1912.17 L 685.663,1912.17 L 713.841,1918.16 L 740.157,1929.88 L 763.463,1946.81 L 767.043,1950.79 L 827.34,1950.79 L 1546.54,1231.58 L 1561.46,1219.34 L 1578.47,1210.25 L 1596.94,1204.65 L 1616.14,1202.76 L 1914.06,1202.76 L 1917.64,1198.78 L 1940.94,1181.85 L 1967.26,1170.13 L 1995.44,1164.14 L 2024.25,1164.14 L 2052.42,1170.13 L 2078.74,1181.85 L 2102.05,1198.78 L 2121.32,1220.19 L 2135.72,1245.13 L 2144.63,1272.53 L 2147.64,1301.18 L 2144.63,1329.83 L 2135.72,1357.23 L 2121.32,1382.18 L 2102.05,1403.58 L 2078.74,1420.52 L 2052.42,1432.23 L 2024.25,1438.22 L 1995.44,1438.22 L 1967.26,1432.23 L 1940.94,1420.52 L 1917.64,1403.58 L 1914.06,1399.61 L 1656.91,1399.61 L 937.706,2118.81 L 922.791,2131.05 L 905.774,2140.15 L 887.31,2145.75 L 868.109,2147.64 L 767.043,2147.64 L 763.463,2151.61 L 740.157,2168.55 L 713.841,2180.26 L 685.663,2186.25 L 656.856,2186.25 L 628.679,2180.26 L 602.362,2168.55 L 579.057,2151.61 L 559.781,2130.21 L 545.378,2105.26 L 536.476,2077.86 L 533.465,2049.21 z " style="fill-opacity:1.000000;fill:rgb(216,254,67);stroke:rgb(0,0,0);stroke-width:2"/></g>
</svg>
