<?xml version="1.0" standalone="no"?>
<!DOCTYPE svg PUBLIC "-//W3C//DTD SVG 1.1//EN"
"http://www.w3.org/Graphics/SVG/1.1/DTD/svg11.dtd">
<svg width="124.913" height="128.693" viewBox="0 0 2602.36 2681.1" version="1.1"
xmlns="http://www.w3.org/2000/svg"
xmlns:xlink="http://www.w3.org/1999/xlink">
<g fill-rule="evenodd"><path d="M -7.81597e-14,1206.27 L 6.82459,1208.02 L 33.2701,1214.37 L 60.0831,1221.01 L 102.381,1231.8 L 128.1,1238.14 L 206.848,1256.81 L 223.519,1260.9 L 244.971,1266.35 L 247.027,1266.87 L 311.978,1283.51 L 330.564,1288.02 L 332.433,1288.45 L 365.973,1297.02 L 381.441,1301.39 L 398.414,1305.93 L 402.37,1306.92 L 428.536,1308.55 L 452.071,1310.51 L 457.979,1311.13 L 461.953,1311.57 L 507.468,1316.71 L 510.84,1317.07 L 512.85,1317.28 L 540.569,1321.13 L 545.138,1321.92 L 547.741,1322.36 L 558.186,1324.1 L 581.191,1327.23 L 609.995,1330.26 L 648.981,1332.33 L 677.789,1332.33 L 716.778,1330.3 L 745.588,1327.28 L 786.087,1320.86 L 787.138,1320.63 L 815.312,1315.67 L 822.799,1314.62 L 830.103,1315.32 L 835.245,1315.86 L 879.316,1322.86 L 884.461,1323.96 L 930.865,1336.43 L 936.01,1338.1 L 986.003,1357.35 L 991.146,1359.64 L 1024.25,1375.68 L 1021.27,1402.65 L 1020.42,1409.08 L 1009.92,1466.34 L 1008.52,1472.2 L 995.15,1517.58 L 993.248,1522.95 L 985.819,1542.32 L 892.051,1768.7 L 888.341,1777.04 L 885.991,1781.96 L 878.142,1796.45 L 875.378,1800.96 L 866.882,1813.33 L 863.724,1817.45 L 854.477,1828.28 L 850.935,1832.01 L 840.674,1841.75 L 836.75,1845.1 L 825.23,1853.93 L 820.918,1856.89 L 807.545,1865.08 L 802.832,1867.64 L 794.619,1871.8 L 794.602,1871.8 L 791.126,1870.81 L 788.506,1870.03 L 784.533,1868.8 L 784.404,1868.76 L 769.186,1864.67 L 740.383,1858.54 L 726.968,1856.41 L 698.162,1853.37 L 685.663,1852.71 L 656.855,1852.7 L 644.351,1853.35 L 615.543,1856.37 L 602.12,1858.5 L 573.309,1864.62 L 557.937,1868.74 L 555.453,1869.55 L 538.318,1874.12 L 537.723,1874.25 L 533.026,1883.47 L 526.051,1899.08 L 514.993,1927.89 L 511.023,1940.07 L 503.304,1968.87 L 501.187,1978.81 L 496.624,2007.61 L 495.711,2016.28 L 494.201,2045.08 L 494.201,2053.34 L 495.711,2082.15 L 496.624,2090.81 L 501.187,2119.62 L 503.304,2129.55 L 511.023,2158.36 L 514.993,2170.54 L 518.236,2178.98 L 532.255,2193.76 L 541.83,2202.84 L 563.802,2221.61 L 574.938,2230.15 L 583.237,2235.85 L 602.143,2239.87 L 615.554,2242 L 644.359,2245.03 L 656.855,2245.68 L 685.663,2245.68 L 698.157,2245.03 L 726.965,2242 L 740.378,2239.87 L 769.184,2233.75 L 784.533,2229.62 L 794.52,2226.38 L 868.109,2226.38 L 875.849,2226.19 L 895.142,2225.24 L 910.945,2223.68 L 911.671,2223.57 L 928.09,2213.73 L 940.63,2205.36 L 956.298,2193.74 L 967.022,2184.94 L 981.335,2171.97 L 986.218,2167.32 L 1576.77,1576.77 L 1581.65,1572.12 L 1595.97,1559.15 L 1606.69,1550.35 L 1622.36,1538.73 L 1634.9,1530.36 L 1651.96,1520.14 L 1667.17,1512.02 L 1685.7,1503.26 L 1694.88,1499.19 L 1697.68,1498.03 L 1793.31,1498.03 L 1812.99,1489.42 L 1832.68,1483.27 L 1852.36,1479.58 L 1872.05,1478.35 L 1886.58,1478.35 L 1896.57,1481.59 L 1911.92,1485.72 L 1940.72,1491.84 L 1954.14,1493.97 L 1982.94,1497 L 1995.44,1497.65 L 2024.24,1497.65 L 2036.74,1497 L 2065.55,1493.97 L 2078.96,1491.84 L 2107.77,1485.72 L 2123.11,1481.59 L 2144.07,1474.78 L 2148.07,1466.93 L 2155.05,1451.31 L 2166.11,1422.5 L 2170.08,1410.32 L 2177.8,1381.52 L 2179.91,1371.58 L 2184.48,1342.78 L 2185.39,1334.11 L 2186.9,1305.31 L 2186.9,1297.06 L 2185.39,1268.25 L 2184.48,1259.58 L 2179.91,1230.78 L 2177.8,1220.84 L 2170.08,1192.04 L 2166.11,1179.86 L 2155.05,1151.05 L 2148.07,1135.43 L 2133.39,1106.62 L 2132.21,1104.33 L 2133.39,1102.04 L 2148.07,1073.23 L 2155.05,1057.61 L 2166.11,1028.8 L 2170.08,1016.62 L 2177.8,987.819 L 2179.91,977.884 L 2184.48,949.076 L 2185.39,940.411 L 2186.9,911.603 L 2186.9,903.353 L 2185.39,874.548 L 2184.48,865.883 L 2179.91,837.075 L 2177.8,827.142 L 2170.08,798.334 L 2166.11,786.157 L 2155.05,757.35 L 2148.07,741.725 L 2144.07,733.877 L 2123.11,727.067 L 2107.77,722.943 L 2078.96,716.821 L 2065.55,714.69 L 2036.74,711.662 L 2024.24,711.006 L 1995.44,711.006 L 1982.94,711.662 L 1954.14,714.69 L 1940.72,716.821 L 1911.92,722.943 L 1896.57,727.067 L 1886.58,730.313 L 1886.37,730.313 L 1870.67,736.816 L 1863.72,739.5 L 1844.43,746.404 L 1832.5,750.03 L 1813.21,754.863 L 1802.79,756.941 L 1783.49,759.803 L 1773.94,760.746 L 1754.64,761.694 L 1750,761.809 L 1537.4,761.809 L 1532.76,761.923 L 1513.46,762.871 L 1503.9,763.815 L 1484.61,766.676 L 1474.19,768.754 L 1454.89,773.587 L 1442.97,777.213 L 1423.68,784.117 L 1416.72,786.801 L 1353.5,812.99 L 866.62,812.99 L 865.982,813.274 L 846.233,820.878 L 841.09,822.548 L 823.072,827.39 L 817.926,828.484 L 800.837,831.199 L 795.695,831.739 L 786.725,832.425 L 779.147,830.164 L 776.704,829.371 L 761.339,825.241 L 732.533,819.119 L 719.105,816.986 L 690.297,813.958 L 677.789,813.301 L 648.981,813.301 L 636.471,813.958 L 607.665,816.986 L 594.24,819.118 L 565.432,825.241 L 550.062,829.372 L 547.625,830.164 L 530.444,834.75 L 524.936,835.922 L 519.935,836.915 L 503.754,839.906 L 497.574,841.133 L 497.553,841.138 L 468.939,845.603 L 462.057,846.327 L 460.452,846.492 L 419.296,850.62 L 416.851,850.871 L 410.597,851.528 L 365.649,854.573 L 336.726,855.567 L 325.675,856.009 L 247.522,859.576 L 160.555,861.609 L 151.42,861.643 L 134.419,861.759 L -8.52651e-14,863.107 L -8.52651e-14,-3.12639e-13 L 2602.36,-3.12639e-13 L 2602.36,2681.1 L -8.52651e-14,2681.1 L -7.81597e-14,1206.27 z " style="fill-opacity:0.200000;fill:rgb(167,241,217);"/></g>
<g fill-rule="evenodd"><path d="M -1.13687e-13,863.107 L 134.419,861.759 L 151.42,861.643 L 160.555,861.609 L 247.522,859.576 L 325.675,856.009 L 336.726,855.567 L 365.649,854.573 L 410.597,851.528 L 416.851,850.871 L 419.296,850.62 L 460.452,846.492 L 462.057,846.327 L 468.939,845.603 L 497.553,841.138 L 497.574,841.133 L 503.754,839.906 L 519.935,836.915 L 524.936,835.922 L 530.444,834.75 L 547.625,830.164 L 550.062,829.372 L 565.432,825.241 L 594.24,819.118 L 607.665,816.986 L 636.471,813.958 L 648.981,813.301 L 677.789,813.301 L 690.297,813.958 L 719.105,816.986 L 732.533,819.119 L 761.339,825.241 L 776.704,829.371 L 779.147,830.164 L 786.725,832.425 L 795.695,831.739 L 800.837,831.199 L 817.926,828.484 L 823.072,827.39 L 841.09,822.548 L 846.233,820.878 L 865.982,813.274 L 866.62,812.99 L 1353.5,812.99 L 1416.72,786.801 L 1423.68,784.117 L 1442.97,777.213 L 1454.89,773.587 L 1474.19,768.754 L 1484.61,766.676 L 1503.9,763.815 L 1513.46,762.871 L 1532.76,761.923 L 1537.4,761.809 L 1750,761.809 L 1754.64,761.694 L 1773.94,760.746 L 1783.49,759.803 L 1802.79,756.941 L 1813.21,754.863 L 1832.5,750.03 L 1844.43,746.404 L 1863.72,739.5 L 1870.67,736.816 L 1886.37,730.313 L 1886.58,730.313 L 1896.57,727.067 L 1911.92,722.943 L 1940.72,716.821 L 1954.14,714.69 L 1982.94,711.662 L 1995.44,711.006 L 2024.24,711.006 L 2036.74,711.662 L 2065.55,714.69 L 2078.96,716.821 L 2107.77,722.943 L 2123.11,727.067 L 2144.07,733.877 L 2148.07,741.725 L 2155.05,757.35 L 2166.11,786.157 L 2170.08,798.334 L 2177.8,827.142 L 2179.91,837.075 L 2184.48,865.883 L 2185.39,874.548 L 2186.9,903.353 L 2186.9,911.603 L 2185.39,940.411 L 2184.48,949.076 L 2179.91,977.884 L 2177.8,987.819 L 2170.08,1016.62 L 2166.11,1028.8 L 2155.05,1057.61 L 2148.07,1073.23 L 2133.39,1102.04 L 2132.21,1104.33 L 2113.26,1104.33 L 2081.72,1104.33 L 2066.41,1104.33 L 2066.41,1104.33 L 2036.96,1104.33 L 2036.95,1104.33 L 2024.24,1104.33 L 1995.44,1104.33 L 1982.73,1104.33 L 1982.72,1104.33 L 1953.28,1104.33 L 1953.27,1104.33 L 1937.96,1104.33 L 1906.43,1104.33 L 1884.63,1104.33 L 1880.19,1104.33 L 1880.18,1104.33 L 1618.94,1104.33 L 1616.14,1105.49 L 1606.96,1109.56 L 1588.43,1118.32 L 1573.22,1126.44 L 1559.72,1134.52 L 1556.14,1136.61 L 1553.01,1138.38 L 1543.26,1144.37 L 1536.61,1148.81 L 1526.93,1154.75 L 1524.24,1156.27 L 1514.57,1162.21 L 1507.91,1166.65 L 1498.17,1172.64 L 1495.04,1174.41 L 1491.46,1176.5 L 1477.96,1184.58 L 1462.75,1192.7 L 1444.22,1201.46 L 1435.04,1205.53 L 1024.25,1375.68 L 991.146,1359.64 L 986.003,1357.35 L 936.01,1338.1 L 930.865,1336.43 L 884.461,1323.96 L 879.316,1322.86 L 835.245,1315.86 L 830.103,1315.32 L 822.799,1314.62 L 815.312,1315.67 L 787.138,1320.63 L 786.087,1320.86 L 745.588,1327.28 L 716.778,1330.3 L 677.789,1332.33 L 648.981,1332.33 L 609.995,1330.26 L 581.191,1327.23 L 558.186,1324.1 L 547.741,1322.36 L 545.138,1321.92 L 540.569,1321.13 L 512.85,1317.28 L 510.84,1317.07 L 507.468,1316.71 L 461.953,1311.57 L 457.979,1311.13 L 452.071,1310.51 L 428.536,1308.55 L 402.37,1306.92 L 398.414,1305.93 L 381.441,1301.39 L 365.973,1297.02 L 332.433,1288.45 L 330.564,1288.02 L 311.978,1283.51 L 247.027,1266.87 L 244.971,1266.35 L 223.519,1260.9 L 206.848,1256.81 L 128.1,1238.14 L 102.381,1231.8 L 60.0831,1221.01 L 33.2701,1214.37 L 6.82459,1208.02 L -8.52651e-14,1206.27 L -1.13687e-13,863.107 z " style="fill-opacity:0.200000;fill:rgb(42,130,200);"/></g>
<g fill-rule="evenodd"><path d="M 494.201,2045.08 L 495.711,2016.28 L 496.624,2007.61 L 501.187,1978.81 L 503.304,1968.87 L 511.023,1940.07 L 514.993,1927.89 L 526.051,1899.08 L 533.026,1883.47 L 537.723,1874.25 L 538.318,1874.12 L 555.453,1869.55 L 557.937,1868.74 L 573.309,1864.62 L 602.12,1858.5 L 615.543,1856.37 L 644.351,1853.35 L 656.855,1852.7 L 685.663,1852.71 L 698.162,1853.37 L 726.968,1856.41 L 740.383,1858.54 L 769.186,1864.67 L 784.404,1868.76 L 784.533,1868.8 L 788.506,1870.03 L 791.126,1870.81 L 794.602,1871.8 L 794.619,1871.8 L 802.832,1867.64 L 807.545,1865.08 L 820.918,1856.89 L 825.23,1853.93 L 836.75,1845.1 L 840.674,1841.75 L 850.935,1832.01 L 854.477,1828.28 L 863.724,1817.45 L 866.882,1813.33 L 875.378,1800.96 L 878.142,1796.45 L 885.991,1781.96 L 888.341,1777.04 L 892.051,1768.7 L 985.819,1542.32 L 993.248,1522.95 L 995.15,1517.58 L 1008.52,1472.2 L 1009.92,1466.34 L 1020.42,1409.08 L 1021.27,1402.65 L 1024.25,1375.68 L 1435.04,1205.53 L 1444.22,1201.46 L 1462.75,1192.7 L 1477.96,1184.58 L 1491.46,1176.5 L 1495.04,1174.41 L 1498.17,1172.64 L 1507.91,1166.65 L 1514.57,1162.21 L 1524.24,1156.27 L 1526.93,1154.75 L 1536.61,1148.81 L 1543.26,1144.37 L 1553.01,1138.38 L 1556.14,1136.61 L 1559.72,1134.52 L 1573.22,1126.44 L 1588.43,1118.32 L 1606.96,1109.56 L 1616.14,1105.49 L 1618.94,1104.33 L 1880.18,1104.33 L 1880.19,1104.33 L 1884.63,1104.33 L 1906.43,1104.33 L 1937.96,1104.33 L 1953.27,1104.33 L 1953.28,1104.33 L 1982.72,1104.33 L 1982.73,1104.33 L 1995.44,1104.33 L 2024.24,1104.33 L 2036.95,1104.33 L 2036.96,1104.33 L 2066.41,1104.33 L 2066.41,1104.33 L 2081.72,1104.33 L 2113.26,1104.33 L 2132.21,1104.33 L 2133.39,1106.62 L 2148.07,1135.43 L 2155.05,1151.05 L 2166.11,1179.86 L 2170.08,1192.04 L 2177.8,1220.84 L 2179.91,1230.78 L 2184.48,1259.58 L 2185.39,1268.25 L 2186.9,1297.06 L 2186.9,1305.31 L 2185.39,1334.11 L 2184.48,1342.78 L 2179.91,1371.58 L 2177.8,1381.52 L 2170.08,1410.32 L 2166.11,1422.5 L 2155.05,1451.31 L 2148.07,1466.93 L 2144.07,1474.78 L 2123.11,1481.59 L 2107.77,1485.72 L 2078.96,1491.84 L 2065.55,1493.97 L 2036.74,1497 L 2024.24,1497.65 L 1995.44,1497.65 L 1982.94,1497 L 1954.14,1493.97 L 1940.72,1491.84 L 1911.92,1485.72 L 1896.57,1481.59 L 1886.58,1478.35 L 1872.05,1478.35 L 1852.36,1479.58 L 1832.68,1483.27 L 1812.99,1489.42 L 1793.31,1498.03 L 1697.68,1498.03 L 1694.88,1499.19 L 1685.7,1503.26 L 1667.17,1512.02 L 1651.96,1520.14 L 1634.9,1530.36 L 1622.36,1538.73 L 1606.69,1550.35 L 1595.97,1559.15 L 1581.65,1572.12 L 1576.77,1576.77 L 986.218,2167.32 L 981.335,2171.97 L 967.022,2184.94 L 956.298,2193.74 L 940.63,2205.36 L 928.09,2213.73 L 911.671,2223.57 L 910.945,2223.68 L 895.142,2225.24 L 875.849,2226.19 L 868.109,2226.38 L 794.52,2226.38 L 784.533,2229.62 L 769.184,2233.75 L 740.378,2239.87 L 726.965,2242 L 698.157,2245.03 L 685.663,2245.68 L 656.855,2245.68 L 644.359,2245.03 L 615.554,2242 L 602.143,2239.87 L 583.237,2235.85 L 574.938,2230.15 L 563.802,2221.61 L 541.83,2202.84 L 532.255,2193.76 L 518.236,2178.98 L 514.993,2170.54 L 511.023,2158.36 L 503.304,2129.55 L 501.187,2119.62 L 496.624,2090.81 L 495.711,2082.15 L 494.201,2053.34 L 494.201,2045.08 z " style="fill-opacity:0.200000;fill:rgb(216,254,67);"/></g>
<polyline points="517.715,1009.84 520.899,1040.13 530.015,1068.32 546.055,1096.1 565.913,1118.09 590.551,1135.99 618.371,1148.38 648.159,1154.71 678.611,1154.71 708.399,1148.38 736.219,1135.99 760.217,1118.61 762.677,1116.14 1435.81,1116.1 1455.01,1114.21 1474.99,1108.31 1494.09,1098.22 1510.2,1085 1581.43,1013.78 1910.55,1013.78 1913.01,1016.25 1937.01,1033.63 1965.62,1046.23 1994.61,1052.35 2024.24,1052.39 2054.86,1046.02 2083.37,1033.18 2107.31,1015.73 2127.69,993.101 2142.92,966.729 2152.11,938.563 2155.47,906.657 2152.33,877.193 2142.92,848.231 2127.69,821.857 2107.31,799.227 2082.68,781.327 2054.86,768.941 2025.07,762.609 1994.61,762.609 1964.83,768.941 1937.74,780.953 1913.01,798.707 1910.55,801.179 1537.4,801.179 1516.66,803.221 1496.02,809.601 1477.72,819.553 1462.23,832.313 1391.01,903.541 762.673,903.541 760.217,901.069 736.219,883.689 708.399,871.303 678.611,864.971 647.345,865.099 618.371,871.303 590.551,883.689 565.913,901.589 546.055,923.579 530.015,951.363 520.899,979.555 517.715,1009.84" style="stroke:rgb(167,241,217);stroke-width:15.748031;fill:none;stroke-opacity:0.5;stroke-linecap:round;stroke-linejoin:round;;fill:none"/>
<polyline points="517.715,1009.84 520.899,1040.13 530.015,1068.32 546.055,1096.1 565.913,1118.09 590.551,1135.99 618.371,1148.38 648.159,1154.71 678.611,1154.71 708.399,1148.38 736.219,1135.99 760.217,1118.61 762.677,1116.14 1435.81,1116.1 1455.01,1114.21 1474.99,1108.31 1494.09,1098.22 1510.2,1085 1581.43,1013.78 1910.55,1013.78 1913.01,1016.25 1937.01,1033.63 1965.62,1046.23 1994.61,1052.35 2024.24,1052.39 2054.86,1046.02 2083.37,1033.18 2107.31,1015.73 2127.69,993.101 2142.92,966.729 2152.11,938.563 2155.47,906.657 2152.33,877.193 2142.92,848.231 2127.69,821.857 2107.31,799.227 2082.68,781.327 2054.86,768.941 2025.07,762.609 1994.61,762.609 1964.83,768.941 1937.74,780.953 1913.01,798.707 1910.55,801.179 1537.4,801.179 1516.66,803.221 1496.02,809.601 1477.72,819.553 1462.23,832.313 1391.01,903.541 762.673,903.541 760.217,901.069 736.219,883.689 708.399,871.303 678.611,864.971 647.345,865.099 618.371,871.303 590.551,883.689 565.913,901.589 546.055,923.579 530.015,951.363 520.899,979.555 517.715,1009.84" style="stroke:rgb(0,0,0);stroke-width:1px;fill:none;stroke-opacity:1;stroke-linecap:round;stroke-linejoin:round;;fill:none"/>
<polyline points="525.589,2049.21 528.773,2079.5 537.889,2107.69 553.411,2134.83 573.787,2157.46 597.733,2174.92 627.041,2187.96 656.033,2194.08 686.485,2194.08 716.273,2187.75 743.359,2175.74 768.091,2157.98 770.549,2155.51 868.879,2155.47 888.845,2153.47 909.485,2147.09 927.785,2137.13 943.273,2124.38 1660.17,1407.48 1910.55,1407.48 1913.01,1409.95 1937.01,1427.33 1965.62,1439.93 1994.61,1446.05 2024.24,1446.09 2054.86,1439.72 2082.68,1427.33 2107.31,1409.43 2127.69,1386.8 2142.92,1360.43 2152.33,1331.47 2155.51,1301.18 2152.33,1270.89 2142.92,1241.93 2127.69,1215.56 2106.67,1192.41 2082.68,1175.03 2055.62,1162.94 2025.07,1156.31 1994.61,1156.31 1964.83,1162.64 1937.01,1175.03 1913.01,1192.41 1910.55,1194.88 1616.14,1194.88 1594.65,1197.11 1574.76,1203.3 1557.08,1212.79 1540.97,1226.01 824.077,1942.91 770.549,1942.91 768.091,1940.44 743.359,1922.68 716.273,1910.67 687.299,1904.47 656.033,1904.34 626.245,1910.67 598.425,1923.06 574.427,1940.44 553.411,1963.59 538.183,1989.96 528.987,2018.13 525.589,2049.21" style="stroke:rgb(167,241,217);stroke-width:15.748031;fill:none;stroke-opacity:0.5;stroke-linecap:round;stroke-linejoin:round;;fill:none"/>
<polyline points="525.589,2049.21 528.773,2079.5 537.889,2107.69 553.411,2134.83 573.787,2157.46 597.733,2174.92 627.041,2187.96 656.033,2194.08 686.485,2194.08 716.273,2187.75 743.359,2175.74 768.091,2157.98 770.549,2155.51 868.879,2155.47 888.845,2153.47 909.485,2147.09 927.785,2137.13 943.273,2124.38 1660.17,1407.48 1910.55,1407.48 1913.01,1409.95 1937.01,1427.33 1965.62,1439.93 1994.61,1446.05 2024.24,1446.09 2054.86,1439.72 2082.68,1427.33 2107.31,1409.43 2127.69,1386.8 2142.92,1360.43 2152.33,1331.47 2155.51,1301.18 2152.33,1270.89 2142.92,1241.93 2127.69,1215.56 2106.67,1192.41 2082.68,1175.03 2055.62,1162.94 2025.07,1156.31 1994.61,1156.31 1964.83,1162.64 1937.01,1175.03 1913.01,1192.41 1910.55,1194.88 1616.14,1194.88 1594.65,1197.11 1574.76,1203.3 1557.08,1212.79 1540.97,1226.01 824.077,1942.91 770.549,1942.91 768.091,1940.44 743.359,1922.68 716.273,1910.67 687.299,1904.47 656.033,1904.34 626.245,1910.67 598.425,1923.06 574.427,1940.44 553.411,1963.59 538.183,1989.96 528.987,2018.13 525.589,2049.21" style="stroke:rgb(0,0,0);stroke-width:1px;fill:none;stroke-opacity:1;stroke-linecap:round;stroke-linejoin:round;;fill:none"/>
<polyline points="249.999,2246.06 249.999,1773.62 251.927,1753.65 257.831,1733.67 267.913,1714.56 281.133,1698.45 399.243,1580.34 411.441,1569.89 426.711,1560.54 440.979,1554.63 457.173,1550.64 474.409,1549.21 525.589,1549.21 525.589,1542.32 526.299,1535.57 528.399,1529.11 531.345,1523.92 536.977,1517.67 541.831,1514.19 548.033,1511.43 553.861,1510.15 558.075,1509.84 787.845,1510.02 794.485,1511.43 799.953,1513.82 806.765,1518.77 810.725,1523.23 814.121,1529.11 816.219,1535.57 816.929,1542.32 816.929,1768.7 816.219,1775.45 814.121,1781.91 810.725,1787.79 805.541,1793.36 800.689,1796.83 794.485,1799.59 788.657,1800.87 784.861,1801.17 554.671,1801 548.033,1799.59 542.563,1797.2 535.753,1792.25 531.793,1787.79 528.103,1781.14 526.171,1774.64 525.589,1768.7 525.589,1761.81 518.439,1761.81 462.597,1817.65 462.597,2202.03 557.809,2297.24 942.187,2297.24 1619.71,1619.71 1635.82,1606.49 1654.2,1596.67 1674.91,1590.51 1694.88,1588.58 1864.17,1588.58 1864.32,1555.55 1865.5,1552.71 1867.67,1550.54 1869.03,1549.81 1872.05,1549.21 2149.17,1549.36 2150.65,1549.81 2153.2,1551.52 2154.18,1552.71 2155.36,1555.55 2155.51,1588.58 2202.03,1588.58 2218.5,1572.11 2218.5,675.919 2202.03,659.447 1857.02,659.447 1825.16,691.305 1808.39,704.921 1791.37,714.017 1771.48,720.209 1750.77,722.401 809.055,722.439 809.055,729.331 808.345,736.083 806.247,742.541 802.851,748.421 798.307,753.467 792.815,757.459 786.611,760.221 779.969,761.633 546.799,761.633 540.159,760.221 534.691,757.833 527.879,752.885 523.919,748.421 520.525,742.541 518.425,736.083 517.759,730.153 517.715,502.953 518.425,496.199 520.525,489.741 523.919,483.861 529.103,478.295 533.957,474.823 540.159,472.061 545.987,470.779 549.783,470.483 779.971,470.651 786.611,472.061 792.815,474.823 798.307,478.815 802.851,483.861 806.247,489.741 808.345,496.199 809.055,502.953 809.055,509.841 1705.97,509.841 1737.82,477.983 1753.93,464.763 1773.04,454.681 1793.02,448.777 1812.99,446.849 2246.68,446.873 2263.3,448.279 2279.49,452.265 2294.86,458.737 2309.03,467.533 2321.23,477.983 2399.97,556.721 2412.73,572.211 2423.27,591.937 2429.06,611.151 2431.1,631.889 2431.06,1616.91 2429.17,1636.11 2423.27,1656.09 2412.73,1675.82 2399.97,1691.3 2321.23,1770.04 2309.03,1780.49 2294.86,1789.29 2279.49,1795.76 2262.08,1799.94 2246.06,1801.18 2155.51,1801.18 2155.36,1834.21 2154.18,1837.05 2153.2,1838.24 2150.65,1839.95 2147.64,1840.55 1872.05,1840.55 1869.03,1839.95 1866.48,1838.24 1865.5,1837.05 1864.32,1834.21 1864.17,1801.18 1738.91,1801.18 1061.38,2478.71 1044.61,2492.32 1026.9,2501.75 1007.7,2507.61 986.219,2509.84 513.779,2509.84 493.041,2507.8 473.827,2502.01 455.385,2492.32 438.613,2478.71 280.713,2320.77 270.683,2309.03 261.887,2294.86 255.415,2279.49 251.429,2263.3 249.999,2246.06" style="stroke:rgb(167,241,217);stroke-width:15.748031;fill:none;stroke-opacity:0.5;stroke-linecap:round;stroke-linejoin:round;;fill:none"/>
<polyline points="249.999,2246.06 249.999,1773.62 251.927,1753.65 257.831,1733.67 267.913,1714.56 281.133,1698.45 399.243,1580.34 411.441,1569.89 426.711,1560.54 440.979,1554.63 457.173,1550.64 474.409,1549.21 525.589,1549.21 525.589,1542.32 526.299,1535.57 528.399,1529.11 531.345,1523.92 536.977,1517.67 541.831,1514.19 548.033,1511.43 553.861,1510.15 558.075,1509.84 787.845,1510.02 794.485,1511.43 799.953,1513.82 806.765,1518.77 810.725,1523.23 814.121,1529.11 816.219,1535.57 816.929,1542.32 816.929,1768.7 816.219,1775.45 814.121,1781.91 810.725,1787.79 805.541,1793.36 800.689,1796.83 794.485,1799.59 788.657,1800.87 784.861,1801.17 554.671,1801 548.033,1799.59 542.563,1797.2 535.753,1792.25 531.793,1787.79 528.103,1781.14 526.171,1774.64 525.589,1768.7 525.589,1761.81 518.439,1761.81 462.597,1817.65 462.597,2202.03 557.809,2297.24 942.187,2297.24 1619.71,1619.71 1635.82,1606.49 1654.2,1596.67 1674.91,1590.51 1694.88,1588.58 1864.17,1588.58 1864.32,1555.55 1865.5,1552.71 1867.67,1550.54 1869.03,1549.81 1872.05,1549.21 2149.17,1549.36 2150.65,1549.81 2153.2,1551.52 2154.18,1552.71 2155.36,1555.55 2155.51,1588.58 2202.03,1588.58 2218.5,1572.11 2218.5,675.919 2202.03,659.447 1857.02,659.447 1825.16,691.305 1808.39,704.921 1791.37,714.017 1771.48,720.209 1750.77,722.401 809.055,722.439 809.055,729.331 808.345,736.083 806.247,742.541 802.851,748.421 798.307,753.467 792.815,757.459 786.611,760.221 779.969,761.633 546.799,761.633 540.159,760.221 534.691,757.833 527.879,752.885 523.919,748.421 520.525,742.541 518.425,736.083 517.759,730.153 517.715,502.953 518.425,496.199 520.525,489.741 523.919,483.861 529.103,478.295 533.957,474.823 540.159,472.061 545.987,470.779 549.783,470.483 779.971,470.651 786.611,472.061 792.815,474.823 798.307,478.815 802.851,483.861 806.247,489.741 808.345,496.199 809.055,502.953 809.055,509.841 1705.97,509.841 1737.82,477.983 1753.93,464.763 1773.04,454.681 1793.02,448.777 1812.99,446.849 2246.68,446.873 2263.3,448.279 2279.49,452.265 2294.86,458.737 2309.03,467.533 2321.23,477.983 2399.97,556.721 2412.73,572.211 2423.27,591.937 2429.06,611.151 2431.1,631.889 2431.06,1616.91 2429.17,1636.11 2423.27,1656.09 2412.73,1675.82 2399.97,1691.3 2321.23,1770.04 2309.03,1780.49 2294.86,1789.29 2279.49,1795.76 2262.08,1799.94 2246.06,1801.18 2155.51,1801.18 2155.36,1834.21 2154.18,1837.05 2153.2,1838.24 2150.65,1839.95 2147.64,1840.55 1872.05,1840.55 1869.03,1839.95 1866.48,1838.24 1865.5,1837.05 1864.32,1834.21 1864.17,1801.18 1738.91,1801.18 1061.38,2478.71 1044.61,2492.32 1026.9,2501.75 1007.7,2507.61 986.219,2509.84 513.779,2509.84 493.041,2507.8 473.827,2502.01 455.385,2492.32 438.613,2478.71 280.713,2320.77 270.683,2309.03 261.887,2294.86 255.415,2279.49 251.429,2263.3 249.999,2246.06" style="stroke:rgb(0,0,0);stroke-width:1px;fill:none;stroke-opacity:1;stroke-linecap:round;stroke-linejoin:round;;fill:none"/>
<g fill-rule="evenodd"><path d="M 257.873,2246.06 L 257.873,1773.62 L 259.765,1754.42 L 265.366,1735.95 L 274.461,1718.94 L 286.701,1704.02 L 404.811,1585.91 L 416.556,1575.88 L 429.724,1567.81 L 443.994,1561.9 L 459.011,1558.3 L 474.409,1557.09 L 533.465,1557.09 L 533.465,1542.32 L 534.002,1537.21 L 535.592,1532.31 L 538.164,1527.86 L 541.606,1524.04 L 545.768,1521.01 L 550.467,1518.92 L 555.499,1517.85 L 558.071,1517.72 L 787.021,1517.85 L 792.053,1518.92 L 796.752,1521.01 L 800.914,1524.04 L 804.356,1527.86 L 806.928,1532.31 L 808.517,1537.21 L 809.055,1542.32 L 809.055,1768.7 L 808.517,1773.82 L 806.928,1778.71 L 804.356,1783.16 L 800.914,1786.99 L 796.752,1790.01 L 792.053,1792.1 L 787.021,1793.17 L 784.449,1793.31 L 555.499,1793.17 L 550.467,1792.1 L 545.768,1790.01 L 541.606,1786.99 L 538.164,1783.16 L 535.592,1778.71 L 534.002,1773.82 L 533.465,1768.7 L 533.465,1753.94 L 515.178,1753.94 L 454.724,1814.39 L 454.724,2205.29 L 554.548,2305.12 L 945.45,2305.12 L 1625.28,1625.28 L 1640.2,1613.04 L 1657.21,1603.95 L 1675.68,1598.35 L 1694.88,1596.46 L 1872.05,1596.46 L 1872.05,1557.09 L 2147.64,1557.09 L 2147.64,1596.46 L 2205.29,1596.46 L 2226.38,1575.37 L 2226.38,672.658 L 2205.29,651.574 L 1853.76,651.574 L 1819.6,685.738 L 1804.68,697.978 L 1787.66,707.074 L 1769.2,712.675 L 1750,714.566 L 801.181,714.566 L 801.181,729.331 L 800.643,734.447 L 799.054,739.339 L 796.482,743.794 L 793.04,747.617 L 788.878,750.64 L 784.179,752.733 L 779.147,753.802 L 547.625,753.802 L 542.593,752.733 L 537.894,750.64 L 533.732,747.617 L 530.29,743.794 L 527.718,739.339 L 526.128,734.447 L 525.591,729.331 L 525.591,502.953 L 526.128,497.837 L 527.718,492.945 L 530.29,488.49 L 533.732,484.667 L 537.894,481.643 L 542.593,479.551 L 547.625,478.481 L 550.197,478.346 L 779.147,478.481 L 784.179,479.551 L 788.878,481.643 L 793.04,484.667 L 796.482,488.49 L 799.054,492.945 L 800.643,497.837 L 801.181,502.953 L 801.181,517.715 L 1709.23,517.715 L 1743.39,483.551 L 1758.31,471.311 L 1775.32,462.216 L 1793.79,456.615 L 1812.99,454.723 L 2246.06,454.723 L 2261.46,455.935 L 2276.48,459.541 L 2290.75,465.451 L 2303.92,473.521 L 2315.66,483.551 L 2394.4,562.291 L 2406.64,577.206 L 2415.74,594.223 L 2421.34,612.687 L 2423.23,631.889 L 2423.23,1616.14 L 2421.34,1635.34 L 2415.74,1653.81 L 2406.64,1670.82 L 2394.4,1685.74 L 2315.66,1764.48 L 2303.92,1774.51 L 2290.75,1782.58 L 2276.48,1788.49 L 2261.46,1792.09 L 2246.06,1793.31 L 2147.64,1793.31 L 2147.64,1832.68 L 1872.05,1832.68 L 1872.05,1793.31 L 1735.65,1793.31 L 1055.82,2473.14 L 1040.9,2485.38 L 1023.88,2494.48 L 1005.42,2500.08 L 986.219,2501.97 L 513.779,2501.97 L 494.577,2500.08 L 476.113,2494.48 L 459.096,2485.38 L 444.181,2473.14 L 286.701,2315.66 L 276.671,2303.92 L 268.601,2290.75 L 262.691,2276.48 L 259.085,2261.46 L 257.873,2246.06 z " style="fill-opacity:1.000000;fill:rgb(167,241,217);stroke:rgb(0,0,0);stroke-width:2"/></g>
<g fill-rule="evenodd"><path d="M 525.591,1009.84 L 528.602,981.193 L 537.504,953.796 L 551.907,928.848 L 571.183,907.441 L 594.488,890.508 L 620.805,878.791 L 648.982,872.802 L 677.789,872.802 L 705.967,878.791 L 732.283,890.508 L 755.589,907.441 L 759.168,911.415 L 1394.27,911.415 L 1467.8,837.881 L 1482.72,825.641 L 1499.73,816.546 L 1518.2,810.945 L 1537.4,809.053 L 1914.06,809.053 L 1917.64,805.078 L 1940.94,788.146 L 1967.26,776.429 L 1995.44,770.44 L 2024.25,770.44 L 2052.42,776.429 L 2078.74,788.146 L 2102.05,805.078 L 2121.32,826.486 L 2135.72,851.434 L 2144.63,878.831 L 2147.64,907.48 L 2144.63,936.13 L 2135.72,963.527 L 2121.32,988.474 L 2102.05,1009.88 L 2078.74,1026.81 L 2052.42,1038.53 L 2024.25,1044.52 L 1995.44,1044.52 L 1967.26,1038.53 L 1940.94,1026.81 L 1917.64,1009.88 L 1914.06,1005.9 L 1578.17,1005.9 L 1504.64,1079.44 L 1489.72,1091.68 L 1472.7,1100.77 L 1454.24,1106.37 L 1435.04,1108.27 L 759.171,1108.27 L 755.589,1112.24 L 732.283,1129.18 L 705.967,1140.89 L 677.789,1146.88 L 648.982,1146.88 L 620.805,1140.89 L 594.488,1129.18 L 571.183,1112.24 L 551.907,1090.84 L 537.504,1065.89 L 528.602,1038.49 L 525.591,1009.84 z " style="fill-opacity:1.000000;fill:rgb(42,130,200);stroke:rgb(0,0,0);stroke-width:2"/></g>
<g fill-rule="evenodd"><path d="M 533.465,2049.21 L 536.476,2020.56 L 545.378,1993.17 L 559.781,1968.22 L 579.057,1946.81 L 602.362,1929.88 L 628.679,1918.16 L 656.856,1912.17 L 685.663,1912.17 L 713.841,1918.16 L 740.157,1929.88 L 763.463,1946.81 L 767.043,1950.79 L 827.34,1950.79 L 1546.54,1231.58 L 1561.46,1219.34 L 1578.47,1210.25 L 1596.94,1204.65 L 1616.14,1202.76 L 1914.06,1202.76 L 1917.64,1198.78 L 1940.94,1181.85 L 1967.26,1170.13 L 1995.44,1164.14 L 2024.25,1164.14 L 2052.42,1170.13 L 2078.74,1181.85 L 2102.05,1198.78 L 2121.32,1220.19 L 2135.72,1245.13 L 2144.63,1272.53 L 2147.64,1301.18 L 2144.63,1329.83 L 2135.72,1357.23 L 2121.32,1382.18 L 2102.05,1403.58 L 2078.74,1420.52 L 2052.42,1432.23 L 2024.25,1438.22 L 1995.44,1438.22 L 1967.26,1432.23 L 1940.94,1420.52 L 1917.64,1403.58 L 1914.06,1399.61 L 1656.91,1399.61 L 937.706,2118.81 L 922.791,2131.05 L 905.774,2140.15 L 887.31,2145.75 L 868.109,2147.64 L 767.043,2147.64 L 763.463,2151.61 L 740.157,2168.55 L 713.841,2180.26 L 685.663,2186.25 L 656.856,2186.25 L 628.679,2180.26 L 602.362,2168.55 L 579.057,2151.61 L 559.781,2130.21 L 545.378,2105.26 L 536.476,2077.86 L 533.465,2049.21 z " style="fill-opacity:1.000000;fill:rgb(216,254,67);stroke:rgb(0,0,0);stroke-width:2"/></g>
</svg>
