<?xml version="1.0" standalone="no"?>
<!DOCTYPE svg PUBLIC "-//W3C//DTD SVG 1.1//EN"
"http://www.w3.org/Graphics/SVG/1.1/DTD/svg11.dtd">
<svg width="124.913" height="128.693" viewBox="0 0 2602.36 2681.1" version="1.1"
xmlns="http://www.w3.org/2000/svg"
xmlns:xlink="http://www.w3.org/1999/xlink">
<polyline points="61.0226,2561.02 62.1566,2572.54 65.5186,2583.62 70.9746,2593.83 78.3186,2602.78 87.2686,2610.12 97.4786,2615.58 108.557,2618.94 120.079,2620.08 2482.28,2620.08 2493.8,2618.94 2504.88,2615.58 2515.09,2610.12 2524.04,2602.78 2531.38,2593.83 2536.84,2583.62 2540.2,2572.54 2541.34,2561.02 2541.34,120.079 2540.2,108.557 2536.84,97.4786 2531.38,87.2686 2524.04,78.3186 2515.09,70.9746 2504.88,65.5186 2493.8,62.1566 2482.28,61.0226 120.079,61.0226 108.557,62.1566 97.4786,65.5186 87.2686,70.9746 78.3186,78.3186 70.9746,87.2686 65.5186,97.4786 62.1566,108.557 61.0226,120.079 61.0226,2561.02" style="stroke:rgb(167,241,217);stroke-width:118.110236;fill:none;stroke-opacity:0.5;stroke-linecap:round;stroke-linejoin:round;;fill:none"/>
<polyline points="61.0226,2561.02 62.1566,2572.54 65.5186,2583.62 70.9746,2593.83 78.3186,2602.78 87.2686,2610.12 97.4786,2615.58 108.557,2618.94 120.079,2620.08 2482.28,2620.08 2493.8,2618.94 2504.88,2615.58 2515.09,2610.12 2524.04,2602.78 2531.38,2593.83 2536.84,2583.62 2540.2,2572.54 2541.34,2561.02 2541.34,120.079 2540.2,108.557 2536.84,97.4786 2531.38,87.2686 2524.04,78.3186 2515.09,70.9746 2504.88,65.5186 2493.8,62.1566 2482.28,61.0226 120.079,61.0226 108.557,62.1566 97.4786,65.5186 87.2686,70.9746 78.3186,78.3186 70.9746,87.2686 65.5186,97.4786 62.1566,108.557 61.0226,120.079 61.0226,2561.02" style="stroke:rgb(0,0,0);stroke-width:1px;fill:none;stroke-opacity:1;stroke-linecap:round;stroke-linejoin:round;;fill:none"/>
</svg>
