<?xml version="1.0" standalone="no"?>
<!DOCTYPE svg PUBLIC "-//W3C//DTD SVG 1.1//EN"
"http://www.w3.org/Graphics/SVG/1.1/DTD/svg11.dtd">
<svg width="124.913" height="128.693" viewBox="0 0 2602.36 2681.1" version="1.1"
xmlns="http://www.w3.org/2000/svg"
xmlns:xlink="http://www.w3.org/1999/xlink">
<polyline points="517.715,1009.84 520.899,1040.13 530.015,1068.32 546.055,1096.1 565.913,1118.09 590.551,1135.99 618.371,1148.38 648.159,1154.71 678.611,1154.71 708.399,1148.38 736.219,1135.99 760.217,1118.61 762.677,1116.14 1435.81,1116.1 1455.01,1114.21 1474.99,1108.31 1494.09,1098.22 1510.2,1085 1581.43,1013.78 1910.55,1013.78 1913.01,1016.25 1937.01,1033.63 1965.62,1046.23 1994.61,1052.35 2024.24,1052.39 2054.86,1046.02 2083.37,1033.18 2107.31,1015.73 2127.69,993.101 2142.92,966.729 2152.11,938.563 2155.47,906.657 2152.33,877.193 2142.92,848.231 2127.69,821.857 2107.31,799.227 2082.68,781.327 2054.86,768.941 2025.07,762.609 1994.61,762.609 1964.83,768.941 1937.74,780.953 1913.01,798.707 1910.55,801.179 1537.4,801.179 1516.66,803.221 1496.02,809.601 1477.72,819.553 1462.23,832.313 1391.01,903.541 762.673,903.541 760.217,901.069 736.219,883.689 708.399,871.303 678.611,864.971 647.345,865.099 618.371,871.303 590.551,883.689 565.913,901.589 546.055,923.579 530.015,951.363 520.899,979.555 517.715,1009.84" style="stroke:rgb(167,241,217);stroke-width:15.748031;fill:none;stroke-opacity:0.5;stroke-linecap:round;stroke-linejoin:round;;fill:none"/>
<polyline points="517.715,1009.84 520.899,1040.13 530.015,1068.32 546.055,1096.1 565.913,1118.09 590.551,1135.99 618.371,1148.38 648.159,1154.71 678.611,1154.71 708.399,1148.38 736.219,1135.99 760.217,1118.61 762.677,1116.14 1435.81,1116.1 1455.01,1114.21 1474.99,1108.31 1494.09,1098.22 1510.2,1085 1581.43,1013.78 1910.55,1013.78 1913.01,1016.25 1937.01,1033.63 1965.62,1046.23 1994.61,1052.35 2024.24,1052.39 2054.86,1046.02 2083.37,1033.18 2107.31,1015.73 2127.69,993.101 2142.92,966.729 2152.11,938.563 2155.47,906.657 2152.33,877.193 2142.92,848.231 2127.69,821.857 2107.31,799.227 2082.68,781.327 2054.86,768.941 2025.07,762.609 1994.61,762.609 1964.83,768.941 1937.74,780.953 1913.01,798.707 1910.55,801.179 1537.4,801.179 1516.66,803.221 1496.02,809.601 1477.72,819.553 1462.23,832.313 1391.01,903.541 762.673,903.541 760.217,901.069 736.219,883.689 708.399,871.303 678.611,864.971 647.345,865.099 618.371,871.303 590.551,883.689 565.913,901.589 546.055,923.579 530.015,951.363 520.899,979.555 517.715,1009.84" style="stroke:rgb(0,0,0);stroke-width:1px;fill:none;stroke-opacity:1;stroke-linecap:round;stroke-linejoin:round;;fill:none"/>
<polyline points="525.589,2049.21 528.773,2079.5 537.889,2107.69 553.411,2134.83 573.787,2157.46 597.733,2174.92 627.041,2187.96 656.033,2194.08 686.485,2194.08 716.273,2187.75 743.359,2175.74 768.091,2157.98 770.549,2155.51 868.879,2155.47 888.845,2153.47 909.485,2147.09 927.785,2137.13 943.273,2124.38 1660.17,1407.48 1910.55,1407.48 1913.01,1409.95 1937.01,1427.33 1965.62,1439.93 1994.61,1446.05 2024.24,1446.09 2054.86,1439.72 2082.68,1427.33 2107.31,1409.43 2127.69,1386.8 2142.92,1360.43 2152.33,1331.47 2155.51,1301.18 2152.33,1270.89 2142.92,1241.93 2127.69,1215.56 2106.67,1192.41 2082.68,1175.03 2055.62,1162.94 2025.07,1156.31 1994.61,1156.31 1964.83,1162.64 1937.01,1175.03 1913.01,1192.41 1910.55,1194.88 1616.14,1194.88 1594.65,1197.11 1574.76,1203.3 1557.08,1212.79 1540.97,1226.01 824.077,1942.91 770.549,1942.91 768.091,1940.44 743.359,1922.68 716.273,1910.67 687.299,1904.47 656.033,1904.34 626.245,1910.67 598.425,1923.06 574.427,1940.44 553.411,1963.59 538.183,1989.96 528.987,2018.13 525.589,2049.21" style="stroke:rgb(167,241,217);stroke-width:15.748031;fill:none;stroke-opacity:0.5;stroke-linecap:round;stroke-linejoin:round;;fill:none"/>
<polyline points="525.589,2049.21 528.773,2079.5 537.889,2107.69 553.411,2134.83 573.787,2157.46 597.733,2174.92 627.041,2187.96 656.033,2194.08 686.485,2194.08 716.273,2187.75 743.359,2175.74 768.091,2157.98 770.549,2155.51 868.879,2155.47 888.845,2153.47 909.485,2147.09 927.785,2137.13 943.273,2124.38 1660.17,1407.48 1910.55,1407.48 1913.01,1409.95 1937.01,1427.33 1965.62,1439.93 1994.61,1446.05 2024.24,1446.09 2054.86,1439.72 2082.68,1427.33 2107.31,1409.43 2127.69,1386.8 2142.92,1360.43 2152.33,1331.47 2155.51,1301.18 2152.33,1270.89 2142.92,1241.93 2127.69,1215.56 2106.67,1192.41 2082.68,1175.03 2055.62,1162.94 2025.07,1156.31 1994.61,1156.31 1964.83,1162.64 1937.01,1175.03 1913.01,1192.41 1910.55,1194.88 1616.14,1194.88 1594.65,1197.11 1574.76,1203.3 1557.08,1212.79 1540.97,1226.01 824.077,1942.91 770.549,1942.91 768.091,1940.44 743.359,1922.68 716.273,1910.67 687.299,1904.47 656.033,1904.34 626.245,1910.67 598.425,1923.06 574.427,1940.44 553.411,1963.59 538.183,1989.96 528.987,2018.13 525.589,2049.21" style="stroke:rgb(0,0,0);stroke-width:1px;fill:none;stroke-opacity:1;stroke-linecap:round;stroke-linejoin:round;;fill:none"/>
<polyline points="249.999,2246.06 249.999,1773.62 251.927,1753.65 257.831,1733.67 267.913,1714.56 281.133,1698.45 399.243,1580.34 411.441,1569.89 426.711,1560.54 440.979,1554.63 457.173,1550.64 474.409,1549.21 525.589,1549.21 525.589,1542.32 526.299,1535.57 528.399,1529.11 531.345,1523.92 536.977,1517.67 541.831,1514.19 548.033,1511.43 553.861,1510.15 558.075,1509.84 787.845,1510.02 794.485,1511.43 799.953,1513.82 806.765,1518.77 810.725,1523.23 814.121,1529.11 816.219,1535.57 816.929,1542.32 816.929,1768.7 816.219,1775.45 814.121,1781.91 810.725,1787.79 805.541,1793.36 800.689,1796.83 794.485,1799.59 788.657,1800.87 784.861,1801.17 554.671,1801 548.033,1799.59 542.563,1797.2 535.753,1792.25 531.793,1787.79 528.103,1781.14 526.171,1774.64 525.589,1768.7 525.589,1761.81 518.439,1761.81 462.597,1817.65 462.597,2202.03 557.809,2297.24 942.187,2297.24 1619.71,1619.71 1635.82,1606.49 1654.2,1596.67 1674.91,1590.51 1694.88,1588.58 1864.17,1588.58 1864.32,1555.55 1865.5,1552.71 1867.67,1550.54 1869.03,1549.81 1872.05,1549.21 2149.17,1549.36 2150.65,1549.81 2153.2,1551.52 2154.18,1552.71 2155.36,1555.55 2155.51,1588.58 2202.03,1588.58 2218.5,1572.11 2218.5,675.919 2202.03,659.447 1857.02,659.447 1825.16,691.305 1808.39,704.921 1791.37,714.017 1771.48,720.209 1750.77,722.401 809.055,722.439 809.055,729.331 808.345,736.083 806.247,742.541 802.851,748.421 798.307,753.467 792.815,757.459 786.611,760.221 779.969,761.633 546.799,761.633 540.159,760.221 534.691,757.833 527.879,752.885 523.919,748.421 520.525,742.541 518.425,736.083 517.759,730.153 517.715,502.953 518.425,496.199 520.525,489.741 523.919,483.861 529.103,478.295 533.957,474.823 540.159,472.061 545.987,470.779 549.783,470.483 779.971,470.651 786.611,472.061 792.815,474.823 798.307,478.815 802.851,483.861 806.247,489.741 808.345,496.199 809.055,502.953 809.055,509.841 1705.97,509.841 1737.82,477.983 1753.93,464.763 1773.04,454.681 1793.02,448.777 1812.99,446.849 2246.68,446.873 2263.3,448.279 2279.49,452.265 2294.86,458.737 2309.03,467.533 2321.23,477.983 2399.97,556.721 2412.73,572.211 2423.27,591.937 2429.06,611.151 2431.1,631.889 2431.06,1616.91 2429.17,1636.11 2423.27,1656.09 2412.73,1675.82 2399.97,1691.3 2321.23,1770.04 2309.03,1780.49 2294.86,1789.29 2279.49,1795.76 2262.08,1799.94 2246.06,1801.18 2155.51,1801.18 2155.36,1834.21 2154.18,1837.05 2153.2,1838.24 2150.65,1839.95 2147.64,1840.55 1872.05,1840.55 1869.03,1839.95 1866.48,1838.24 1865.5,1837.05 1864.32,1834.21 1864.17,1801.18 1738.91,1801.18 1061.38,2478.71 1044.61,2492.32 1026.9,2501.75 1007.7,2507.61 986.219,2509.84 513.779,2509.84 493.041,2507.8 473.827,2502.01 455.385,2492.32 438.613,2478.71 280.713,2320.77 270.683,2309.03 261.887,2294.86 255.415,2279.49 251.429,2263.3 249.999,2246.06" style="stroke:rgb(167,241,217);stroke-width:15.748031;fill:none;stroke-opacity:0.5;stroke-linecap:round;stroke-linejoin:round;;fill:none"/>
<polyline points="249.999,2246.06 249.999,1773.62 251.927,1753.65 257.831,1733.67 267.913,1714.56 281.133,1698.45 399.243,1580.34 411.441,1569.89 426.711,1560.54 440.979,1554.63 457.173,1550.64 474.409,1549.21 525.589,1549.21 525.589,1542.32 526.299,1535.57 528.399,1529.11 531.345,1523.92 536.977,1517.67 541.831,1514.19 548.033,1511.43 553.861,1510.15 558.075,1509.84 787.845,1510.02 794.485,1511.43 799.953,1513.82 806.765,1518.77 810.725,1523.23 814.121,1529.11 816.219,1535.57 816.929,1542.32 816.929,1768.7 816.219,1775.45 814.121,1781.91 810.725,1787.79 805.541,1793.36 800.689,1796.83 794.485,1799.59 788.657,1800.87 784.861,1801.17 554.671,1801 548.033,1799.59 542.563,1797.2 535.753,1792.25 531.793,1787.79 528.103,1781.14 526.171,1774.64 525.589,1768.7 525.589,1761.81 518.439,1761.81 462.597,1817.65 462.597,2202.03 557.809,2297.24 942.187,2297.24 1619.71,1619.71 1635.82,1606.49 1654.2,1596.67 1674.91,1590.51 1694.88,1588.58 1864.17,1588.58 1864.32,1555.55 1865.5,1552.71 1867.67,1550.54 1869.03,1549.81 1872.05,1549.21 2149.17,1549.36 2150.65,1549.81 2153.2,1551.52 2154.18,1552.71 2155.36,1555.55 2155.51,1588.58 2202.03,1588.58 2218.5,1572.11 2218.5,675.919 2202.03,659.447 1857.02,659.447 1825.16,691.305 1808.39,704.921 1791.37,714.017 1771.48,720.209 1750.77,722.401 809.055,722.439 809.055,729.331 808.345,736.083 806.247,742.541 802.851,748.421 798.307,753.467 792.815,757.459 786.611,760.221 779.969,761.633 546.799,761.633 540.159,760.221 534.691,757.833 527.879,752.885 523.919,748.421 520.525,742.541 518.425,736.083 517.759,730.153 517.715,502.953 518.425,496.199 520.525,489.741 523.919,483.861 529.103,478.295 533.957,474.823 540.159,472.061 545.987,470.779 549.783,470.483 779.971,470.651 786.611,472.061 792.815,474.823 798.307,478.815 802.851,483.861 806.247,489.741 808.345,496.199 809.055,502.953 809.055,509.841 1705.97,509.841 1737.82,477.983 1753.93,464.763 1773.04,454.681 1793.02,448.777 1812.99,446.849 2246.68,446.873 2263.3,448.279 2279.49,452.265 2294.86,458.737 2309.03,467.533 2321.23,477.983 2399.97,556.721 2412.73,572.211 2423.27,591.937 2429.06,611.151 2431.1,631.889 2431.06,1616.91 2429.17,1636.11 2423.27,1656.09 2412.73,1675.82 2399.97,1691.3 2321.23,1770.04 2309.03,1780.49 2294.86,1789.29 2279.49,1795.76 2262.08,1799.94 2246.06,1801.18 2155.51,1801.18 2155.36,1834.21 2154.18,1837.05 2153.2,1838.24 2150.65,1839.95 2147.64,1840.55 1872.05,1840.55 1869.03,1839.95 1866.48,1838.24 1865.5,1837.05 1864.32,1834.21 1864.17,1801.18 1738.91,1801.18 1061.38,2478.71 1044.61,2492.32 1026.9,2501.75 1007.7,2507.61 986.219,2509.84 513.779,2509.84 493.041,2507.8 473.827,2502.01 455.385,2492.32 438.613,2478.71 280.713,2320.77 270.683,2309.03 261.887,2294.86 255.415,2279.49 251.429,2263.3 249.999,2246.06" style="stroke:rgb(0,0,0);stroke-width:1px;fill:none;stroke-opacity:1;stroke-linecap:round;stroke-linejoin:round;;fill:none"/>
</svg>
