%TF.GenerationSoftware,KiCad,Pcbnew,9.0.5*%
%TF.CreationDate,2025-11-30T14:54:46-03:00*%
%TF.ProjectId,Volume Control Module,566f6c75-6d65-4204-936f-6e74726f6c20,rev?*%
%TF.SameCoordinates,Original*%
%TF.FileFunction,Copper,L2,Bot*%
%TF.FilePolarity,Positive*%
%FSLAX46Y46*%
G04 Gerber Fmt 4.6, Leading zero omitted, Abs format (unit mm)*
G04 Created by KiCad (PCBNEW 9.0.5) date 2025-11-30 14:54:46*
%MOMM*%
%LPD*%
G01*
G04 APERTURE LIST*
G04 Aperture macros list*
%AMRoundRect*
0 Rectangle with rounded corners*
0 $1 Rounding radius*
0 $2 $3 $4 $5 $6 $7 $8 $9 X,Y pos of 4 corners*
0 Add a 4 corners polygon primitive as box body*
4,1,4,$2,$3,$4,$5,$6,$7,$8,$9,$2,$3,0*
0 Add four circle primitives for the rounded corners*
1,1,$1+$1,$2,$3*
1,1,$1+$1,$4,$5*
1,1,$1+$1,$6,$7*
1,1,$1+$1,$8,$9*
0 Add four rect primitives between the rounded corners*
20,1,$1+$1,$2,$3,$4,$5,0*
20,1,$1+$1,$4,$5,$6,$7,0*
20,1,$1+$1,$6,$7,$8,$9,0*
20,1,$1+$1,$8,$9,$2,$3,0*%
G04 Aperture macros list end*
%TA.AperFunction,ComponentPad*%
%ADD10R,3.500000X3.500000*%
%TD*%
%TA.AperFunction,ComponentPad*%
%ADD11C,3.500000*%
%TD*%
%TA.AperFunction,ComponentPad*%
%ADD12RoundRect,0.312501X-1.437499X1.437499X-1.437499X-1.437499X1.437499X-1.437499X1.437499X1.437499X0*%
%TD*%
%TA.AperFunction,Conductor*%
%ADD13C,2.500000*%
%TD*%
G04 APERTURE END LIST*
D10*
%TO.P,RV1,1,1*%
%TO.N,GND*%
X25000000Y-21000000D03*
D11*
%TO.P,RV1,2,2*%
%TO.N,Net-(J2-Pin_2)*%
X25000000Y-16000000D03*
%TO.P,RV1,3,3*%
%TO.N,Net-(J1-Pin_2)*%
X25000000Y-11000000D03*
%TD*%
D12*
%TO.P,J1,1,Pin_1*%
%TO.N,GND*%
X7900000Y-7300000D03*
D11*
%TO.P,J1,2,Pin_2*%
%TO.N,Net-(J1-Pin_2)*%
X7900000Y-12300000D03*
%TD*%
D12*
%TO.P,J2,1,Pin_1*%
%TO.N,GND*%
X8000000Y-20500000D03*
D11*
%TO.P,J2,2,Pin_2*%
%TO.N,Net-(J2-Pin_2)*%
X8000000Y-25500000D03*
%TD*%
D13*
%TO.N,GND*%
X29000000Y-7500000D02*
X29000000Y-20000000D01*
X28000000Y-21000000D02*
X25000000Y-21000000D01*
X28000000Y-6500000D02*
X29000000Y-7500000D01*
X22500000Y-6500000D02*
X28000000Y-6500000D01*
X4000000Y-22000000D02*
X4000000Y-28000000D01*
X8000000Y-20500000D02*
X5500000Y-20500000D01*
X12000000Y-30000000D02*
X21000000Y-21000000D01*
X5500000Y-20500000D02*
X4000000Y-22000000D01*
X4000000Y-28000000D02*
X6000000Y-30000000D01*
X29000000Y-20000000D02*
X28000000Y-21000000D01*
X6000000Y-30000000D02*
X12000000Y-30000000D01*
X7900000Y-7300000D02*
X21700000Y-7300000D01*
X21000000Y-21000000D02*
X25000000Y-21000000D01*
X21700000Y-7300000D02*
X22500000Y-6500000D01*
%TO.N,Net-(J1-Pin_2)*%
X19000000Y-11000000D02*
X25000000Y-11000000D01*
X17700000Y-12300000D02*
X19000000Y-11000000D01*
X7900000Y-12300000D02*
X17700000Y-12300000D01*
%TO.N,Net-(J2-Pin_2)*%
X10500000Y-25500000D02*
X20000000Y-16000000D01*
X8000000Y-25500000D02*
X10500000Y-25500000D01*
X20000000Y-16000000D02*
X25000000Y-16000000D01*
%TD*%
M02*
