G04 #@! TF.GenerationSoftware,KiCad,Pcbnew,9.0.5*
G04 #@! TF.CreationDate,2025-11-02T20:44:20-03:00*
G04 #@! TF.ProjectId,Fonte BDNM,466f6e74-6520-4424-944e-4d2e6b696361,rev?*
G04 #@! TF.SameCoordinates,Original*
G04 #@! TF.FileFunction,Copper,L2,Bot*
G04 #@! TF.FilePolarity,Positive*
%FSLAX46Y46*%
G04 Gerber Fmt 4.6, Leading zero omitted, Abs format (unit mm)*
G04 Created by KiCad (PCBNEW 9.0.5) date 2025-11-02 20:44:20*
%MOMM*%
%LPD*%
G01*
G04 APERTURE LIST*
G04 Aperture macros list*
%AMRoundRect*
0 Rectangle with rounded corners*
0 $1 Rounding radius*
0 $2 $3 $4 $5 $6 $7 $8 $9 X,Y pos of 4 corners*
0 Add a 4 corners polygon primitive as box body*
4,1,4,$2,$3,$4,$5,$6,$7,$8,$9,$2,$3,0*
0 Add four circle primitives for the rounded corners*
1,1,$1+$1,$2,$3*
1,1,$1+$1,$4,$5*
1,1,$1+$1,$6,$7*
1,1,$1+$1,$8,$9*
0 Add four rect primitives between the rounded corners*
20,1,$1+$1,$2,$3,$4,$5,0*
20,1,$1+$1,$4,$5,$6,$7,0*
20,1,$1+$1,$6,$7,$8,$9,0*
20,1,$1+$1,$8,$9,$2,$3,0*%
G04 Aperture macros list end*
G04 #@! TA.AperFunction,ComponentPad*
%ADD10C,1.600000*%
G04 #@! TD*
G04 #@! TA.AperFunction,ComponentPad*
%ADD11RoundRect,0.250001X-1.149999X-1.149999X1.149999X-1.149999X1.149999X1.149999X-1.149999X1.149999X0*%
G04 #@! TD*
G04 #@! TA.AperFunction,ComponentPad*
%ADD12C,2.800000*%
G04 #@! TD*
G04 #@! TA.AperFunction,ComponentPad*
%ADD13RoundRect,0.250000X-1.750000X1.750000X-1.750000X-1.750000X1.750000X-1.750000X1.750000X1.750000X0*%
G04 #@! TD*
G04 #@! TA.AperFunction,ComponentPad*
%ADD14C,4.000000*%
G04 #@! TD*
G04 #@! TA.AperFunction,ComponentPad*
%ADD15RoundRect,0.250000X1.750000X-1.750000X1.750000X1.750000X-1.750000X1.750000X-1.750000X-1.750000X0*%
G04 #@! TD*
G04 #@! TA.AperFunction,Conductor*
%ADD16C,2.000000*%
G04 #@! TD*
G04 APERTURE END LIST*
D10*
X8197315Y-49302685D03*
X8197315Y-44302685D03*
D11*
X41697315Y-100802685D03*
D12*
X46697315Y-100802685D03*
D10*
X8197315Y-73802685D03*
X8197315Y-78802685D03*
D13*
X27697315Y-71802685D03*
D14*
X27697315Y-81802685D03*
D10*
X79697315Y-46802685D03*
X79697315Y-41802685D03*
D15*
X60197315Y-52802685D03*
D14*
X60197315Y-42802685D03*
D13*
X59697315Y-72302685D03*
D14*
X59697315Y-82302685D03*
D10*
X80197315Y-73697315D03*
X80197315Y-78697315D03*
X40387315Y-91302685D03*
X48007315Y-91302685D03*
D15*
X27697315Y-51908056D03*
D14*
X27697315Y-41908056D03*
D16*
X27697315Y-81802685D02*
X27697315Y-104302685D01*
X46697315Y-93302685D02*
X46697315Y-100802685D01*
X63302685Y-78697315D02*
X59697315Y-82302685D01*
X11197315Y-81802685D02*
X8197315Y-78802685D01*
X27697315Y-81802685D02*
X11197315Y-81802685D01*
X31697315Y-108302685D02*
X46697315Y-108302685D01*
X27302686Y-41908056D02*
X24908057Y-44302685D01*
X3697315Y-44802685D02*
X3697315Y-78802685D01*
X3697315Y-78802685D02*
X8197315Y-78802685D01*
X80697315Y-40802685D02*
X79697315Y-41802685D01*
X79697315Y-41802685D02*
X61197315Y-41802685D01*
X24908057Y-44302685D02*
X8197315Y-44302685D01*
X50697315Y-91302685D02*
X48007315Y-91302685D01*
X48007315Y-91992685D02*
X46697315Y-93302685D01*
X80197315Y-78697315D02*
X63302685Y-78697315D01*
X59697315Y-82302685D02*
X50697315Y-91302685D01*
X46697315Y-108302685D02*
X46697315Y-100802685D01*
X87697315Y-40802685D02*
X80697315Y-40802685D01*
X28591944Y-42802685D02*
X27697315Y-41908056D01*
X48007315Y-91302685D02*
X48007315Y-91992685D01*
X4197315Y-44302685D02*
X3697315Y-44802685D01*
X27697315Y-104302685D02*
X31697315Y-108302685D01*
X8197315Y-44302685D02*
X4197315Y-44302685D01*
X61197315Y-41802685D02*
X60197315Y-42802685D01*
X60197315Y-42802685D02*
X28591944Y-42802685D01*
X27697315Y-41908056D02*
X27302686Y-41908056D01*
X27697315Y-51908056D02*
X10802686Y-51908056D01*
X70197315Y-52802685D02*
X60197315Y-52802685D01*
X72697315Y-53802685D02*
X71197315Y-53802685D01*
X60197315Y-52802685D02*
X60197315Y-71802685D01*
X10802686Y-51908056D02*
X8197315Y-49302685D01*
X27697315Y-51908056D02*
X27697315Y-71802685D01*
X94197315Y-15802685D02*
X94197315Y-45802685D01*
X80197315Y-73697315D02*
X66091945Y-73697315D01*
X27697315Y-71802685D02*
X10197315Y-71802685D01*
X40387315Y-99492685D02*
X41697315Y-100802685D01*
X66091945Y-73697315D02*
X64697315Y-72302685D01*
X60197315Y-71802685D02*
X59697315Y-72302685D01*
X64697315Y-72302685D02*
X59697315Y-72302685D01*
X10197315Y-71802685D02*
X8197315Y-73802685D01*
X43792315Y-87897685D02*
X40387315Y-91302685D01*
X93197315Y-46802685D02*
X79697315Y-46802685D01*
X59387315Y-72302685D02*
X43792315Y-87897685D01*
X94197315Y-45802685D02*
X93197315Y-46802685D01*
X27697315Y-71802685D02*
X43792315Y-87897685D01*
X79697315Y-46802685D02*
X72697315Y-53802685D01*
X59697315Y-72302685D02*
X59387315Y-72302685D01*
X40387315Y-91302685D02*
X40387315Y-99492685D01*
X71197315Y-53802685D02*
X70197315Y-52802685D01*
X87697315Y-15802685D02*
X94197315Y-15802685D01*
M02*
