M48
; DRILL file {KiCad 9.0.5} date 2025-11-20T17:27:19-0300
; FORMAT={-:-/ absolute / metric / decimal}
; #@! TF.CreationDate,2025-11-20T17:27:19-03:00
; #@! TF.GenerationSoftware,Kicad,Pcbnew,9.0.5
; #@! TF.FileFunction,MixedPlating,1,2
FMAT,2
METRIC
; #@! TA.AperFunction,Plated,PTH,ComponentDrill
T1C0.800
; #@! TA.AperFunction,Plated,PTH,ComponentDrill
T2C1.000
; #@! TA.AperFunction,Plated,PTH,ComponentDrill
T3C1.300
; #@! TA.AperFunction,Plated,PTH,ComponentDrill
T4C2.000
; #@! TA.AperFunction,NonPlated,NPTH,ComponentDrill
T5C3.200
%
G90
G05
T1
X8.197Y-44.303
X8.197Y-49.303
X8.197Y-73.803
X8.197Y-78.803
X40.387Y-91.303
X48.007Y-91.303
X75.797Y-26.803
X78.697Y-19.303
X79.697Y-41.803
X79.697Y-46.803
X80.197Y-73.697
X80.197Y-78.697
T2
X87.697Y-15.803
X87.697Y-25.803
X87.697Y-33.303
X87.697Y-40.803
T3
X25.447Y-24.303
X25.697Y-8.303
X30.697Y-8.303
X41.75Y-103.468
X46.75Y-103.468
X62.947Y-8.77
X62.947Y-24.303
X67.947Y-8.77
T4
X27.697Y-41.908
X27.697Y-51.908
X27.697Y-71.803
X27.697Y-81.803
X59.697Y-72.303
X59.697Y-82.303
X60.197Y-42.803
X60.197Y-52.803
T5
X44.197Y-24.303
M30
