%TF.GenerationSoftware,KiCad,Pcbnew,9.0.5*%
%TF.CreationDate,2025-11-20T17:27:21-03:00*%
%TF.ProjectId,Fonte BDNM,466f6e74-6520-4424-944e-4d2e6b696361,rev?*%
%TF.SameCoordinates,Original*%
%TF.FileFunction,Copper,L2,Bot*%
%TF.FilePolarity,Positive*%
%FSLAX46Y46*%
G04 Gerber Fmt 4.6, Leading zero omitted, Abs format (unit mm)*
G04 Created by KiCad (PCBNEW 9.0.5) date 2025-11-20 17:27:21*
%MOMM*%
%LPD*%
G01*
G04 APERTURE LIST*
G04 Aperture macros list*
%AMRoundRect*
0 Rectangle with rounded corners*
0 $1 Rounding radius*
0 $2 $3 $4 $5 $6 $7 $8 $9 X,Y pos of 4 corners*
0 Add a 4 corners polygon primitive as box body*
4,1,4,$2,$3,$4,$5,$6,$7,$8,$9,$2,$3,0*
0 Add four circle primitives for the rounded corners*
1,1,$1+$1,$2,$3*
1,1,$1+$1,$4,$5*
1,1,$1+$1,$6,$7*
1,1,$1+$1,$8,$9*
0 Add four rect primitives between the rounded corners*
20,1,$1+$1,$2,$3,$4,$5,0*
20,1,$1+$1,$4,$5,$6,$7,0*
20,1,$1+$1,$6,$7,$8,$9,0*
20,1,$1+$1,$8,$9,$2,$3,0*%
G04 Aperture macros list end*
%ADD10C,0.900000*%
%ADD11C,0.600000*%
%TA.AperFunction,NonConductor*%
%ADD12C,0.600000*%
%TD*%
%TA.AperFunction,ComponentPad*%
%ADD13C,2.500000*%
%TD*%
%TA.AperFunction,ComponentPad*%
%ADD14RoundRect,0.250001X-1.149999X-1.149999X1.149999X-1.149999X1.149999X1.149999X-1.149999X1.149999X0*%
%TD*%
%TA.AperFunction,ComponentPad*%
%ADD15C,2.800000*%
%TD*%
%TA.AperFunction,ComponentPad*%
%ADD16R,2.000000X2.000000*%
%TD*%
%TA.AperFunction,ComponentPad*%
%ADD17O,16.625000X6.000000*%
%TD*%
%TA.AperFunction,ComponentPad*%
%ADD18RoundRect,0.250000X-1.750000X1.750000X-1.750000X-1.750000X1.750000X-1.750000X1.750000X1.750000X0*%
%TD*%
%TA.AperFunction,ComponentPad*%
%ADD19C,4.000000*%
%TD*%
%TA.AperFunction,ComponentPad*%
%ADD20RoundRect,0.250000X1.750000X-1.750000X1.750000X1.750000X-1.750000X1.750000X-1.750000X-1.750000X0*%
%TD*%
%TA.AperFunction,Conductor*%
%ADD21C,2.000000*%
%TD*%
G04 APERTURE END LIST*
D10*
G36*
X69172179Y-98894885D02*
G01*
X69172179Y-100910084D01*
X69087378Y-100952485D01*
X68442695Y-100952485D01*
X68174454Y-100818365D01*
X68063442Y-100707352D01*
X67929322Y-100439112D01*
X67929322Y-99365858D01*
X68063442Y-99097617D01*
X68174455Y-98986604D01*
X68442695Y-98852485D01*
X69087378Y-98852485D01*
X69172179Y-98894885D01*
G37*
G36*
X75355617Y-98986605D02*
G01*
X75466631Y-99097619D01*
X75600751Y-99365858D01*
X75600751Y-100439112D01*
X75466631Y-100707352D01*
X75355618Y-100818365D01*
X75087378Y-100952485D01*
X74656981Y-100952485D01*
X74388740Y-100818365D01*
X74277728Y-100707352D01*
X74143608Y-100439112D01*
X74143608Y-99365858D01*
X74277728Y-99097617D01*
X74388741Y-98986604D01*
X74656981Y-98852485D01*
X75087378Y-98852485D01*
X75355617Y-98986605D01*
G37*
G36*
X90386466Y-98894885D02*
G01*
X90386466Y-100910084D01*
X90301665Y-100952485D01*
X89656982Y-100952485D01*
X89388741Y-100818365D01*
X89277729Y-100707352D01*
X89143609Y-100439112D01*
X89143609Y-99365858D01*
X89277729Y-99097617D01*
X89388742Y-98986604D01*
X89656982Y-98852485D01*
X90301665Y-98852485D01*
X90386466Y-98894885D01*
G37*
G36*
X91786466Y-103848635D02*
G01*
X57957893Y-103848635D01*
X57957893Y-99045342D01*
X58457893Y-99045342D01*
X58457893Y-101402485D01*
X58461743Y-101461222D01*
X58492147Y-101574693D01*
X58550884Y-101676428D01*
X58633950Y-101759494D01*
X58735685Y-101818231D01*
X58849156Y-101848635D01*
X58966630Y-101848635D01*
X59080101Y-101818231D01*
X59181836Y-101759494D01*
X59264902Y-101676428D01*
X59323639Y-101574693D01*
X59354043Y-101461222D01*
X59357893Y-101402485D01*
X59357893Y-99151572D01*
X59457588Y-98952180D01*
X59656980Y-98852485D01*
X60087377Y-98852485D01*
X60355616Y-98986605D01*
X60386464Y-99017453D01*
X60386464Y-101402485D01*
X60390314Y-101461222D01*
X60420718Y-101574693D01*
X60479455Y-101676428D01*
X60562521Y-101759494D01*
X60664256Y-101818231D01*
X60777727Y-101848635D01*
X60895201Y-101848635D01*
X61008672Y-101818231D01*
X61110407Y-101759494D01*
X61193473Y-101676428D01*
X61252210Y-101574693D01*
X61282614Y-101461222D01*
X61286464Y-101402485D01*
X61286464Y-98402485D01*
X61283097Y-98351117D01*
X62103691Y-98351117D01*
X62105630Y-98468575D01*
X62118064Y-98526110D01*
X62975207Y-101526109D01*
X62995045Y-101581529D01*
X63009714Y-101605995D01*
X63020953Y-101632220D01*
X63039789Y-101656158D01*
X63055452Y-101682281D01*
X63075956Y-101702119D01*
X63093598Y-101724539D01*
X63117983Y-101742782D01*
X63139878Y-101763966D01*
X63164823Y-101777824D01*
X63187661Y-101794910D01*
X63215933Y-101806219D01*
X63242568Y-101821016D01*
X63270251Y-101827946D01*
X63296733Y-101838539D01*
X63326972Y-101842145D01*
X63356525Y-101849544D01*
X63385051Y-101849073D01*
X63413380Y-101852452D01*
X63443531Y-101848107D01*
X63473983Y-101847605D01*
X63501411Y-101839768D01*
X63529653Y-101835699D01*
X63557655Y-101823698D01*
X63586937Y-101815332D01*
X63611397Y-101800666D01*
X63637628Y-101789425D01*
X63661571Y-101770583D01*
X63687689Y-101754925D01*
X63707524Y-101734423D01*
X63729947Y-101716780D01*
X63748191Y-101692392D01*
X63769374Y-101670500D01*
X63783232Y-101645554D01*
X63800318Y-101622717D01*
X63825707Y-101569611D01*
X64265036Y-100471289D01*
X64704365Y-101569611D01*
X64729754Y-101622717D01*
X64746840Y-101645555D01*
X64760698Y-101670500D01*
X64781878Y-101692391D01*
X64800125Y-101716781D01*
X64822547Y-101734424D01*
X64842383Y-101754926D01*
X64868504Y-101770587D01*
X64892444Y-101789425D01*
X64918669Y-101800664D01*
X64943135Y-101815333D01*
X64972416Y-101823699D01*
X65000419Y-101835700D01*
X65028663Y-101839769D01*
X65056089Y-101847605D01*
X65086538Y-101848107D01*
X65116692Y-101852452D01*
X65145022Y-101849073D01*
X65173547Y-101849544D01*
X65203094Y-101842147D01*
X65233339Y-101838540D01*
X65259827Y-101827944D01*
X65287504Y-101821016D01*
X65314132Y-101806222D01*
X65342411Y-101794911D01*
X65365252Y-101777822D01*
X65390194Y-101763966D01*
X65412086Y-101742783D01*
X65436474Y-101724539D01*
X65454115Y-101702119D01*
X65474620Y-101682281D01*
X65490282Y-101656158D01*
X65509119Y-101632220D01*
X65520358Y-101605994D01*
X65535027Y-101581529D01*
X65554865Y-101526109D01*
X66202430Y-99259628D01*
X67029322Y-99259628D01*
X67029322Y-100545342D01*
X67030912Y-100569605D01*
X67030454Y-100577242D01*
X67031864Y-100584136D01*
X67033172Y-100604079D01*
X67044911Y-100647891D01*
X67054005Y-100692330D01*
X67061754Y-100710750D01*
X67063576Y-100717550D01*
X67067402Y-100724177D01*
X67076830Y-100746588D01*
X67291116Y-101175160D01*
X67320827Y-101225974D01*
X67329819Y-101236114D01*
X67336598Y-101247856D01*
X67375409Y-101292111D01*
X67589694Y-101506397D01*
X67633949Y-101545208D01*
X67645690Y-101551987D01*
X67655833Y-101560981D01*
X67706648Y-101590693D01*
X68135220Y-101804978D01*
X68157630Y-101814405D01*
X68164257Y-101818231D01*
X68171056Y-101820052D01*
X68189478Y-101827802D01*
X68233918Y-101836896D01*
X68277728Y-101848635D01*
X68297665Y-101849941D01*
X68304566Y-101851354D01*
X68312209Y-101850895D01*
X68336465Y-101852485D01*
X69172179Y-101852485D01*
X69172179Y-102902485D01*
X69176029Y-102961222D01*
X69206433Y-103074693D01*
X69265170Y-103176428D01*
X69348236Y-103259494D01*
X69449971Y-103318231D01*
X69563442Y-103348635D01*
X69680916Y-103348635D01*
X69794387Y-103318231D01*
X69896122Y-103259494D01*
X69979188Y-103176428D01*
X70037925Y-103074693D01*
X70068329Y-102961222D01*
X70072179Y-102902485D01*
X70072179Y-101129465D01*
X71104599Y-101129465D01*
X71104600Y-101246938D01*
X71135004Y-101360408D01*
X71157419Y-101399231D01*
X71188955Y-101453853D01*
X71193742Y-101462143D01*
X71232553Y-101506399D01*
X71446838Y-101720683D01*
X71491085Y-101759486D01*
X71491093Y-101759494D01*
X71573663Y-101807166D01*
X71592828Y-101818231D01*
X71706298Y-101848635D01*
X71823771Y-101848636D01*
X71937242Y-101818232D01*
X72038978Y-101759495D01*
X72083233Y-101720684D01*
X72297519Y-101506399D01*
X72336330Y-101462144D01*
X72395068Y-101360409D01*
X72425472Y-101246938D01*
X72425472Y-101129465D01*
X72425472Y-101129464D01*
X72425472Y-101129463D01*
X72395068Y-101015993D01*
X72336331Y-100914258D01*
X72297520Y-100870002D01*
X72083234Y-100655716D01*
X72038986Y-100616912D01*
X72038979Y-100616905D01*
X71937244Y-100558168D01*
X71823773Y-100527764D01*
X71706299Y-100527764D01*
X71592828Y-100558168D01*
X71491093Y-100616905D01*
X71491085Y-100616912D01*
X71446838Y-100655716D01*
X71232552Y-100870002D01*
X71193748Y-100914249D01*
X71193740Y-100914258D01*
X71135003Y-101015994D01*
X71104599Y-101129465D01*
X70072179Y-101129465D01*
X70072179Y-99259628D01*
X73243608Y-99259628D01*
X73243608Y-100545342D01*
X73245198Y-100569605D01*
X73244740Y-100577242D01*
X73246150Y-100584136D01*
X73247458Y-100604079D01*
X73259197Y-100647891D01*
X73268291Y-100692330D01*
X73276040Y-100710750D01*
X73277862Y-100717550D01*
X73281688Y-100724177D01*
X73291116Y-100746588D01*
X73505402Y-101175160D01*
X73535113Y-101225974D01*
X73544105Y-101236114D01*
X73550884Y-101247856D01*
X73589695Y-101292111D01*
X73803980Y-101506397D01*
X73848235Y-101545208D01*
X73859976Y-101551987D01*
X73870119Y-101560981D01*
X73920934Y-101590693D01*
X74349506Y-101804978D01*
X74371916Y-101814405D01*
X74378543Y-101818231D01*
X74385342Y-101820052D01*
X74403764Y-101827802D01*
X74448204Y-101836896D01*
X74492014Y-101848635D01*
X74511951Y-101849941D01*
X74518852Y-101851354D01*
X74526495Y-101850895D01*
X74550751Y-101852485D01*
X75193608Y-101852485D01*
X75217870Y-101850894D01*
X75225507Y-101851353D01*
X75232401Y-101849942D01*
X75252345Y-101848635D01*
X75296158Y-101836895D01*
X75340596Y-101827802D01*
X75359016Y-101820052D01*
X75365816Y-101818231D01*
X75372443Y-101814404D01*
X75394854Y-101804977D01*
X75823425Y-101590692D01*
X75874239Y-101560981D01*
X75884382Y-101551986D01*
X75896121Y-101545209D01*
X75940377Y-101506398D01*
X76154663Y-101292112D01*
X76193474Y-101247856D01*
X76200251Y-101236117D01*
X76209246Y-101225974D01*
X76238957Y-101175160D01*
X76453243Y-100746588D01*
X76462670Y-100724177D01*
X76466497Y-100717550D01*
X76468318Y-100710750D01*
X76476068Y-100692330D01*
X76485161Y-100647891D01*
X76496901Y-100604079D01*
X76498208Y-100584136D01*
X76499619Y-100577242D01*
X76499160Y-100569605D01*
X76500751Y-100545342D01*
X76500751Y-99259628D01*
X76499160Y-99235364D01*
X76499619Y-99227728D01*
X76498208Y-99220833D01*
X76496901Y-99200891D01*
X76485159Y-99157070D01*
X76476067Y-99112639D01*
X76468319Y-99094220D01*
X76466497Y-99087420D01*
X76462670Y-99080792D01*
X76453243Y-99058381D01*
X76446723Y-99045342D01*
X77529323Y-99045342D01*
X77529323Y-101402485D01*
X77533173Y-101461222D01*
X77563577Y-101574693D01*
X77622314Y-101676428D01*
X77705380Y-101759494D01*
X77807115Y-101818231D01*
X77920586Y-101848635D01*
X78038060Y-101848635D01*
X78151531Y-101818231D01*
X78253266Y-101759494D01*
X78336332Y-101676428D01*
X78395069Y-101574693D01*
X78425473Y-101461222D01*
X78429323Y-101402485D01*
X78429323Y-99151572D01*
X78529018Y-98952180D01*
X78728410Y-98852485D01*
X79158807Y-98852485D01*
X79427046Y-98986605D01*
X79457894Y-99017453D01*
X79457894Y-101402485D01*
X79461744Y-101461222D01*
X79492148Y-101574693D01*
X79550885Y-101676428D01*
X79633951Y-101759494D01*
X79735686Y-101818231D01*
X79849157Y-101848635D01*
X79966631Y-101848635D01*
X80080102Y-101818231D01*
X80181837Y-101759494D01*
X80264903Y-101676428D01*
X80323640Y-101574693D01*
X80354044Y-101461222D01*
X80357894Y-101402485D01*
X80357894Y-98402485D01*
X81600752Y-98402485D01*
X81600752Y-101402485D01*
X81604602Y-101461222D01*
X81635006Y-101574693D01*
X81693743Y-101676428D01*
X81776809Y-101759494D01*
X81878544Y-101818231D01*
X81992015Y-101848635D01*
X82109489Y-101848635D01*
X82222960Y-101818231D01*
X82324695Y-101759494D01*
X82350261Y-101733927D01*
X82492364Y-101804978D01*
X82514774Y-101814405D01*
X82521401Y-101818231D01*
X82528200Y-101820052D01*
X82546622Y-101827802D01*
X82591062Y-101836896D01*
X82634872Y-101848635D01*
X82654809Y-101849941D01*
X82661710Y-101851354D01*
X82669353Y-101850895D01*
X82693609Y-101852485D01*
X83336466Y-101852485D01*
X83360728Y-101850894D01*
X83368365Y-101851353D01*
X83375259Y-101849942D01*
X83395203Y-101848635D01*
X83439016Y-101836895D01*
X83483454Y-101827802D01*
X83501874Y-101820052D01*
X83508674Y-101818231D01*
X83515301Y-101814404D01*
X83537712Y-101804977D01*
X83966283Y-101590692D01*
X84017097Y-101560981D01*
X84037318Y-101543049D01*
X84059878Y-101528155D01*
X84081080Y-101504243D01*
X84104992Y-101483041D01*
X84119886Y-101460481D01*
X84137818Y-101440260D01*
X84167529Y-101389446D01*
X84381815Y-100960874D01*
X84391242Y-100938463D01*
X84395069Y-100931836D01*
X84396890Y-100925036D01*
X84404640Y-100906616D01*
X84413733Y-100862177D01*
X84425473Y-100818365D01*
X84426780Y-100798422D01*
X84428191Y-100791528D01*
X84427732Y-100783891D01*
X84429323Y-100759628D01*
X84429323Y-98402485D01*
X84425473Y-98343748D01*
X85033173Y-98343748D01*
X85033173Y-98461222D01*
X85063577Y-98574693D01*
X85122314Y-98676428D01*
X85205380Y-98759494D01*
X85307115Y-98818231D01*
X85420586Y-98848635D01*
X85479323Y-98852485D01*
X85801664Y-98852485D01*
X86069903Y-98986604D01*
X86180916Y-99097618D01*
X86315037Y-99365858D01*
X86315037Y-101402485D01*
X86318887Y-101461222D01*
X86349291Y-101574693D01*
X86408028Y-101676428D01*
X86491094Y-101759494D01*
X86592829Y-101818231D01*
X86706300Y-101848635D01*
X86823774Y-101848635D01*
X86937245Y-101818231D01*
X87038980Y-101759494D01*
X87122046Y-101676428D01*
X87180783Y-101574693D01*
X87211187Y-101461222D01*
X87215037Y-101402485D01*
X87215037Y-99259628D01*
X88243609Y-99259628D01*
X88243609Y-100545342D01*
X88245199Y-100569605D01*
X88244741Y-100577242D01*
X88246151Y-100584136D01*
X88247459Y-100604079D01*
X88259198Y-100647891D01*
X88268292Y-100692330D01*
X88276041Y-100710750D01*
X88277863Y-100717550D01*
X88281689Y-100724177D01*
X88291117Y-100746588D01*
X88505403Y-101175160D01*
X88535114Y-101225974D01*
X88544106Y-101236114D01*
X88550885Y-101247856D01*
X88589696Y-101292111D01*
X88803981Y-101506397D01*
X88848236Y-101545208D01*
X88859977Y-101551987D01*
X88870120Y-101560981D01*
X88920935Y-101590693D01*
X89349507Y-101804978D01*
X89371917Y-101814405D01*
X89378544Y-101818231D01*
X89385343Y-101820052D01*
X89403765Y-101827802D01*
X89448205Y-101836896D01*
X89492015Y-101848635D01*
X89511952Y-101849941D01*
X89518853Y-101851354D01*
X89526496Y-101850895D01*
X89550752Y-101852485D01*
X90407895Y-101852485D01*
X90432157Y-101850894D01*
X90439794Y-101851353D01*
X90446688Y-101849942D01*
X90466632Y-101848635D01*
X90510445Y-101836895D01*
X90554883Y-101827802D01*
X90573303Y-101820052D01*
X90580103Y-101818231D01*
X90586730Y-101814404D01*
X90609141Y-101804977D01*
X90626375Y-101796359D01*
X90664258Y-101818231D01*
X90777729Y-101848635D01*
X90895203Y-101848635D01*
X91008674Y-101818231D01*
X91110409Y-101759494D01*
X91193475Y-101676428D01*
X91252212Y-101574693D01*
X91282616Y-101461222D01*
X91286466Y-101402485D01*
X91286466Y-96902485D01*
X91282616Y-96843748D01*
X91252212Y-96730277D01*
X91193475Y-96628542D01*
X91110409Y-96545476D01*
X91008674Y-96486739D01*
X90895203Y-96456335D01*
X90777729Y-96456335D01*
X90664258Y-96486739D01*
X90562523Y-96545476D01*
X90479457Y-96628542D01*
X90420720Y-96730277D01*
X90390316Y-96843748D01*
X90386466Y-96902485D01*
X90386466Y-97952485D01*
X89550752Y-97952485D01*
X89526488Y-97954075D01*
X89518852Y-97953617D01*
X89511957Y-97955027D01*
X89492015Y-97956335D01*
X89448202Y-97968074D01*
X89403764Y-97977168D01*
X89385343Y-97984917D01*
X89378544Y-97986739D01*
X89371916Y-97990565D01*
X89349506Y-97999993D01*
X88920934Y-98214279D01*
X88870120Y-98243990D01*
X88859977Y-98252984D01*
X88848236Y-98259763D01*
X88803981Y-98298574D01*
X88589696Y-98512860D01*
X88550885Y-98557115D01*
X88544107Y-98568853D01*
X88535114Y-98578996D01*
X88505403Y-98629811D01*
X88291117Y-99058382D01*
X88281688Y-99080793D01*
X88277863Y-99087420D01*
X88276041Y-99094217D01*
X88268292Y-99112639D01*
X88259197Y-99157080D01*
X88247459Y-99200891D01*
X88246151Y-99220833D01*
X88244741Y-99227728D01*
X88245199Y-99235364D01*
X88243609Y-99259628D01*
X87215037Y-99259628D01*
X87215037Y-98402485D01*
X87211187Y-98343748D01*
X87180783Y-98230277D01*
X87122046Y-98128542D01*
X87038980Y-98045476D01*
X86937245Y-97986739D01*
X86823774Y-97956335D01*
X86706300Y-97956335D01*
X86592829Y-97986739D01*
X86491094Y-98045476D01*
X86408028Y-98128542D01*
X86398666Y-98144756D01*
X86109140Y-97999993D01*
X86086729Y-97990565D01*
X86080102Y-97986739D01*
X86073302Y-97984917D01*
X86054882Y-97977168D01*
X86010443Y-97968074D01*
X85966631Y-97956335D01*
X85946688Y-97955027D01*
X85939794Y-97953617D01*
X85932157Y-97954075D01*
X85907894Y-97952485D01*
X85479323Y-97952485D01*
X85420586Y-97956335D01*
X85307115Y-97986739D01*
X85205380Y-98045476D01*
X85122314Y-98128542D01*
X85063577Y-98230277D01*
X85033173Y-98343748D01*
X84425473Y-98343748D01*
X84395069Y-98230277D01*
X84336332Y-98128542D01*
X84253266Y-98045476D01*
X84151531Y-97986739D01*
X84038060Y-97956335D01*
X83920586Y-97956335D01*
X83807115Y-97986739D01*
X83705380Y-98045476D01*
X83622314Y-98128542D01*
X83563577Y-98230277D01*
X83533173Y-98343748D01*
X83529323Y-98402485D01*
X83529323Y-100653398D01*
X83429627Y-100852789D01*
X83230236Y-100952485D01*
X82799839Y-100952485D01*
X82531598Y-100818365D01*
X82500752Y-100787518D01*
X82500752Y-98402485D01*
X82496902Y-98343748D01*
X82466498Y-98230277D01*
X82407761Y-98128542D01*
X82324695Y-98045476D01*
X82222960Y-97986739D01*
X82109489Y-97956335D01*
X81992015Y-97956335D01*
X81878544Y-97986739D01*
X81776809Y-98045476D01*
X81693743Y-98128542D01*
X81635006Y-98230277D01*
X81604602Y-98343748D01*
X81600752Y-98402485D01*
X80357894Y-98402485D01*
X80354044Y-98343748D01*
X80323640Y-98230277D01*
X80264903Y-98128542D01*
X80181837Y-98045476D01*
X80080102Y-97986739D01*
X79966631Y-97956335D01*
X79849157Y-97956335D01*
X79735686Y-97986739D01*
X79633951Y-98045476D01*
X79608383Y-98071043D01*
X79466283Y-97999993D01*
X79443871Y-97990564D01*
X79437245Y-97986739D01*
X79430447Y-97984917D01*
X79412026Y-97977168D01*
X79367584Y-97968073D01*
X79323774Y-97956335D01*
X79303831Y-97955027D01*
X79296937Y-97953617D01*
X79289300Y-97954075D01*
X79265037Y-97952485D01*
X78622180Y-97952485D01*
X78597916Y-97954075D01*
X78590280Y-97953617D01*
X78583385Y-97955027D01*
X78563443Y-97956335D01*
X78519630Y-97968074D01*
X78475192Y-97977168D01*
X78456771Y-97984917D01*
X78449972Y-97986739D01*
X78443344Y-97990565D01*
X78420934Y-97999993D01*
X77992362Y-98214279D01*
X77941548Y-98243990D01*
X77921326Y-98261921D01*
X77898767Y-98276816D01*
X77877564Y-98300727D01*
X77853653Y-98321930D01*
X77838758Y-98344489D01*
X77820827Y-98364711D01*
X77791116Y-98415525D01*
X77576831Y-98844096D01*
X77567403Y-98866506D01*
X77563577Y-98873134D01*
X77561755Y-98879933D01*
X77554006Y-98898354D01*
X77544912Y-98942791D01*
X77533173Y-98986605D01*
X77531865Y-99006548D01*
X77530455Y-99013443D01*
X77530913Y-99021079D01*
X77529323Y-99045342D01*
X76446723Y-99045342D01*
X76238957Y-98629811D01*
X76209245Y-98578996D01*
X76200251Y-98568853D01*
X76193474Y-98557115D01*
X76154663Y-98512859D01*
X75940377Y-98298573D01*
X75896121Y-98259762D01*
X75884385Y-98252986D01*
X75874240Y-98243990D01*
X75823425Y-98214279D01*
X75394854Y-97999993D01*
X75372442Y-97990564D01*
X75365816Y-97986739D01*
X75359018Y-97984917D01*
X75340597Y-97977168D01*
X75296155Y-97968073D01*
X75252345Y-97956335D01*
X75232402Y-97955027D01*
X75225508Y-97953617D01*
X75217871Y-97954075D01*
X75193608Y-97952485D01*
X74550751Y-97952485D01*
X74526487Y-97954075D01*
X74518851Y-97953617D01*
X74511956Y-97955027D01*
X74492014Y-97956335D01*
X74448201Y-97968074D01*
X74403763Y-97977168D01*
X74385342Y-97984917D01*
X74378543Y-97986739D01*
X74371915Y-97990565D01*
X74349505Y-97999993D01*
X73920933Y-98214279D01*
X73870119Y-98243990D01*
X73859976Y-98252984D01*
X73848235Y-98259763D01*
X73803980Y-98298574D01*
X73589695Y-98512860D01*
X73550884Y-98557115D01*
X73544106Y-98568853D01*
X73535113Y-98578996D01*
X73505402Y-98629811D01*
X73291116Y-99058382D01*
X73281687Y-99080793D01*
X73277862Y-99087420D01*
X73276040Y-99094217D01*
X73268291Y-99112639D01*
X73259196Y-99157080D01*
X73247458Y-99200891D01*
X73246150Y-99220833D01*
X73244740Y-99227728D01*
X73245198Y-99235364D01*
X73243608Y-99259628D01*
X70072179Y-99259628D01*
X70072179Y-98402485D01*
X70068329Y-98343748D01*
X70037925Y-98230277D01*
X69979188Y-98128542D01*
X69896122Y-98045476D01*
X69794387Y-97986739D01*
X69680916Y-97956335D01*
X69563442Y-97956335D01*
X69449971Y-97986739D01*
X69412088Y-98008610D01*
X69394854Y-97999993D01*
X69372442Y-97990564D01*
X69365816Y-97986739D01*
X69359018Y-97984917D01*
X69340597Y-97977168D01*
X69296155Y-97968073D01*
X69252345Y-97956335D01*
X69232402Y-97955027D01*
X69225508Y-97953617D01*
X69217871Y-97954075D01*
X69193608Y-97952485D01*
X68336465Y-97952485D01*
X68312201Y-97954075D01*
X68304565Y-97953617D01*
X68297670Y-97955027D01*
X68277728Y-97956335D01*
X68233915Y-97968074D01*
X68189477Y-97977168D01*
X68171056Y-97984917D01*
X68164257Y-97986739D01*
X68157629Y-97990565D01*
X68135219Y-97999993D01*
X67706647Y-98214279D01*
X67655833Y-98243990D01*
X67645690Y-98252984D01*
X67633949Y-98259763D01*
X67589694Y-98298574D01*
X67375409Y-98512860D01*
X67336598Y-98557115D01*
X67329820Y-98568853D01*
X67320827Y-98578996D01*
X67291116Y-98629811D01*
X67076830Y-99058382D01*
X67067401Y-99080793D01*
X67063576Y-99087420D01*
X67061754Y-99094217D01*
X67054005Y-99112639D01*
X67044910Y-99157080D01*
X67033172Y-99200891D01*
X67031864Y-99220833D01*
X67030454Y-99227728D01*
X67030912Y-99235364D01*
X67029322Y-99259628D01*
X66202430Y-99259628D01*
X66412007Y-98526109D01*
X66424441Y-98468575D01*
X66426380Y-98351117D01*
X66397852Y-98237160D01*
X66340802Y-98134470D01*
X66259117Y-98050044D01*
X66158365Y-97989637D01*
X66045411Y-97957365D01*
X65927953Y-97955426D01*
X65813996Y-97983954D01*
X65711306Y-98041004D01*
X65626880Y-98122689D01*
X65566473Y-98223441D01*
X65546635Y-98278860D01*
X65051118Y-100013171D01*
X64682850Y-99092502D01*
X64657461Y-99039396D01*
X64654154Y-99034976D01*
X64651976Y-99029893D01*
X64619001Y-98987987D01*
X64587090Y-98945333D01*
X64582747Y-98941916D01*
X64579331Y-98937574D01*
X64536664Y-98905653D01*
X64494771Y-98872688D01*
X64489690Y-98870510D01*
X64485268Y-98867202D01*
X64435780Y-98847406D01*
X64386796Y-98826414D01*
X64381329Y-98825626D01*
X64376196Y-98823573D01*
X64323260Y-98817259D01*
X64270523Y-98809661D01*
X64265036Y-98810315D01*
X64259549Y-98809661D01*
X64206770Y-98817265D01*
X64153876Y-98823574D01*
X64148750Y-98825624D01*
X64143276Y-98826413D01*
X64094237Y-98847429D01*
X64044804Y-98867203D01*
X64040384Y-98870509D01*
X64035301Y-98872688D01*
X63993384Y-98905671D01*
X63950741Y-98937574D01*
X63947326Y-98941913D01*
X63942982Y-98945332D01*
X63911062Y-98987998D01*
X63878096Y-99029893D01*
X63875917Y-99034976D01*
X63872611Y-99039396D01*
X63847222Y-99092502D01*
X63478953Y-100013172D01*
X62983436Y-98278860D01*
X62963598Y-98223441D01*
X62903191Y-98122689D01*
X62818765Y-98041004D01*
X62716075Y-97983954D01*
X62602118Y-97955426D01*
X62484660Y-97957365D01*
X62371706Y-97989637D01*
X62270954Y-98050044D01*
X62189269Y-98134470D01*
X62132219Y-98237160D01*
X62103691Y-98351117D01*
X61283097Y-98351117D01*
X61282614Y-98343748D01*
X61252210Y-98230277D01*
X61193473Y-98128542D01*
X61110407Y-98045476D01*
X61008672Y-97986739D01*
X60895201Y-97956335D01*
X60777727Y-97956335D01*
X60664256Y-97986739D01*
X60562521Y-98045476D01*
X60536953Y-98071043D01*
X60394853Y-97999993D01*
X60372441Y-97990564D01*
X60365815Y-97986739D01*
X60359017Y-97984917D01*
X60340596Y-97977168D01*
X60296154Y-97968073D01*
X60252344Y-97956335D01*
X60232401Y-97955027D01*
X60225507Y-97953617D01*
X60217870Y-97954075D01*
X60193607Y-97952485D01*
X59550750Y-97952485D01*
X59526486Y-97954075D01*
X59518850Y-97953617D01*
X59511955Y-97955027D01*
X59492013Y-97956335D01*
X59448200Y-97968074D01*
X59403762Y-97977168D01*
X59385341Y-97984917D01*
X59378542Y-97986739D01*
X59371914Y-97990565D01*
X59349504Y-97999993D01*
X58920932Y-98214279D01*
X58870118Y-98243990D01*
X58849896Y-98261921D01*
X58827337Y-98276816D01*
X58806134Y-98300727D01*
X58782223Y-98321930D01*
X58767328Y-98344489D01*
X58749397Y-98364711D01*
X58719686Y-98415525D01*
X58505401Y-98844096D01*
X58495973Y-98866506D01*
X58492147Y-98873134D01*
X58490325Y-98879933D01*
X58482576Y-98898354D01*
X58473482Y-98942791D01*
X58461743Y-98986605D01*
X58460435Y-99006548D01*
X58459025Y-99013443D01*
X58459483Y-99021079D01*
X58457893Y-99045342D01*
X57957893Y-99045342D01*
X57957893Y-95956335D01*
X91786466Y-95956335D01*
X91786466Y-103848635D01*
G37*
D11*
D12*
X36390978Y-103458800D02*
X34105264Y-103458800D01*
X35248121Y-104601657D02*
X35248121Y-102315942D01*
D11*
D12*
X52890978Y-103458800D02*
X50605264Y-103458800D01*
D13*
%TO.P,C3,1*%
%TO.N,Net-(D1-+)*%
X8197315Y-49302685D03*
%TO.P,C3,2*%
%TO.N,GND*%
X8197315Y-44302685D03*
%TD*%
D14*
%TO.P,J1,1,Pin_1*%
%TO.N,Net-(D1-+)*%
X41750000Y-103467500D03*
D15*
%TO.P,J1,2,Pin_2*%
%TO.N,GND*%
X46750000Y-103467500D03*
%TD*%
D16*
%TO.P,D1,1,-*%
%TO.N,GND*%
X87697315Y-40802685D03*
D13*
%TO.P,D1,2*%
%TO.N,Net-(D1-Pad2)*%
X87697315Y-33302685D03*
%TO.P,D1,3*%
%TO.N,Net-(J2-Pin_1)*%
X87697315Y-25802685D03*
%TO.P,D1,4,+*%
%TO.N,Net-(D1-+)*%
X87697315Y-15802685D03*
%TD*%
%TO.P,C8,1*%
%TO.N,Net-(D1-+)*%
X8197315Y-73802685D03*
%TO.P,C8,2*%
%TO.N,GND*%
X8197315Y-78802685D03*
%TD*%
D17*
%TO.P,F1,1*%
%TO.N,Net-(J2-Pin_2)*%
X32134815Y-24302685D03*
%TO.P,F1,2*%
%TO.N,Net-(SW1-A)*%
X56259815Y-24302685D03*
%TD*%
D18*
%TO.P,C5,1*%
%TO.N,Net-(D1-+)*%
X27697315Y-71802685D03*
D19*
%TO.P,C5,2*%
%TO.N,GND*%
X27697315Y-81802685D03*
%TD*%
D13*
%TO.P,C4,1*%
%TO.N,Net-(D1-+)*%
X79697315Y-46802685D03*
%TO.P,C4,2*%
%TO.N,GND*%
X79697315Y-41802685D03*
%TD*%
D20*
%TO.P,C1,1*%
%TO.N,Net-(D1-+)*%
X60197315Y-52802685D03*
D19*
%TO.P,C1,2*%
%TO.N,GND*%
X60197315Y-42802685D03*
%TD*%
D18*
%TO.P,C7,1*%
%TO.N,Net-(D1-+)*%
X59697315Y-72302685D03*
D19*
%TO.P,C7,2*%
%TO.N,GND*%
X59697315Y-82302685D03*
%TD*%
D14*
%TO.P,SW1,1,A*%
%TO.N,Net-(SW1-A)*%
X62947315Y-8770185D03*
D15*
%TO.P,SW1,2,B*%
%TO.N,Net-(SW1-B)*%
X67947315Y-8770185D03*
%TD*%
D14*
%TO.P,J2,1,Pin_1*%
%TO.N,Net-(J2-Pin_1)*%
X25697315Y-8302685D03*
D15*
%TO.P,J2,2,Pin_2*%
%TO.N,Net-(J2-Pin_2)*%
X30697315Y-8302685D03*
%TD*%
D13*
%TO.P,C6,1*%
%TO.N,Net-(D1-+)*%
X80197315Y-73697315D03*
%TO.P,C6,2*%
%TO.N,GND*%
X80197315Y-78697315D03*
%TD*%
%TO.P,R1,1*%
%TO.N,Net-(D1-+)*%
X40387315Y-91302685D03*
%TO.P,R1,2*%
%TO.N,GND*%
X48007315Y-91302685D03*
%TD*%
%TO.P,TH1,1*%
%TO.N,Net-(SW1-B)*%
X75797315Y-26802685D03*
%TO.P,TH1,2*%
%TO.N,Net-(D1-Pad2)*%
X78697315Y-19302685D03*
%TD*%
D20*
%TO.P,C2,1*%
%TO.N,Net-(D1-+)*%
X27697315Y-51908056D03*
D19*
%TO.P,C2,2*%
%TO.N,GND*%
X27697315Y-41908056D03*
%TD*%
D21*
%TO.N,Net-(D1-Pad2)*%
X78697315Y-19302685D02*
X78697315Y-23302685D01*
X78697315Y-23302685D02*
X82197315Y-26802685D01*
X82197315Y-27802685D02*
X87697315Y-33302685D01*
X82197315Y-26802685D02*
X82197315Y-27802685D01*
%TO.N,Net-(D1-+)*%
X87697315Y-15802685D02*
X94197315Y-15802685D01*
X71197315Y-53802685D02*
X70197315Y-52802685D01*
X41750000Y-100855370D02*
X41750000Y-103467500D01*
X59697315Y-72302685D02*
X59387315Y-72302685D01*
X79697315Y-46802685D02*
X72697315Y-53802685D01*
X27697315Y-71802685D02*
X43792315Y-87897685D01*
X94197315Y-45802685D02*
X93197315Y-46802685D01*
X59387315Y-72302685D02*
X43792315Y-87897685D01*
X93197315Y-46802685D02*
X79697315Y-46802685D01*
X43792315Y-87897685D02*
X40387315Y-91302685D01*
X10197315Y-71802685D02*
X8197315Y-73802685D01*
X64697315Y-72302685D02*
X59697315Y-72302685D01*
X60197315Y-71802685D02*
X59697315Y-72302685D01*
X66091945Y-73697315D02*
X64697315Y-72302685D01*
X27697315Y-71802685D02*
X10197315Y-71802685D01*
X40387315Y-91302685D02*
X40387315Y-99492685D01*
X80197315Y-73697315D02*
X66091945Y-73697315D01*
X94197315Y-15802685D02*
X94197315Y-45802685D01*
X27697315Y-51908056D02*
X27697315Y-71802685D01*
X10802686Y-51908056D02*
X8197315Y-49302685D01*
X40387315Y-99492685D02*
X41750000Y-100855370D01*
X60197315Y-52802685D02*
X60197315Y-71802685D01*
X72697315Y-53802685D02*
X71197315Y-53802685D01*
X70197315Y-52802685D02*
X60197315Y-52802685D01*
X27697315Y-51908056D02*
X10802686Y-51908056D01*
%TO.N,GND*%
X27697315Y-41908056D02*
X27302686Y-41908056D01*
X60197315Y-42802685D02*
X28591944Y-42802685D01*
X61197315Y-41802685D02*
X60197315Y-42802685D01*
X8197315Y-44302685D02*
X4197315Y-44302685D01*
X27697315Y-104302685D02*
X31697315Y-108302685D01*
X4197315Y-44302685D02*
X3697315Y-44802685D01*
X48007315Y-91302685D02*
X48007315Y-91992685D01*
X28591944Y-42802685D02*
X27697315Y-41908056D01*
X87697315Y-40802685D02*
X80697315Y-40802685D01*
X46697315Y-108302685D02*
X46697315Y-100802685D01*
X59697315Y-82302685D02*
X50697315Y-91302685D01*
X80197315Y-78697315D02*
X63302685Y-78697315D01*
X48007315Y-91992685D02*
X46697315Y-93302685D01*
X50697315Y-91302685D02*
X48007315Y-91302685D01*
X24908057Y-44302685D02*
X8197315Y-44302685D01*
X79697315Y-41802685D02*
X61197315Y-41802685D01*
X80697315Y-40802685D02*
X79697315Y-41802685D01*
X3697315Y-78802685D02*
X8197315Y-78802685D01*
X3697315Y-44802685D02*
X3697315Y-78802685D01*
X27302686Y-41908056D02*
X24908057Y-44302685D01*
X31697315Y-108302685D02*
X46697315Y-108302685D01*
X27697315Y-81802685D02*
X11197315Y-81802685D01*
X11197315Y-81802685D02*
X8197315Y-78802685D01*
X63302685Y-78697315D02*
X59697315Y-82302685D01*
X46697315Y-93302685D02*
X46697315Y-100802685D01*
X27697315Y-81802685D02*
X27697315Y-104302685D01*
%TO.N,Net-(J2-Pin_1)*%
X25697315Y-8302685D02*
X31197315Y-2802685D01*
X82697315Y-8302685D02*
X82697315Y-20802685D01*
X31197315Y-2802685D02*
X77197315Y-2802685D01*
X82697315Y-20802685D02*
X87697315Y-25802685D01*
X77197315Y-2802685D02*
X82697315Y-8302685D01*
%TO.N,Net-(J2-Pin_2)*%
X30697315Y-19052685D02*
X25447315Y-24302685D01*
X30697315Y-8302685D02*
X30697315Y-19052685D01*
%TO.N,Net-(SW1-A)*%
X62947315Y-8770185D02*
X62947315Y-24302685D01*
%TO.N,Net-(SW1-B)*%
X72197315Y-18302685D02*
X72197315Y-24802685D01*
X67947315Y-14052685D02*
X72197315Y-18302685D01*
X74197315Y-26802685D02*
X75797315Y-26802685D01*
X72197315Y-24802685D02*
X74197315Y-26802685D01*
X67947315Y-8770185D02*
X67947315Y-14052685D01*
%TD*%
M02*
