<?xml version="1.0" standalone="no"?>
<!DOCTYPE svg PUBLIC "-//W3C//DTD SVG 1.1//EN"
"http://www.w3.org/Graphics/SVG/1.1/DTD/svg11.dtd">
<svg width="374.362" height="440.504" viewBox="0 0 7799.21 9177.17" version="1.1"
xmlns="http://www.w3.org/2000/svg"
xmlns:xlink="http://www.w3.org/1999/xlink">
<circle cx="2068.87" cy="1970.5" r="39.3701" style=""/>
<circle cx="2088.56" cy="710.655" r="39.3701" style=""/>
<circle cx="2482.26" cy="710.655" r="39.3701" style=""/>
<circle cx="5021.63" cy="747.426" r="39.3701" style=""/>
<circle cx="5415.33" cy="747.426" r="39.3701" style=""/>
<circle cx="6261.79" cy="1576.8" r="39.3701" style=""/>
<circle cx="6033.44" cy="2167.35" r="39.3701" style=""/>
<circle cx="6970.45" cy="1301.21" r="39.3701" style=""/>
<circle cx="6970.45" cy="2088.61" r="39.3701" style=""/>
<circle cx="6970.45" cy="2679.16" r="39.3701" style=""/>
<circle cx="6970.45" cy="3269.71" r="39.3701" style=""/>
<circle cx="5021.63" cy="1970.5" r="39.3701" style=""/>
<circle cx="6340.53" cy="3348.45" r="39.3701" style=""/>
<circle cx="6340.53" cy="3742.15" r="39.3701" style=""/>
<circle cx="6379.9" cy="5859.79" r="39.3701" style=""/>
<circle cx="6379.9" cy="6253.49" r="39.3701" style=""/>
<circle cx="3845.25" cy="7246.09" r="39.3701" style=""/>
<circle cx="3746.27" cy="8203.96" r="39.3701" style=""/>
<circle cx="3352.57" cy="8203.96" r="39.3701" style=""/>
<circle cx="3245.25" cy="7246.09" r="39.3701" style=""/>
<circle cx="710.605" cy="6261.84" r="39.3701" style=""/>
<circle cx="710.605" cy="5868.14" r="39.3701" style=""/>
<circle cx="710.605" cy="3939" r="39.3701" style=""/>
<circle cx="710.605" cy="3545.3" r="39.3701" style=""/>
<circle cx="2246.04" cy="3356.72" r="98.4252" style=""/>
<circle cx="2246.04" cy="4144.12" r="98.4252" style=""/>
<circle cx="2246.04" cy="5710.65" r="98.4252" style=""/>
<circle cx="2246.04" cy="6498.06" r="98.4252" style=""/>
<circle cx="4765.72" cy="6537.43" r="98.4252" style=""/>
<circle cx="4765.72" cy="5750.02" r="98.4252" style=""/>
<circle cx="4805.09" cy="4214.59" r="98.4252" style=""/>
<circle cx="4805.09" cy="3427.19" r="98.4252" style=""/>
<circle cx="3545.25" cy="1970.5" r="98.4252" style=""/>
</svg>
