<?xml version="1.0" standalone="no"?>
<!DOCTYPE svg PUBLIC "-//W3C//DTD SVG 1.1//EN"
"http://www.w3.org/Graphics/SVG/1.1/DTD/svg11.dtd">
<svg width="374.362" height="440.504" viewBox="0 0 7799.21 9177.17" version="1.1"
xmlns="http://www.w3.org/2000/svg"
xmlns:xlink="http://www.w3.org/1999/xlink">
<g fill-rule="evenodd"><path d="M 277.558,6261.81 L 277.558,3584.65 L 278.527,3572.33 L 281.412,3560.31 L 286.14,3548.9 L 292.596,3538.36 L 300.62,3528.97 L 339.99,3489.6 L 351.922,3479.81 L 365.535,3472.53 L 380.307,3468.05 L 395.668,3466.54 L 652.473,3466.54 L 661.417,3460.04 L 680.215,3451.67 L 700.342,3447.39 L 720.918,3447.39 L 741.045,3451.67 L 759.843,3460.04 L 768.786,3466.54 L 1993.82,3466.54 L 2090.01,3370.34 L 2088.58,3356.72 L 2092.02,3323.98 L 2102.2,3292.67 L 2118.66,3264.16 L 2140.69,3239.69 L 2167.32,3220.34 L 2197.4,3206.95 L 2229.6,3200.1 L 2262.52,3200.1 L 2294.73,3206.95 L 2324.8,3220.34 L 2351.44,3239.69 L 2373.47,3264.16 L 2389.93,3292.67 L 2400.1,3323.98 L 2402.67,3348.43 L 4669.73,3348.43 L 4677.71,3334.6 L 4699.74,3310.13 L 4726.38,3290.78 L 4756.45,3277.39 L 4788.66,3270.55 L 4821.58,3270.55 L 4851.45,3276.9 L 4853.73,3275.68 L 4868.5,3271.2 L 4883.86,3269.69 L 6282.39,3269.69 L 6291.34,3263.19 L 6310.14,3254.82 L 6326.22,3251.4 L 6363.61,3214.01 L 6373.01,3205.98 L 6383.54,3199.53 L 6394.96,3194.8 L 6406.97,3191.91 L 6419.29,3190.94 L 7049.21,3190.94 L 7049.21,3348.43 L 6451.91,3348.42 L 6437.46,3362.87 L 6436.83,3368.89 L 6430.47,3388.46 L 6420.18,3406.28 L 6406.41,3421.57 L 6389.76,3433.66 L 6370.97,3442.03 L 6350.84,3446.31 L 6330.26,3446.31 L 6310.14,3442.03 L 6291.34,3433.66 L 6282.39,3427.17 L 4962.6,3427.17 L 4959.16,3459.91 L 4948.98,3491.22 L 4932.52,3519.73 L 4910.49,3544.2 L 4883.86,3563.55 L 4853.78,3576.94 L 4821.58,3583.78 L 4788.66,3583.78 L 4756.45,3576.94 L 4726.38,3563.55 L 4699.74,3544.2 L 4677.71,3519.73 L 4669.73,3505.91 L 2316.51,3505.91 L 2300.14,3504.09 L 2294.73,3506.49 L 2262.52,3513.34 L 2229.6,3513.34 L 2197.4,3506.49 L 2182.99,3500.08 L 2082.11,3600.95 L 2072.72,3608.98 L 2062.18,3615.43 L 2050.77,3620.16 L 2038.75,3623.05 L 2026.44,3624.02 L 768.788,3624.02 L 759.843,3630.51 L 741.045,3638.88 L 720.918,3643.16 L 700.342,3643.16 L 680.215,3638.88 L 661.417,3630.51 L 652.472,3624.02 L 435.038,3624.02 L 435.038,6183.07 L 652.475,6183.07 L 661.417,6176.57 L 680.215,6168.2 L 700.342,6163.93 L 720.918,6163.93 L 741.045,6168.2 L 759.843,6176.57 L 776.489,6188.67 L 790.258,6203.96 L 800.546,6221.78 L 806.904,6241.35 L 807.536,6247.36 L 979.465,6419.29 L 2110.68,6419.29 L 2118.66,6405.47 L 2140.69,6381 L 2167.32,6361.65 L 2197.4,6348.26 L 2229.6,6341.41 L 2262.52,6341.41 L 2294.73,6348.26 L 2324.8,6361.65 L 2351.44,6381 L 2373.47,6405.47 L 2389.93,6433.98 L 2400.1,6465.29 L 2403.54,6498.03 L 2400.1,6530.77 L 2389.93,6562.08 L 2373.47,6590.6 L 2351.44,6615.06 L 2324.8,6634.41 L 2324.8,8237.07 L 2593.64,8505.91 L 3663.38,8505.91 L 3663.38,8275.71 L 3657.09,8268.72 L 3645.57,8248.76 L 3638.45,8226.84 L 3636.04,8203.92 L 3638.45,8181 L 3645.57,8159.09 L 3657.09,8139.13 L 3663.38,8132.14 L 3663.38,7403.54 L 3664.9,7388.18 L 3669.38,7373.41 L 3676.65,7359.8 L 3686.45,7347.87 L 3753.61,7280.7 L 3749,7266.53 L 3746.85,7246.06 L 3749,7225.6 L 3755.36,7206.03 L 3765.65,7188.21 L 3779.42,7172.92 L 3796.06,7160.82 L 3814.86,7152.46 L 3834.99,7148.18 L 3855.56,7148.18 L 3875.69,7152.46 L 3894.49,7160.82 L 3903.43,7167.32 L 4024.47,7167.32 L 4614.15,6577.65 L 4611.71,6570.14 L 4608.27,6537.4 L 4611.71,6504.66 L 4621.88,6473.35 L 4638.34,6444.84 L 4660.37,6420.37 L 4687.01,6401.02 L 4717.08,6387.63 L 4749.29,6380.78 L 4782.21,6380.78 L 4805.96,6385.83 L 4993.96,6197.84 L 5005.89,6188.04 L 5019.5,6180.77 L 5034.27,6176.29 L 5049.63,6174.77 L 6321.77,6174.77 L 6330.71,6168.28 L 6349.51,6159.91 L 6369.63,6155.63 L 6390.21,6155.63 L 6410.34,6159.91 L 6429.13,6168.28 L 6445.78,6180.37 L 6459.55,6195.66 L 6469.84,6213.48 L 6476.2,6233.05 L 6478.35,6253.51 L 6476.2,6273.98 L 6469.84,6293.55 L 6459.55,6311.37 L 6445.78,6326.66 L 6429.13,6338.75 L 6410.34,6347.12 L 6390.21,6351.4 L 6369.63,6351.4 L 6349.51,6347.12 L 6330.71,6338.75 L 6321.76,6332.25 L 5082.25,6332.25 L 4917.35,6497.15 L 4919.79,6504.66 L 4923.23,6537.4 L 4919.79,6570.14 L 4909.61,6601.45 L 4893.15,6629.97 L 4871.12,6654.43 L 4844.49,6673.78 L 4814.41,6687.17 L 4782.21,6694.02 L 4749.29,6694.02 L 4725.53,6688.97 L 4112.76,7301.74 L 4100.83,7311.53 L 4087.22,7318.81 L 4072.45,7323.29 L 4057.09,7324.8 L 3919.76,7324.8 L 3918.02,7330.53 L 3910.74,7344.14 L 3900.95,7356.07 L 3820.86,7436.16 L 3820.86,8122.92 L 3835.46,8139.13 L 3846.98,8159.09 L 3854.1,8181 L 3856.51,8203.92 L 3854.1,8226.84 L 3846.98,8248.76 L 3835.46,8268.72 L 3820.86,8284.93 L 3820.86,8584.65 L 3819.35,8600.01 L 3814.87,8614.78 L 3807.59,8628.39 L 3797.8,8640.32 L 3785.87,8650.12 L 3772.26,8657.39 L 3757.49,8661.87 L 3742.12,8663.39 L 2561.02,8663.39 L 2548.7,8662.42 L 2536.69,8659.53 L 2525.27,8654.8 L 2514.74,8648.35 L 2505.34,8640.32 L 2190.38,8325.36 L 2180.59,8313.43 L 2173.32,8299.82 L 2168.83,8285.04 L 2167.32,8269.68 L 2167.32,6634.41 L 2140.69,6615.06 L 2118.66,6590.6 L 2110.68,6576.77 L 946.85,6576.77 L 931.489,6575.26 L 916.717,6570.78 L 903.104,6563.5 L 891.172,6553.71 L 696.302,6358.84 L 680.215,6355.42 L 661.417,6347.05 L 652.47,6340.55 L 356.298,6340.55 L 340.937,6339.04 L 326.165,6334.56 L 312.552,6327.28 L 300.62,6317.49 L 290.828,6305.55 L 283.552,6291.94 L 279.071,6277.17 L 277.558,6261.81 z " style="fill-opacity:1.000000;fill:rgb(167,241,217);stroke:rgb(0,0,0);stroke-width:2"/></g>
<g fill-rule="evenodd"><path d="M 612.205,5868.11 L 614.356,5847.65 L 620.714,5828.08 L 631.002,5810.26 L 644.771,5794.97 L 661.417,5782.87 L 680.215,5774.5 L 696.299,5771.08 L 812.433,5654.95 L 824.365,5645.16 L 837.978,5637.88 L 852.749,5633.4 L 868.11,5631.89 L 2088.58,5631.89 L 2088.58,5572.83 L 2089.01,5568.74 L 2090.28,5564.83 L 2092.34,5561.26 L 2095.1,5558.21 L 2098.43,5555.79 L 2102.18,5554.11 L 2106.21,5553.26 L 2167.32,5553.15 L 2167.32,4301.6 L 2106.21,4301.5 L 2102.18,4300.64 L 2098.43,4298.97 L 2095.1,4296.55 L 2092.34,4293.49 L 2090.28,4289.93 L 2089.01,4286.01 L 2088.58,4281.92 L 2088.58,4222.86 L 915.776,4222.86 L 900.415,4221.35 L 885.643,4216.87 L 872.03,4209.59 L 860.098,4199.8 L 696.301,4036 L 680.215,4032.58 L 661.417,4024.22 L 644.771,4012.12 L 631.002,3996.83 L 620.714,3979.01 L 614.356,3959.44 L 612.205,3938.98 L 614.356,3918.51 L 620.714,3898.94 L 631.002,3881.12 L 644.771,3865.83 L 661.417,3853.74 L 680.215,3845.37 L 700.342,3841.09 L 720.918,3841.09 L 741.045,3845.37 L 759.843,3853.74 L 776.489,3865.83 L 790.258,3881.12 L 800.546,3898.94 L 806.904,3918.51 L 807.537,3924.53 L 948.391,4065.38 L 2088.58,4065.38 L 2088.58,4006.33 L 2089.01,4002.24 L 2090.28,3998.32 L 2092.34,3994.76 L 2095.1,3991.7 L 2098.43,3989.28 L 2102.18,3987.61 L 2106.21,3986.75 L 2108.27,3986.64 L 2383.86,3986.64 L 2385.92,3986.75 L 2389.94,3987.61 L 2393.7,3989.28 L 2397.03,3991.7 L 2399.78,3994.76 L 2401.84,3998.32 L 2403.11,4002.24 L 2403.54,4006.33 L 2403.54,4281.92 L 2403.11,4286.01 L 2401.84,4289.93 L 2399.78,4293.49 L 2397.03,4296.55 L 2393.7,4298.97 L 2389.94,4300.64 L 2385.92,4301.5 L 2324.8,4301.6 L 2324.8,5553.15 L 2385.92,5553.26 L 2389.94,5554.11 L 2393.7,5555.79 L 2397.03,5558.21 L 2399.78,5561.26 L 2401.84,5564.83 L 2403.11,5568.74 L 2403.54,5572.83 L 2403.54,5756.76 L 3513.38,6866.6 L 4608.27,5771.71 L 4608.27,5612.2 L 4608.7,5608.11 L 4609.97,5604.2 L 4612.03,5600.63 L 4614.78,5597.58 L 4618.11,5595.16 L 4621.87,5593.48 L 4625.9,5592.63 L 4627.95,5592.52 L 4726.38,5592.52 L 4726.38,4372.05 L 4665.27,4371.94 L 4661.24,4371.08 L 4657.48,4369.41 L 4654.15,4366.99 L 4651.4,4363.93 L 4649.34,4360.37 L 4648.07,4356.45 L 4647.64,4352.36 L 4647.64,4076.77 L 4648.07,4072.68 L 4649.34,4068.77 L 4651.4,4065.2 L 4654.15,4062.14 L 4657.48,4059.72 L 4661.24,4058.05 L 4665.27,4057.19 L 4667.32,4057.09 L 4942.91,4057.09 L 4944.97,4057.19 L 4949,4058.05 L 4952.76,4059.72 L 4956.09,4062.14 L 4958.84,4065.2 L 4960.9,4068.77 L 4962.17,4072.68 L 4962.6,4076.77 L 4962.6,4135.82 L 5592.52,4135.82 L 5604.84,4136.79 L 5616.85,4139.68 L 5628.27,4144.41 L 5638.8,4150.86 L 5648.2,4158.89 L 5703.87,4214.57 L 5756.75,4214.57 L 6243.64,3727.68 L 6244.28,3721.66 L 6250.64,3702.09 L 6260.92,3684.27 L 6274.69,3668.98 L 6291.34,3656.89 L 6310.14,3648.52 L 6330.26,3644.24 L 6350.84,3644.24 L 6370.97,3648.52 L 6389.76,3656.89 L 6398.71,3663.39 L 7370.93,3663.39 L 7403.54,3630.77 L 7403.54,1379.92 L 7028.63,1379.92 L 7019.69,1386.42 L 7000.89,1394.79 L 6980.76,1399.07 L 6960.18,1399.07 L 6940.06,1394.79 L 6921.26,1386.42 L 6904.61,1374.33 L 6890.84,1359.03 L 6880.56,1341.21 L 6874.2,1321.64 L 6872.05,1301.18 L 6874.2,1280.72 L 6880.56,1261.15 L 6890.84,1243.33 L 6904.61,1228.04 L 6921.26,1215.94 L 6940.06,1207.57 L 6960.18,1203.3 L 6980.76,1203.3 L 7000.89,1207.57 L 7019.69,1215.94 L 7028.63,1222.44 L 7482.28,1222.44 L 7497.64,1223.95 L 7512.41,1228.43 L 7526.03,1235.71 L 7537.96,1245.5 L 7547.75,1257.43 L 7555.03,1271.05 L 7559.51,1285.82 L 7561.02,1301.18 L 7561.02,3663.39 L 7559.51,3678.75 L 7555.03,3693.52 L 7547.75,3707.13 L 7537.96,3719.06 L 7459.22,3797.8 L 7447.29,3807.6 L 7433.67,3814.87 L 7418.9,3819.35 L 7403.54,3820.87 L 6398.71,3820.87 L 6389.76,3827.36 L 6370.97,3835.73 L 6354.88,3839.15 L 5845.05,4348.98 L 5833.12,4358.78 L 5819.5,4366.05 L 5804.73,4370.53 L 5789.37,4372.05 L 5671.26,4372.05 L 5658.94,4371.08 L 5646.93,4368.19 L 5635.51,4363.46 L 5624.98,4357.01 L 5615.58,4348.98 L 5559.9,4293.3 L 4962.6,4293.3 L 4962.6,4352.36 L 4962.17,4356.45 L 4960.9,4360.37 L 4958.84,4363.93 L 4956.09,4366.99 L 4952.76,4369.41 L 4949,4371.08 L 4944.97,4371.94 L 4883.86,4372.05 L 4883.86,5592.52 L 4903.54,5592.52 L 4905.6,5592.63 L 4909.63,5593.48 L 4913.39,5595.16 L 4916.72,5597.58 L 4919.47,5600.63 L 4921.53,5604.2 L 4922.8,5608.11 L 4923.23,5612.2 L 4923.23,5671.26 L 5159.45,5671.26 L 5174.81,5672.77 L 5189.58,5677.25 L 5203.19,5684.53 L 5215.13,5694.32 L 5301.88,5781.07 L 6321.76,5781.07 L 6330.71,5774.57 L 6349.51,5766.21 L 6369.63,5761.93 L 6390.21,5761.93 L 6410.34,5766.21 L 6429.13,5774.57 L 6445.78,5786.67 L 6459.55,5801.96 L 6469.84,5819.78 L 6476.2,5839.35 L 6478.35,5859.81 L 6476.2,5880.28 L 6469.84,5899.85 L 6459.55,5917.67 L 6445.78,5932.96 L 6429.13,5945.05 L 6410.34,5953.42 L 6390.21,5957.7 L 6369.63,5957.7 L 6349.51,5953.42 L 6330.71,5945.05 L 6321.76,5938.55 L 5269.26,5938.55 L 5253.9,5937.04 L 5239.13,5932.56 L 5225.52,5925.28 L 5213.58,5915.49 L 5126.83,5828.74 L 4923.23,5828.74 L 4923.23,5887.8 L 4922.8,5891.89 L 4921.53,5895.8 L 4919.47,5899.37 L 4916.72,5902.42 L 4913.39,5904.84 L 4909.63,5906.52 L 4905.6,5907.37 L 4695.21,5907.48 L 3342.18,7260.51 L 3341.55,7266.53 L 3335.19,7286.1 L 3324.9,7303.92 L 3324.01,7304.9 L 3324.01,7858.33 L 3408.25,7942.56 L 3418.04,7954.5 L 3425.32,7968.11 L 3429.8,7982.88 L 3431.31,7998.24 L 3431.31,8093.69 L 3445.18,8093.79 L 3449.21,8094.65 L 3452.97,8096.32 L 3456.3,8098.74 L 3459.05,8101.8 L 3461.11,8105.36 L 3462.38,8109.28 L 3462.81,8113.37 L 3462.81,8294.47 L 3462.38,8298.57 L 3461.11,8302.48 L 3459.05,8306.04 L 3456.3,8309.1 L 3452.97,8311.52 L 3449.21,8313.2 L 3445.18,8314.05 L 3443.12,8314.16 L 3262.02,8314.16 L 3259.96,8314.05 L 3255.94,8313.2 L 3252.18,8311.52 L 3248.85,8309.1 L 3246.1,8306.04 L 3244.04,8302.48 L 3242.77,8298.57 L 3242.34,8294.47 L 3242.34,8113.37 L 3242.77,8109.28 L 3244.04,8105.36 L 3246.1,8101.8 L 3248.85,8098.74 L 3252.18,8096.32 L 3255.94,8094.65 L 3259.96,8093.79 L 3273.83,8093.69 L 3273.83,8030.86 L 3189.6,7946.62 L 3179.8,7934.69 L 3172.53,7921.08 L 3168.05,7906.3 L 3166.53,7890.94 L 3166.53,7304.9 L 3165.65,7303.92 L 3155.36,7286.1 L 3149,7266.53 L 3146.85,7246.06 L 3149,7225.6 L 3155.36,7206.03 L 3165.65,7188.21 L 3179.42,7172.92 L 3196.06,7160.82 L 3214.86,7152.46 L 3230.94,7149.04 L 3402.03,6977.95 L 2292.19,5868.11 L 2108.27,5868.11 L 2106.21,5868 L 2102.18,5867.15 L 2098.43,5865.47 L 2095.1,5863.05 L 2092.34,5860 L 2090.28,5856.43 L 2089.01,5852.52 L 2088.58,5848.43 L 2088.58,5789.37 L 900.725,5789.37 L 807.537,5882.56 L 806.904,5888.57 L 800.546,5908.14 L 790.258,5925.96 L 776.489,5941.25 L 759.843,5953.35 L 741.045,5961.72 L 720.918,5966 L 700.342,5966 L 680.215,5961.72 L 661.417,5953.35 L 644.771,5941.25 L 631.002,5925.96 L 620.714,5908.14 L 614.356,5888.57 L 612.205,5868.11 z " style="fill-opacity:1.000000;fill:rgb(42,130,200);stroke:rgb(0,0,0);stroke-width:2"/></g>
<g fill-rule="evenodd"><path d="M 1942.24,1995.16 L 1942.24,1945.78 L 1952.51,1897.48 L 1972.59,1852.36 L 2001.62,1812.41 L 2038.32,1779.37 L 2081.09,1754.67 L 2128.05,1739.41 L 2177.17,1734.25 L 2193.76,1734.25 L 2403.54,1524.47 L 2403.54,787.021 L 2393.1,775.425 L 2381.58,755.467 L 2374.46,733.549 L 2372.05,710.63 L 2374.46,687.711 L 2381.58,665.793 L 2393.1,645.835 L 2408.52,628.708 L 2427.17,615.163 L 2448.22,605.789 L 2470.76,600.998 L 2493.81,600.998 L 2516.35,605.789 L 2537.4,615.163 L 2556.05,628.708 L 2571.47,645.835 L 2582.99,665.793 L 2590.11,687.711 L 2592.52,710.63 L 2590.11,733.549 L 2582.99,755.467 L 2571.47,775.425 L 2561.02,787.025 L 2561.02,1557.09 L 2559.51,1572.45 L 2555.03,1587.22 L 2547.75,1600.83 L 2537.96,1612.76 L 2416.47,1734.25 L 3013.78,1734.25 L 3062.89,1739.41 L 3109.86,1754.67 L 3152.63,1779.37 L 3189.33,1812.41 L 3218.35,1852.36 L 3238.44,1897.48 L 3248.71,1945.78 L 3248.71,1995.16 L 3238.44,2043.47 L 3218.35,2088.58 L 3189.33,2128.53 L 3152.63,2161.58 L 3109.86,2186.27 L 3062.89,2201.53 L 3013.78,2206.69 L 2177.17,2206.69 L 2128.05,2201.53 L 2081.09,2186.27 L 2038.32,2161.58 L 2001.62,2128.53 L 1972.59,2088.58 L 1952.51,2043.47 L 1942.24,1995.16 z " style="fill-opacity:1.000000;fill:rgb(216,254,67);stroke:rgb(0,0,0);stroke-width:2"/></g>
<g fill-rule="evenodd"><path d="M 1978.35,801.181 L 1978.35,620.079 L 1978.78,615.986 L 1980.05,612.072 L 1982.11,608.508 L 1984.86,605.45 L 1988.19,603.031 L 1991.95,601.357 L 1995.97,600.502 L 2087.46,600.394 L 2465.97,221.88 L 2475.37,213.855 L 2485.9,207.399 L 2497.32,202.671 L 2509.33,199.786 L 2521.65,198.817 L 6143.7,198.817 L 6156.02,199.786 L 6168.03,202.671 L 6179.45,207.399 L 6189.98,213.855 L 6199.38,221.88 L 6632.45,654.952 L 6642.24,666.884 L 6649.52,680.497 L 6654,695.268 L 6655.51,710.629 L 6655.51,1662.27 L 6984.8,1991.56 L 7000.89,1994.97 L 7019.69,2003.34 L 7036.33,2015.44 L 7050.1,2030.73 L 7060.39,2048.55 L 7066.75,2068.12 L 7068.9,2088.58 L 7066.75,2109.05 L 7060.39,2128.62 L 7050.1,2146.44 L 7036.33,2161.73 L 7019.69,2173.82 L 7000.89,2182.19 L 6980.76,2186.47 L 6960.18,2186.47 L 6940.06,2182.19 L 6921.26,2173.82 L 6904.61,2161.73 L 6890.84,2146.44 L 6880.56,2128.62 L 6874.2,2109.05 L 6873.57,2103.03 L 6521.09,1750.56 L 6513.07,1741.16 L 6506.61,1730.63 L 6501.88,1719.21 L 6499,1707.2 L 6498.03,1694.88 L 6498.03,743.244 L 6111.08,356.297 L 2554.27,356.297 L 2198.82,711.747 L 2198.82,801.181 L 2198.39,805.274 L 2197.12,809.188 L 2195.06,812.752 L 2192.31,815.81 L 2188.98,818.229 L 2185.22,819.903 L 2181.19,820.758 L 2179.13,820.866 L 1998.03,820.866 L 1995.97,820.758 L 1991.95,819.903 L 1988.19,818.229 L 1984.86,815.81 L 1982.11,812.752 L 1980.05,809.188 L 1978.78,805.274 L 1978.35,801.181 z " style="fill-opacity:1.000000;fill:rgb(77,152,85);stroke:rgb(0,0,0);stroke-width:2"/></g>
<g fill-rule="evenodd"><path d="M 2727,8203.24 L 2727.46,8198.63 L 2728.8,8194.2 L 2730.98,8190.11 L 2733.92,8186.53 L 2737.5,8183.6 L 2741.58,8181.41 L 2746.02,8180.07 L 2750.62,8179.62 L 2816.99,8179.62 L 2816.99,8113.25 L 2817.45,8108.64 L 2818.79,8104.21 L 2820.97,8100.12 L 2823.91,8096.54 L 2827.49,8093.61 L 2831.57,8091.42 L 2836.01,8090.08 L 2840.61,8089.63 L 2845.22,8090.08 L 2849.65,8091.42 L 2853.74,8093.61 L 2857.32,8096.54 L 2860.26,8100.12 L 2862.44,8104.21 L 2863.78,8108.64 L 2864.24,8113.25 L 2864.24,8179.62 L 2930.6,8179.62 L 2935.21,8180.07 L 2939.64,8181.41 L 2943.73,8183.6 L 2947.31,8186.53 L 2950.24,8190.11 L 2952.43,8194.2 L 2953.77,8198.63 L 2954.22,8203.24 L 2953.77,8207.85 L 2952.43,8212.28 L 2950.24,8216.36 L 2947.31,8219.94 L 2943.73,8222.88 L 2939.64,8225.06 L 2935.21,8226.41 L 2930.6,8226.86 L 2864.24,8226.86 L 2864.24,8293.23 L 2863.78,8297.83 L 2862.44,8302.26 L 2860.26,8306.35 L 2857.32,8309.93 L 2853.74,8312.87 L 2849.65,8315.05 L 2845.22,8316.39 L 2840.61,8316.85 L 2836.01,8316.39 L 2831.57,8315.05 L 2827.49,8312.87 L 2823.91,8309.93 L 2820.97,8306.35 L 2818.79,8302.26 L 2817.45,8297.83 L 2816.99,8293.23 L 2816.99,8226.86 L 2750.62,8226.86 L 2746.02,8226.41 L 2741.58,8225.06 L 2737.5,8222.88 L 2733.92,8219.94 L 2730.98,8216.36 L 2728.8,8212.28 L 2727.46,8207.85 L 2727,8203.24 z " style="fill-opacity:1.000000;fill:rgb(140,226,179);stroke:rgb(0,0,0);stroke-width:2"/></g>
<g fill-rule="evenodd"><path d="M 3841.85,1995.16 L 3841.85,1945.78 L 3852.11,1897.48 L 3872.2,1852.36 L 3901.23,1812.41 L 3937.92,1779.37 L 3980.69,1754.67 L 4027.66,1739.41 L 4076.77,1734.25 L 4913.39,1734.25 L 4942.91,1737.36 L 4942.91,857.677 L 4929.04,857.569 L 4925.02,856.714 L 4921.26,855.04 L 4917.93,852.621 L 4915.18,849.563 L 4913.12,845.999 L 4911.85,842.085 L 4911.42,837.992 L 4911.42,656.89 L 4911.85,652.797 L 4913.12,648.883 L 4915.18,645.319 L 4917.93,642.261 L 4921.26,639.842 L 4925.02,638.168 L 4929.04,637.313 L 4931.1,637.205 L 5112.2,637.205 L 5114.26,637.313 L 5118.29,638.168 L 5122.05,639.842 L 5125.38,642.261 L 5128.13,645.319 L 5130.19,648.883 L 5131.46,652.797 L 5131.89,656.89 L 5131.89,837.992 L 5131.46,842.085 L 5130.19,845.999 L 5128.13,849.563 L 5125.38,852.621 L 5122.05,855.04 L 5118.29,856.714 L 5114.26,857.569 L 5100.39,857.677 L 5100.39,1828.18 L 5117.96,1852.36 L 5138.04,1897.48 L 5148.31,1945.78 L 5148.31,1995.16 L 5138.04,2043.47 L 5117.96,2088.58 L 5088.93,2128.53 L 5052.23,2161.58 L 5009.47,2186.27 L 4962.5,2201.53 L 4913.39,2206.69 L 4076.77,2206.69 L 4027.66,2201.53 L 3980.69,2186.27 L 3937.92,2161.58 L 3901.23,2128.53 L 3872.2,2088.58 L 3852.11,2043.47 L 3841.85,1995.16 z " style="fill-opacity:1.000000;fill:rgb(71,23,17);stroke:rgb(0,0,0);stroke-width:2"/></g>
<g fill-rule="evenodd"><path d="M 4026.22,8203.24 L 4026.67,8198.63 L 4028.01,8194.2 L 4030.2,8190.11 L 4033.13,8186.53 L 4036.71,8183.6 L 4040.8,8181.41 L 4045.23,8180.07 L 4049.84,8179.62 L 4229.81,8179.62 L 4234.42,8180.07 L 4238.85,8181.41 L 4242.94,8183.6 L 4246.52,8186.53 L 4249.45,8190.11 L 4251.64,8194.2 L 4252.98,8198.63 L 4253.43,8203.24 L 4252.98,8207.85 L 4251.64,8212.28 L 4249.45,8216.36 L 4246.52,8219.94 L 4242.94,8222.88 L 4238.85,8225.06 L 4234.42,8226.41 L 4229.81,8226.86 L 4049.84,8226.86 L 4045.23,8226.41 L 4040.8,8225.06 L 4036.71,8222.88 L 4033.13,8219.94 L 4030.2,8216.36 L 4028.01,8212.28 L 4026.67,8207.85 L 4026.22,8203.24 z " style="fill-opacity:1.000000;fill:rgb(152,84,47);stroke:rgb(0,0,0);stroke-width:2"/></g>
<g fill-rule="evenodd"><path d="M 4628.78,8233.93 L 4628.78,7612.49 L 7292.45,7612.49 L 7292.45,8233.93 L 4628.78,8233.93M 4668.15,8041.32 L 4668.46,8045.95 L 4670.85,8054.88 L 4675.48,8062.89 L 4682.02,8069.43 L 4690.03,8074.06 L 4698.96,8076.45 L 4708.21,8076.45 L 4717.15,8074.06 L 4725.16,8069.43 L 4731.7,8062.89 L 4736.32,8054.88 L 4738.72,8045.95 L 4739.02,8041.32 L 4739.02,7864.09 L 4746.87,7848.39 L 4762.57,7840.54 L 4796.46,7840.54 L 4817.58,7851.1 L 4820.01,7853.52 L 4820.01,8041.32 L 4820.31,8045.95 L 4822.71,8054.88 L 4827.33,8062.89 L 4833.87,8069.43 L 4841.88,8074.06 L 4850.82,8076.45 L 4860.07,8076.45 L 4869,8074.06 L 4877.01,8069.43 L 4883.55,8062.89 L 4888.18,8054.88 L 4890.57,8045.95 L 4890.88,8041.32 L 4890.88,7805.1 L 4890.57,7800.48 L 4888.18,7791.54 L 4883.55,7783.53 L 4877.01,7776.99 L 4869,7772.37 L 4860.07,7769.97 L 4850.82,7769.97 L 4841.88,7772.37 L 4833.87,7776.99 L 4831.86,7779 L 4818.38,7772.37 L 4816.4,7771.61 L 4809.45,7769.97 L 4804.83,7769.67 L 4751.69,7769.76 L 4749.58,7769.97 L 4742.63,7771.61 L 4740.65,7772.37 L 4704.61,7790.28 L 4700.61,7792.62 L 4697.24,7795.21 L 4693.69,7798.76 L 4691.11,7802.13 L 4688.77,7806.13 L 4670.85,7842.16 L 4670.1,7844.15 L 4668.46,7851.1 L 4668.24,7853.21 L 4668.15,8041.32M 4955.23,7801.06 L 4955.38,7810.31 L 4956.36,7814.84 L 5023.85,8051.06 L 5025.41,8055.42 L 5027.45,8059.41 L 5030.17,8063.35 L 5033.17,8066.68 L 5036.81,8069.79 L 5040.58,8072.22 L 5044.9,8074.28 L 5049.17,8075.66 L 5053.87,8076.52 L 5058.35,8076.75 L 5063.12,8076.37 L 5067.51,8075.43 L 5072.02,8073.83 L 5076.01,8071.79 L 5079.95,8069.07 L 5083.28,8066.07 L 5086.38,8062.43 L 5088.82,8058.66 L 5090.82,8054.48 L 5125.41,7968 L 5160,8054.48 L 5162,8058.66 L 5164.44,8062.43 L 5167.54,8066.07 L 5170.87,8069.07 L 5174.81,8071.79 L 5178.8,8073.83 L 5183.31,8075.43 L 5187.7,8076.37 L 5192.47,8076.75 L 5196.95,8076.52 L 5201.65,8075.66 L 5205.92,8074.28 L 5210.24,8072.22 L 5214.01,8069.79 L 5217.65,8066.68 L 5220.65,8063.35 L 5223.37,8059.41 L 5225.41,8055.42 L 5226.97,8051.06 L 5294.46,7814.84 L 5295.44,7810.31 L 5295.59,7801.06 L 5293.35,7792.08 L 5288.86,7784 L 5282.42,7777.35 L 5274.49,7772.59 L 5265.6,7770.05 L 5256.35,7769.9 L 5247.38,7772.15 L 5239.29,7776.64 L 5232.64,7783.07 L 5227.89,7791 L 5226.32,7795.37 L 5187.31,7931.93 L 5158.31,7859.43 L 5155.88,7854.5 L 5150.16,7847.24 L 5142.75,7841.69 L 5134.16,7838.26 L 5125.84,7837.16 L 5116.66,7838.26 L 5108.07,7841.69 L 5100.66,7847.24 L 5094.94,7854.5 L 5092.51,7859.43 L 5063.51,7931.93 L 5024.5,7795.37 L 5022.93,7791 L 5018.18,7783.07 L 5011.53,7776.64 L 5003.44,7772.15 L 4994.47,7769.9 L 4985.22,7770.05 L 4976.33,7772.59 L 4968.4,7777.35 L 4961.96,7784 L 4957.47,7792.08 L 4955.23,7801.06M 5343.07,7973.83 L 5343.37,7978.46 L 5345.01,7985.4 L 5346.81,7989.68 L 5363.68,8023.42 L 5367.27,8029.15 L 5370.32,8032.63 L 5387.19,8049.5 L 5390.68,8052.56 L 5396.4,8056.14 L 5432.44,8074.06 L 5434.42,8074.81 L 5441.37,8076.45 L 5446,8076.76 L 5511.8,8076.76 L 5511.8,8159.43 L 5512.1,8164.06 L 5514.5,8172.99 L 5519.12,8181 L 5525.66,8187.54 L 5533.67,8192.17 L 5542.61,8194.56 L 5551.86,8194.56 L 5560.79,8192.17 L 5568.8,8187.54 L 5575.34,8181 L 5579.97,8172.99 L 5582.36,8164.06 L 5582.67,8159.43 L 5582.67,7805.1 L 5582.36,7800.48 L 5579.97,7791.54 L 5575.34,7783.53 L 5568.8,7776.99 L 5560.79,7772.37 L 5551.86,7769.97 L 5542.61,7769.97 L 5533.67,7772.37 L 5530.69,7774.09 L 5525.06,7771.61 L 5518.11,7769.97 L 5513.49,7769.67 L 5446,7769.67 L 5441.37,7769.97 L 5434.42,7771.61 L 5430.15,7773.41 L 5396.4,7790.28 L 5390.68,7793.86 L 5387.19,7796.92 L 5370.32,7813.79 L 5366.02,7819 L 5363.68,7823 L 5345.77,7859.03 L 5345.01,7861.02 L 5343.37,7867.97 L 5343.07,7872.59 L 5343.07,7973.83M 5663.96,8029.07 L 5666.35,8038.01 L 5670.98,8046.02 L 5674.03,8049.5 L 5690.91,8066.38 L 5694.39,8069.43 L 5702.4,8074.06 L 5711.34,8076.45 L 5720.59,8076.45 L 5729.52,8074.06 L 5737.53,8069.43 L 5741.02,8066.38 L 5757.89,8049.5 L 5760.95,8046.02 L 5765.57,8038.01 L 5767.96,8029.07 L 5767.96,8019.83 L 5765.57,8010.89 L 5760.95,8002.88 L 5757.89,7999.39 L 5741.02,7982.52 L 5737.53,7979.47 L 5729.52,7974.84 L 5720.59,7972.45 L 5711.34,7972.45 L 5702.4,7974.84 L 5694.39,7979.47 L 5690.91,7982.52 L 5674.03,7999.39 L 5670.98,8002.88 L 5666.35,8010.89 L 5663.96,8019.83 L 5663.96,8029.07M 5832.38,7973.83 L 5832.69,7978.46 L 5834.33,7985.4 L 5836.13,7989.68 L 5853,8023.42 L 5856.58,8029.15 L 5859.64,8032.63 L 5876.51,8049.5 L 5881.72,8053.8 L 5885.72,8056.14 L 5919.46,8073.02 L 5923.74,8074.81 L 5930.68,8076.45 L 5935.31,8076.76 L 5985.93,8076.76 L 5990.55,8076.45 L 5997.5,8074.81 L 5999.49,8074.06 L 6035.52,8056.14 L 6039.52,8053.8 L 6044.73,8049.5 L 6061.6,8032.63 L 6065.9,8027.42 L 6068.24,8023.42 L 6085.11,7989.68 L 6086.91,7985.4 L 6088.55,7978.46 L 6088.85,7973.83 L 6088.85,7872.59 L 6088.55,7867.97 L 6086.91,7861.02 L 6086.16,7859.03 L 6068.24,7823 L 6064.66,7817.28 L 6061.6,7813.79 L 6044.73,7796.92 L 6039.52,7792.62 L 6035.52,7790.28 L 6001.77,7773.41 L 5997.5,7771.61 L 5990.55,7769.97 L 5985.93,7769.67 L 5935.31,7769.67 L 5930.68,7769.97 L 5923.74,7771.61 L 5919.46,7773.41 L 5885.72,7790.28 L 5879.99,7793.86 L 5876.51,7796.92 L 5859.64,7813.79 L 5855.34,7819 L 5853,7823 L 5835.08,7859.03 L 5834.33,7861.02 L 5832.69,7867.97 L 5832.47,7870.08 L 5832.38,7973.83M 6169.84,8041.32 L 6170.15,8045.95 L 6172.54,8054.88 L 6177.16,8062.89 L 6183.7,8069.43 L 6191.72,8074.06 L 6200.65,8076.45 L 6209.9,8076.45 L 6218.83,8074.06 L 6226.85,8069.43 L 6233.39,8062.89 L 6238.01,8054.88 L 6240.41,8045.95 L 6240.71,8041.32 L 6240.71,7864.09 L 6248.56,7848.39 L 6264.26,7840.54 L 6298.15,7840.54 L 6319.27,7851.1 L 6321.7,7853.52 L 6321.7,8041.32 L 6322,8045.95 L 6324.4,8054.88 L 6329.02,8062.89 L 6335.56,8069.43 L 6343.57,8074.06 L 6352.51,8076.45 L 6361.76,8076.45 L 6370.69,8074.06 L 6378.7,8069.43 L 6385.24,8062.89 L 6389.87,8054.88 L 6392.26,8045.95 L 6392.56,8041.32 L 6392.56,7805.1 L 6392.26,7800.48 L 6389.87,7791.54 L 6385.24,7783.53 L 6378.7,7776.99 L 6370.69,7772.37 L 6361.76,7769.97 L 6352.51,7769.97 L 6343.57,7772.37 L 6335.56,7776.99 L 6333.55,7779 L 6320.07,7772.37 L 6318.09,7771.61 L 6311.14,7769.97 L 6306.51,7769.67 L 6253.38,7769.76 L 6251.27,7769.97 L 6244.32,7771.61 L 6242.33,7772.37 L 6206.3,7790.28 L 6202.3,7792.62 L 6198.93,7795.21 L 6195.38,7798.76 L 6192.8,7802.13 L 6190.46,7806.13 L 6172.54,7842.16 L 6171.79,7844.15 L 6170.15,7851.1 L 6169.93,7853.21 L 6169.84,8041.32M 6490.43,8041.32 L 6490.73,8045.95 L 6493.12,8054.88 L 6497.75,8062.89 L 6504.29,8069.43 L 6512.3,8074.06 L 6521.24,8076.45 L 6530.49,8076.45 L 6539.42,8074.06 L 6547.43,8069.43 L 6549.44,8067.42 L 6562.92,8074.06 L 6564.91,8074.81 L 6571.85,8076.45 L 6576.48,8076.76 L 6629.61,8076.67 L 6631.72,8076.45 L 6638.67,8074.81 L 6642.94,8073.01 L 6676.69,8056.14 L 6680.69,8053.8 L 6684.06,8051.22 L 6687.61,8047.67 L 6690.2,8044.3 L 6692.54,8040.3 L 6710.45,8004.26 L 6711.21,8002.28 L 6712.85,7995.33 L 6713.06,7993.22 L 6713.15,7805.1 L 6712.85,7800.48 L 6710.45,7791.54 L 6705.83,7783.53 L 6699.29,7776.99 L 6691.28,7772.37 L 6682.34,7769.97 L 6673.09,7769.97 L 6664.16,7772.37 L 6656.15,7776.99 L 6649.61,7783.53 L 6644.98,7791.54 L 6642.59,7800.48 L 6642.28,7805.1 L 6642.28,7982.34 L 6634.43,7998.04 L 6618.73,8005.89 L 6584.84,8005.89 L 6563.72,7995.33 L 6561.29,7992.9 L 6561.29,7805.1 L 6560.99,7800.48 L 6558.6,7791.54 L 6553.97,7783.53 L 6547.43,7776.99 L 6539.42,7772.37 L 6530.49,7769.97 L 6521.24,7769.97 L 6512.3,7772.37 L 6504.29,7776.99 L 6497.75,7783.53 L 6493.12,7791.54 L 6490.73,7800.48 L 6490.43,7805.1 L 6490.43,8041.32M 6760.7,7809.73 L 6763.09,7818.66 L 6767.72,7826.67 L 6774.26,7833.21 L 6782.27,7837.84 L 6791.2,7840.23 L 6795.83,7840.54 L 6821.21,7840.54 L 6842.33,7851.1 L 6851.07,7859.84 L 6861.63,7880.96 L 6861.63,8041.32 L 6861.93,8045.95 L 6864.33,8054.88 L 6868.95,8062.89 L 6875.49,8069.43 L 6883.5,8074.06 L 6892.44,8076.45 L 6901.69,8076.45 L 6910.62,8074.06 L 6918.63,8069.43 L 6925.17,8062.89 L 6929.8,8054.88 L 6932.19,8045.95 L 6932.5,8041.32 L 6932.5,7805.1 L 6932.19,7800.48 L 6929.8,7791.54 L 6925.17,7783.53 L 6918.63,7776.99 L 6910.62,7772.37 L 6901.69,7769.97 L 6892.44,7769.97 L 6883.5,7772.37 L 6875.49,7776.99 L 6868.95,7783.53 L 6868.22,7784.81 L 6843.13,7772.37 L 6841.15,7771.61 L 6834.2,7769.97 L 6829.57,7769.67 L 6795.83,7769.67 L 6791.2,7769.97 L 6782.27,7772.37 L 6774.26,7776.99 L 6767.72,7783.53 L 6763.09,7791.54 L 6760.7,7800.48 L 6760.7,7809.73M 7013.49,7973.83 L 7013.79,7978.46 L 7015.43,7985.4 L 7016.18,7987.39 L 7034.1,8023.42 L 7036.44,8027.42 L 7040.74,8032.63 L 7057.61,8049.5 L 7062.82,8053.8 L 7066.82,8056.14 L 7100.57,8073.02 L 7104.84,8074.81 L 7111.79,8076.45 L 7116.41,8076.76 L 7183.9,8076.76 L 7188.53,8076.45 L 7195.48,8074.81 L 7201.11,8072.34 L 7204.09,8074.06 L 7213.02,8076.45 L 7222.27,8076.45 L 7231.21,8074.06 L 7239.22,8069.43 L 7245.76,8062.89 L 7250.38,8054.88 L 7252.78,8045.95 L 7253.08,8041.32 L 7253.08,7686.99 L 7252.78,7682.37 L 7250.38,7673.43 L 7245.76,7665.42 L 7239.22,7658.88 L 7231.21,7654.26 L 7222.27,7651.86 L 7213.02,7651.86 L 7204.09,7654.26 L 7196.08,7658.88 L 7189.54,7665.42 L 7184.91,7673.43 L 7182.52,7682.37 L 7182.22,7686.99 L 7182.22,7769.67 L 7116.41,7769.67 L 7111.79,7769.97 L 7104.84,7771.61 L 7102.85,7772.37 L 7066.82,7790.28 L 7062.82,7792.62 L 7057.61,7796.92 L 7040.74,7813.79 L 7037.68,7817.28 L 7034.1,7823 L 7017.23,7856.75 L 7015.43,7861.02 L 7013.79,7867.97 L 7013.49,7872.59 L 7013.49,7973.83 z " style="fill-opacity:1.000000;fill:rgb(17,45,5);stroke:rgb(0,0,0);stroke-width:2"/></g>
<g fill-rule="evenodd"><path d="M 5305.12,747.441 L 5307.53,724.522 L 5314.65,702.604 L 5326.17,682.646 L 5341.59,665.519 L 5360.24,651.974 L 5381.29,642.6 L 5403.83,637.809 L 5426.88,637.809 L 5449.42,642.6 L 5470.47,651.974 L 5489.12,665.519 L 5504.54,682.646 L 5516.06,702.604 L 5523.18,724.522 L 5525.59,747.441 L 5523.18,770.36 L 5516.06,792.278 L 5504.54,812.236 L 5494.09,823.834 L 5494.09,1130.77 L 5805.68,1442.35 L 5815.47,1454.29 L 5822.74,1467.9 L 5827.23,1482.67 L 5828.74,1498.03 L 5828.74,1977.23 L 5940.09,2088.58 L 5975.31,2088.58 L 5984.25,2082.08 L 6003.05,2073.71 L 6023.18,2069.44 L 6043.75,2069.44 L 6063.88,2073.71 L 6082.68,2082.08 L 6099.32,2094.18 L 6113.09,2109.47 L 6123.38,2127.29 L 6129.74,2146.86 L 6131.89,2167.32 L 6129.74,2187.79 L 6123.38,2207.36 L 6113.09,2225.18 L 6099.32,2240.47 L 6082.68,2252.56 L 6063.88,2260.93 L 6043.75,2265.21 L 6023.18,2265.21 L 6003.05,2260.93 L 5984.25,2252.56 L 5975.31,2246.06 L 5907.48,2246.06 L 5892.12,2244.55 L 5877.35,2240.07 L 5863.73,2232.79 L 5851.8,2223 L 5694.32,2065.52 L 5686.3,2056.12 L 5679.84,2045.59 L 5675.11,2034.17 L 5672.23,2022.16 L 5671.26,2009.84 L 5671.26,1530.65 L 5359.68,1219.06 L 5349.88,1207.13 L 5342.61,1193.52 L 5338.13,1178.75 L 5336.61,1163.39 L 5336.61,823.834 L 5326.17,812.236 L 5314.65,792.278 L 5307.53,770.36 L 5305.12,747.441 z " style="fill-opacity:1.000000;fill:rgb(88,245,107);stroke:rgb(0,0,0);stroke-width:2"/></g>
<g fill-rule="evenodd"><path d="M 5413.94,7965.47 L 5413.94,7880.96 L 5424.5,7859.84 L 5433.24,7851.1 L 5454.36,7840.54 L 5505.12,7840.54 L 5511.8,7843.87 L 5511.8,8002.55 L 5505.12,8005.89 L 5454.36,8005.89 L 5433.24,7995.33 L 5424.5,7986.59 L 5413.94,7965.47 z " style="fill-opacity:1.000000;fill:rgb(214,136,7);stroke:rgb(0,0,0);stroke-width:2"/></g>
<g fill-rule="evenodd"><path d="M 5903.25,7965.47 L 5903.25,7880.96 L 5913.81,7859.84 L 5922.55,7851.1 L 5943.67,7840.54 L 5977.56,7840.54 L 5998.68,7851.1 L 6007.43,7859.84 L 6017.99,7880.96 L 6017.99,7965.47 L 6007.43,7986.59 L 5998.68,7995.33 L 5977.56,8005.89 L 5943.67,8005.89 L 5922.55,7995.33 L 5913.81,7986.59 L 5903.25,7965.47 z " style="fill-opacity:1.000000;fill:rgb(153,146,72);stroke:rgb(0,0,0);stroke-width:2"/></g>
<g fill-rule="evenodd"><path d="M 6163.39,1576.77 L 6165.54,1556.31 L 6171.9,1536.74 L 6182.18,1518.92 L 6195.95,1503.63 L 6212.6,1491.53 L 6231.4,1483.16 L 6251.52,1478.89 L 6272.1,1478.89 L 6292.23,1483.16 L 6311.02,1491.53 L 6327.67,1503.63 L 6341.44,1518.92 L 6351.73,1536.74 L 6358.09,1556.31 L 6360.24,1576.77 L 6358.09,1597.24 L 6351.73,1616.8 L 6341.44,1634.62 L 6340.55,1635.61 L 6340.55,1859.12 L 6593.08,2111.64 L 6602.87,2123.58 L 6610.15,2137.19 L 6614.63,2151.96 L 6616.14,2167.32 L 6616.14,2213.45 L 6984.8,2582.11 L 7000.89,2585.53 L 7019.69,2593.9 L 7036.33,2605.99 L 7050.1,2621.28 L 7060.39,2639.1 L 7066.75,2658.67 L 7068.9,2679.13 L 7066.75,2699.6 L 7060.39,2719.17 L 7050.1,2736.99 L 7036.33,2752.28 L 7019.69,2764.37 L 7000.89,2772.74 L 6980.76,2777.02 L 6960.18,2777.02 L 6940.06,2772.74 L 6921.26,2764.37 L 6904.61,2752.28 L 6890.84,2736.99 L 6880.56,2719.17 L 6874.2,2699.6 L 6873.57,2693.58 L 6481.72,2301.74 L 6471.93,2289.81 L 6464.65,2276.19 L 6460.17,2261.42 L 6458.66,2246.06 L 6458.66,2199.94 L 6206.13,1947.41 L 6196.34,1935.48 L 6189.06,1921.86 L 6184.58,1907.09 L 6183.07,1891.73 L 6183.07,1635.61 L 6182.18,1634.62 L 6171.9,1616.8 L 6165.54,1597.24 L 6163.39,1576.77 z " style="fill-opacity:1.000000;fill:rgb(51,98,65);stroke:rgb(0,0,0);stroke-width:2"/></g>
<g fill-rule="evenodd"><path d="M 7084.35,7965.47 L 7084.35,7880.96 L 7094.91,7859.84 L 7103.65,7851.1 L 7124.78,7840.54 L 7175.54,7840.54 L 7182.22,7843.87 L 7182.22,8002.55 L 7175.54,8005.89 L 7124.78,8005.89 L 7103.65,7995.33 L 7094.91,7986.59 L 7084.35,7965.47 z " style="fill-opacity:1.000000;fill:rgb(243,13,35);stroke:rgb(0,0,0);stroke-width:2"/></g>
</svg>
