<?xml version="1.0" standalone="no"?>
<!DOCTYPE svg PUBLIC "-//W3C//DTD SVG 1.1//EN"
"http://www.w3.org/Graphics/SVG/1.1/DTD/svg11.dtd">
<svg width="374.362" height="440.504" viewBox="0 0 7799.21 9177.17" version="1.1"
xmlns="http://www.w3.org/2000/svg"
xmlns:xlink="http://www.w3.org/1999/xlink">
<polyline points="61.024,9057.09 62.158,9068.61 65.518,9079.68 70.974,9089.89 78.318,9098.84 87.268,9106.19 97.478,9111.64 108.556,9115.01 120.078,9116.14 7679.13,9116.14 7690.65,9115.01 7701.73,9111.64 7711.94,9106.19 7720.89,9098.84 7728.23,9089.89 7733.69,9079.68 7737.05,9068.61 7738.19,9057.09 7738.19,120.075 7737.05,108.555 7733.69,97.4772 7728.23,87.2672 7720.89,78.3172 7711.94,70.9732 7701.73,65.5172 7690.65,62.1552 7679.13,61.0212 120.078,61.0212 108.556,62.1552 97.478,65.5172 87.268,70.9732 78.318,78.3172 70.974,87.2672 65.518,97.4772 62.158,108.555 61.024,120.075 61.024,9057.09" style="stroke:rgb(167,241,217);stroke-width:118.110236;fill:none;stroke-opacity:0.5;stroke-linecap:round;stroke-linejoin:round;;fill:none"/>
<polyline points="61.024,9057.09 62.158,9068.61 65.518,9079.68 70.974,9089.89 78.318,9098.84 87.268,9106.19 97.478,9111.64 108.556,9115.01 120.078,9116.14 7679.13,9116.14 7690.65,9115.01 7701.73,9111.64 7711.94,9106.19 7720.89,9098.84 7728.23,9089.89 7733.69,9079.68 7737.05,9068.61 7738.19,9057.09 7738.19,120.075 7737.05,108.555 7733.69,97.4772 7728.23,87.2672 7720.89,78.3172 7711.94,70.9732 7701.73,65.5172 7690.65,62.1552 7679.13,61.0212 120.078,61.0212 108.556,62.1552 97.478,65.5172 87.268,70.9732 78.318,78.3172 70.974,87.2672 65.518,97.4772 62.158,108.555 61.024,120.075 61.024,9057.09" style="stroke:rgb(0,0,0);stroke-width:1px;fill:none;stroke-opacity:1;stroke-linecap:round;stroke-linejoin:round;;fill:none"/>
</svg>
