<?xml version="1.0" standalone="no"?>
<!DOCTYPE svg PUBLIC "-//W3C//DTD SVG 1.1//EN"
"http://www.w3.org/Graphics/SVG/1.1/DTD/svg11.dtd">
<svg width="374.362" height="440.504" viewBox="0 0 7799.21 9177.17" version="1.1"
xmlns="http://www.w3.org/2000/svg"
xmlns:xlink="http://www.w3.org/1999/xlink">
<polyline points="1934.36,1995.16 1945.02,2045.9 1965.4,2091.79 1996.35,2134.39 2033.69,2167.95 2077.88,2193.46 2126.41,2209.23 2177.16,2214.57 3013.78,2214.57 3063.71,2209.36 3113.06,2193.46 3157.89,2167.43 3195.18,2133.8 3224.72,2093.21 3245.63,2046.67 3256.58,1995.16 3256.54,1944.96 3245.63,1894.27 3225.17,1848.43 3195.18,1807.14 3157.25,1773 3113.06,1747.48 3064.53,1731.71 3013.78,1726.38 2435.48,1726.38 2543.53,1618.33 2553.84,1605.83 2562.56,1589.5 2567.04,1574.73 2568.86,1557.86 2568.9,790.045 2577.84,780.053 2590.18,758.669 2597.81,735.185 2600.35,709.805 2597.81,686.073 2590.48,663.359 2577.84,641.205 2560.67,622.337 2541.34,608.343 2519.55,598.595 2494.63,593.165 2469.94,593.165 2445.78,598.299 2423.23,608.343 2403.25,622.855 2386.73,641.205 2374.38,662.589 2366.62,686.887 2364.17,710.629 2366.97,735.981 2374.76,759.403 2386.73,780.053 2395.67,790.043 2395.67,1521.21 2190.5,1726.38 2176.34,1726.42 2126.41,1731.71 2077.88,1747.48 2033.69,1773 1995.77,1807.14 1965.77,1848.43 1945.02,1895.04 1934.41,1944.96 1934.36,1995.16" style="stroke:rgb(167,241,217);stroke-width:15.748031;fill:none;stroke-opacity:0.5;stroke-linecap:round;stroke-linejoin:round;;fill:none"/>
<polyline points="1934.36,1995.16 1945.02,2045.9 1965.4,2091.79 1996.35,2134.39 2033.69,2167.95 2077.88,2193.46 2126.41,2209.23 2177.16,2214.57 3013.78,2214.57 3063.71,2209.36 3113.06,2193.46 3157.89,2167.43 3195.18,2133.8 3224.72,2093.21 3245.63,2046.67 3256.58,1995.16 3256.54,1944.96 3245.63,1894.27 3225.17,1848.43 3195.18,1807.14 3157.25,1773 3113.06,1747.48 3064.53,1731.71 3013.78,1726.38 2435.48,1726.38 2543.53,1618.33 2553.84,1605.83 2562.56,1589.5 2567.04,1574.73 2568.86,1557.86 2568.9,790.045 2577.84,780.053 2590.18,758.669 2597.81,735.185 2600.35,709.805 2597.81,686.073 2590.48,663.359 2577.84,641.205 2560.67,622.337 2541.34,608.343 2519.55,598.595 2494.63,593.165 2469.94,593.165 2445.78,598.299 2423.23,608.343 2403.25,622.855 2386.73,641.205 2374.38,662.589 2366.62,686.887 2364.17,710.629 2366.97,735.981 2374.76,759.403 2386.73,780.053 2395.67,790.043 2395.67,1521.21 2190.5,1726.38 2176.34,1726.42 2126.41,1731.71 2077.88,1747.48 2033.69,1773 1995.77,1807.14 1965.77,1848.43 1945.02,1895.04 1934.41,1944.96 1934.36,1995.16" style="stroke:rgb(0,0,0);stroke-width:1px;fill:none;stroke-opacity:1;stroke-linecap:round;stroke-linejoin:round;;fill:none"/>
<polyline points="1970.47,801.179 1971.07,806.909 1972.85,812.389 1975.73,817.379 1979.01,821.077 1984.99,825.421 1989.51,827.391 1995.56,828.621 2179.54,828.729 2182.83,828.459 2187.65,827.391 2192.91,825.047 2196.93,822.179 2201.43,817.379 2204.31,812.389 2206.09,806.909 2206.65,802.003 2206.69,715.007 2557.53,364.171 6107.82,364.171 6490.15,746.505 6490.15,1694.88 6491.15,1707.82 6494.23,1721.05 6499.9,1734.74 6507.08,1746.28 6515.52,1756.13 6866.03,2106.62 6866.71,2111.48 6873.36,2131.82 6884.47,2151.06 6899.34,2167.58 6916.63,2180.19 6937.62,2189.68 6959.36,2194.3 6981.58,2194.3 7004.09,2189.38 7024.31,2180.19 7041.6,2167.58 7055.95,2151.7 7067.58,2131.82 7074.45,2110.68 7076.77,2088.58 7074.23,2065.69 7067.58,2045.35 7056.92,2026.79 7042.18,2010.17 7022.89,1996.15 7003.32,1987.49 6988.72,1984.34 6663.38,1659 6663.38,710.629 6661.53,692.981 6656.46,676.783 6648.33,661.887 6638.01,649.383 6204.94,216.311 6195.1,207.867 6183.56,200.685 6169.87,195.013 6156.63,191.935 6143.7,190.941 2521.65,190.941 2508.72,191.935 2495.48,195.013 2482.89,200.123 2471.25,207.141 2460.41,216.311 2084.2,592.523 1995.15,592.669 1989.51,593.867 1984.25,596.211 1979.59,599.597 1976.25,603.239 1972.56,609.637 1971.07,614.347 1970.47,620.077 1970.47,801.179" style="stroke:rgb(167,241,217);stroke-width:15.748031;fill:none;stroke-opacity:0.5;stroke-linecap:round;stroke-linejoin:round;;fill:none"/>
<polyline points="1970.47,801.179 1971.07,806.909 1972.85,812.389 1975.73,817.379 1979.01,821.077 1984.99,825.421 1989.51,827.391 1995.56,828.621 2179.54,828.729 2182.83,828.459 2187.65,827.391 2192.91,825.047 2196.93,822.179 2201.43,817.379 2204.31,812.389 2206.09,806.909 2206.65,802.003 2206.69,715.007 2557.53,364.171 6107.82,364.171 6490.15,746.505 6490.15,1694.88 6491.15,1707.82 6494.23,1721.05 6499.9,1734.74 6507.08,1746.28 6515.52,1756.13 6866.03,2106.62 6866.71,2111.48 6873.36,2131.82 6884.47,2151.06 6899.34,2167.58 6916.63,2180.19 6937.62,2189.68 6959.36,2194.3 6981.58,2194.3 7004.09,2189.38 7024.31,2180.19 7041.6,2167.58 7055.95,2151.7 7067.58,2131.82 7074.45,2110.68 7076.77,2088.58 7074.23,2065.69 7067.58,2045.35 7056.92,2026.79 7042.18,2010.17 7022.89,1996.15 7003.32,1987.49 6988.72,1984.34 6663.38,1659 6663.38,710.629 6661.53,692.981 6656.46,676.783 6648.33,661.887 6638.01,649.383 6204.94,216.311 6195.1,207.867 6183.56,200.685 6169.87,195.013 6156.63,191.935 6143.7,190.941 2521.65,190.941 2508.72,191.935 2495.48,195.013 2482.89,200.123 2471.25,207.141 2460.41,216.311 2084.2,592.523 1995.15,592.669 1989.51,593.867 1984.25,596.211 1979.59,599.597 1976.25,603.239 1972.56,609.637 1971.07,614.347 1970.47,620.077 1970.47,801.179" style="stroke:rgb(0,0,0);stroke-width:1px;fill:none;stroke-opacity:1;stroke-linecap:round;stroke-linejoin:round;;fill:none"/>
<polyline points="3833.97,1995.16 3834.01,1944.96 3844.62,1895.04 3865.38,1848.43 3894.85,1807.78 3933.99,1772.55 3977.49,1747.48 4026.02,1731.71 4076.77,1726.38 4913.38,1726.38 4935.04,1728.61 4935.04,865.489 4928.19,865.395 4922.59,864.201 4917.32,861.857 4913.3,858.989 4908.36,853.499 4905.92,849.201 4904.02,842.907 4903.54,837.991 4903.54,656.889 4904.14,651.159 4905.92,645.679 4908.36,641.381 4912.66,636.409 4917.32,633.021 4921.82,630.973 4928.63,629.449 5112.62,629.341 5115.9,629.609 5121.49,630.973 5125.98,633.021 5130.64,636.409 5134.5,640.689 5137.38,645.679 5139.16,651.159 5139.76,656.889 5139.72,838.813 5139.16,843.721 5137.38,849.201 5134.5,854.189 5130.64,858.471 5125.98,861.857 5120.72,864.201 5115.11,865.395 5108.27,865.489 5108.27,1825.63 5124.78,1848.43 5145.53,1895.04 5156.14,1944.96 5156.19,1995.16 5145.24,2046.67 5124.78,2092.52 5094.78,2133.8 5056.86,2167.95 5012.67,2193.46 4964.13,2209.23 4914.21,2214.52 4076.77,2214.57 4026.83,2209.36 3976.75,2193.09 3933.3,2167.95 3895.37,2133.8 3865.38,2092.52 3844.92,2046.67 3833.97,1995.16" style="stroke:rgb(167,241,217);stroke-width:15.748031;fill:none;stroke-opacity:0.5;stroke-linecap:round;stroke-linejoin:round;;fill:none"/>
<polyline points="3833.97,1995.16 3834.01,1944.96 3844.62,1895.04 3865.38,1848.43 3894.85,1807.78 3933.99,1772.55 3977.49,1747.48 4026.02,1731.71 4076.77,1726.38 4913.38,1726.38 4935.04,1728.61 4935.04,865.489 4928.19,865.395 4922.59,864.201 4917.32,861.857 4913.3,858.989 4908.36,853.499 4905.92,849.201 4904.02,842.907 4903.54,837.991 4903.54,656.889 4904.14,651.159 4905.92,645.679 4908.36,641.381 4912.66,636.409 4917.32,633.021 4921.82,630.973 4928.63,629.449 5112.62,629.341 5115.9,629.609 5121.49,630.973 5125.98,633.021 5130.64,636.409 5134.5,640.689 5137.38,645.679 5139.16,651.159 5139.76,656.889 5139.72,838.813 5139.16,843.721 5137.38,849.201 5134.5,854.189 5130.64,858.471 5125.98,861.857 5120.72,864.201 5115.11,865.395 5108.27,865.489 5108.27,1825.63 5124.78,1848.43 5145.53,1895.04 5156.14,1944.96 5156.19,1995.16 5145.24,2046.67 5124.78,2092.52 5094.78,2133.8 5056.86,2167.95 5012.67,2193.46 4964.13,2209.23 4914.21,2214.52 4076.77,2214.57 4026.83,2209.36 3976.75,2193.09 3933.3,2167.95 3895.37,2133.8 3865.38,2092.52 3844.92,2046.67 3833.97,1995.16" style="stroke:rgb(0,0,0);stroke-width:1px;fill:none;stroke-opacity:1;stroke-linecap:round;stroke-linejoin:round;;fill:none"/>
<polyline points="5297.24,747.439 5299.82,771.997 5307.45,795.479 5319.8,816.863 5328.74,826.855 5328.74,1163.39 5330.59,1181.03 5335.66,1197.23 5343.8,1212.13 5354.11,1224.63 5663.38,1533.91 5663.38,2009.84 5664.38,2022.78 5667.45,2036.01 5673.13,2049.7 5680.31,2061.24 5688.75,2071.08 5846.23,2228.57 5858.74,2238.88 5873.63,2247.01 5889.83,2252.08 5906.71,2253.9 5972.75,2253.94 5980.31,2259.38 5999.85,2268.12 6022.35,2273.04 6044.57,2273.04 6065.52,2268.63 6086.61,2259.38 6104.59,2246.32 6119.46,2229.8 6130.57,2210.56 6137.44,2189.42 6139.76,2167.32 6137.44,2145.22 6130.57,2124.09 6118.94,2104.2 6104.59,2088.33 6086.61,2075.26 6066.31,2066.23 6044.57,2061.61 6022.35,2061.61 6001.41,2066.01 5980.31,2075.26 5972.75,2080.7 5943.36,2080.7 5836.61,1973.96 5836.61,1498.03 5834.76,1480.38 5829.69,1464.19 5821.55,1449.29 5811.24,1436.79 5501.97,1127.51 5501.97,826.855 5510.91,816.863 5522.88,796.213 5530.88,771.997 5533.46,747.439 5531.01,723.697 5522.88,698.665 5510.91,678.017 5494.38,659.667 5474.41,645.153 5452.62,635.405 5426.88,629.933 5403.01,629.977 5379.65,634.897 5355.61,645.603 5336.32,659.667 5319.8,678.017 5307.16,700.169 5299.82,722.883 5297.24,747.439" style="stroke:rgb(167,241,217);stroke-width:15.748031;fill:none;stroke-opacity:0.5;stroke-linecap:round;stroke-linejoin:round;;fill:none"/>
<polyline points="5297.24,747.439 5299.82,771.997 5307.45,795.479 5319.8,816.863 5328.74,826.855 5328.74,1163.39 5330.59,1181.03 5335.66,1197.23 5343.8,1212.13 5354.11,1224.63 5663.38,1533.91 5663.38,2009.84 5664.38,2022.78 5667.45,2036.01 5673.13,2049.7 5680.31,2061.24 5688.75,2071.08 5846.23,2228.57 5858.74,2238.88 5873.63,2247.01 5889.83,2252.08 5906.71,2253.9 5972.75,2253.94 5980.31,2259.38 5999.85,2268.12 6022.35,2273.04 6044.57,2273.04 6065.52,2268.63 6086.61,2259.38 6104.59,2246.32 6119.46,2229.8 6130.57,2210.56 6137.44,2189.42 6139.76,2167.32 6137.44,2145.22 6130.57,2124.09 6118.94,2104.2 6104.59,2088.33 6086.61,2075.26 6066.31,2066.23 6044.57,2061.61 6022.35,2061.61 6001.41,2066.01 5980.31,2075.26 5972.75,2080.7 5943.36,2080.7 5836.61,1973.96 5836.61,1498.03 5834.76,1480.38 5829.69,1464.19 5821.55,1449.29 5811.24,1436.79 5501.97,1127.51 5501.97,826.855 5510.91,816.863 5522.88,796.213 5530.88,771.997 5533.46,747.439 5531.01,723.697 5522.88,698.665 5510.91,678.017 5494.38,659.667 5474.41,645.153 5452.62,635.405 5426.88,629.933 5403.01,629.977 5379.65,634.897 5355.61,645.603 5336.32,659.667 5319.8,678.017 5307.16,700.169 5299.82,722.883 5297.24,747.439" style="stroke:rgb(0,0,0);stroke-width:1px;fill:none;stroke-opacity:1;stroke-linecap:round;stroke-linejoin:round;;fill:none"/>
<polyline points="6155.51,1576.77 6158.05,1599.67 6164.7,1620.01 6175.19,1638.27 6175.23,1892.5 6176.86,1908.63 6181.53,1924.15 6190.25,1940.47 6200.56,1952.98 6450.78,2203.2 6450.78,2246.06 6452.45,2262.96 6457.38,2279.21 6465.84,2294.8 6476.15,2307.31 6866.03,2697.18 6866.71,2702.03 6873.74,2723.1 6884.47,2741.61 6899.34,2758.13 6917.32,2771.19 6936.85,2779.93 6960.18,2784.89 6981.58,2784.85 7003.32,2780.23 7023.62,2771.19 7040.96,2758.65 7056.92,2740.92 7067.58,2722.37 7074.58,2700.42 7076.77,2679.13 7074.45,2657.03 7067.58,2635.9 7056.47,2616.65 7041.6,2600.14 7023.62,2587.08 7003.32,2578.04 6988.72,2574.89 6624.01,2210.18 6624.01,2167.32 6622.35,2150.42 6617.42,2134.18 6608.96,2118.58 6598.64,2106.08 6348.42,1855.85 6348.42,1638.27 6358.92,1620.01 6365.57,1599.67 6368.11,1576.77 6365.79,1554.67 6359.21,1534.31 6347.81,1514.29 6332.94,1497.78 6315.65,1485.16 6294.66,1475.67 6272.1,1471.01 6250.7,1471.05 6228.96,1475.67 6207.97,1485.16 6190.68,1497.78 6175.81,1514.29 6164.7,1533.54 6158.05,1553.87 6155.51,1576.77" style="stroke:rgb(167,241,217);stroke-width:15.748031;fill:none;stroke-opacity:0.5;stroke-linecap:round;stroke-linejoin:round;;fill:none"/>
<polyline points="6155.51,1576.77 6158.05,1599.67 6164.7,1620.01 6175.19,1638.27 6175.23,1892.5 6176.86,1908.63 6181.53,1924.15 6190.25,1940.47 6200.56,1952.98 6450.78,2203.2 6450.78,2246.06 6452.45,2262.96 6457.38,2279.21 6465.84,2294.8 6476.15,2307.31 6866.03,2697.18 6866.71,2702.03 6873.74,2723.1 6884.47,2741.61 6899.34,2758.13 6917.32,2771.19 6936.85,2779.93 6960.18,2784.89 6981.58,2784.85 7003.32,2780.23 7023.62,2771.19 7040.96,2758.65 7056.92,2740.92 7067.58,2722.37 7074.58,2700.42 7076.77,2679.13 7074.45,2657.03 7067.58,2635.9 7056.47,2616.65 7041.6,2600.14 7023.62,2587.08 7003.32,2578.04 6988.72,2574.89 6624.01,2210.18 6624.01,2167.32 6622.35,2150.42 6617.42,2134.18 6608.96,2118.58 6598.64,2106.08 6348.42,1855.85 6348.42,1638.27 6358.92,1620.01 6365.57,1599.67 6368.11,1576.77 6365.79,1554.67 6359.21,1534.31 6347.81,1514.29 6332.94,1497.78 6315.65,1485.16 6294.66,1475.67 6272.1,1471.01 6250.7,1471.05 6228.96,1475.67 6207.97,1485.16 6190.68,1497.78 6175.81,1514.29 6164.7,1533.54 6158.05,1553.87 6155.51,1576.77" style="stroke:rgb(0,0,0);stroke-width:1px;fill:none;stroke-opacity:1;stroke-linecap:round;stroke-linejoin:round;;fill:none"/>
<polyline points="604.33,5868.11 606.652,5890.21 613.52,5911.35 624.632,5930.59 638.918,5946.52 657.48,5960.17 677.012,5968.91 700.34,5973.87 721.74,5973.83 743.478,5969.21 763.778,5960.17 781.756,5947.11 796.626,5930.59 807.364,5912.08 814.392,5891.01 815.076,5886.15 903.986,5797.24 2080.71,5797.24 2080.71,5848.43 2081.31,5854.15 2083.46,5860.37 2085.97,5864.62 2089.24,5868.32 2094.49,5872.29 2099.75,5874.64 2104.57,5875.7 2108.27,5875.98 2288.93,5875.98 3390.89,6977.95 3227.02,7141.82 3212.43,7144.97 3192.86,7153.63 3174.15,7167.07 3158.83,7184.27 3148.17,7202.83 3141.3,7223.96 3138.98,7246.06 3141.3,7268.16 3148.17,7289.3 3158.66,7307.56 3158.7,7891.71 3160.51,7908.59 3164.99,7923.36 3173.72,7939.68 3184.03,7952.19 3265.96,8034.12 3265.96,8085.87 3259.11,8085.97 3253.51,8087.16 3248.24,8089.5 3243.58,8092.89 3239.73,8097.17 3236.84,8102.16 3235.06,8107.64 3234.51,8112.54 3234.46,8294.47 3235.06,8300.2 3236.55,8304.91 3239.73,8310.67 3243.58,8314.95 3248.24,8318.34 3253.51,8320.68 3258.33,8321.75 3261.61,8322.02 3443.54,8322.02 3446.82,8321.75 3451.64,8320.68 3457.59,8317.89 3461.56,8314.95 3464.9,8311.31 3467.93,8306.42 3470.08,8300.2 3470.64,8295.3 3470.64,8112.54 3470.08,8107.64 3468.3,8102.16 3465.42,8097.17 3461.56,8092.89 3456.9,8089.5 3451.64,8087.16 3446.03,8085.97 3439.19,8085.87 3439.19,7998.24 3437.33,7980.59 3432.26,7964.4 3424.59,7950.12 3414.34,7937.57 3331.89,7855.07 3331.89,7307.57 3342.38,7289.3 3349.04,7268.96 3349.72,7264.1 4698.47,5915.35 4907.24,5915.07 4912.06,5914.01 4916.59,5912.04 4921.98,5908.28 4926.29,5903.3 4928.72,5899 4930.29,5894.32 4931.1,5887.8 4931.1,5836.61 5123.57,5836.61 5208.02,5921.06 5220.52,5931.37 5236.84,5940.09 5252.36,5944.76 5268.49,5946.39 6319.2,5946.43 6326.77,5951.87 6347.07,5960.91 6368.81,5965.53 6390.21,5965.57 6412.77,5960.91 6433.07,5951.87 6451.05,5938.81 6466.37,5921.6 6477.03,5903.05 6483.68,5882.71 6486.18,5860.64 6483.9,5837.71 6477.03,5816.58 6465.92,5797.33 6450.41,5780.3 6433.07,5767.76 6413.54,5759.01 6391.85,5754.23 6368.81,5754.1 6347.87,5758.5 6326.77,5767.76 6319.2,5773.2 5305.14,5773.2 5220.12,5688.23 5206.9,5677.58 5193.29,5670.31 5177.09,5665.24 5159.45,5663.38 4931.1,5663.38 4931.1,5612.2 4930.5,5606.47 4928.72,5601 4925.84,5596.01 4921.98,5591.72 4917.32,5588.34 4912.83,5586.29 4906.01,5584.76 4891.73,5584.65 4891.73,4379.91 4945.8,4379.77 4951.43,4378.57 4955.96,4376.6 4961.94,4372.26 4965.21,4368.56 4967.71,4364.31 4970,4357.28 4970.47,4352.36 4970.47,4301.18 5556.64,4301.18 5610.01,4354.55 5619.86,4362.99 5632.5,4370.74 5645.09,4375.85 5658.32,4378.93 5671.26,4379.92 5789.37,4379.92 5806.27,4378.25 5823.21,4373 5838.11,4364.86 5850.61,4354.55 6358.79,3846.37 6374.17,3842.93 6393.7,3834.18 6401.27,3828.74 7404.31,3828.7 7421.19,3826.89 7435.96,3822.41 7452.28,3813.68 7464.79,3803.37 7544.05,3724.06 7554.7,3710.84 7562.3,3696.53 7567.23,3680.28 7568.9,3663.39 7568.9,1301.18 7567.04,1283.53 7562.3,1268.03 7554.7,1253.72 7543.53,1239.93 7529.74,1228.76 7516.13,1221.49 7499.93,1216.42 7483.05,1214.6 7031.18,1214.56 7023.62,1209.12 7002.52,1199.87 6981.58,1195.46 6959.36,1195.46 6937.62,1200.08 6918.06,1208.75 6898.76,1222.77 6884.47,1238.7 6873.36,1257.95 6866.5,1279.08 6864.22,1300.36 6866.5,1323.28 6873.07,1343.65 6884.99,1364.3 6899.34,1380.18 6917.32,1393.24 6937.62,1402.28 6958.55,1406.77 6981.58,1406.9 7002.52,1402.49 7023.62,1393.24 7031.19,1387.79 7395.67,1387.79 7395.67,3627.51 7367.66,3655.51 6401.26,3655.51 6393.7,3650.07 6374.17,3641.32 6351.66,3636.41 6329.44,3636.41 6307.7,3641.03 6287.4,3650.07 6268.84,3663.71 6254.55,3679.64 6243.82,3698.16 6236.79,3719.23 6236.1,3724.08 5753.49,4206.69 5707.13,4206.69 5653.76,4153.32 5643.91,4144.87 5631.28,4137.13 5618.69,4132.02 5605.45,4128.94 5592.52,4127.95 4970.47,4127.95 4970.47,4076.77 4969.87,4071.04 4967.71,4064.83 4965.21,4060.57 4961.94,4056.87 4956.69,4052.9 4950.63,4050.35 4946.61,4049.49 4942.91,4049.21 4667.32,4049.21 4663.63,4049.49 4658.04,4050.86 4653.54,4052.9 4648.88,4056.29 4645.03,4060.57 4642.15,4065.56 4640.36,4071.04 4639.76,4076.77 4639.76,4352.36 4640.36,4358.09 4642.15,4363.57 4645.54,4369.2 4648.88,4372.84 4652.85,4375.78 4658.81,4378.57 4665.25,4379.81 4718.5,4379.91 4718.5,5584.65 4625.48,5584.76 4619.44,5585.99 4614.91,5587.96 4608.93,5592.31 4605.66,5596.01 4602.78,5601 4600.99,5606.47 4600.39,5612.2 4600.39,5768.45 3513.38,6855.46 2411.42,5753.49 2411.42,5572.83 2410.81,5567.1 2409.33,5562.39 2406.15,5556.64 2402.3,5552.35 2397.64,5548.97 2391.58,5546.41 2385.93,5545.38 2332.68,5545.29 2332.68,4309.46 2385.93,4309.37 2392.37,4308.13 2398.33,4305.34 2402.3,4302.4 2405.63,4298.76 2409.03,4293.13 2410.81,4287.65 2411.42,4281.92 2411.37,4005.51 2410.81,4000.6 2409.33,3995.89 2406.15,3990.13 2402.3,3985.85 2398.33,3982.91 2392.37,3980.12 2387.55,3979.05 2383.86,3978.77 2108.27,3978.77 2104.57,3979.05 2100.55,3979.9 2094.49,3982.46 2089.24,3986.43 2085.97,3990.13 2083.46,3994.38 2081.31,4000.6 2080.71,4006.33 2080.71,4057.51 951.652,4057.51 815.074,3920.93 814.392,3916.08 807.738,3895.74 796.626,3876.5 781.756,3859.98 763.778,3846.92 742.682,3837.67 721.74,3833.26 699.518,3833.26 677.78,3837.88 658.214,3846.54 638.918,3860.56 624.632,3876.5 613.52,3895.74 606.652,3916.88 604.372,3938.15 606.866,3961.87 613.52,3982.21 624.632,4001.46 639.5,4017.97 657.48,4031.03 677.78,4040.07 692.382,4043.22 855.102,4205.89 868.318,4216.54 881.93,4223.81 898.128,4228.89 915.776,4230.74 2080.71,4230.74 2080.71,4281.92 2081.18,4286.83 2083.46,4293.86 2085.97,4298.12 2089.83,4302.4 2095.22,4306.16 2099.75,4308.13 2105.38,4309.33 2159.45,4309.46 2159.45,5545.29 2105.38,5545.43 2099.75,5546.62 2095.22,5548.59 2089.24,5552.94 2085.97,5556.64 2083.46,5560.89 2081.18,5567.92 2080.71,5572.83 2080.71,5624.01 868.11,5624.01 850.462,5625.87 834.264,5630.94 820.652,5638.21 807.436,5648.86 692.38,5763.87 677.78,5767.01 658.214,5775.68 639.5,5789.11 624.632,5805.63 613.52,5824.87 606.652,5846.01 604.33,5868.11" style="stroke:rgb(167,241,217);stroke-width:15.748031;fill:none;stroke-opacity:0.5;stroke-linecap:round;stroke-linejoin:round;;fill:none"/>
<polyline points="604.33,5868.11 606.652,5890.21 613.52,5911.35 624.632,5930.59 638.918,5946.52 657.48,5960.17 677.012,5968.91 700.34,5973.87 721.74,5973.83 743.478,5969.21 763.778,5960.17 781.756,5947.11 796.626,5930.59 807.364,5912.08 814.392,5891.01 815.076,5886.15 903.986,5797.24 2080.71,5797.24 2080.71,5848.43 2081.31,5854.15 2083.46,5860.37 2085.97,5864.62 2089.24,5868.32 2094.49,5872.29 2099.75,5874.64 2104.57,5875.7 2108.27,5875.98 2288.93,5875.98 3390.89,6977.95 3227.02,7141.82 3212.43,7144.97 3192.86,7153.63 3174.15,7167.07 3158.83,7184.27 3148.17,7202.83 3141.3,7223.96 3138.98,7246.06 3141.3,7268.16 3148.17,7289.3 3158.66,7307.56 3158.7,7891.71 3160.51,7908.59 3164.99,7923.36 3173.72,7939.68 3184.03,7952.19 3265.96,8034.12 3265.96,8085.87 3259.11,8085.97 3253.51,8087.16 3248.24,8089.5 3243.58,8092.89 3239.73,8097.17 3236.84,8102.16 3235.06,8107.64 3234.51,8112.54 3234.46,8294.47 3235.06,8300.2 3236.55,8304.91 3239.73,8310.67 3243.58,8314.95 3248.24,8318.34 3253.51,8320.68 3258.33,8321.75 3261.61,8322.02 3443.54,8322.02 3446.82,8321.75 3451.64,8320.68 3457.59,8317.89 3461.56,8314.95 3464.9,8311.31 3467.93,8306.42 3470.08,8300.2 3470.64,8295.3 3470.64,8112.54 3470.08,8107.64 3468.3,8102.16 3465.42,8097.17 3461.56,8092.89 3456.9,8089.5 3451.64,8087.16 3446.03,8085.97 3439.19,8085.87 3439.19,7998.24 3437.33,7980.59 3432.26,7964.4 3424.59,7950.12 3414.34,7937.57 3331.89,7855.07 3331.89,7307.57 3342.38,7289.3 3349.04,7268.96 3349.72,7264.1 4698.47,5915.35 4907.24,5915.07 4912.06,5914.01 4916.59,5912.04 4921.98,5908.28 4926.29,5903.3 4928.72,5899 4930.29,5894.32 4931.1,5887.8 4931.1,5836.61 5123.57,5836.61 5208.02,5921.06 5220.52,5931.37 5236.84,5940.09 5252.36,5944.76 5268.49,5946.39 6319.2,5946.43 6326.77,5951.87 6347.07,5960.91 6368.81,5965.53 6390.21,5965.57 6412.77,5960.91 6433.07,5951.87 6451.05,5938.81 6466.37,5921.6 6477.03,5903.05 6483.68,5882.71 6486.18,5860.64 6483.9,5837.71 6477.03,5816.58 6465.92,5797.33 6450.41,5780.3 6433.07,5767.76 6413.54,5759.01 6391.85,5754.23 6368.81,5754.1 6347.87,5758.5 6326.77,5767.76 6319.2,5773.2 5305.14,5773.2 5220.12,5688.23 5206.9,5677.58 5193.29,5670.31 5177.09,5665.24 5159.45,5663.38 4931.1,5663.38 4931.1,5612.2 4930.5,5606.47 4928.72,5601 4925.84,5596.01 4921.98,5591.72 4917.32,5588.34 4912.83,5586.29 4906.01,5584.76 4891.73,5584.65 4891.73,4379.91 4945.8,4379.77 4951.43,4378.57 4955.96,4376.6 4961.94,4372.26 4965.21,4368.56 4967.71,4364.31 4970,4357.28 4970.47,4352.36 4970.47,4301.18 5556.64,4301.18 5610.01,4354.55 5619.86,4362.99 5632.5,4370.74 5645.09,4375.85 5658.32,4378.93 5671.26,4379.92 5789.37,4379.92 5806.27,4378.25 5823.21,4373 5838.11,4364.86 5850.61,4354.55 6358.79,3846.37 6374.17,3842.93 6393.7,3834.18 6401.27,3828.74 7404.31,3828.7 7421.19,3826.89 7435.96,3822.41 7452.28,3813.68 7464.79,3803.37 7544.05,3724.06 7554.7,3710.84 7562.3,3696.53 7567.23,3680.28 7568.9,3663.39 7568.9,1301.18 7567.04,1283.53 7562.3,1268.03 7554.7,1253.72 7543.53,1239.93 7529.74,1228.76 7516.13,1221.49 7499.93,1216.42 7483.05,1214.6 7031.18,1214.56 7023.62,1209.12 7002.52,1199.87 6981.58,1195.46 6959.36,1195.46 6937.62,1200.08 6918.06,1208.75 6898.76,1222.77 6884.47,1238.7 6873.36,1257.95 6866.5,1279.08 6864.22,1300.36 6866.5,1323.28 6873.07,1343.65 6884.99,1364.3 6899.34,1380.18 6917.32,1393.24 6937.62,1402.28 6958.55,1406.77 6981.58,1406.9 7002.52,1402.49 7023.62,1393.24 7031.19,1387.79 7395.67,1387.79 7395.67,3627.51 7367.66,3655.51 6401.26,3655.51 6393.7,3650.07 6374.17,3641.32 6351.66,3636.41 6329.44,3636.41 6307.7,3641.03 6287.4,3650.07 6268.84,3663.71 6254.55,3679.64 6243.82,3698.16 6236.79,3719.23 6236.1,3724.08 5753.49,4206.69 5707.13,4206.69 5653.76,4153.32 5643.91,4144.87 5631.28,4137.13 5618.69,4132.02 5605.45,4128.94 5592.52,4127.95 4970.47,4127.95 4970.47,4076.77 4969.87,4071.04 4967.71,4064.83 4965.21,4060.57 4961.94,4056.87 4956.69,4052.9 4950.63,4050.35 4946.61,4049.49 4942.91,4049.21 4667.32,4049.21 4663.63,4049.49 4658.04,4050.86 4653.54,4052.9 4648.88,4056.29 4645.03,4060.57 4642.15,4065.56 4640.36,4071.04 4639.76,4076.77 4639.76,4352.36 4640.36,4358.09 4642.15,4363.57 4645.54,4369.2 4648.88,4372.84 4652.85,4375.78 4658.81,4378.57 4665.25,4379.81 4718.5,4379.91 4718.5,5584.65 4625.48,5584.76 4619.44,5585.99 4614.91,5587.96 4608.93,5592.31 4605.66,5596.01 4602.78,5601 4600.99,5606.47 4600.39,5612.2 4600.39,5768.45 3513.38,6855.46 2411.42,5753.49 2411.42,5572.83 2410.81,5567.1 2409.33,5562.39 2406.15,5556.64 2402.3,5552.35 2397.64,5548.97 2391.58,5546.41 2385.93,5545.38 2332.68,5545.29 2332.68,4309.46 2385.93,4309.37 2392.37,4308.13 2398.33,4305.34 2402.3,4302.4 2405.63,4298.76 2409.03,4293.13 2410.81,4287.65 2411.42,4281.92 2411.37,4005.51 2410.81,4000.6 2409.33,3995.89 2406.15,3990.13 2402.3,3985.85 2398.33,3982.91 2392.37,3980.12 2387.55,3979.05 2383.86,3978.77 2108.27,3978.77 2104.57,3979.05 2100.55,3979.9 2094.49,3982.46 2089.24,3986.43 2085.97,3990.13 2083.46,3994.38 2081.31,4000.6 2080.71,4006.33 2080.71,4057.51 951.652,4057.51 815.074,3920.93 814.392,3916.08 807.738,3895.74 796.626,3876.5 781.756,3859.98 763.778,3846.92 742.682,3837.67 721.74,3833.26 699.518,3833.26 677.78,3837.88 658.214,3846.54 638.918,3860.56 624.632,3876.5 613.52,3895.74 606.652,3916.88 604.372,3938.15 606.866,3961.87 613.52,3982.21 624.632,4001.46 639.5,4017.97 657.48,4031.03 677.78,4040.07 692.382,4043.22 855.102,4205.89 868.318,4216.54 881.93,4223.81 898.128,4228.89 915.776,4230.74 2080.71,4230.74 2080.71,4281.92 2081.18,4286.83 2083.46,4293.86 2085.97,4298.12 2089.83,4302.4 2095.22,4306.16 2099.75,4308.13 2105.38,4309.33 2159.45,4309.46 2159.45,5545.29 2105.38,5545.43 2099.75,5546.62 2095.22,5548.59 2089.24,5552.94 2085.97,5556.64 2083.46,5560.89 2081.18,5567.92 2080.71,5572.83 2080.71,5624.01 868.11,5624.01 850.462,5625.87 834.264,5630.94 820.652,5638.21 807.436,5648.86 692.38,5763.87 677.78,5767.01 658.214,5775.68 639.5,5789.11 624.632,5805.63 613.52,5824.87 606.652,5846.01 604.33,5868.11" style="stroke:rgb(0,0,0);stroke-width:1px;fill:none;stroke-opacity:1;stroke-linecap:round;stroke-linejoin:round;;fill:none"/>
<polyline points="269.682,6261.81 269.682,3584.65 270.87,3570.49 274.136,3557.3 279.426,3544.78 286.608,3533.25 295.052,3523.4 334.994,3483.51 347.546,3473.26 361.822,3465.58 378.02,3460.51 395.668,3458.66 649.914,3458.66 657.48,3453.22 677.78,3444.18 700.34,3439.52 721.74,3439.56 743.478,3444.18 763.778,3453.22 771.344,3458.66 1990.56,3458.66 2081.79,3367.43 2080.75,3355.9 2084.53,3321.55 2095,3289.47 2112.81,3258.89 2135.42,3233.84 2163.38,3213.52 2194.96,3199.46 2229.6,3192.23 2263.35,3192.27 2297.16,3199.46 2328.74,3213.52 2356.71,3233.84 2379.84,3259.53 2397.12,3289.47 2407.8,3322.34 2409.76,3340.55 4665.19,3340.55 4671.34,3329.97 4694.47,3304.28 4722.44,3283.96 4754.02,3269.9 4787.83,3262.72 4822.4,3262.72 4850.32,3268.61 4866.21,3263.66 4883.86,3261.81 6279.83,3261.81 6287.4,3256.37 6306.93,3247.62 6322.3,3244.18 6358.04,3208.44 6368.89,3199.27 6380.53,3192.25 6391.94,3187.52 6406.35,3184.06 6419.29,3183.07 7049.21,3183.07 7052.22,3183.67 7053.59,3184.4 7054.78,3185.38 7056.49,3187.93 7057.09,3190.94 7057.09,3348.43 7056.61,3351.12 7055.24,3353.49 7053.15,3355.24 7050.58,3356.18 6455.17,3356.3 6445,3366.47 6444.31,3371.32 6437.66,3391.66 6427,3410.21 6411.68,3427.42 6393.7,3440.48 6374.17,3449.23 6350.84,3454.19 6329.44,3454.14 6307.7,3449.52 6287.4,3440.48 6279.83,3435.04 4969.69,3435.04 4966.86,3461.54 4956.18,3494.42 4938.89,3524.36 4916.34,3549.46 4887.06,3570.74 4856.21,3584.43 4822.4,3591.61 4787.02,3591.48 4754.02,3584.43 4723.17,3570.74 4694.47,3550.05 4671.34,3524.36 4665.19,3513.78 2316.51,3513.78 2301.39,3512.15 2296.36,3514.2 2263.35,3521.17 2229.6,3521.21 2195.76,3514.2 2184.73,3509.47 2087.68,3606.52 2077.83,3614.96 2066.3,3622.15 2053.78,3627.44 2040.59,3630.7 2027.05,3631.86 771.344,3631.89 763.778,3637.33 743.478,3646.37 720.918,3651.04 699.518,3650.99 677.78,3646.37 657.48,3637.33 649.912,3631.89 442.912,3631.89 442.912,6175.19 649.916,6175.19 657.48,6169.75 677.78,6160.71 699.518,6156.09 721.74,6156.09 744.246,6161.01 763.778,6169.75 782.34,6183.4 796.626,6199.33 807.364,6217.84 814.392,6238.91 815.074,6243.77 982.726,6411.42 2106.13,6411.42 2112.29,6400.84 2135.42,6375.15 2163.38,6354.83 2194.96,6340.77 2229.6,6333.54 2263.35,6333.58 2297.16,6340.77 2328.74,6354.83 2357.29,6375.73 2379.84,6400.84 2397.12,6430.78 2407.8,6463.65 2411.42,6498.03 2407.8,6532.41 2396.75,6566.02 2379.32,6595.86 2356.71,6620.91 2332.68,6638.43 2332.68,8233.81 2596.9,8498.03 3655.51,8498.03 3655.51,8278.73 3650.27,8272.65 3638.08,8251.19 3630.74,8228.48 3628.16,8203.92 3630.74,8179.37 3638.08,8156.65 3650.27,8135.19 3655.51,8129.12 3655.55,7402.77 3657.36,7385.9 3661.84,7371.12 3670.11,7355.42 3680.88,7342.3 3744.63,7278.55 3741.3,7268.16 3739.02,7246.89 3741.17,7224.78 3748.17,7202.83 3758.83,7184.27 3774.15,7167.07 3792.12,7154 3812.43,7144.97 3834.16,7140.35 3856.39,7140.35 3877.33,7144.75 3898.42,7154 3905.99,7159.45 4021.21,7159.45 4605.17,6575.49 4603.88,6570.97 4600.39,6537.4 4604.22,6502.23 4615.06,6469.41 4631.97,6440.21 4654.52,6415.1 4683.07,6394.2 4715.45,6379.93 4749.29,6372.91 4783.03,6372.95 4803.41,6377.24 4988.39,6192.27 5002.18,6181.1 5016.49,6173.49 5031.99,6168.75 5049.63,6166.9 6319.21,6166.9 6326.77,6161.46 6347.07,6152.42 6368.81,6147.8 6390.21,6147.75 6412.77,6152.42 6433.07,6161.46 6451.05,6174.52 6465.92,6191.03 6477.03,6210.28 6484.03,6232.23 6486.22,6253.51 6484.03,6274.8 6477.03,6296.75 6465.4,6316.64 6451.05,6332.51 6433.76,6345.12 6412.77,6354.61 6391.03,6359.23 6368.81,6359.23 6347.87,6354.82 6326.77,6345.57 6319.2,6340.13 5085.51,6340.13 4926.33,6499.31 4927.62,6503.84 4931.1,6537.4 4927.27,6572.58 4916.81,6604.66 4899.97,6633.9 4876.39,6660.28 4848.42,6680.6 4816.05,6694.88 4782.21,6701.89 4748.46,6701.85 4728.08,6697.56 4118.33,7307.31 4105.83,7317.62 4089.5,7326.34 4073.98,7331.01 4057.86,7332.64 3925.6,7332.68 3917.29,7348.51 3907.04,7361.07 3828.74,7439.42 3828.74,8119.9 3841.83,8134.5 3854.17,8155.88 3861.8,8179.37 3864.38,8203.92 3861.8,8228.48 3854.17,8251.96 3841.83,8273.34 3828.74,8287.95 3828.74,8584.65 3827.07,8601.54 3821.81,8618.49 3813.68,8633.39 3802.8,8646.41 3789.58,8657.06 3775.97,8664.34 3759.77,8669.41 3742.12,8671.26 2561.02,8671.26 2546.87,8670.07 2533.68,8666.81 2521.16,8661.52 2509.62,8654.33 2499.78,8645.89 2184.82,8330.93 2174.5,8318.42 2165.78,8302.1 2161,8285.82 2159.45,8269.68 2159.45,6638.42 2134.84,6620.33 2112.29,6595.22 2106.13,6584.65 946.85,6584.65 929.952,6582.98 913.004,6577.72 898.108,6569.59 885.604,6559.28 692.382,6366.06 677.012,6362.61 657.48,6353.87 649.91,6348.42 356.298,6348.42 339.4,6346.76 323.152,6341.83 308.84,6334.22 294.532,6322.48 284.28,6309.93 276.016,6294.23 271.234,6277.94 269.682,6261.81" style="stroke:rgb(167,241,217);stroke-width:15.748031;fill:none;stroke-opacity:0.5;stroke-linecap:round;stroke-linejoin:round;;fill:none"/>
<polyline points="269.682,6261.81 269.682,3584.65 270.87,3570.49 274.136,3557.3 279.426,3544.78 286.608,3533.25 295.052,3523.4 334.994,3483.51 347.546,3473.26 361.822,3465.58 378.02,3460.51 395.668,3458.66 649.914,3458.66 657.48,3453.22 677.78,3444.18 700.34,3439.52 721.74,3439.56 743.478,3444.18 763.778,3453.22 771.344,3458.66 1990.56,3458.66 2081.79,3367.43 2080.75,3355.9 2084.53,3321.55 2095,3289.47 2112.81,3258.89 2135.42,3233.84 2163.38,3213.52 2194.96,3199.46 2229.6,3192.23 2263.35,3192.27 2297.16,3199.46 2328.74,3213.52 2356.71,3233.84 2379.84,3259.53 2397.12,3289.47 2407.8,3322.34 2409.76,3340.55 4665.19,3340.55 4671.34,3329.97 4694.47,3304.28 4722.44,3283.96 4754.02,3269.9 4787.83,3262.72 4822.4,3262.72 4850.32,3268.61 4866.21,3263.66 4883.86,3261.81 6279.83,3261.81 6287.4,3256.37 6306.93,3247.62 6322.3,3244.18 6358.04,3208.44 6368.89,3199.27 6380.53,3192.25 6391.94,3187.52 6406.35,3184.06 6419.29,3183.07 7049.21,3183.07 7052.22,3183.67 7053.59,3184.4 7054.78,3185.38 7056.49,3187.93 7057.09,3190.94 7057.09,3348.43 7056.61,3351.12 7055.24,3353.49 7053.15,3355.24 7050.58,3356.18 6455.17,3356.3 6445,3366.47 6444.31,3371.32 6437.66,3391.66 6427,3410.21 6411.68,3427.42 6393.7,3440.48 6374.17,3449.23 6350.84,3454.19 6329.44,3454.14 6307.7,3449.52 6287.4,3440.48 6279.83,3435.04 4969.69,3435.04 4966.86,3461.54 4956.18,3494.42 4938.89,3524.36 4916.34,3549.46 4887.06,3570.74 4856.21,3584.43 4822.4,3591.61 4787.02,3591.48 4754.02,3584.43 4723.17,3570.74 4694.47,3550.05 4671.34,3524.36 4665.19,3513.78 2316.51,3513.78 2301.39,3512.15 2296.36,3514.2 2263.35,3521.17 2229.6,3521.21 2195.76,3514.2 2184.73,3509.47 2087.68,3606.52 2077.83,3614.96 2066.3,3622.15 2053.78,3627.44 2040.59,3630.7 2027.05,3631.86 771.344,3631.89 763.778,3637.33 743.478,3646.37 720.918,3651.04 699.518,3650.99 677.78,3646.37 657.48,3637.33 649.912,3631.89 442.912,3631.89 442.912,6175.19 649.916,6175.19 657.48,6169.75 677.78,6160.71 699.518,6156.09 721.74,6156.09 744.246,6161.01 763.778,6169.75 782.34,6183.4 796.626,6199.33 807.364,6217.84 814.392,6238.91 815.074,6243.77 982.726,6411.42 2106.13,6411.42 2112.29,6400.84 2135.42,6375.15 2163.38,6354.83 2194.96,6340.77 2229.6,6333.54 2263.35,6333.58 2297.16,6340.77 2328.74,6354.83 2357.29,6375.73 2379.84,6400.84 2397.12,6430.78 2407.8,6463.65 2411.42,6498.03 2407.8,6532.41 2396.75,6566.02 2379.32,6595.86 2356.71,6620.91 2332.68,6638.43 2332.68,8233.81 2596.9,8498.03 3655.51,8498.03 3655.51,8278.73 3650.27,8272.65 3638.08,8251.19 3630.74,8228.48 3628.16,8203.92 3630.74,8179.37 3638.08,8156.65 3650.27,8135.19 3655.51,8129.12 3655.55,7402.77 3657.36,7385.9 3661.84,7371.12 3670.11,7355.42 3680.88,7342.3 3744.63,7278.55 3741.3,7268.16 3739.02,7246.89 3741.17,7224.78 3748.17,7202.83 3758.83,7184.27 3774.15,7167.07 3792.12,7154 3812.43,7144.97 3834.16,7140.35 3856.39,7140.35 3877.33,7144.75 3898.42,7154 3905.99,7159.45 4021.21,7159.45 4605.17,6575.49 4603.88,6570.97 4600.39,6537.4 4604.22,6502.23 4615.06,6469.41 4631.97,6440.21 4654.52,6415.1 4683.07,6394.2 4715.45,6379.93 4749.29,6372.91 4783.03,6372.95 4803.41,6377.24 4988.39,6192.27 5002.18,6181.1 5016.49,6173.49 5031.99,6168.75 5049.63,6166.9 6319.21,6166.9 6326.77,6161.46 6347.07,6152.42 6368.81,6147.8 6390.21,6147.75 6412.77,6152.42 6433.07,6161.46 6451.05,6174.52 6465.92,6191.03 6477.03,6210.28 6484.03,6232.23 6486.22,6253.51 6484.03,6274.8 6477.03,6296.75 6465.4,6316.64 6451.05,6332.51 6433.76,6345.12 6412.77,6354.61 6391.03,6359.23 6368.81,6359.23 6347.87,6354.82 6326.77,6345.57 6319.2,6340.13 5085.51,6340.13 4926.33,6499.31 4927.62,6503.84 4931.1,6537.4 4927.27,6572.58 4916.81,6604.66 4899.97,6633.9 4876.39,6660.28 4848.42,6680.6 4816.05,6694.88 4782.21,6701.89 4748.46,6701.85 4728.08,6697.56 4118.33,7307.31 4105.83,7317.62 4089.5,7326.34 4073.98,7331.01 4057.86,7332.64 3925.6,7332.68 3917.29,7348.51 3907.04,7361.07 3828.74,7439.42 3828.74,8119.9 3841.83,8134.5 3854.17,8155.88 3861.8,8179.37 3864.38,8203.92 3861.8,8228.48 3854.17,8251.96 3841.83,8273.34 3828.74,8287.95 3828.74,8584.65 3827.07,8601.54 3821.81,8618.49 3813.68,8633.39 3802.8,8646.41 3789.58,8657.06 3775.97,8664.34 3759.77,8669.41 3742.12,8671.26 2561.02,8671.26 2546.87,8670.07 2533.68,8666.81 2521.16,8661.52 2509.62,8654.33 2499.78,8645.89 2184.82,8330.93 2174.5,8318.42 2165.78,8302.1 2161,8285.82 2159.45,8269.68 2159.45,6638.42 2134.84,6620.33 2112.29,6595.22 2106.13,6584.65 946.85,6584.65 929.952,6582.98 913.004,6577.72 898.108,6569.59 885.604,6559.28 692.382,6366.06 677.012,6362.61 657.48,6353.87 649.91,6348.42 356.298,6348.42 339.4,6346.76 323.152,6341.83 308.84,6334.22 294.532,6322.48 284.28,6309.93 276.016,6294.23 271.234,6277.94 269.682,6261.81" style="stroke:rgb(0,0,0);stroke-width:1px;fill:none;stroke-opacity:1;stroke-linecap:round;stroke-linejoin:round;;fill:none"/>
<polyline points="2719.16,8204.01 2719.92,8196.34 2721.85,8190.48 2724.43,8185.74 2727.83,8181.54 2732.5,8177.51 2739.3,8173.88 2744.48,8172.35 2750.62,8171.74 2809.12,8171.74 2809.12,8113.25 2809.72,8107.1 2811.25,8101.92 2814.89,8095.13 2818.91,8090.46 2823.11,8087.06 2829.29,8083.89 2834.47,8082.36 2839.84,8081.79 2847.51,8082.54 2853.36,8084.48 2858.11,8087.06 2862.31,8090.46 2866.34,8095.13 2869.97,8101.92 2871.5,8107.1 2872.11,8113.25 2872.11,8171.74 2930.6,8171.74 2936.75,8172.35 2941.93,8173.88 2948.72,8177.51 2953.39,8181.54 2956.79,8185.74 2959.96,8191.91 2961.49,8197.09 2962.06,8202.47 2961.3,8210.13 2959.37,8215.99 2956.79,8220.74 2953.39,8224.94 2948.72,8228.96 2941.93,8232.6 2936.75,8234.13 2930.6,8234.73 2872.11,8234.73 2872.11,8293.23 2871.5,8299.37 2869.97,8304.55 2866.34,8311.34 2862.31,8316.02 2858.11,8319.41 2851.94,8322.58 2846.76,8324.11 2841.38,8324.68 2833.72,8323.93 2827.86,8321.99 2823.11,8319.41 2818.91,8316.02 2814.89,8311.34 2811.25,8304.55 2809.72,8299.37 2809.12,8293.23 2809.12,8234.73 2750.62,8234.73 2744.48,8234.13 2739.3,8232.6 2732.5,8228.96 2727.83,8224.94 2724.43,8220.74 2721.26,8214.56 2719.73,8209.38 2719.16,8204.01" style="stroke:rgb(167,241,217);stroke-width:15.748031;fill:none;stroke-opacity:0.5;stroke-linecap:round;stroke-linejoin:round;;fill:none"/>
<polyline points="2719.16,8204.01 2719.92,8196.34 2721.85,8190.48 2724.43,8185.74 2727.83,8181.54 2732.5,8177.51 2739.3,8173.88 2744.48,8172.35 2750.62,8171.74 2809.12,8171.74 2809.12,8113.25 2809.72,8107.1 2811.25,8101.92 2814.89,8095.13 2818.91,8090.46 2823.11,8087.06 2829.29,8083.89 2834.47,8082.36 2839.84,8081.79 2847.51,8082.54 2853.36,8084.48 2858.11,8087.06 2862.31,8090.46 2866.34,8095.13 2869.97,8101.92 2871.5,8107.1 2872.11,8113.25 2872.11,8171.74 2930.6,8171.74 2936.75,8172.35 2941.93,8173.88 2948.72,8177.51 2953.39,8181.54 2956.79,8185.74 2959.96,8191.91 2961.49,8197.09 2962.06,8202.47 2961.3,8210.13 2959.37,8215.99 2956.79,8220.74 2953.39,8224.94 2948.72,8228.96 2941.93,8232.6 2936.75,8234.13 2930.6,8234.73 2872.11,8234.73 2872.11,8293.23 2871.5,8299.37 2869.97,8304.55 2866.34,8311.34 2862.31,8316.02 2858.11,8319.41 2851.94,8322.58 2846.76,8324.11 2841.38,8324.68 2833.72,8323.93 2827.86,8321.99 2823.11,8319.41 2818.91,8316.02 2814.89,8311.34 2811.25,8304.55 2809.72,8299.37 2809.12,8293.23 2809.12,8234.73 2750.62,8234.73 2744.48,8234.13 2739.3,8232.6 2732.5,8228.96 2727.83,8224.94 2724.43,8220.74 2721.26,8214.56 2719.73,8209.38 2719.16,8204.01" style="stroke:rgb(0,0,0);stroke-width:1px;fill:none;stroke-opacity:1;stroke-linecap:round;stroke-linejoin:round;;fill:none"/>
<polyline points="4018.38,8204.01 4018.95,8197.09 4020.48,8191.91 4023.65,8185.74 4027.05,8181.54 4032.34,8177.05 4037.09,8174.47 4043.69,8172.35 4049.84,8171.74 4229.81,8171.74 4235.19,8172.23 4242.56,8174.47 4247.31,8177.05 4252.6,8181.54 4256,8185.74 4258.58,8190.48 4260.7,8197.09 4261.27,8202.47 4260.7,8209.38 4259.17,8214.56 4256,8220.74 4252.6,8224.94 4247.31,8229.42 4242.56,8232 4235.96,8234.13 4229.81,8234.73 4049.84,8234.73 4044.46,8234.24 4038.51,8232.6 4033,8229.82 4027.05,8224.94 4023.65,8220.74 4021.07,8215.99 4018.95,8209.38 4018.38,8204.01" style="stroke:rgb(167,241,217);stroke-width:15.748031;fill:none;stroke-opacity:0.5;stroke-linecap:round;stroke-linejoin:round;;fill:none"/>
<polyline points="4018.38,8204.01 4018.95,8197.09 4020.48,8191.91 4023.65,8185.74 4027.05,8181.54 4032.34,8177.05 4037.09,8174.47 4043.69,8172.35 4049.84,8171.74 4229.81,8171.74 4235.19,8172.23 4242.56,8174.47 4247.31,8177.05 4252.6,8181.54 4256,8185.74 4258.58,8190.48 4260.7,8197.09 4261.27,8202.47 4260.7,8209.38 4259.17,8214.56 4256,8220.74 4252.6,8224.94 4247.31,8229.42 4242.56,8232 4235.96,8234.13 4229.81,8234.73 4049.84,8234.73 4044.46,8234.24 4038.51,8232.6 4033,8229.82 4027.05,8224.94 4023.65,8220.74 4021.07,8215.99 4018.95,8209.38 4018.38,8204.01" style="stroke:rgb(0,0,0);stroke-width:1px;fill:none;stroke-opacity:1;stroke-linecap:round;stroke-linejoin:round;;fill:none"/>
<polyline points="4620.91,8233.93 4620.91,7612.49 4621.06,7610.95 4622.24,7608.12 4624.41,7605.94 4627.25,7604.77 7292.45,7604.62 7295.46,7605.22 7296.83,7605.94 7299,7608.12 7300.17,7610.95 7300.33,8233.93 7299.73,8236.94 7299,8238.31 7296.83,8240.48 7293.99,8241.65 4628.78,8241.81 4625.77,8241.2 4623.22,8239.5 4621.51,8236.94 4620.91,8233.93" style="stroke:rgb(167,241,217);stroke-width:15.748031;fill:none;stroke-opacity:0.5;stroke-linecap:round;stroke-linejoin:round;;fill:none"/>
<polyline points="4620.91,8233.93 4620.91,7612.49 4621.06,7610.95 4622.24,7608.12 4624.41,7605.94 4627.25,7604.77 7292.45,7604.62 7295.46,7605.22 7296.83,7605.94 7299,7608.12 7300.17,7610.95 7300.33,8233.93 7299.73,8236.94 7299,8238.31 7296.83,8240.48 7293.99,8241.65 4628.78,8241.81 4625.77,8241.2 4623.22,8239.5 4621.51,8236.94 4620.91,8233.93" style="stroke:rgb(0,0,0);stroke-width:1px;fill:none;stroke-opacity:1;stroke-linecap:round;stroke-linejoin:round;;fill:none"/>
<polyline points="4676.03,8041.06 4676.12,7853.61 4678.07,7845.32 4695.7,7809.87 4697.65,7806.53 4699.62,7803.96 4702.45,7801.14 4705.01,7799.17 4708.36,7797.21 4743.8,7779.59 4750.89,7777.75 4804.57,7777.54 4808.28,7777.79 4815.24,7779.59 4828.38,7786.07 4831.05,7786.84 4833.83,7786.63 4835.14,7786.16 4836.35,7785.47 4838.71,7783.29 4844.92,7779.7 4851.85,7777.85 4859.03,7777.85 4865.96,7779.7 4872.18,7783.29 4877.25,7788.37 4880.84,7794.58 4882.77,7801.76 4883,7805.36 4883,8041.06 4882.77,8044.66 4880.84,8051.84 4877.25,8058.06 4872.18,8063.13 4865.96,8066.72 4859.03,8068.57 4851.85,8068.57 4844.92,8066.72 4838.71,8063.13 4833.63,8058.06 4830.04,8051.84 4828.12,8044.66 4827.88,8041.06 4827.73,7851.99 4826.56,7849.15 4822.18,7844.71 4799.98,7833.49 4797.67,7832.75 4762.57,7832.66 4759.05,7833.49 4743.35,7841.34 4741.3,7842.82 4739.83,7844.86 4731.52,7861.69 4731.14,7864.09 4731.14,8041.06 4730.91,8044.66 4728.99,8051.84 4725.4,8058.06 4720.32,8063.13 4714.11,8066.72 4707.17,8068.57 4700,8068.57 4693.07,8066.72 4686.85,8063.13 4681.78,8058.06 4678.19,8051.84 4676.26,8044.66 4676.03,8041.06" style="stroke:rgb(167,241,217);stroke-width:15.748031;fill:none;stroke-opacity:0.5;stroke-linecap:round;stroke-linejoin:round;;fill:none"/>
<polyline points="4676.03,8041.06 4676.12,7853.61 4678.07,7845.32 4695.7,7809.87 4697.65,7806.53 4699.62,7803.96 4702.45,7801.14 4705.01,7799.17 4708.36,7797.21 4743.8,7779.59 4750.89,7777.75 4804.57,7777.54 4808.28,7777.79 4815.24,7779.59 4828.38,7786.07 4831.05,7786.84 4833.83,7786.63 4835.14,7786.16 4836.35,7785.47 4838.71,7783.29 4844.92,7779.7 4851.85,7777.85 4859.03,7777.85 4865.96,7779.7 4872.18,7783.29 4877.25,7788.37 4880.84,7794.58 4882.77,7801.76 4883,7805.36 4883,8041.06 4882.77,8044.66 4880.84,8051.84 4877.25,8058.06 4872.18,8063.13 4865.96,8066.72 4859.03,8068.57 4851.85,8068.57 4844.92,8066.72 4838.71,8063.13 4833.63,8058.06 4830.04,8051.84 4828.12,8044.66 4827.88,8041.06 4827.73,7851.99 4826.56,7849.15 4822.18,7844.71 4799.98,7833.49 4797.67,7832.75 4762.57,7832.66 4759.05,7833.49 4743.35,7841.34 4741.3,7842.82 4739.83,7844.86 4731.52,7861.69 4731.14,7864.09 4731.14,8041.06 4730.91,8044.66 4728.99,8051.84 4725.4,8058.06 4720.32,8063.13 4714.11,8066.72 4707.17,8068.57 4700,8068.57 4693.07,8066.72 4686.85,8063.13 4681.78,8058.06 4678.19,8051.84 4676.26,8044.66 4676.03,8041.06" style="stroke:rgb(0,0,0);stroke-width:1px;fill:none;stroke-opacity:1;stroke-linecap:round;stroke-linejoin:round;;fill:none"/>
<polyline points="4963.11,7801.96 4963.24,7809.4 4964,7812.92 5031.35,8048.64 5032.65,8052.29 5034.23,8055.37 5036.36,8058.46 5038.67,8061.02 5041.53,8063.46 5044.42,8065.33 5047.81,8066.94 5051.1,8068.01 5054.79,8068.69 5058.24,8068.86 5061.98,8068.56 5065.35,8067.84 5068.89,8066.58 5071.96,8065.01 5075.06,8062.88 5077.62,8060.57 5080.05,8057.71 5081.93,8054.81 5083.6,8051.32 5118.1,7965.07 5118.75,7963.79 5120.7,7961.69 5121.93,7960.94 5124.69,7960.16 5127.54,7960.42 5128.89,7960.94 5131.19,7962.65 5132.72,7965.07 5167.22,8051.32 5168.89,8054.81 5170.77,8057.71 5173.2,8060.57 5175.76,8062.88 5178.85,8065.01 5181.93,8066.58 5185.47,8067.84 5188.84,8068.56 5192.58,8068.86 5196.03,8068.69 5199.72,8068.01 5203,8066.94 5206.39,8065.33 5209.29,8063.46 5212.15,8061.02 5214.46,8058.46 5216.59,8055.37 5218.17,8052.29 5219.47,8048.64 5286.82,7812.92 5287.58,7809.4 5287.7,7801.96 5285.96,7795 5282.48,7788.73 5277.48,7783.57 5271.33,7779.88 5264.43,7777.91 5257.25,7777.79 5250.29,7779.53 5244.02,7783.02 5238.86,7788.01 5235.04,7794.39 5233.82,7797.78 5194.88,7934.09 5194.33,7935.49 5192.49,7937.85 5189.91,7939.36 5186.96,7939.79 5185.47,7939.58 5182.75,7938.35 5180.68,7936.19 5179.99,7934.85 5151.11,7862.64 5149.18,7858.72 5144.61,7852.92 5138.86,7848.62 5132.15,7845.93 5125.79,7845.1 5118.62,7845.95 5111.95,7848.62 5106.21,7852.92 5101.64,7858.72 5099.71,7862.64 5070.14,7936.19 5068.07,7938.35 5065.35,7939.58 5062.36,7939.72 5059.54,7938.73 5057.29,7936.76 5055.94,7934.09 5016.99,7797.78 5015.78,7794.39 5011.96,7788.01 5006.8,7783.02 5000.52,7779.53 4993.57,7777.79 4986.39,7777.91 4979.49,7779.88 4973.33,7783.57 4968.34,7788.73 4964.86,7795 4963.11,7801.96" style="stroke:rgb(167,241,217);stroke-width:15.748031;fill:none;stroke-opacity:0.5;stroke-linecap:round;stroke-linejoin:round;;fill:none"/>
<polyline points="4963.11,7801.96 4963.24,7809.4 4964,7812.92 5031.35,8048.64 5032.65,8052.29 5034.23,8055.37 5036.36,8058.46 5038.67,8061.02 5041.53,8063.46 5044.42,8065.33 5047.81,8066.94 5051.1,8068.01 5054.79,8068.69 5058.24,8068.86 5061.98,8068.56 5065.35,8067.84 5068.89,8066.58 5071.96,8065.01 5075.06,8062.88 5077.62,8060.57 5080.05,8057.71 5081.93,8054.81 5083.6,8051.32 5118.1,7965.07 5118.75,7963.79 5120.7,7961.69 5121.93,7960.94 5124.69,7960.16 5127.54,7960.42 5128.89,7960.94 5131.19,7962.65 5132.72,7965.07 5167.22,8051.32 5168.89,8054.81 5170.77,8057.71 5173.2,8060.57 5175.76,8062.88 5178.85,8065.01 5181.93,8066.58 5185.47,8067.84 5188.84,8068.56 5192.58,8068.86 5196.03,8068.69 5199.72,8068.01 5203,8066.94 5206.39,8065.33 5209.29,8063.46 5212.15,8061.02 5214.46,8058.46 5216.59,8055.37 5218.17,8052.29 5219.47,8048.64 5286.82,7812.92 5287.58,7809.4 5287.7,7801.96 5285.96,7795 5282.48,7788.73 5277.48,7783.57 5271.33,7779.88 5264.43,7777.91 5257.25,7777.79 5250.29,7779.53 5244.02,7783.02 5238.86,7788.01 5235.04,7794.39 5233.82,7797.78 5194.88,7934.09 5194.33,7935.49 5192.49,7937.85 5189.91,7939.36 5186.96,7939.79 5185.47,7939.58 5182.75,7938.35 5180.68,7936.19 5179.99,7934.85 5151.11,7862.64 5149.18,7858.72 5144.61,7852.92 5138.86,7848.62 5132.15,7845.93 5125.79,7845.1 5118.62,7845.95 5111.95,7848.62 5106.21,7852.92 5101.64,7858.72 5099.71,7862.64 5070.14,7936.19 5068.07,7938.35 5065.35,7939.58 5062.36,7939.72 5059.54,7938.73 5057.29,7936.76 5055.94,7934.09 5016.99,7797.78 5015.78,7794.39 5011.96,7788.01 5006.8,7783.02 5000.52,7779.53 4993.57,7777.79 4986.39,7777.91 4979.49,7779.88 4973.33,7783.57 4968.34,7788.73 4964.86,7795 4963.11,7801.96" style="stroke:rgb(0,0,0);stroke-width:1px;fill:none;stroke-opacity:1;stroke-linecap:round;stroke-linejoin:round;;fill:none"/>
<polyline points="5350.94,7973.57 5351.19,7977.28 5352.53,7982.96 5353.97,7986.39 5370.56,8019.57 5373.6,8024.43 5376.07,8027.25 5392.58,8043.75 5395.39,8046.22 5400.25,8049.26 5435.59,8066.83 5442.54,8068.64 5446.25,8068.88 5511.8,8068.88 5514.81,8069.48 5517.37,8071.19 5519.07,8073.74 5519.67,8076.76 5519.67,8159.17 5519.91,8162.77 5521.83,8169.95 5525.42,8176.17 5530.5,8181.24 5536.71,8184.83 5543.64,8186.69 5550.82,8186.69 5557.75,8184.83 5563.97,8181.24 5569.04,8176.17 5572.63,8169.95 5574.55,8162.77 5574.79,8159.17 5574.79,7805.36 5574.55,7801.77 5572.63,7794.58 5569.04,7788.37 5563.97,7783.29 5557.75,7779.7 5550.82,7777.85 5543.64,7777.85 5536.71,7779.7 5533.29,7781.52 5530.38,7781.95 5527.52,7781.29 5522.55,7779.11 5516.94,7777.79 5513.23,7777.54 5446.25,7777.54 5442.54,7777.79 5436.87,7779.12 5433.44,7780.57 5400.26,7797.16 5395.39,7800.2 5392.58,7802.67 5376.15,7819.1 5372.5,7823.52 5370.61,7826.75 5352.99,7862.19 5351.19,7869.14 5350.94,7872.85 5350.94,7973.57 5406.06,7965.47 5406.89,7968.99 5417.45,7990.11 5418.93,7992.15 5428.63,8001.71 5450.84,8012.93 5453.15,8013.67 5506.33,8013.67 5508.64,8012.93 5516.55,8008.83 5518.5,8006.69 5519.14,8005.39 5519.67,8002.55 5519.54,7842.43 5518.5,7839.73 5516.55,7837.6 5508.64,7833.49 5506.33,7832.75 5453.15,7832.75 5450.84,7833.49 5428.63,7844.71 5418.93,7854.27 5417.45,7856.31 5406.89,7877.44 5406.15,7879.74 5406.06,7965.47" style="stroke:rgb(167,241,217);stroke-width:15.748031;fill:none;stroke-opacity:0.5;stroke-linecap:round;stroke-linejoin:round;;fill:none"/>
<polyline points="5350.94,7973.57 5351.19,7977.28 5352.53,7982.96 5353.97,7986.39 5370.56,8019.57 5373.6,8024.43 5376.07,8027.25 5392.58,8043.75 5395.39,8046.22 5400.25,8049.26 5435.59,8066.83 5442.54,8068.64 5446.25,8068.88 5511.8,8068.88 5514.81,8069.48 5517.37,8071.19 5519.07,8073.74 5519.67,8076.76 5519.67,8159.17 5519.91,8162.77 5521.83,8169.95 5525.42,8176.17 5530.5,8181.24 5536.71,8184.83 5543.64,8186.69 5550.82,8186.69 5557.75,8184.83 5563.97,8181.24 5569.04,8176.17 5572.63,8169.95 5574.55,8162.77 5574.79,8159.17 5574.79,7805.36 5574.55,7801.77 5572.63,7794.58 5569.04,7788.37 5563.97,7783.29 5557.75,7779.7 5550.82,7777.85 5543.64,7777.85 5536.71,7779.7 5533.29,7781.52 5530.38,7781.95 5527.52,7781.29 5522.55,7779.11 5516.94,7777.79 5513.23,7777.54 5446.25,7777.54 5442.54,7777.79 5436.87,7779.12 5433.44,7780.57 5400.26,7797.16 5395.39,7800.2 5392.58,7802.67 5376.15,7819.1 5372.5,7823.52 5370.61,7826.75 5352.99,7862.19 5351.19,7869.14 5350.94,7872.85 5350.94,7973.57 5406.06,7965.47 5406.89,7968.99 5417.45,7990.11 5418.93,7992.15 5428.63,8001.71 5450.84,8012.93 5453.15,8013.67 5506.33,8013.67 5508.64,8012.93 5516.55,8008.83 5518.5,8006.69 5519.14,8005.39 5519.67,8002.55 5519.54,7842.43 5518.5,7839.73 5516.55,7837.6 5508.64,7833.49 5506.33,7832.75 5453.15,7832.75 5450.84,7833.49 5428.63,7844.71 5418.93,7854.27 5417.45,7856.31 5406.89,7877.44 5406.15,7879.74 5406.06,7965.47" style="stroke:rgb(0,0,0);stroke-width:1px;fill:none;stroke-opacity:1;stroke-linecap:round;stroke-linejoin:round;;fill:none"/>
<polyline points="5671.83,8028.04 5671.83,8020.86 5673.69,8013.93 5677.41,8007.49 5679.78,8004.78 5696.29,7988.27 5699,7985.9 5705.44,7982.18 5712.37,7980.32 5719.55,7980.32 5726.48,7982.18 5732.92,7985.9 5735.63,7988.27 5752.14,8004.78 5754.51,8007.49 5758.23,8013.93 5760.09,8020.86 5760.09,8028.04 5758.23,8034.97 5754.51,8041.41 5752.14,8044.12 5735.63,8060.63 5732.92,8063 5726.48,8066.72 5719.55,8068.57 5712.37,8068.57 5705.44,8066.72 5699,8063 5696.29,8060.63 5679.78,8044.12 5677.41,8041.41 5673.69,8034.97 5671.83,8028.04" style="stroke:rgb(167,241,217);stroke-width:15.748031;fill:none;stroke-opacity:0.5;stroke-linecap:round;stroke-linejoin:round;;fill:none"/>
<polyline points="5671.83,8028.04 5671.83,8020.86 5673.69,8013.93 5677.41,8007.49 5679.78,8004.78 5696.29,7988.27 5699,7985.9 5705.44,7982.18 5712.37,7980.32 5719.55,7980.32 5726.48,7982.18 5732.92,7985.9 5735.63,7988.27 5752.14,8004.78 5754.51,8007.49 5758.23,8013.93 5760.09,8020.86 5760.09,8028.04 5758.23,8034.97 5754.51,8041.41 5752.14,8044.12 5735.63,8060.63 5732.92,8063 5726.48,8066.72 5719.55,8068.57 5712.37,8068.57 5705.44,8066.72 5699,8063 5696.29,8060.63 5679.78,8044.12 5677.41,8041.41 5673.69,8034.97 5671.83,8028.04" style="stroke:rgb(0,0,0);stroke-width:1px;fill:none;stroke-opacity:1;stroke-linecap:round;stroke-linejoin:round;;fill:none"/>
<polyline points="5840.26,7973.58 5840.5,7977.28 5841.84,7982.96 5843.28,7986.39 5859.87,8019.57 5862.92,8024.43 5865.38,8027.25 5881.81,8043.67 5886.24,8047.32 5889.47,8049.21 5922.75,8065.85 5926.18,8067.3 5931.85,8068.64 5935.57,8068.88 5985.67,8068.88 5989.38,8068.64 5996.33,8066.83 6031.77,8049.21 6035,8047.32 6039.43,8043.67 6055.77,8027.33 6059.42,8022.9 6061.31,8019.67 6077.95,7986.39 6079.39,7982.96 6080.73,7977.28 6080.98,7973.57 6080.98,7872.85 6080.73,7869.14 6079.36,7863.33 6061.36,7826.85 6058.32,7821.99 6055.85,7819.18 6039.43,7802.75 6035,7799.1 6031.77,7797.21 5998.48,7780.57 5995.05,7779.12 5989.38,7777.79 5985.67,7777.54 5935.56,7777.54 5931.85,7777.79 5926.18,7779.12 5922.75,7780.57 5889.57,7797.16 5884.71,7800.2 5881.89,7802.67 5865.47,7819.1 5861.81,7823.52 5859.93,7826.75 5842.3,7862.19 5840.47,7869.27 5840.26,7973.58 5895.37,7965.47 5896.21,7968.99 5906.77,7990.11 5908.24,7992.15 5917.95,8001.71 5941.28,8013.39 5943.67,8013.76 5977.56,8013.76 5979.96,8013.39 6003.29,8001.71 6013.81,7991.19 6025.03,7968.99 6025.77,7966.68 6025.77,7879.74 6025.03,7877.44 6014.47,7856.32 6012.99,7854.27 6003.29,7844.71 5979.96,7833.03 5977.56,7832.66 5942.46,7832.75 5940.15,7833.49 5917.95,7844.71 5907.42,7855.23 5896.21,7877.44 5895.47,7879.74 5895.37,7965.47" style="stroke:rgb(167,241,217);stroke-width:15.748031;fill:none;stroke-opacity:0.5;stroke-linecap:round;stroke-linejoin:round;;fill:none"/>
<polyline points="5840.26,7973.58 5840.5,7977.28 5841.84,7982.96 5843.28,7986.39 5859.87,8019.57 5862.92,8024.43 5865.38,8027.25 5881.81,8043.67 5886.24,8047.32 5889.47,8049.21 5922.75,8065.85 5926.18,8067.3 5931.85,8068.64 5935.57,8068.88 5985.67,8068.88 5989.38,8068.64 5996.33,8066.83 6031.77,8049.21 6035,8047.32 6039.43,8043.67 6055.77,8027.33 6059.42,8022.9 6061.31,8019.67 6077.95,7986.39 6079.39,7982.96 6080.73,7977.28 6080.98,7973.57 6080.98,7872.85 6080.73,7869.14 6079.36,7863.33 6061.36,7826.85 6058.32,7821.99 6055.85,7819.18 6039.43,7802.75 6035,7799.1 6031.77,7797.21 5998.48,7780.57 5995.05,7779.12 5989.38,7777.79 5985.67,7777.54 5935.56,7777.54 5931.85,7777.79 5926.18,7779.12 5922.75,7780.57 5889.57,7797.16 5884.71,7800.2 5881.89,7802.67 5865.47,7819.1 5861.81,7823.52 5859.93,7826.75 5842.3,7862.19 5840.47,7869.27 5840.26,7973.58 5895.37,7965.47 5896.21,7968.99 5906.77,7990.11 5908.24,7992.15 5917.95,8001.71 5941.28,8013.39 5943.67,8013.76 5977.56,8013.76 5979.96,8013.39 6003.29,8001.71 6013.81,7991.19 6025.03,7968.99 6025.77,7966.68 6025.77,7879.74 6025.03,7877.44 6014.47,7856.32 6012.99,7854.27 6003.29,7844.71 5979.96,7833.03 5977.56,7832.66 5942.46,7832.75 5940.15,7833.49 5917.95,7844.71 5907.42,7855.23 5896.21,7877.44 5895.47,7879.74 5895.37,7965.47" style="stroke:rgb(0,0,0);stroke-width:1px;fill:none;stroke-opacity:1;stroke-linecap:round;stroke-linejoin:round;;fill:none"/>
<polyline points="6177.72,8041.06 6177.8,7853.61 6179.76,7845.32 6197.39,7809.87 6199.34,7806.53 6201.31,7803.96 6204.13,7801.14 6206.7,7799.17 6210.05,7797.21 6245.49,7779.59 6252.57,7777.75 6306.26,7777.54 6309.97,7777.79 6316.93,7779.59 6330.07,7786.07 6332.74,7786.84 6335.52,7786.63 6336.83,7786.16 6338.04,7785.47 6340.39,7783.29 6346.61,7779.7 6353.54,7777.85 6360.72,7777.85 6367.65,7779.7 6373.87,7783.29 6378.94,7788.37 6382.53,7794.58 6384.45,7801.76 6384.69,7805.36 6384.69,8041.06 6384.45,8044.66 6382.53,8051.84 6378.94,8058.06 6373.87,8063.13 6367.65,8066.72 6360.72,8068.57 6353.54,8068.57 6346.61,8066.72 6340.39,8063.13 6335.32,8058.06 6331.73,8051.84 6329.81,8044.66 6329.57,8041.06 6329.42,7851.99 6328.24,7849.15 6323.87,7844.71 6301.67,7833.49 6299.36,7832.75 6264.26,7832.66 6260.74,7833.49 6245.04,7841.34 6242.99,7842.82 6241.51,7844.86 6233.21,7861.69 6232.83,7864.09 6232.83,8041.06 6232.6,8044.66 6230.67,8051.84 6227.08,8058.06 6222.01,8063.13 6215.79,8066.72 6208.86,8068.57 6201.69,8068.57 6194.75,8066.72 6188.54,8063.13 6183.46,8058.06 6179.88,8051.84 6177.95,8044.66 6177.72,8041.06" style="stroke:rgb(167,241,217);stroke-width:15.748031;fill:none;stroke-opacity:0.5;stroke-linecap:round;stroke-linejoin:round;;fill:none"/>
<polyline points="6177.72,8041.06 6177.8,7853.61 6179.76,7845.32 6197.39,7809.87 6199.34,7806.53 6201.31,7803.96 6204.13,7801.14 6206.7,7799.17 6210.05,7797.21 6245.49,7779.59 6252.57,7777.75 6306.26,7777.54 6309.97,7777.79 6316.93,7779.59 6330.07,7786.07 6332.74,7786.84 6335.52,7786.63 6336.83,7786.16 6338.04,7785.47 6340.39,7783.29 6346.61,7779.7 6353.54,7777.85 6360.72,7777.85 6367.65,7779.7 6373.87,7783.29 6378.94,7788.37 6382.53,7794.58 6384.45,7801.76 6384.69,7805.36 6384.69,8041.06 6384.45,8044.66 6382.53,8051.84 6378.94,8058.06 6373.87,8063.13 6367.65,8066.72 6360.72,8068.57 6353.54,8068.57 6346.61,8066.72 6340.39,8063.13 6335.32,8058.06 6331.73,8051.84 6329.81,8044.66 6329.57,8041.06 6329.42,7851.99 6328.24,7849.15 6323.87,7844.71 6301.67,7833.49 6299.36,7832.75 6264.26,7832.66 6260.74,7833.49 6245.04,7841.34 6242.99,7842.82 6241.51,7844.86 6233.21,7861.69 6232.83,7864.09 6232.83,8041.06 6232.6,8044.66 6230.67,8051.84 6227.08,8058.06 6222.01,8063.13 6215.79,8066.72 6208.86,8068.57 6201.69,8068.57 6194.75,8066.72 6188.54,8063.13 6183.46,8058.06 6179.88,8051.84 6177.95,8044.66 6177.72,8041.06" style="stroke:rgb(0,0,0);stroke-width:1px;fill:none;stroke-opacity:1;stroke-linecap:round;stroke-linejoin:round;;fill:none"/>
<polyline points="6498.3,8041.06 6498.3,7805.36 6498.54,7801.76 6500.46,7794.58 6504.05,7788.37 6509.12,7783.29 6515.34,7779.7 6522.27,7777.85 6529.45,7777.85 6536.38,7779.7 6542.59,7783.29 6547.67,7788.37 6551.26,7794.58 6553.18,7801.77 6553.42,7805.36 6553.42,7992.9 6554.02,7995.91 6555.73,7998.47 6559.12,8001.71 6582.45,8013.39 6584.84,8013.76 6618.73,8013.76 6622.25,8012.93 6637.95,8005.08 6640,8003.61 6641.47,8001.56 6649.33,7985.86 6650.06,7983.55 6650.16,7805.36 6650.39,7801.76 6652.32,7794.58 6655.91,7788.37 6660.98,7783.29 6667.19,7779.7 6674.13,7777.85 6681.3,7777.85 6688.24,7779.7 6694.45,7783.29 6699.53,7788.37 6703.11,7794.58 6705.04,7801.77 6705.27,7805.36 6705.19,7992.82 6703.23,8001.11 6685.6,8036.55 6683.65,8039.9 6681.68,8042.46 6678.86,8045.28 6676.29,8047.25 6672.94,8049.21 6639.65,8065.85 6636.22,8067.3 6629.2,8068.79 6576.73,8068.88 6573.02,8068.64 6567.22,8067.26 6552.92,8060.36 6550.25,8059.59 6548.85,8059.57 6547.47,8059.79 6544.95,8060.96 6542.59,8063.13 6536.38,8066.72 6529.45,8068.57 6522.27,8068.57 6515.34,8066.72 6509.12,8063.13 6504.05,8058.06 6500.46,8051.84 6498.54,8044.66 6498.3,8041.06" style="stroke:rgb(167,241,217);stroke-width:15.748031;fill:none;stroke-opacity:0.5;stroke-linecap:round;stroke-linejoin:round;;fill:none"/>
<polyline points="6498.3,8041.06 6498.3,7805.36 6498.54,7801.76 6500.46,7794.58 6504.05,7788.37 6509.12,7783.29 6515.34,7779.7 6522.27,7777.85 6529.45,7777.85 6536.38,7779.7 6542.59,7783.29 6547.67,7788.37 6551.26,7794.58 6553.18,7801.77 6553.42,7805.36 6553.42,7992.9 6554.02,7995.91 6555.73,7998.47 6559.12,8001.71 6582.45,8013.39 6584.84,8013.76 6618.73,8013.76 6622.25,8012.93 6637.95,8005.08 6640,8003.61 6641.47,8001.56 6649.33,7985.86 6650.06,7983.55 6650.16,7805.36 6650.39,7801.76 6652.32,7794.58 6655.91,7788.37 6660.98,7783.29 6667.19,7779.7 6674.13,7777.85 6681.3,7777.85 6688.24,7779.7 6694.45,7783.29 6699.53,7788.37 6703.11,7794.58 6705.04,7801.77 6705.27,7805.36 6705.19,7992.82 6703.23,8001.11 6685.6,8036.55 6683.65,8039.9 6681.68,8042.46 6678.86,8045.28 6676.29,8047.25 6672.94,8049.21 6639.65,8065.85 6636.22,8067.3 6629.2,8068.79 6576.73,8068.88 6573.02,8068.64 6567.22,8067.26 6552.92,8060.36 6550.25,8059.59 6548.85,8059.57 6547.47,8059.79 6544.95,8060.96 6542.59,8063.13 6536.38,8066.72 6529.45,8068.57 6522.27,8068.57 6515.34,8066.72 6509.12,8063.13 6504.05,8058.06 6500.46,8051.84 6498.54,8044.66 6498.3,8041.06" style="stroke:rgb(0,0,0);stroke-width:1px;fill:none;stroke-opacity:1;stroke-linecap:round;stroke-linejoin:round;;fill:none"/>
<polyline points="6768.57,7808.69 6768.57,7801.51 6770.43,7794.58 6774.02,7788.37 6779.09,7783.29 6785.3,7779.7 6792.49,7777.78 6796.08,7777.54 6829.31,7777.54 6833.03,7777.79 6839.98,7779.59 6864.72,7791.86 6867.56,7792.65 6870.49,7792.34 6873.11,7790.98 6875.25,7788.37 6880.33,7783.29 6886.54,7779.7 6893.47,7777.85 6900.65,7777.85 6907.58,7779.7 6913.8,7783.29 6918.87,7788.37 6922.46,7794.58 6924.39,7801.76 6924.62,7805.36 6924.62,8041.06 6924.39,8044.66 6922.46,8051.84 6918.87,8058.06 6913.8,8063.13 6907.58,8066.72 6900.65,8068.57 6893.47,8068.57 6886.54,8066.72 6880.33,8063.13 6875.25,8058.06 6871.66,8051.84 6869.74,8044.66 6869.5,8041.06 6869.5,7880.96 6868.67,7877.44 6858.11,7856.32 6856.64,7854.27 6846.93,7844.71 6823.6,7833.03 6821.21,7832.66 6796.08,7832.66 6792.49,7832.42 6785.3,7830.5 6779.09,7826.91 6774.02,7821.84 6770.43,7815.62 6768.57,7808.69" style="stroke:rgb(167,241,217);stroke-width:15.748031;fill:none;stroke-opacity:0.5;stroke-linecap:round;stroke-linejoin:round;;fill:none"/>
<polyline points="6768.57,7808.69 6768.57,7801.51 6770.43,7794.58 6774.02,7788.37 6779.09,7783.29 6785.3,7779.7 6792.49,7777.78 6796.08,7777.54 6829.31,7777.54 6833.03,7777.79 6839.98,7779.59 6864.72,7791.86 6867.56,7792.65 6870.49,7792.34 6873.11,7790.98 6875.25,7788.37 6880.33,7783.29 6886.54,7779.7 6893.47,7777.85 6900.65,7777.85 6907.58,7779.7 6913.8,7783.29 6918.87,7788.37 6922.46,7794.58 6924.39,7801.76 6924.62,7805.36 6924.62,8041.06 6924.39,8044.66 6922.46,8051.84 6918.87,8058.06 6913.8,8063.13 6907.58,8066.72 6900.65,8068.57 6893.47,8068.57 6886.54,8066.72 6880.33,8063.13 6875.25,8058.06 6871.66,8051.84 6869.74,8044.66 6869.5,8041.06 6869.5,7880.96 6868.67,7877.44 6858.11,7856.32 6856.64,7854.27 6846.93,7844.71 6823.6,7833.03 6821.21,7832.66 6796.08,7832.66 6792.49,7832.42 6785.3,7830.5 6779.09,7826.91 6774.02,7821.84 6770.43,7815.62 6768.57,7808.69" style="stroke:rgb(0,0,0);stroke-width:1px;fill:none;stroke-opacity:1;stroke-linecap:round;stroke-linejoin:round;;fill:none"/>
<polyline points="7021.36,7973.57 7021.6,7977.28 7023.41,7984.23 7041.03,8019.68 7042.92,8022.9 7046.57,8027.33 7062.91,8043.67 7067.34,8047.32 7070.57,8049.21 7103.86,8065.85 7107.28,8067.3 7112.96,8068.64 7116.67,8068.88 7183.64,8068.88 7187.36,8068.64 7192.96,8067.31 7197.94,8065.13 7200.8,8064.47 7203.7,8064.9 7207.13,8066.72 7214.06,8068.57 7221.24,8068.57 7228.17,8066.72 7234.38,8063.13 7239.46,8058.06 7243.05,8051.84 7244.97,8044.66 7245.21,8041.06 7245.21,7687.25 7244.97,7683.65 7243.05,7676.47 7239.46,7670.26 7234.38,7665.18 7228.17,7661.59 7221.24,7659.74 7214.06,7659.74 7207.13,7661.59 7200.91,7665.18 7195.84,7670.26 7192.25,7676.47 7190.32,7683.65 7190.09,7687.25 7190.09,7769.67 7189.49,7772.68 7187.78,7775.24 7185.23,7776.94 7182.22,7777.54 7116.67,7777.54 7112.95,7777.79 7106.01,7779.59 7070.56,7797.21 7067.34,7799.1 7062.91,7802.75 7046.49,7819.18 7044.02,7821.99 7040.97,7826.86 7024.38,7860.04 7022.94,7863.47 7021.6,7869.14 7021.36,7872.85 7021.36,7973.57 7076.48,7965.47 7077.31,7968.99 7087.87,7990.11 7089.35,7992.15 7099.05,8001.71 7121.25,8012.93 7123.56,8013.67 7176.75,8013.67 7179.06,8012.93 7185.74,8009.59 7186.97,8008.83 7188.91,8006.69 7189.96,8003.99 7190.09,8002.55 7190.09,7843.87 7189.96,7842.43 7188.91,7839.73 7186.97,7837.6 7177.93,7833.03 7175.54,7832.66 7124.78,7832.66 7122.38,7833.03 7099.05,7844.71 7088.53,7855.23 7077.31,7877.44 7076.57,7879.74 7076.48,7965.47" style="stroke:rgb(167,241,217);stroke-width:15.748031;fill:none;stroke-opacity:0.5;stroke-linecap:round;stroke-linejoin:round;;fill:none"/>
<polyline points="7021.36,7973.57 7021.6,7977.28 7023.41,7984.23 7041.03,8019.68 7042.92,8022.9 7046.57,8027.33 7062.91,8043.67 7067.34,8047.32 7070.57,8049.21 7103.86,8065.85 7107.28,8067.3 7112.96,8068.64 7116.67,8068.88 7183.64,8068.88 7187.36,8068.64 7192.96,8067.31 7197.94,8065.13 7200.8,8064.47 7203.7,8064.9 7207.13,8066.72 7214.06,8068.57 7221.24,8068.57 7228.17,8066.72 7234.38,8063.13 7239.46,8058.06 7243.05,8051.84 7244.97,8044.66 7245.21,8041.06 7245.21,7687.25 7244.97,7683.65 7243.05,7676.47 7239.46,7670.26 7234.38,7665.18 7228.17,7661.59 7221.24,7659.74 7214.06,7659.74 7207.13,7661.59 7200.91,7665.18 7195.84,7670.26 7192.25,7676.47 7190.32,7683.65 7190.09,7687.25 7190.09,7769.67 7189.49,7772.68 7187.78,7775.24 7185.23,7776.94 7182.22,7777.54 7116.67,7777.54 7112.95,7777.79 7106.01,7779.59 7070.56,7797.21 7067.34,7799.1 7062.91,7802.75 7046.49,7819.18 7044.02,7821.99 7040.97,7826.86 7024.38,7860.04 7022.94,7863.47 7021.6,7869.14 7021.36,7872.85 7021.36,7973.57 7076.48,7965.47 7077.31,7968.99 7087.87,7990.11 7089.35,7992.15 7099.05,8001.71 7121.25,8012.93 7123.56,8013.67 7176.75,8013.67 7179.06,8012.93 7185.74,8009.59 7186.97,8008.83 7188.91,8006.69 7189.96,8003.99 7190.09,8002.55 7190.09,7843.87 7189.96,7842.43 7188.91,7839.73 7186.97,7837.6 7177.93,7833.03 7175.54,7832.66 7124.78,7832.66 7122.38,7833.03 7099.05,7844.71 7088.53,7855.23 7077.31,7877.44 7076.57,7879.74 7076.48,7965.47" style="stroke:rgb(0,0,0);stroke-width:1px;fill:none;stroke-opacity:1;stroke-linecap:round;stroke-linejoin:round;;fill:none"/>
</svg>
