%TF.GenerationSoftware,KiCad,Pcbnew,9.0.5*%
%TF.CreationDate,2025-10-15T22:39:10-03:00*%
%TF.ProjectId,BDNM-01,42444e4d-2d30-4312-9e6b-696361645f70,rev?*%
%TF.SameCoordinates,Original*%
%TF.FileFunction,Legend,Top*%
%TF.FilePolarity,Positive*%
%FSLAX46Y46*%
G04 Gerber Fmt 4.6, Leading zero omitted, Abs format (unit mm)*
G04 Created by KiCad (PCBNEW 9.0.5) date 2025-10-15 22:39:10*
%MOMM*%
%LPD*%
G01*
G04 APERTURE LIST*
%ADD10C,0.100000*%
%ADD11C,0.150000*%
%ADD12C,0.120000*%
G04 APERTURE END LIST*
D10*
X95237524Y-114303884D02*
X96237524Y-114303884D01*
X96237524Y-114303884D02*
X95523239Y-114637217D01*
X95523239Y-114637217D02*
X96237524Y-114970550D01*
X96237524Y-114970550D02*
X95237524Y-114970550D01*
X95237524Y-115589598D02*
X95285144Y-115494360D01*
X95285144Y-115494360D02*
X95332763Y-115446741D01*
X95332763Y-115446741D02*
X95428001Y-115399122D01*
X95428001Y-115399122D02*
X95713715Y-115399122D01*
X95713715Y-115399122D02*
X95808953Y-115446741D01*
X95808953Y-115446741D02*
X95856572Y-115494360D01*
X95856572Y-115494360D02*
X95904191Y-115589598D01*
X95904191Y-115589598D02*
X95904191Y-115732455D01*
X95904191Y-115732455D02*
X95856572Y-115827693D01*
X95856572Y-115827693D02*
X95808953Y-115875312D01*
X95808953Y-115875312D02*
X95713715Y-115922931D01*
X95713715Y-115922931D02*
X95428001Y-115922931D01*
X95428001Y-115922931D02*
X95332763Y-115875312D01*
X95332763Y-115875312D02*
X95285144Y-115827693D01*
X95285144Y-115827693D02*
X95237524Y-115732455D01*
X95237524Y-115732455D02*
X95237524Y-115589598D01*
X95237524Y-116780074D02*
X96237524Y-116780074D01*
X95285144Y-116780074D02*
X95237524Y-116684836D01*
X95237524Y-116684836D02*
X95237524Y-116494360D01*
X95237524Y-116494360D02*
X95285144Y-116399122D01*
X95285144Y-116399122D02*
X95332763Y-116351503D01*
X95332763Y-116351503D02*
X95428001Y-116303884D01*
X95428001Y-116303884D02*
X95713715Y-116303884D01*
X95713715Y-116303884D02*
X95808953Y-116351503D01*
X95808953Y-116351503D02*
X95856572Y-116399122D01*
X95856572Y-116399122D02*
X95904191Y-116494360D01*
X95904191Y-116494360D02*
X95904191Y-116684836D01*
X95904191Y-116684836D02*
X95856572Y-116780074D01*
X95285144Y-117637217D02*
X95237524Y-117541979D01*
X95237524Y-117541979D02*
X95237524Y-117351503D01*
X95237524Y-117351503D02*
X95285144Y-117256265D01*
X95285144Y-117256265D02*
X95380382Y-117208646D01*
X95380382Y-117208646D02*
X95761334Y-117208646D01*
X95761334Y-117208646D02*
X95856572Y-117256265D01*
X95856572Y-117256265D02*
X95904191Y-117351503D01*
X95904191Y-117351503D02*
X95904191Y-117541979D01*
X95904191Y-117541979D02*
X95856572Y-117637217D01*
X95856572Y-117637217D02*
X95761334Y-117684836D01*
X95761334Y-117684836D02*
X95666096Y-117684836D01*
X95666096Y-117684836D02*
X95570858Y-117208646D01*
X95237524Y-118256265D02*
X95285144Y-118161027D01*
X95285144Y-118161027D02*
X95380382Y-118113408D01*
X95380382Y-118113408D02*
X96237524Y-118113408D01*
X95332763Y-118637218D02*
X95285144Y-118684837D01*
X95285144Y-118684837D02*
X95237524Y-118637218D01*
X95237524Y-118637218D02*
X95285144Y-118589599D01*
X95285144Y-118589599D02*
X95332763Y-118637218D01*
X95332763Y-118637218D02*
X95237524Y-118637218D01*
X95856572Y-118637218D02*
X95808953Y-118684837D01*
X95808953Y-118684837D02*
X95761334Y-118637218D01*
X95761334Y-118637218D02*
X95808953Y-118589599D01*
X95808953Y-118589599D02*
X95856572Y-118637218D01*
X95856572Y-118637218D02*
X95761334Y-118637218D01*
X95761334Y-120208646D02*
X95713715Y-120351503D01*
X95713715Y-120351503D02*
X95666096Y-120399122D01*
X95666096Y-120399122D02*
X95570858Y-120446741D01*
X95570858Y-120446741D02*
X95428001Y-120446741D01*
X95428001Y-120446741D02*
X95332763Y-120399122D01*
X95332763Y-120399122D02*
X95285144Y-120351503D01*
X95285144Y-120351503D02*
X95237524Y-120256265D01*
X95237524Y-120256265D02*
X95237524Y-119875313D01*
X95237524Y-119875313D02*
X96237524Y-119875313D01*
X96237524Y-119875313D02*
X96237524Y-120208646D01*
X96237524Y-120208646D02*
X96189905Y-120303884D01*
X96189905Y-120303884D02*
X96142286Y-120351503D01*
X96142286Y-120351503D02*
X96047048Y-120399122D01*
X96047048Y-120399122D02*
X95951810Y-120399122D01*
X95951810Y-120399122D02*
X95856572Y-120351503D01*
X95856572Y-120351503D02*
X95808953Y-120303884D01*
X95808953Y-120303884D02*
X95761334Y-120208646D01*
X95761334Y-120208646D02*
X95761334Y-119875313D01*
X95237524Y-120875313D02*
X96237524Y-120875313D01*
X96237524Y-120875313D02*
X96237524Y-121113408D01*
X96237524Y-121113408D02*
X96189905Y-121256265D01*
X96189905Y-121256265D02*
X96094667Y-121351503D01*
X96094667Y-121351503D02*
X95999429Y-121399122D01*
X95999429Y-121399122D02*
X95808953Y-121446741D01*
X95808953Y-121446741D02*
X95666096Y-121446741D01*
X95666096Y-121446741D02*
X95475620Y-121399122D01*
X95475620Y-121399122D02*
X95380382Y-121351503D01*
X95380382Y-121351503D02*
X95285144Y-121256265D01*
X95285144Y-121256265D02*
X95237524Y-121113408D01*
X95237524Y-121113408D02*
X95237524Y-120875313D01*
X95237524Y-121875313D02*
X96237524Y-121875313D01*
X96237524Y-121875313D02*
X95237524Y-122446741D01*
X95237524Y-122446741D02*
X96237524Y-122446741D01*
X95237524Y-122922932D02*
X96237524Y-122922932D01*
X96237524Y-122922932D02*
X95523239Y-123256265D01*
X95523239Y-123256265D02*
X96237524Y-123589598D01*
X96237524Y-123589598D02*
X95237524Y-123589598D01*
X95618477Y-124065789D02*
X95618477Y-124827694D01*
X96237524Y-125494360D02*
X96237524Y-125589598D01*
X96237524Y-125589598D02*
X96189905Y-125684836D01*
X96189905Y-125684836D02*
X96142286Y-125732455D01*
X96142286Y-125732455D02*
X96047048Y-125780074D01*
X96047048Y-125780074D02*
X95856572Y-125827693D01*
X95856572Y-125827693D02*
X95618477Y-125827693D01*
X95618477Y-125827693D02*
X95428001Y-125780074D01*
X95428001Y-125780074D02*
X95332763Y-125732455D01*
X95332763Y-125732455D02*
X95285144Y-125684836D01*
X95285144Y-125684836D02*
X95237524Y-125589598D01*
X95237524Y-125589598D02*
X95237524Y-125494360D01*
X95237524Y-125494360D02*
X95285144Y-125399122D01*
X95285144Y-125399122D02*
X95332763Y-125351503D01*
X95332763Y-125351503D02*
X95428001Y-125303884D01*
X95428001Y-125303884D02*
X95618477Y-125256265D01*
X95618477Y-125256265D02*
X95856572Y-125256265D01*
X95856572Y-125256265D02*
X96047048Y-125303884D01*
X96047048Y-125303884D02*
X96142286Y-125351503D01*
X96142286Y-125351503D02*
X96189905Y-125399122D01*
X96189905Y-125399122D02*
X96237524Y-125494360D01*
X95237524Y-126780074D02*
X95237524Y-126208646D01*
X95237524Y-126494360D02*
X96237524Y-126494360D01*
X96237524Y-126494360D02*
X96094667Y-126399122D01*
X96094667Y-126399122D02*
X95999429Y-126303884D01*
X95999429Y-126303884D02*
X95951810Y-126208646D01*
X94532342Y-114256265D02*
X94579961Y-114303884D01*
X94579961Y-114303884D02*
X94627580Y-114399122D01*
X94627580Y-114399122D02*
X94627580Y-114637217D01*
X94627580Y-114637217D02*
X94579961Y-114732455D01*
X94579961Y-114732455D02*
X94532342Y-114780074D01*
X94532342Y-114780074D02*
X94437104Y-114827693D01*
X94437104Y-114827693D02*
X94341866Y-114827693D01*
X94341866Y-114827693D02*
X94199009Y-114780074D01*
X94199009Y-114780074D02*
X93627580Y-114208646D01*
X93627580Y-114208646D02*
X93627580Y-114827693D01*
X94627580Y-115446741D02*
X94627580Y-115541979D01*
X94627580Y-115541979D02*
X94579961Y-115637217D01*
X94579961Y-115637217D02*
X94532342Y-115684836D01*
X94532342Y-115684836D02*
X94437104Y-115732455D01*
X94437104Y-115732455D02*
X94246628Y-115780074D01*
X94246628Y-115780074D02*
X94008533Y-115780074D01*
X94008533Y-115780074D02*
X93818057Y-115732455D01*
X93818057Y-115732455D02*
X93722819Y-115684836D01*
X93722819Y-115684836D02*
X93675200Y-115637217D01*
X93675200Y-115637217D02*
X93627580Y-115541979D01*
X93627580Y-115541979D02*
X93627580Y-115446741D01*
X93627580Y-115446741D02*
X93675200Y-115351503D01*
X93675200Y-115351503D02*
X93722819Y-115303884D01*
X93722819Y-115303884D02*
X93818057Y-115256265D01*
X93818057Y-115256265D02*
X94008533Y-115208646D01*
X94008533Y-115208646D02*
X94246628Y-115208646D01*
X94246628Y-115208646D02*
X94437104Y-115256265D01*
X94437104Y-115256265D02*
X94532342Y-115303884D01*
X94532342Y-115303884D02*
X94579961Y-115351503D01*
X94579961Y-115351503D02*
X94627580Y-115446741D01*
X94532342Y-116161027D02*
X94579961Y-116208646D01*
X94579961Y-116208646D02*
X94627580Y-116303884D01*
X94627580Y-116303884D02*
X94627580Y-116541979D01*
X94627580Y-116541979D02*
X94579961Y-116637217D01*
X94579961Y-116637217D02*
X94532342Y-116684836D01*
X94532342Y-116684836D02*
X94437104Y-116732455D01*
X94437104Y-116732455D02*
X94341866Y-116732455D01*
X94341866Y-116732455D02*
X94199009Y-116684836D01*
X94199009Y-116684836D02*
X93627580Y-116113408D01*
X93627580Y-116113408D02*
X93627580Y-116732455D01*
X94627580Y-117637217D02*
X94627580Y-117161027D01*
X94627580Y-117161027D02*
X94151390Y-117113408D01*
X94151390Y-117113408D02*
X94199009Y-117161027D01*
X94199009Y-117161027D02*
X94246628Y-117256265D01*
X94246628Y-117256265D02*
X94246628Y-117494360D01*
X94246628Y-117494360D02*
X94199009Y-117589598D01*
X94199009Y-117589598D02*
X94151390Y-117637217D01*
X94151390Y-117637217D02*
X94056152Y-117684836D01*
X94056152Y-117684836D02*
X93818057Y-117684836D01*
X93818057Y-117684836D02*
X93722819Y-117637217D01*
X93722819Y-117637217D02*
X93675200Y-117589598D01*
X93675200Y-117589598D02*
X93627580Y-117494360D01*
X93627580Y-117494360D02*
X93627580Y-117256265D01*
X93627580Y-117256265D02*
X93675200Y-117161027D01*
X93675200Y-117161027D02*
X93722819Y-117113408D01*
X94008533Y-118113408D02*
X94008533Y-118875313D01*
X93627580Y-119875312D02*
X93627580Y-119303884D01*
X93627580Y-119589598D02*
X94627580Y-119589598D01*
X94627580Y-119589598D02*
X94484723Y-119494360D01*
X94484723Y-119494360D02*
X94389485Y-119399122D01*
X94389485Y-119399122D02*
X94341866Y-119303884D01*
X94627580Y-120494360D02*
X94627580Y-120589598D01*
X94627580Y-120589598D02*
X94579961Y-120684836D01*
X94579961Y-120684836D02*
X94532342Y-120732455D01*
X94532342Y-120732455D02*
X94437104Y-120780074D01*
X94437104Y-120780074D02*
X94246628Y-120827693D01*
X94246628Y-120827693D02*
X94008533Y-120827693D01*
X94008533Y-120827693D02*
X93818057Y-120780074D01*
X93818057Y-120780074D02*
X93722819Y-120732455D01*
X93722819Y-120732455D02*
X93675200Y-120684836D01*
X93675200Y-120684836D02*
X93627580Y-120589598D01*
X93627580Y-120589598D02*
X93627580Y-120494360D01*
X93627580Y-120494360D02*
X93675200Y-120399122D01*
X93675200Y-120399122D02*
X93722819Y-120351503D01*
X93722819Y-120351503D02*
X93818057Y-120303884D01*
X93818057Y-120303884D02*
X94008533Y-120256265D01*
X94008533Y-120256265D02*
X94246628Y-120256265D01*
X94246628Y-120256265D02*
X94437104Y-120303884D01*
X94437104Y-120303884D02*
X94532342Y-120351503D01*
X94532342Y-120351503D02*
X94579961Y-120399122D01*
X94579961Y-120399122D02*
X94627580Y-120494360D01*
X94008533Y-121256265D02*
X94008533Y-122018170D01*
X93627580Y-123018169D02*
X93627580Y-122446741D01*
X93627580Y-122732455D02*
X94627580Y-122732455D01*
X94627580Y-122732455D02*
X94484723Y-122637217D01*
X94484723Y-122637217D02*
X94389485Y-122541979D01*
X94389485Y-122541979D02*
X94341866Y-122446741D01*
X94627580Y-123922931D02*
X94627580Y-123446741D01*
X94627580Y-123446741D02*
X94151390Y-123399122D01*
X94151390Y-123399122D02*
X94199009Y-123446741D01*
X94199009Y-123446741D02*
X94246628Y-123541979D01*
X94246628Y-123541979D02*
X94246628Y-123780074D01*
X94246628Y-123780074D02*
X94199009Y-123875312D01*
X94199009Y-123875312D02*
X94151390Y-123922931D01*
X94151390Y-123922931D02*
X94056152Y-123970550D01*
X94056152Y-123970550D02*
X93818057Y-123970550D01*
X93818057Y-123970550D02*
X93722819Y-123922931D01*
X93722819Y-123922931D02*
X93675200Y-123875312D01*
X93675200Y-123875312D02*
X93627580Y-123780074D01*
X93627580Y-123780074D02*
X93627580Y-123541979D01*
X93627580Y-123541979D02*
X93675200Y-123446741D01*
X93675200Y-123446741D02*
X93722819Y-123399122D01*
X95237524Y-94303884D02*
X96237524Y-94303884D01*
X96237524Y-94303884D02*
X96237524Y-94541979D01*
X96237524Y-94541979D02*
X96189905Y-94684836D01*
X96189905Y-94684836D02*
X96094667Y-94780074D01*
X96094667Y-94780074D02*
X95999429Y-94827693D01*
X95999429Y-94827693D02*
X95808953Y-94875312D01*
X95808953Y-94875312D02*
X95666096Y-94875312D01*
X95666096Y-94875312D02*
X95475620Y-94827693D01*
X95475620Y-94827693D02*
X95380382Y-94780074D01*
X95380382Y-94780074D02*
X95285144Y-94684836D01*
X95285144Y-94684836D02*
X95237524Y-94541979D01*
X95237524Y-94541979D02*
X95237524Y-94303884D01*
X95285144Y-95684836D02*
X95237524Y-95589598D01*
X95237524Y-95589598D02*
X95237524Y-95399122D01*
X95237524Y-95399122D02*
X95285144Y-95303884D01*
X95285144Y-95303884D02*
X95380382Y-95256265D01*
X95380382Y-95256265D02*
X95761334Y-95256265D01*
X95761334Y-95256265D02*
X95856572Y-95303884D01*
X95856572Y-95303884D02*
X95904191Y-95399122D01*
X95904191Y-95399122D02*
X95904191Y-95589598D01*
X95904191Y-95589598D02*
X95856572Y-95684836D01*
X95856572Y-95684836D02*
X95761334Y-95732455D01*
X95761334Y-95732455D02*
X95666096Y-95732455D01*
X95666096Y-95732455D02*
X95570858Y-95256265D01*
X95285144Y-96113408D02*
X95237524Y-96208646D01*
X95237524Y-96208646D02*
X95237524Y-96399122D01*
X95237524Y-96399122D02*
X95285144Y-96494360D01*
X95285144Y-96494360D02*
X95380382Y-96541979D01*
X95380382Y-96541979D02*
X95428001Y-96541979D01*
X95428001Y-96541979D02*
X95523239Y-96494360D01*
X95523239Y-96494360D02*
X95570858Y-96399122D01*
X95570858Y-96399122D02*
X95570858Y-96256265D01*
X95570858Y-96256265D02*
X95618477Y-96161027D01*
X95618477Y-96161027D02*
X95713715Y-96113408D01*
X95713715Y-96113408D02*
X95761334Y-96113408D01*
X95761334Y-96113408D02*
X95856572Y-96161027D01*
X95856572Y-96161027D02*
X95904191Y-96256265D01*
X95904191Y-96256265D02*
X95904191Y-96399122D01*
X95904191Y-96399122D02*
X95856572Y-96494360D01*
X95237524Y-96970551D02*
X95904191Y-96970551D01*
X96237524Y-96970551D02*
X96189905Y-96922932D01*
X96189905Y-96922932D02*
X96142286Y-96970551D01*
X96142286Y-96970551D02*
X96189905Y-97018170D01*
X96189905Y-97018170D02*
X96237524Y-96970551D01*
X96237524Y-96970551D02*
X96142286Y-96970551D01*
X95904191Y-97875312D02*
X95094667Y-97875312D01*
X95094667Y-97875312D02*
X94999429Y-97827693D01*
X94999429Y-97827693D02*
X94951810Y-97780074D01*
X94951810Y-97780074D02*
X94904191Y-97684836D01*
X94904191Y-97684836D02*
X94904191Y-97541979D01*
X94904191Y-97541979D02*
X94951810Y-97446741D01*
X95285144Y-97875312D02*
X95237524Y-97780074D01*
X95237524Y-97780074D02*
X95237524Y-97589598D01*
X95237524Y-97589598D02*
X95285144Y-97494360D01*
X95285144Y-97494360D02*
X95332763Y-97446741D01*
X95332763Y-97446741D02*
X95428001Y-97399122D01*
X95428001Y-97399122D02*
X95713715Y-97399122D01*
X95713715Y-97399122D02*
X95808953Y-97446741D01*
X95808953Y-97446741D02*
X95856572Y-97494360D01*
X95856572Y-97494360D02*
X95904191Y-97589598D01*
X95904191Y-97589598D02*
X95904191Y-97780074D01*
X95904191Y-97780074D02*
X95856572Y-97875312D01*
X95904191Y-98351503D02*
X95237524Y-98351503D01*
X95808953Y-98351503D02*
X95856572Y-98399122D01*
X95856572Y-98399122D02*
X95904191Y-98494360D01*
X95904191Y-98494360D02*
X95904191Y-98637217D01*
X95904191Y-98637217D02*
X95856572Y-98732455D01*
X95856572Y-98732455D02*
X95761334Y-98780074D01*
X95761334Y-98780074D02*
X95237524Y-98780074D01*
X95285144Y-99637217D02*
X95237524Y-99541979D01*
X95237524Y-99541979D02*
X95237524Y-99351503D01*
X95237524Y-99351503D02*
X95285144Y-99256265D01*
X95285144Y-99256265D02*
X95380382Y-99208646D01*
X95380382Y-99208646D02*
X95761334Y-99208646D01*
X95761334Y-99208646D02*
X95856572Y-99256265D01*
X95856572Y-99256265D02*
X95904191Y-99351503D01*
X95904191Y-99351503D02*
X95904191Y-99541979D01*
X95904191Y-99541979D02*
X95856572Y-99637217D01*
X95856572Y-99637217D02*
X95761334Y-99684836D01*
X95761334Y-99684836D02*
X95666096Y-99684836D01*
X95666096Y-99684836D02*
X95570858Y-99208646D01*
X95237524Y-100541979D02*
X96237524Y-100541979D01*
X95285144Y-100541979D02*
X95237524Y-100446741D01*
X95237524Y-100446741D02*
X95237524Y-100256265D01*
X95237524Y-100256265D02*
X95285144Y-100161027D01*
X95285144Y-100161027D02*
X95332763Y-100113408D01*
X95332763Y-100113408D02*
X95428001Y-100065789D01*
X95428001Y-100065789D02*
X95713715Y-100065789D01*
X95713715Y-100065789D02*
X95808953Y-100113408D01*
X95808953Y-100113408D02*
X95856572Y-100161027D01*
X95856572Y-100161027D02*
X95904191Y-100256265D01*
X95904191Y-100256265D02*
X95904191Y-100446741D01*
X95904191Y-100446741D02*
X95856572Y-100541979D01*
X95237524Y-101780075D02*
X95904191Y-101780075D01*
X96237524Y-101780075D02*
X96189905Y-101732456D01*
X96189905Y-101732456D02*
X96142286Y-101780075D01*
X96142286Y-101780075D02*
X96189905Y-101827694D01*
X96189905Y-101827694D02*
X96237524Y-101780075D01*
X96237524Y-101780075D02*
X96142286Y-101780075D01*
X95904191Y-102256265D02*
X95237524Y-102256265D01*
X95808953Y-102256265D02*
X95856572Y-102303884D01*
X95856572Y-102303884D02*
X95904191Y-102399122D01*
X95904191Y-102399122D02*
X95904191Y-102541979D01*
X95904191Y-102541979D02*
X95856572Y-102637217D01*
X95856572Y-102637217D02*
X95761334Y-102684836D01*
X95761334Y-102684836D02*
X95237524Y-102684836D01*
X95761334Y-104256265D02*
X95713715Y-104399122D01*
X95713715Y-104399122D02*
X95666096Y-104446741D01*
X95666096Y-104446741D02*
X95570858Y-104494360D01*
X95570858Y-104494360D02*
X95428001Y-104494360D01*
X95428001Y-104494360D02*
X95332763Y-104446741D01*
X95332763Y-104446741D02*
X95285144Y-104399122D01*
X95285144Y-104399122D02*
X95237524Y-104303884D01*
X95237524Y-104303884D02*
X95237524Y-103922932D01*
X95237524Y-103922932D02*
X96237524Y-103922932D01*
X96237524Y-103922932D02*
X96237524Y-104256265D01*
X96237524Y-104256265D02*
X96189905Y-104351503D01*
X96189905Y-104351503D02*
X96142286Y-104399122D01*
X96142286Y-104399122D02*
X96047048Y-104446741D01*
X96047048Y-104446741D02*
X95951810Y-104446741D01*
X95951810Y-104446741D02*
X95856572Y-104399122D01*
X95856572Y-104399122D02*
X95808953Y-104351503D01*
X95808953Y-104351503D02*
X95761334Y-104256265D01*
X95761334Y-104256265D02*
X95761334Y-103922932D01*
X95237524Y-104922932D02*
X95904191Y-104922932D01*
X95713715Y-104922932D02*
X95808953Y-104970551D01*
X95808953Y-104970551D02*
X95856572Y-105018170D01*
X95856572Y-105018170D02*
X95904191Y-105113408D01*
X95904191Y-105113408D02*
X95904191Y-105208646D01*
X95237524Y-105970551D02*
X95761334Y-105970551D01*
X95761334Y-105970551D02*
X95856572Y-105922932D01*
X95856572Y-105922932D02*
X95904191Y-105827694D01*
X95904191Y-105827694D02*
X95904191Y-105637218D01*
X95904191Y-105637218D02*
X95856572Y-105541980D01*
X95285144Y-105970551D02*
X95237524Y-105875313D01*
X95237524Y-105875313D02*
X95237524Y-105637218D01*
X95237524Y-105637218D02*
X95285144Y-105541980D01*
X95285144Y-105541980D02*
X95380382Y-105494361D01*
X95380382Y-105494361D02*
X95475620Y-105494361D01*
X95475620Y-105494361D02*
X95570858Y-105541980D01*
X95570858Y-105541980D02*
X95618477Y-105637218D01*
X95618477Y-105637218D02*
X95618477Y-105875313D01*
X95618477Y-105875313D02*
X95666096Y-105970551D01*
X95904191Y-106351504D02*
X95904191Y-106875313D01*
X95904191Y-106875313D02*
X95237524Y-106351504D01*
X95237524Y-106351504D02*
X95237524Y-106875313D01*
X95237524Y-107256266D02*
X95904191Y-107256266D01*
X96237524Y-107256266D02*
X96189905Y-107208647D01*
X96189905Y-107208647D02*
X96142286Y-107256266D01*
X96142286Y-107256266D02*
X96189905Y-107303885D01*
X96189905Y-107303885D02*
X96237524Y-107256266D01*
X96237524Y-107256266D02*
X96142286Y-107256266D01*
X95237524Y-107875313D02*
X95285144Y-107780075D01*
X95285144Y-107780075D02*
X95380382Y-107732456D01*
X95380382Y-107732456D02*
X96237524Y-107732456D01*
X93627580Y-94303884D02*
X94627580Y-94303884D01*
X94627580Y-94303884D02*
X93913295Y-94637217D01*
X93913295Y-94637217D02*
X94627580Y-94970550D01*
X94627580Y-94970550D02*
X93627580Y-94970550D01*
X93627580Y-95875312D02*
X94151390Y-95875312D01*
X94151390Y-95875312D02*
X94246628Y-95827693D01*
X94246628Y-95827693D02*
X94294247Y-95732455D01*
X94294247Y-95732455D02*
X94294247Y-95541979D01*
X94294247Y-95541979D02*
X94246628Y-95446741D01*
X93675200Y-95875312D02*
X93627580Y-95780074D01*
X93627580Y-95780074D02*
X93627580Y-95541979D01*
X93627580Y-95541979D02*
X93675200Y-95446741D01*
X93675200Y-95446741D02*
X93770438Y-95399122D01*
X93770438Y-95399122D02*
X93865676Y-95399122D01*
X93865676Y-95399122D02*
X93960914Y-95446741D01*
X93960914Y-95446741D02*
X94008533Y-95541979D01*
X94008533Y-95541979D02*
X94008533Y-95780074D01*
X94008533Y-95780074D02*
X94056152Y-95875312D01*
X93627580Y-96780074D02*
X94627580Y-96780074D01*
X93675200Y-96780074D02*
X93627580Y-96684836D01*
X93627580Y-96684836D02*
X93627580Y-96494360D01*
X93627580Y-96494360D02*
X93675200Y-96399122D01*
X93675200Y-96399122D02*
X93722819Y-96351503D01*
X93722819Y-96351503D02*
X93818057Y-96303884D01*
X93818057Y-96303884D02*
X94103771Y-96303884D01*
X94103771Y-96303884D02*
X94199009Y-96351503D01*
X94199009Y-96351503D02*
X94246628Y-96399122D01*
X94246628Y-96399122D02*
X94294247Y-96494360D01*
X94294247Y-96494360D02*
X94294247Y-96684836D01*
X94294247Y-96684836D02*
X94246628Y-96780074D01*
X93675200Y-97637217D02*
X93627580Y-97541979D01*
X93627580Y-97541979D02*
X93627580Y-97351503D01*
X93627580Y-97351503D02*
X93675200Y-97256265D01*
X93675200Y-97256265D02*
X93770438Y-97208646D01*
X93770438Y-97208646D02*
X94151390Y-97208646D01*
X94151390Y-97208646D02*
X94246628Y-97256265D01*
X94246628Y-97256265D02*
X94294247Y-97351503D01*
X94294247Y-97351503D02*
X94294247Y-97541979D01*
X94294247Y-97541979D02*
X94246628Y-97637217D01*
X94246628Y-97637217D02*
X94151390Y-97684836D01*
X94151390Y-97684836D02*
X94056152Y-97684836D01*
X94056152Y-97684836D02*
X93960914Y-97208646D01*
X93627580Y-98875313D02*
X94294247Y-98875313D01*
X94627580Y-98875313D02*
X94579961Y-98827694D01*
X94579961Y-98827694D02*
X94532342Y-98875313D01*
X94532342Y-98875313D02*
X94579961Y-98922932D01*
X94579961Y-98922932D02*
X94627580Y-98875313D01*
X94627580Y-98875313D02*
X94532342Y-98875313D01*
X94294247Y-99351503D02*
X93627580Y-99351503D01*
X94199009Y-99351503D02*
X94246628Y-99399122D01*
X94246628Y-99399122D02*
X94294247Y-99494360D01*
X94294247Y-99494360D02*
X94294247Y-99637217D01*
X94294247Y-99637217D02*
X94246628Y-99732455D01*
X94246628Y-99732455D02*
X94151390Y-99780074D01*
X94151390Y-99780074D02*
X93627580Y-99780074D01*
X93722819Y-101589598D02*
X93675200Y-101541979D01*
X93675200Y-101541979D02*
X93627580Y-101399122D01*
X93627580Y-101399122D02*
X93627580Y-101303884D01*
X93627580Y-101303884D02*
X93675200Y-101161027D01*
X93675200Y-101161027D02*
X93770438Y-101065789D01*
X93770438Y-101065789D02*
X93865676Y-101018170D01*
X93865676Y-101018170D02*
X94056152Y-100970551D01*
X94056152Y-100970551D02*
X94199009Y-100970551D01*
X94199009Y-100970551D02*
X94389485Y-101018170D01*
X94389485Y-101018170D02*
X94484723Y-101065789D01*
X94484723Y-101065789D02*
X94579961Y-101161027D01*
X94579961Y-101161027D02*
X94627580Y-101303884D01*
X94627580Y-101303884D02*
X94627580Y-101399122D01*
X94627580Y-101399122D02*
X94579961Y-101541979D01*
X94579961Y-101541979D02*
X94532342Y-101589598D01*
X93627580Y-102018170D02*
X94627580Y-102018170D01*
X93627580Y-102446741D02*
X94151390Y-102446741D01*
X94151390Y-102446741D02*
X94246628Y-102399122D01*
X94246628Y-102399122D02*
X94294247Y-102303884D01*
X94294247Y-102303884D02*
X94294247Y-102161027D01*
X94294247Y-102161027D02*
X94246628Y-102065789D01*
X94246628Y-102065789D02*
X94199009Y-102018170D01*
X93627580Y-102922932D02*
X94294247Y-102922932D01*
X94627580Y-102922932D02*
X94579961Y-102875313D01*
X94579961Y-102875313D02*
X94532342Y-102922932D01*
X94532342Y-102922932D02*
X94579961Y-102970551D01*
X94579961Y-102970551D02*
X94627580Y-102922932D01*
X94627580Y-102922932D02*
X94532342Y-102922932D01*
X94294247Y-103399122D02*
X93627580Y-103399122D01*
X94199009Y-103399122D02*
X94246628Y-103446741D01*
X94246628Y-103446741D02*
X94294247Y-103541979D01*
X94294247Y-103541979D02*
X94294247Y-103684836D01*
X94294247Y-103684836D02*
X94246628Y-103780074D01*
X94246628Y-103780074D02*
X94151390Y-103827693D01*
X94151390Y-103827693D02*
X93627580Y-103827693D01*
X93627580Y-104732455D02*
X94151390Y-104732455D01*
X94151390Y-104732455D02*
X94246628Y-104684836D01*
X94246628Y-104684836D02*
X94294247Y-104589598D01*
X94294247Y-104589598D02*
X94294247Y-104399122D01*
X94294247Y-104399122D02*
X94246628Y-104303884D01*
X93675200Y-104732455D02*
X93627580Y-104637217D01*
X93627580Y-104637217D02*
X93627580Y-104399122D01*
X93627580Y-104399122D02*
X93675200Y-104303884D01*
X93675200Y-104303884D02*
X93770438Y-104256265D01*
X93770438Y-104256265D02*
X93865676Y-104256265D01*
X93865676Y-104256265D02*
X93960914Y-104303884D01*
X93960914Y-104303884D02*
X94008533Y-104399122D01*
X94008533Y-104399122D02*
X94008533Y-104637217D01*
X94008533Y-104637217D02*
X94056152Y-104732455D01*
X95237524Y-60303884D02*
X96237524Y-60303884D01*
X95856572Y-60303884D02*
X95904191Y-60399122D01*
X95904191Y-60399122D02*
X95904191Y-60589598D01*
X95904191Y-60589598D02*
X95856572Y-60684836D01*
X95856572Y-60684836D02*
X95808953Y-60732455D01*
X95808953Y-60732455D02*
X95713715Y-60780074D01*
X95713715Y-60780074D02*
X95428001Y-60780074D01*
X95428001Y-60780074D02*
X95332763Y-60732455D01*
X95332763Y-60732455D02*
X95285144Y-60684836D01*
X95285144Y-60684836D02*
X95237524Y-60589598D01*
X95237524Y-60589598D02*
X95237524Y-60399122D01*
X95237524Y-60399122D02*
X95285144Y-60303884D01*
X95904191Y-61113408D02*
X95237524Y-61351503D01*
X95904191Y-61589598D02*
X95237524Y-61351503D01*
X95237524Y-61351503D02*
X94999429Y-61256265D01*
X94999429Y-61256265D02*
X94951810Y-61208646D01*
X94951810Y-61208646D02*
X94904191Y-61113408D01*
X95761334Y-63065789D02*
X95713715Y-63208646D01*
X95713715Y-63208646D02*
X95666096Y-63256265D01*
X95666096Y-63256265D02*
X95570858Y-63303884D01*
X95570858Y-63303884D02*
X95428001Y-63303884D01*
X95428001Y-63303884D02*
X95332763Y-63256265D01*
X95332763Y-63256265D02*
X95285144Y-63208646D01*
X95285144Y-63208646D02*
X95237524Y-63113408D01*
X95237524Y-63113408D02*
X95237524Y-62732456D01*
X95237524Y-62732456D02*
X96237524Y-62732456D01*
X96237524Y-62732456D02*
X96237524Y-63065789D01*
X96237524Y-63065789D02*
X96189905Y-63161027D01*
X96189905Y-63161027D02*
X96142286Y-63208646D01*
X96142286Y-63208646D02*
X96047048Y-63256265D01*
X96047048Y-63256265D02*
X95951810Y-63256265D01*
X95951810Y-63256265D02*
X95856572Y-63208646D01*
X95856572Y-63208646D02*
X95808953Y-63161027D01*
X95808953Y-63161027D02*
X95761334Y-63065789D01*
X95761334Y-63065789D02*
X95761334Y-62732456D01*
X95237524Y-63732456D02*
X95904191Y-63732456D01*
X95713715Y-63732456D02*
X95808953Y-63780075D01*
X95808953Y-63780075D02*
X95856572Y-63827694D01*
X95856572Y-63827694D02*
X95904191Y-63922932D01*
X95904191Y-63922932D02*
X95904191Y-64018170D01*
X95904191Y-64780075D02*
X95237524Y-64780075D01*
X95904191Y-64351504D02*
X95380382Y-64351504D01*
X95380382Y-64351504D02*
X95285144Y-64399123D01*
X95285144Y-64399123D02*
X95237524Y-64494361D01*
X95237524Y-64494361D02*
X95237524Y-64637218D01*
X95237524Y-64637218D02*
X95285144Y-64732456D01*
X95285144Y-64732456D02*
X95332763Y-64780075D01*
X95904191Y-65256266D02*
X95237524Y-65256266D01*
X95808953Y-65256266D02*
X95856572Y-65303885D01*
X95856572Y-65303885D02*
X95904191Y-65399123D01*
X95904191Y-65399123D02*
X95904191Y-65541980D01*
X95904191Y-65541980D02*
X95856572Y-65637218D01*
X95856572Y-65637218D02*
X95761334Y-65684837D01*
X95761334Y-65684837D02*
X95237524Y-65684837D01*
X95237524Y-66303885D02*
X95285144Y-66208647D01*
X95285144Y-66208647D02*
X95332763Y-66161028D01*
X95332763Y-66161028D02*
X95428001Y-66113409D01*
X95428001Y-66113409D02*
X95713715Y-66113409D01*
X95713715Y-66113409D02*
X95808953Y-66161028D01*
X95808953Y-66161028D02*
X95856572Y-66208647D01*
X95856572Y-66208647D02*
X95904191Y-66303885D01*
X95904191Y-66303885D02*
X95904191Y-66446742D01*
X95904191Y-66446742D02*
X95856572Y-66541980D01*
X95856572Y-66541980D02*
X95808953Y-66589599D01*
X95808953Y-66589599D02*
X95713715Y-66637218D01*
X95713715Y-66637218D02*
X95428001Y-66637218D01*
X95428001Y-66637218D02*
X95332763Y-66589599D01*
X95332763Y-66589599D02*
X95285144Y-66541980D01*
X95285144Y-66541980D02*
X95237524Y-66446742D01*
X95237524Y-66446742D02*
X95237524Y-66303885D01*
X95237524Y-68256266D02*
X96237524Y-68256266D01*
X95285144Y-68256266D02*
X95237524Y-68161028D01*
X95237524Y-68161028D02*
X95237524Y-67970552D01*
X95237524Y-67970552D02*
X95285144Y-67875314D01*
X95285144Y-67875314D02*
X95332763Y-67827695D01*
X95332763Y-67827695D02*
X95428001Y-67780076D01*
X95428001Y-67780076D02*
X95713715Y-67780076D01*
X95713715Y-67780076D02*
X95808953Y-67827695D01*
X95808953Y-67827695D02*
X95856572Y-67875314D01*
X95856572Y-67875314D02*
X95904191Y-67970552D01*
X95904191Y-67970552D02*
X95904191Y-68161028D01*
X95904191Y-68161028D02*
X95856572Y-68256266D01*
X95237524Y-68875314D02*
X95285144Y-68780076D01*
X95285144Y-68780076D02*
X95332763Y-68732457D01*
X95332763Y-68732457D02*
X95428001Y-68684838D01*
X95428001Y-68684838D02*
X95713715Y-68684838D01*
X95713715Y-68684838D02*
X95808953Y-68732457D01*
X95808953Y-68732457D02*
X95856572Y-68780076D01*
X95856572Y-68780076D02*
X95904191Y-68875314D01*
X95904191Y-68875314D02*
X95904191Y-69018171D01*
X95904191Y-69018171D02*
X95856572Y-69113409D01*
X95856572Y-69113409D02*
X95808953Y-69161028D01*
X95808953Y-69161028D02*
X95713715Y-69208647D01*
X95713715Y-69208647D02*
X95428001Y-69208647D01*
X95428001Y-69208647D02*
X95332763Y-69161028D01*
X95332763Y-69161028D02*
X95285144Y-69113409D01*
X95285144Y-69113409D02*
X95237524Y-69018171D01*
X95237524Y-69018171D02*
X95237524Y-68875314D01*
X95237524Y-70399124D02*
X96237524Y-70399124D01*
X96237524Y-70399124D02*
X95237524Y-70970552D01*
X95237524Y-70970552D02*
X96237524Y-70970552D01*
X95237524Y-71875314D02*
X95761334Y-71875314D01*
X95761334Y-71875314D02*
X95856572Y-71827695D01*
X95856572Y-71827695D02*
X95904191Y-71732457D01*
X95904191Y-71732457D02*
X95904191Y-71541981D01*
X95904191Y-71541981D02*
X95856572Y-71446743D01*
X95285144Y-71875314D02*
X95237524Y-71780076D01*
X95237524Y-71780076D02*
X95237524Y-71541981D01*
X95237524Y-71541981D02*
X95285144Y-71446743D01*
X95285144Y-71446743D02*
X95380382Y-71399124D01*
X95380382Y-71399124D02*
X95475620Y-71399124D01*
X95475620Y-71399124D02*
X95570858Y-71446743D01*
X95570858Y-71446743D02*
X95618477Y-71541981D01*
X95618477Y-71541981D02*
X95618477Y-71780076D01*
X95618477Y-71780076D02*
X95666096Y-71875314D01*
X95285144Y-72303886D02*
X95237524Y-72399124D01*
X95237524Y-72399124D02*
X95237524Y-72589600D01*
X95237524Y-72589600D02*
X95285144Y-72684838D01*
X95285144Y-72684838D02*
X95380382Y-72732457D01*
X95380382Y-72732457D02*
X95428001Y-72732457D01*
X95428001Y-72732457D02*
X95523239Y-72684838D01*
X95523239Y-72684838D02*
X95570858Y-72589600D01*
X95570858Y-72589600D02*
X95570858Y-72446743D01*
X95570858Y-72446743D02*
X95618477Y-72351505D01*
X95618477Y-72351505D02*
X95713715Y-72303886D01*
X95713715Y-72303886D02*
X95761334Y-72303886D01*
X95761334Y-72303886D02*
X95856572Y-72351505D01*
X95856572Y-72351505D02*
X95904191Y-72446743D01*
X95904191Y-72446743D02*
X95904191Y-72589600D01*
X95904191Y-72589600D02*
X95856572Y-72684838D01*
X95285144Y-73589600D02*
X95237524Y-73494362D01*
X95237524Y-73494362D02*
X95237524Y-73303886D01*
X95237524Y-73303886D02*
X95285144Y-73208648D01*
X95285144Y-73208648D02*
X95332763Y-73161029D01*
X95332763Y-73161029D02*
X95428001Y-73113410D01*
X95428001Y-73113410D02*
X95713715Y-73113410D01*
X95713715Y-73113410D02*
X95808953Y-73161029D01*
X95808953Y-73161029D02*
X95856572Y-73208648D01*
X95856572Y-73208648D02*
X95904191Y-73303886D01*
X95904191Y-73303886D02*
X95904191Y-73494362D01*
X95904191Y-73494362D02*
X95856572Y-73589600D01*
X95237524Y-74018172D02*
X95904191Y-74018172D01*
X96237524Y-74018172D02*
X96189905Y-73970553D01*
X96189905Y-73970553D02*
X96142286Y-74018172D01*
X96142286Y-74018172D02*
X96189905Y-74065791D01*
X96189905Y-74065791D02*
X96237524Y-74018172D01*
X96237524Y-74018172D02*
X96142286Y-74018172D01*
X95237524Y-74494362D02*
X95904191Y-74494362D01*
X95808953Y-74494362D02*
X95856572Y-74541981D01*
X95856572Y-74541981D02*
X95904191Y-74637219D01*
X95904191Y-74637219D02*
X95904191Y-74780076D01*
X95904191Y-74780076D02*
X95856572Y-74875314D01*
X95856572Y-74875314D02*
X95761334Y-74922933D01*
X95761334Y-74922933D02*
X95237524Y-74922933D01*
X95761334Y-74922933D02*
X95856572Y-74970552D01*
X95856572Y-74970552D02*
X95904191Y-75065790D01*
X95904191Y-75065790D02*
X95904191Y-75208647D01*
X95904191Y-75208647D02*
X95856572Y-75303886D01*
X95856572Y-75303886D02*
X95761334Y-75351505D01*
X95761334Y-75351505D02*
X95237524Y-75351505D01*
X95285144Y-76208647D02*
X95237524Y-76113409D01*
X95237524Y-76113409D02*
X95237524Y-75922933D01*
X95237524Y-75922933D02*
X95285144Y-75827695D01*
X95285144Y-75827695D02*
X95380382Y-75780076D01*
X95380382Y-75780076D02*
X95761334Y-75780076D01*
X95761334Y-75780076D02*
X95856572Y-75827695D01*
X95856572Y-75827695D02*
X95904191Y-75922933D01*
X95904191Y-75922933D02*
X95904191Y-76113409D01*
X95904191Y-76113409D02*
X95856572Y-76208647D01*
X95856572Y-76208647D02*
X95761334Y-76256266D01*
X95761334Y-76256266D02*
X95666096Y-76256266D01*
X95666096Y-76256266D02*
X95570858Y-75780076D01*
X95904191Y-76684838D02*
X95237524Y-76684838D01*
X95808953Y-76684838D02*
X95856572Y-76732457D01*
X95856572Y-76732457D02*
X95904191Y-76827695D01*
X95904191Y-76827695D02*
X95904191Y-76970552D01*
X95904191Y-76970552D02*
X95856572Y-77065790D01*
X95856572Y-77065790D02*
X95761334Y-77113409D01*
X95761334Y-77113409D02*
X95237524Y-77113409D01*
X95904191Y-77446743D02*
X95904191Y-77827695D01*
X96237524Y-77589600D02*
X95380382Y-77589600D01*
X95380382Y-77589600D02*
X95285144Y-77637219D01*
X95285144Y-77637219D02*
X95237524Y-77732457D01*
X95237524Y-77732457D02*
X95237524Y-77827695D01*
X95237524Y-78303886D02*
X95285144Y-78208648D01*
X95285144Y-78208648D02*
X95332763Y-78161029D01*
X95332763Y-78161029D02*
X95428001Y-78113410D01*
X95428001Y-78113410D02*
X95713715Y-78113410D01*
X95713715Y-78113410D02*
X95808953Y-78161029D01*
X95808953Y-78161029D02*
X95856572Y-78208648D01*
X95856572Y-78208648D02*
X95904191Y-78303886D01*
X95904191Y-78303886D02*
X95904191Y-78446743D01*
X95904191Y-78446743D02*
X95856572Y-78541981D01*
X95856572Y-78541981D02*
X95808953Y-78589600D01*
X95808953Y-78589600D02*
X95713715Y-78637219D01*
X95713715Y-78637219D02*
X95428001Y-78637219D01*
X95428001Y-78637219D02*
X95332763Y-78589600D01*
X95332763Y-78589600D02*
X95285144Y-78541981D01*
X95285144Y-78541981D02*
X95237524Y-78446743D01*
X95237524Y-78446743D02*
X95237524Y-78303886D01*
X95237524Y-79827696D02*
X96237524Y-79827696D01*
X96237524Y-79827696D02*
X95523239Y-80161029D01*
X95523239Y-80161029D02*
X96237524Y-80494362D01*
X96237524Y-80494362D02*
X95237524Y-80494362D01*
X95237524Y-81399124D02*
X95761334Y-81399124D01*
X95761334Y-81399124D02*
X95856572Y-81351505D01*
X95856572Y-81351505D02*
X95904191Y-81256267D01*
X95904191Y-81256267D02*
X95904191Y-81065791D01*
X95904191Y-81065791D02*
X95856572Y-80970553D01*
X95285144Y-81399124D02*
X95237524Y-81303886D01*
X95237524Y-81303886D02*
X95237524Y-81065791D01*
X95237524Y-81065791D02*
X95285144Y-80970553D01*
X95285144Y-80970553D02*
X95380382Y-80922934D01*
X95380382Y-80922934D02*
X95475620Y-80922934D01*
X95475620Y-80922934D02*
X95570858Y-80970553D01*
X95570858Y-80970553D02*
X95618477Y-81065791D01*
X95618477Y-81065791D02*
X95618477Y-81303886D01*
X95618477Y-81303886D02*
X95666096Y-81399124D01*
X95285144Y-82303886D02*
X95237524Y-82208648D01*
X95237524Y-82208648D02*
X95237524Y-82018172D01*
X95237524Y-82018172D02*
X95285144Y-81922934D01*
X95285144Y-81922934D02*
X95332763Y-81875315D01*
X95332763Y-81875315D02*
X95428001Y-81827696D01*
X95428001Y-81827696D02*
X95713715Y-81827696D01*
X95713715Y-81827696D02*
X95808953Y-81875315D01*
X95808953Y-81875315D02*
X95856572Y-81922934D01*
X95856572Y-81922934D02*
X95904191Y-82018172D01*
X95904191Y-82018172D02*
X95904191Y-82208648D01*
X95904191Y-82208648D02*
X95856572Y-82303886D01*
X95237524Y-82732458D02*
X95904191Y-82732458D01*
X96237524Y-82732458D02*
X96189905Y-82684839D01*
X96189905Y-82684839D02*
X96142286Y-82732458D01*
X96142286Y-82732458D02*
X96189905Y-82780077D01*
X96189905Y-82780077D02*
X96237524Y-82732458D01*
X96237524Y-82732458D02*
X96142286Y-82732458D01*
X95285144Y-83589600D02*
X95237524Y-83494362D01*
X95237524Y-83494362D02*
X95237524Y-83303886D01*
X95237524Y-83303886D02*
X95285144Y-83208648D01*
X95285144Y-83208648D02*
X95380382Y-83161029D01*
X95380382Y-83161029D02*
X95761334Y-83161029D01*
X95761334Y-83161029D02*
X95856572Y-83208648D01*
X95856572Y-83208648D02*
X95904191Y-83303886D01*
X95904191Y-83303886D02*
X95904191Y-83494362D01*
X95904191Y-83494362D02*
X95856572Y-83589600D01*
X95856572Y-83589600D02*
X95761334Y-83637219D01*
X95761334Y-83637219D02*
X95666096Y-83637219D01*
X95666096Y-83637219D02*
X95570858Y-83161029D01*
X95237524Y-84208648D02*
X95285144Y-84113410D01*
X95285144Y-84113410D02*
X95380382Y-84065791D01*
X95380382Y-84065791D02*
X96237524Y-84065791D01*
X93627580Y-60303884D02*
X94627580Y-60303884D01*
X94246628Y-60303884D02*
X94294247Y-60399122D01*
X94294247Y-60399122D02*
X94294247Y-60589598D01*
X94294247Y-60589598D02*
X94246628Y-60684836D01*
X94246628Y-60684836D02*
X94199009Y-60732455D01*
X94199009Y-60732455D02*
X94103771Y-60780074D01*
X94103771Y-60780074D02*
X93818057Y-60780074D01*
X93818057Y-60780074D02*
X93722819Y-60732455D01*
X93722819Y-60732455D02*
X93675200Y-60684836D01*
X93675200Y-60684836D02*
X93627580Y-60589598D01*
X93627580Y-60589598D02*
X93627580Y-60399122D01*
X93627580Y-60399122D02*
X93675200Y-60303884D01*
X93627580Y-61208646D02*
X94294247Y-61208646D01*
X94103771Y-61208646D02*
X94199009Y-61256265D01*
X94199009Y-61256265D02*
X94246628Y-61303884D01*
X94246628Y-61303884D02*
X94294247Y-61399122D01*
X94294247Y-61399122D02*
X94294247Y-61494360D01*
X94294247Y-62256265D02*
X93627580Y-62256265D01*
X94294247Y-61827694D02*
X93770438Y-61827694D01*
X93770438Y-61827694D02*
X93675200Y-61875313D01*
X93675200Y-61875313D02*
X93627580Y-61970551D01*
X93627580Y-61970551D02*
X93627580Y-62113408D01*
X93627580Y-62113408D02*
X93675200Y-62208646D01*
X93675200Y-62208646D02*
X93722819Y-62256265D01*
X94294247Y-62732456D02*
X93627580Y-62732456D01*
X94199009Y-62732456D02*
X94246628Y-62780075D01*
X94246628Y-62780075D02*
X94294247Y-62875313D01*
X94294247Y-62875313D02*
X94294247Y-63018170D01*
X94294247Y-63018170D02*
X94246628Y-63113408D01*
X94246628Y-63113408D02*
X94151390Y-63161027D01*
X94151390Y-63161027D02*
X93627580Y-63161027D01*
X93627580Y-63780075D02*
X93675200Y-63684837D01*
X93675200Y-63684837D02*
X93722819Y-63637218D01*
X93722819Y-63637218D02*
X93818057Y-63589599D01*
X93818057Y-63589599D02*
X94103771Y-63589599D01*
X94103771Y-63589599D02*
X94199009Y-63637218D01*
X94199009Y-63637218D02*
X94246628Y-63684837D01*
X94246628Y-63684837D02*
X94294247Y-63780075D01*
X94294247Y-63780075D02*
X94294247Y-63922932D01*
X94294247Y-63922932D02*
X94246628Y-64018170D01*
X94246628Y-64018170D02*
X94199009Y-64065789D01*
X94199009Y-64065789D02*
X94103771Y-64113408D01*
X94103771Y-64113408D02*
X93818057Y-64113408D01*
X93818057Y-64113408D02*
X93722819Y-64065789D01*
X93722819Y-64065789D02*
X93675200Y-64018170D01*
X93675200Y-64018170D02*
X93627580Y-63922932D01*
X93627580Y-63922932D02*
X93627580Y-63780075D01*
X93627580Y-64970551D02*
X94627580Y-64970551D01*
X93675200Y-64970551D02*
X93627580Y-64875313D01*
X93627580Y-64875313D02*
X93627580Y-64684837D01*
X93627580Y-64684837D02*
X93675200Y-64589599D01*
X93675200Y-64589599D02*
X93722819Y-64541980D01*
X93722819Y-64541980D02*
X93818057Y-64494361D01*
X93818057Y-64494361D02*
X94103771Y-64494361D01*
X94103771Y-64494361D02*
X94199009Y-64541980D01*
X94199009Y-64541980D02*
X94246628Y-64589599D01*
X94246628Y-64589599D02*
X94294247Y-64684837D01*
X94294247Y-64684837D02*
X94294247Y-64875313D01*
X94294247Y-64875313D02*
X94246628Y-64970551D01*
X93627580Y-65589599D02*
X93675200Y-65494361D01*
X93675200Y-65494361D02*
X93722819Y-65446742D01*
X93722819Y-65446742D02*
X93818057Y-65399123D01*
X93818057Y-65399123D02*
X94103771Y-65399123D01*
X94103771Y-65399123D02*
X94199009Y-65446742D01*
X94199009Y-65446742D02*
X94246628Y-65494361D01*
X94246628Y-65494361D02*
X94294247Y-65589599D01*
X94294247Y-65589599D02*
X94294247Y-65732456D01*
X94294247Y-65732456D02*
X94246628Y-65827694D01*
X94246628Y-65827694D02*
X94199009Y-65875313D01*
X94199009Y-65875313D02*
X94103771Y-65922932D01*
X94103771Y-65922932D02*
X93818057Y-65922932D01*
X93818057Y-65922932D02*
X93722819Y-65875313D01*
X93722819Y-65875313D02*
X93675200Y-65827694D01*
X93675200Y-65827694D02*
X93627580Y-65732456D01*
X93627580Y-65732456D02*
X93627580Y-65589599D01*
X94294247Y-66351504D02*
X93627580Y-66351504D01*
X94199009Y-66351504D02*
X94246628Y-66399123D01*
X94246628Y-66399123D02*
X94294247Y-66494361D01*
X94294247Y-66494361D02*
X94294247Y-66637218D01*
X94294247Y-66637218D02*
X94246628Y-66732456D01*
X94246628Y-66732456D02*
X94151390Y-66780075D01*
X94151390Y-66780075D02*
X93627580Y-66780075D01*
X93627580Y-67684837D02*
X94151390Y-67684837D01*
X94151390Y-67684837D02*
X94246628Y-67637218D01*
X94246628Y-67637218D02*
X94294247Y-67541980D01*
X94294247Y-67541980D02*
X94294247Y-67351504D01*
X94294247Y-67351504D02*
X94246628Y-67256266D01*
X93675200Y-67684837D02*
X93627580Y-67589599D01*
X93627580Y-67589599D02*
X93627580Y-67351504D01*
X93627580Y-67351504D02*
X93675200Y-67256266D01*
X93675200Y-67256266D02*
X93770438Y-67208647D01*
X93770438Y-67208647D02*
X93865676Y-67208647D01*
X93865676Y-67208647D02*
X93960914Y-67256266D01*
X93960914Y-67256266D02*
X94008533Y-67351504D01*
X94008533Y-67351504D02*
X94008533Y-67589599D01*
X94008533Y-67589599D02*
X94056152Y-67684837D01*
X93675200Y-68113409D02*
X93627580Y-68208647D01*
X93627580Y-68208647D02*
X93627580Y-68399123D01*
X93627580Y-68399123D02*
X93675200Y-68494361D01*
X93675200Y-68494361D02*
X93770438Y-68541980D01*
X93770438Y-68541980D02*
X93818057Y-68541980D01*
X93818057Y-68541980D02*
X93913295Y-68494361D01*
X93913295Y-68494361D02*
X93960914Y-68399123D01*
X93960914Y-68399123D02*
X93960914Y-68256266D01*
X93960914Y-68256266D02*
X94008533Y-68161028D01*
X94008533Y-68161028D02*
X94103771Y-68113409D01*
X94103771Y-68113409D02*
X94151390Y-68113409D01*
X94151390Y-68113409D02*
X94246628Y-68161028D01*
X94246628Y-68161028D02*
X94294247Y-68256266D01*
X94294247Y-68256266D02*
X94294247Y-68399123D01*
X94294247Y-68399123D02*
X94246628Y-68494361D01*
X93675200Y-69399123D02*
X93627580Y-69303885D01*
X93627580Y-69303885D02*
X93627580Y-69113409D01*
X93627580Y-69113409D02*
X93675200Y-69018171D01*
X93675200Y-69018171D02*
X93722819Y-68970552D01*
X93722819Y-68970552D02*
X93818057Y-68922933D01*
X93818057Y-68922933D02*
X94103771Y-68922933D01*
X94103771Y-68922933D02*
X94199009Y-68970552D01*
X94199009Y-68970552D02*
X94246628Y-69018171D01*
X94246628Y-69018171D02*
X94294247Y-69113409D01*
X94294247Y-69113409D02*
X94294247Y-69303885D01*
X94294247Y-69303885D02*
X94246628Y-69399123D01*
X93627580Y-69827695D02*
X94294247Y-69827695D01*
X94627580Y-69827695D02*
X94579961Y-69780076D01*
X94579961Y-69780076D02*
X94532342Y-69827695D01*
X94532342Y-69827695D02*
X94579961Y-69875314D01*
X94579961Y-69875314D02*
X94627580Y-69827695D01*
X94627580Y-69827695D02*
X94532342Y-69827695D01*
X93627580Y-70303885D02*
X94294247Y-70303885D01*
X94199009Y-70303885D02*
X94246628Y-70351504D01*
X94246628Y-70351504D02*
X94294247Y-70446742D01*
X94294247Y-70446742D02*
X94294247Y-70589599D01*
X94294247Y-70589599D02*
X94246628Y-70684837D01*
X94246628Y-70684837D02*
X94151390Y-70732456D01*
X94151390Y-70732456D02*
X93627580Y-70732456D01*
X94151390Y-70732456D02*
X94246628Y-70780075D01*
X94246628Y-70780075D02*
X94294247Y-70875313D01*
X94294247Y-70875313D02*
X94294247Y-71018170D01*
X94294247Y-71018170D02*
X94246628Y-71113409D01*
X94246628Y-71113409D02*
X94151390Y-71161028D01*
X94151390Y-71161028D02*
X93627580Y-71161028D01*
X93675200Y-72018170D02*
X93627580Y-71922932D01*
X93627580Y-71922932D02*
X93627580Y-71732456D01*
X93627580Y-71732456D02*
X93675200Y-71637218D01*
X93675200Y-71637218D02*
X93770438Y-71589599D01*
X93770438Y-71589599D02*
X94151390Y-71589599D01*
X94151390Y-71589599D02*
X94246628Y-71637218D01*
X94246628Y-71637218D02*
X94294247Y-71732456D01*
X94294247Y-71732456D02*
X94294247Y-71922932D01*
X94294247Y-71922932D02*
X94246628Y-72018170D01*
X94246628Y-72018170D02*
X94151390Y-72065789D01*
X94151390Y-72065789D02*
X94056152Y-72065789D01*
X94056152Y-72065789D02*
X93960914Y-71589599D01*
X94294247Y-72494361D02*
X93627580Y-72494361D01*
X94199009Y-72494361D02*
X94246628Y-72541980D01*
X94246628Y-72541980D02*
X94294247Y-72637218D01*
X94294247Y-72637218D02*
X94294247Y-72780075D01*
X94294247Y-72780075D02*
X94246628Y-72875313D01*
X94246628Y-72875313D02*
X94151390Y-72922932D01*
X94151390Y-72922932D02*
X93627580Y-72922932D01*
X94294247Y-73256266D02*
X94294247Y-73637218D01*
X94627580Y-73399123D02*
X93770438Y-73399123D01*
X93770438Y-73399123D02*
X93675200Y-73446742D01*
X93675200Y-73446742D02*
X93627580Y-73541980D01*
X93627580Y-73541980D02*
X93627580Y-73637218D01*
X93627580Y-74113409D02*
X93675200Y-74018171D01*
X93675200Y-74018171D02*
X93722819Y-73970552D01*
X93722819Y-73970552D02*
X93818057Y-73922933D01*
X93818057Y-73922933D02*
X94103771Y-73922933D01*
X94103771Y-73922933D02*
X94199009Y-73970552D01*
X94199009Y-73970552D02*
X94246628Y-74018171D01*
X94246628Y-74018171D02*
X94294247Y-74113409D01*
X94294247Y-74113409D02*
X94294247Y-74256266D01*
X94294247Y-74256266D02*
X94246628Y-74351504D01*
X94246628Y-74351504D02*
X94199009Y-74399123D01*
X94199009Y-74399123D02*
X94103771Y-74446742D01*
X94103771Y-74446742D02*
X93818057Y-74446742D01*
X93818057Y-74446742D02*
X93722819Y-74399123D01*
X93722819Y-74399123D02*
X93675200Y-74351504D01*
X93675200Y-74351504D02*
X93627580Y-74256266D01*
X93627580Y-74256266D02*
X93627580Y-74113409D01*
X93627580Y-74875314D02*
X94294247Y-74875314D01*
X94199009Y-74875314D02*
X94246628Y-74922933D01*
X94246628Y-74922933D02*
X94294247Y-75018171D01*
X94294247Y-75018171D02*
X94294247Y-75161028D01*
X94294247Y-75161028D02*
X94246628Y-75256266D01*
X94246628Y-75256266D02*
X94151390Y-75303885D01*
X94151390Y-75303885D02*
X93627580Y-75303885D01*
X94151390Y-75303885D02*
X94246628Y-75351504D01*
X94246628Y-75351504D02*
X94294247Y-75446742D01*
X94294247Y-75446742D02*
X94294247Y-75589599D01*
X94294247Y-75589599D02*
X94246628Y-75684838D01*
X94246628Y-75684838D02*
X94151390Y-75732457D01*
X94151390Y-75732457D02*
X93627580Y-75732457D01*
X93627580Y-76637218D02*
X94151390Y-76637218D01*
X94151390Y-76637218D02*
X94246628Y-76589599D01*
X94246628Y-76589599D02*
X94294247Y-76494361D01*
X94294247Y-76494361D02*
X94294247Y-76303885D01*
X94294247Y-76303885D02*
X94246628Y-76208647D01*
X93675200Y-76637218D02*
X93627580Y-76541980D01*
X93627580Y-76541980D02*
X93627580Y-76303885D01*
X93627580Y-76303885D02*
X93675200Y-76208647D01*
X93675200Y-76208647D02*
X93770438Y-76161028D01*
X93770438Y-76161028D02*
X93865676Y-76161028D01*
X93865676Y-76161028D02*
X93960914Y-76208647D01*
X93960914Y-76208647D02*
X94008533Y-76303885D01*
X94008533Y-76303885D02*
X94008533Y-76541980D01*
X94008533Y-76541980D02*
X94056152Y-76637218D01*
X93675200Y-77541980D02*
X93627580Y-77446742D01*
X93627580Y-77446742D02*
X93627580Y-77256266D01*
X93627580Y-77256266D02*
X93675200Y-77161028D01*
X93675200Y-77161028D02*
X93722819Y-77113409D01*
X93722819Y-77113409D02*
X93818057Y-77065790D01*
X93818057Y-77065790D02*
X94103771Y-77065790D01*
X94103771Y-77065790D02*
X94199009Y-77113409D01*
X94199009Y-77113409D02*
X94246628Y-77161028D01*
X94246628Y-77161028D02*
X94294247Y-77256266D01*
X94294247Y-77256266D02*
X94294247Y-77446742D01*
X94294247Y-77446742D02*
X94246628Y-77541980D01*
X93627580Y-77970552D02*
X94294247Y-77970552D01*
X94627580Y-77970552D02*
X94579961Y-77922933D01*
X94579961Y-77922933D02*
X94532342Y-77970552D01*
X94532342Y-77970552D02*
X94579961Y-78018171D01*
X94579961Y-78018171D02*
X94627580Y-77970552D01*
X94627580Y-77970552D02*
X94532342Y-77970552D01*
X93675200Y-78827694D02*
X93627580Y-78732456D01*
X93627580Y-78732456D02*
X93627580Y-78541980D01*
X93627580Y-78541980D02*
X93675200Y-78446742D01*
X93675200Y-78446742D02*
X93770438Y-78399123D01*
X93770438Y-78399123D02*
X94151390Y-78399123D01*
X94151390Y-78399123D02*
X94246628Y-78446742D01*
X94246628Y-78446742D02*
X94294247Y-78541980D01*
X94294247Y-78541980D02*
X94294247Y-78732456D01*
X94294247Y-78732456D02*
X94246628Y-78827694D01*
X94246628Y-78827694D02*
X94151390Y-78875313D01*
X94151390Y-78875313D02*
X94056152Y-78875313D01*
X94056152Y-78875313D02*
X93960914Y-78399123D01*
X93627580Y-79446742D02*
X93675200Y-79351504D01*
X93675200Y-79351504D02*
X93770438Y-79303885D01*
X93770438Y-79303885D02*
X94627580Y-79303885D01*
X94103771Y-80446742D02*
X94151390Y-80399123D01*
X94151390Y-80399123D02*
X94199009Y-80303885D01*
X94199009Y-80303885D02*
X94199009Y-80208647D01*
X94199009Y-80208647D02*
X94151390Y-80113409D01*
X94151390Y-80113409D02*
X94103771Y-80065790D01*
X94103771Y-80065790D02*
X94008533Y-80018171D01*
X94008533Y-80018171D02*
X93913295Y-80018171D01*
X93913295Y-80018171D02*
X93818057Y-80065790D01*
X93818057Y-80065790D02*
X93770438Y-80113409D01*
X93770438Y-80113409D02*
X93722819Y-80208647D01*
X93722819Y-80208647D02*
X93722819Y-80303885D01*
X93722819Y-80303885D02*
X93770438Y-80399123D01*
X93770438Y-80399123D02*
X93818057Y-80446742D01*
X94199009Y-80446742D02*
X93818057Y-80446742D01*
X93818057Y-80446742D02*
X93770438Y-80494361D01*
X93770438Y-80494361D02*
X93770438Y-80541980D01*
X93770438Y-80541980D02*
X93818057Y-80637219D01*
X93818057Y-80637219D02*
X93913295Y-80684838D01*
X93913295Y-80684838D02*
X94151390Y-80684838D01*
X94151390Y-80684838D02*
X94294247Y-80589600D01*
X94294247Y-80589600D02*
X94389485Y-80446742D01*
X94389485Y-80446742D02*
X94437104Y-80256266D01*
X94437104Y-80256266D02*
X94389485Y-80065790D01*
X94389485Y-80065790D02*
X94294247Y-79922933D01*
X94294247Y-79922933D02*
X94151390Y-79827695D01*
X94151390Y-79827695D02*
X93960914Y-79780076D01*
X93960914Y-79780076D02*
X93770438Y-79827695D01*
X93770438Y-79827695D02*
X93627580Y-79922933D01*
X93627580Y-79922933D02*
X93532342Y-80065790D01*
X93532342Y-80065790D02*
X93484723Y-80256266D01*
X93484723Y-80256266D02*
X93532342Y-80446742D01*
X93532342Y-80446742D02*
X93627580Y-80589600D01*
X94294247Y-81541980D02*
X93484723Y-81541980D01*
X93484723Y-81541980D02*
X93389485Y-81494361D01*
X93389485Y-81494361D02*
X93341866Y-81446742D01*
X93341866Y-81446742D02*
X93294247Y-81351504D01*
X93294247Y-81351504D02*
X93294247Y-81208647D01*
X93294247Y-81208647D02*
X93341866Y-81113409D01*
X93675200Y-81541980D02*
X93627580Y-81446742D01*
X93627580Y-81446742D02*
X93627580Y-81256266D01*
X93627580Y-81256266D02*
X93675200Y-81161028D01*
X93675200Y-81161028D02*
X93722819Y-81113409D01*
X93722819Y-81113409D02*
X93818057Y-81065790D01*
X93818057Y-81065790D02*
X94103771Y-81065790D01*
X94103771Y-81065790D02*
X94199009Y-81113409D01*
X94199009Y-81113409D02*
X94246628Y-81161028D01*
X94246628Y-81161028D02*
X94294247Y-81256266D01*
X94294247Y-81256266D02*
X94294247Y-81446742D01*
X94294247Y-81446742D02*
X94246628Y-81541980D01*
X93627580Y-82018171D02*
X94294247Y-82018171D01*
X94199009Y-82018171D02*
X94246628Y-82065790D01*
X94246628Y-82065790D02*
X94294247Y-82161028D01*
X94294247Y-82161028D02*
X94294247Y-82303885D01*
X94294247Y-82303885D02*
X94246628Y-82399123D01*
X94246628Y-82399123D02*
X94151390Y-82446742D01*
X94151390Y-82446742D02*
X93627580Y-82446742D01*
X94151390Y-82446742D02*
X94246628Y-82494361D01*
X94246628Y-82494361D02*
X94294247Y-82589599D01*
X94294247Y-82589599D02*
X94294247Y-82732456D01*
X94294247Y-82732456D02*
X94246628Y-82827695D01*
X94246628Y-82827695D02*
X94151390Y-82875314D01*
X94151390Y-82875314D02*
X93627580Y-82875314D01*
X93627580Y-83780075D02*
X94151390Y-83780075D01*
X94151390Y-83780075D02*
X94246628Y-83732456D01*
X94246628Y-83732456D02*
X94294247Y-83637218D01*
X94294247Y-83637218D02*
X94294247Y-83446742D01*
X94294247Y-83446742D02*
X94246628Y-83351504D01*
X93675200Y-83780075D02*
X93627580Y-83684837D01*
X93627580Y-83684837D02*
X93627580Y-83446742D01*
X93627580Y-83446742D02*
X93675200Y-83351504D01*
X93675200Y-83351504D02*
X93770438Y-83303885D01*
X93770438Y-83303885D02*
X93865676Y-83303885D01*
X93865676Y-83303885D02*
X93960914Y-83351504D01*
X93960914Y-83351504D02*
X94008533Y-83446742D01*
X94008533Y-83446742D02*
X94008533Y-83684837D01*
X94008533Y-83684837D02*
X94056152Y-83780075D01*
X93627580Y-84256266D02*
X94294247Y-84256266D01*
X94627580Y-84256266D02*
X94579961Y-84208647D01*
X94579961Y-84208647D02*
X94532342Y-84256266D01*
X94532342Y-84256266D02*
X94579961Y-84303885D01*
X94579961Y-84303885D02*
X94627580Y-84256266D01*
X94627580Y-84256266D02*
X94532342Y-84256266D01*
X93627580Y-84875313D02*
X93675200Y-84780075D01*
X93675200Y-84780075D02*
X93770438Y-84732456D01*
X93770438Y-84732456D02*
X94627580Y-84732456D01*
X93722819Y-85256266D02*
X93675200Y-85303885D01*
X93675200Y-85303885D02*
X93627580Y-85256266D01*
X93627580Y-85256266D02*
X93675200Y-85208647D01*
X93675200Y-85208647D02*
X93722819Y-85256266D01*
X93722819Y-85256266D02*
X93627580Y-85256266D01*
X93675200Y-86161027D02*
X93627580Y-86065789D01*
X93627580Y-86065789D02*
X93627580Y-85875313D01*
X93627580Y-85875313D02*
X93675200Y-85780075D01*
X93675200Y-85780075D02*
X93722819Y-85732456D01*
X93722819Y-85732456D02*
X93818057Y-85684837D01*
X93818057Y-85684837D02*
X94103771Y-85684837D01*
X94103771Y-85684837D02*
X94199009Y-85732456D01*
X94199009Y-85732456D02*
X94246628Y-85780075D01*
X94246628Y-85780075D02*
X94294247Y-85875313D01*
X94294247Y-85875313D02*
X94294247Y-86065789D01*
X94294247Y-86065789D02*
X94246628Y-86161027D01*
X93627580Y-86732456D02*
X93675200Y-86637218D01*
X93675200Y-86637218D02*
X93722819Y-86589599D01*
X93722819Y-86589599D02*
X93818057Y-86541980D01*
X93818057Y-86541980D02*
X94103771Y-86541980D01*
X94103771Y-86541980D02*
X94199009Y-86589599D01*
X94199009Y-86589599D02*
X94246628Y-86637218D01*
X94246628Y-86637218D02*
X94294247Y-86732456D01*
X94294247Y-86732456D02*
X94294247Y-86875313D01*
X94294247Y-86875313D02*
X94246628Y-86970551D01*
X94246628Y-86970551D02*
X94199009Y-87018170D01*
X94199009Y-87018170D02*
X94103771Y-87065789D01*
X94103771Y-87065789D02*
X93818057Y-87065789D01*
X93818057Y-87065789D02*
X93722819Y-87018170D01*
X93722819Y-87018170D02*
X93675200Y-86970551D01*
X93675200Y-86970551D02*
X93627580Y-86875313D01*
X93627580Y-86875313D02*
X93627580Y-86732456D01*
X93627580Y-87494361D02*
X94294247Y-87494361D01*
X94199009Y-87494361D02*
X94246628Y-87541980D01*
X94246628Y-87541980D02*
X94294247Y-87637218D01*
X94294247Y-87637218D02*
X94294247Y-87780075D01*
X94294247Y-87780075D02*
X94246628Y-87875313D01*
X94246628Y-87875313D02*
X94151390Y-87922932D01*
X94151390Y-87922932D02*
X93627580Y-87922932D01*
X94151390Y-87922932D02*
X94246628Y-87970551D01*
X94246628Y-87970551D02*
X94294247Y-88065789D01*
X94294247Y-88065789D02*
X94294247Y-88208646D01*
X94294247Y-88208646D02*
X94246628Y-88303885D01*
X94246628Y-88303885D02*
X94151390Y-88351504D01*
X94151390Y-88351504D02*
X93627580Y-88351504D01*
D11*
X159904761Y-46350057D02*
X159809523Y-46302438D01*
X159809523Y-46302438D02*
X159714285Y-46207200D01*
X159714285Y-46207200D02*
X159571428Y-46064342D01*
X159571428Y-46064342D02*
X159476190Y-46016723D01*
X159476190Y-46016723D02*
X159380952Y-46016723D01*
X159428571Y-46254819D02*
X159333333Y-46207200D01*
X159333333Y-46207200D02*
X159238095Y-46111961D01*
X159238095Y-46111961D02*
X159190476Y-45921485D01*
X159190476Y-45921485D02*
X159190476Y-45588152D01*
X159190476Y-45588152D02*
X159238095Y-45397676D01*
X159238095Y-45397676D02*
X159333333Y-45302438D01*
X159333333Y-45302438D02*
X159428571Y-45254819D01*
X159428571Y-45254819D02*
X159619047Y-45254819D01*
X159619047Y-45254819D02*
X159714285Y-45302438D01*
X159714285Y-45302438D02*
X159809523Y-45397676D01*
X159809523Y-45397676D02*
X159857142Y-45588152D01*
X159857142Y-45588152D02*
X159857142Y-45921485D01*
X159857142Y-45921485D02*
X159809523Y-46111961D01*
X159809523Y-46111961D02*
X159714285Y-46207200D01*
X159714285Y-46207200D02*
X159619047Y-46254819D01*
X159619047Y-46254819D02*
X159428571Y-46254819D01*
X160238095Y-45350057D02*
X160285714Y-45302438D01*
X160285714Y-45302438D02*
X160380952Y-45254819D01*
X160380952Y-45254819D02*
X160619047Y-45254819D01*
X160619047Y-45254819D02*
X160714285Y-45302438D01*
X160714285Y-45302438D02*
X160761904Y-45350057D01*
X160761904Y-45350057D02*
X160809523Y-45445295D01*
X160809523Y-45445295D02*
X160809523Y-45540533D01*
X160809523Y-45540533D02*
X160761904Y-45683390D01*
X160761904Y-45683390D02*
X160190476Y-46254819D01*
X160190476Y-46254819D02*
X160809523Y-46254819D01*
X158833333Y-79084819D02*
X158500000Y-78608628D01*
X158261905Y-79084819D02*
X158261905Y-78084819D01*
X158261905Y-78084819D02*
X158642857Y-78084819D01*
X158642857Y-78084819D02*
X158738095Y-78132438D01*
X158738095Y-78132438D02*
X158785714Y-78180057D01*
X158785714Y-78180057D02*
X158833333Y-78275295D01*
X158833333Y-78275295D02*
X158833333Y-78418152D01*
X158833333Y-78418152D02*
X158785714Y-78513390D01*
X158785714Y-78513390D02*
X158738095Y-78561009D01*
X158738095Y-78561009D02*
X158642857Y-78608628D01*
X158642857Y-78608628D02*
X158261905Y-78608628D01*
X159690476Y-78418152D02*
X159690476Y-79084819D01*
X159452381Y-78037200D02*
X159214286Y-78751485D01*
X159214286Y-78751485D02*
X159833333Y-78751485D01*
X140666666Y-124952319D02*
X140666666Y-125666604D01*
X140666666Y-125666604D02*
X140619047Y-125809461D01*
X140619047Y-125809461D02*
X140523809Y-125904700D01*
X140523809Y-125904700D02*
X140380952Y-125952319D01*
X140380952Y-125952319D02*
X140285714Y-125952319D01*
X141047619Y-124952319D02*
X141666666Y-124952319D01*
X141666666Y-124952319D02*
X141333333Y-125333271D01*
X141333333Y-125333271D02*
X141476190Y-125333271D01*
X141476190Y-125333271D02*
X141571428Y-125380890D01*
X141571428Y-125380890D02*
X141619047Y-125428509D01*
X141619047Y-125428509D02*
X141666666Y-125523747D01*
X141666666Y-125523747D02*
X141666666Y-125761842D01*
X141666666Y-125761842D02*
X141619047Y-125857080D01*
X141619047Y-125857080D02*
X141571428Y-125904700D01*
X141571428Y-125904700D02*
X141476190Y-125952319D01*
X141476190Y-125952319D02*
X141190476Y-125952319D01*
X141190476Y-125952319D02*
X141095238Y-125904700D01*
X141095238Y-125904700D02*
X141047619Y-125857080D01*
X115166666Y-124952319D02*
X115166666Y-125666604D01*
X115166666Y-125666604D02*
X115119047Y-125809461D01*
X115119047Y-125809461D02*
X115023809Y-125904700D01*
X115023809Y-125904700D02*
X114880952Y-125952319D01*
X114880952Y-125952319D02*
X114785714Y-125952319D01*
X115595238Y-125047557D02*
X115642857Y-124999938D01*
X115642857Y-124999938D02*
X115738095Y-124952319D01*
X115738095Y-124952319D02*
X115976190Y-124952319D01*
X115976190Y-124952319D02*
X116071428Y-124999938D01*
X116071428Y-124999938D02*
X116119047Y-125047557D01*
X116119047Y-125047557D02*
X116166666Y-125142795D01*
X116166666Y-125142795D02*
X116166666Y-125238033D01*
X116166666Y-125238033D02*
X116119047Y-125380890D01*
X116119047Y-125380890D02*
X115547619Y-125952319D01*
X115547619Y-125952319D02*
X116166666Y-125952319D01*
X134621010Y-83504819D02*
X134287677Y-83028628D01*
X134049582Y-83504819D02*
X134049582Y-82504819D01*
X134049582Y-82504819D02*
X134430534Y-82504819D01*
X134430534Y-82504819D02*
X134525772Y-82552438D01*
X134525772Y-82552438D02*
X134573391Y-82600057D01*
X134573391Y-82600057D02*
X134621010Y-82695295D01*
X134621010Y-82695295D02*
X134621010Y-82838152D01*
X134621010Y-82838152D02*
X134573391Y-82933390D01*
X134573391Y-82933390D02*
X134525772Y-82981009D01*
X134525772Y-82981009D02*
X134430534Y-83028628D01*
X134430534Y-83028628D02*
X134049582Y-83028628D01*
X134954344Y-82504819D02*
X135573391Y-82504819D01*
X135573391Y-82504819D02*
X135240058Y-82885771D01*
X135240058Y-82885771D02*
X135382915Y-82885771D01*
X135382915Y-82885771D02*
X135478153Y-82933390D01*
X135478153Y-82933390D02*
X135525772Y-82981009D01*
X135525772Y-82981009D02*
X135573391Y-83076247D01*
X135573391Y-83076247D02*
X135573391Y-83314342D01*
X135573391Y-83314342D02*
X135525772Y-83409580D01*
X135525772Y-83409580D02*
X135478153Y-83457200D01*
X135478153Y-83457200D02*
X135382915Y-83504819D01*
X135382915Y-83504819D02*
X135097201Y-83504819D01*
X135097201Y-83504819D02*
X135001963Y-83457200D01*
X135001963Y-83457200D02*
X134954344Y-83409580D01*
X176833333Y-90084819D02*
X176500000Y-89608628D01*
X176261905Y-90084819D02*
X176261905Y-89084819D01*
X176261905Y-89084819D02*
X176642857Y-89084819D01*
X176642857Y-89084819D02*
X176738095Y-89132438D01*
X176738095Y-89132438D02*
X176785714Y-89180057D01*
X176785714Y-89180057D02*
X176833333Y-89275295D01*
X176833333Y-89275295D02*
X176833333Y-89418152D01*
X176833333Y-89418152D02*
X176785714Y-89513390D01*
X176785714Y-89513390D02*
X176738095Y-89561009D01*
X176738095Y-89561009D02*
X176642857Y-89608628D01*
X176642857Y-89608628D02*
X176261905Y-89608628D01*
X177690476Y-89084819D02*
X177500000Y-89084819D01*
X177500000Y-89084819D02*
X177404762Y-89132438D01*
X177404762Y-89132438D02*
X177357143Y-89180057D01*
X177357143Y-89180057D02*
X177261905Y-89322914D01*
X177261905Y-89322914D02*
X177214286Y-89513390D01*
X177214286Y-89513390D02*
X177214286Y-89894342D01*
X177214286Y-89894342D02*
X177261905Y-89989580D01*
X177261905Y-89989580D02*
X177309524Y-90037200D01*
X177309524Y-90037200D02*
X177404762Y-90084819D01*
X177404762Y-90084819D02*
X177595238Y-90084819D01*
X177595238Y-90084819D02*
X177690476Y-90037200D01*
X177690476Y-90037200D02*
X177738095Y-89989580D01*
X177738095Y-89989580D02*
X177785714Y-89894342D01*
X177785714Y-89894342D02*
X177785714Y-89656247D01*
X177785714Y-89656247D02*
X177738095Y-89561009D01*
X177738095Y-89561009D02*
X177690476Y-89513390D01*
X177690476Y-89513390D02*
X177595238Y-89465771D01*
X177595238Y-89465771D02*
X177404762Y-89465771D01*
X177404762Y-89465771D02*
X177309524Y-89513390D01*
X177309524Y-89513390D02*
X177261905Y-89561009D01*
X177261905Y-89561009D02*
X177214286Y-89656247D01*
X180400954Y-106459580D02*
X180353335Y-106507200D01*
X180353335Y-106507200D02*
X180210478Y-106554819D01*
X180210478Y-106554819D02*
X180115240Y-106554819D01*
X180115240Y-106554819D02*
X179972383Y-106507200D01*
X179972383Y-106507200D02*
X179877145Y-106411961D01*
X179877145Y-106411961D02*
X179829526Y-106316723D01*
X179829526Y-106316723D02*
X179781907Y-106126247D01*
X179781907Y-106126247D02*
X179781907Y-105983390D01*
X179781907Y-105983390D02*
X179829526Y-105792914D01*
X179829526Y-105792914D02*
X179877145Y-105697676D01*
X179877145Y-105697676D02*
X179972383Y-105602438D01*
X179972383Y-105602438D02*
X180115240Y-105554819D01*
X180115240Y-105554819D02*
X180210478Y-105554819D01*
X180210478Y-105554819D02*
X180353335Y-105602438D01*
X180353335Y-105602438D02*
X180400954Y-105650057D01*
X180734288Y-105554819D02*
X181353335Y-105554819D01*
X181353335Y-105554819D02*
X181020002Y-105935771D01*
X181020002Y-105935771D02*
X181162859Y-105935771D01*
X181162859Y-105935771D02*
X181258097Y-105983390D01*
X181258097Y-105983390D02*
X181305716Y-106031009D01*
X181305716Y-106031009D02*
X181353335Y-106126247D01*
X181353335Y-106126247D02*
X181353335Y-106364342D01*
X181353335Y-106364342D02*
X181305716Y-106459580D01*
X181305716Y-106459580D02*
X181258097Y-106507200D01*
X181258097Y-106507200D02*
X181162859Y-106554819D01*
X181162859Y-106554819D02*
X180877145Y-106554819D01*
X180877145Y-106554819D02*
X180781907Y-106507200D01*
X180781907Y-106507200D02*
X180734288Y-106459580D01*
X104584819Y-75166666D02*
X104108628Y-75499999D01*
X104584819Y-75738094D02*
X103584819Y-75738094D01*
X103584819Y-75738094D02*
X103584819Y-75357142D01*
X103584819Y-75357142D02*
X103632438Y-75261904D01*
X103632438Y-75261904D02*
X103680057Y-75214285D01*
X103680057Y-75214285D02*
X103775295Y-75166666D01*
X103775295Y-75166666D02*
X103918152Y-75166666D01*
X103918152Y-75166666D02*
X104013390Y-75214285D01*
X104013390Y-75214285D02*
X104061009Y-75261904D01*
X104061009Y-75261904D02*
X104108628Y-75357142D01*
X104108628Y-75357142D02*
X104108628Y-75738094D01*
X103680057Y-74785713D02*
X103632438Y-74738094D01*
X103632438Y-74738094D02*
X103584819Y-74642856D01*
X103584819Y-74642856D02*
X103584819Y-74404761D01*
X103584819Y-74404761D02*
X103632438Y-74309523D01*
X103632438Y-74309523D02*
X103680057Y-74261904D01*
X103680057Y-74261904D02*
X103775295Y-74214285D01*
X103775295Y-74214285D02*
X103870533Y-74214285D01*
X103870533Y-74214285D02*
X104013390Y-74261904D01*
X104013390Y-74261904D02*
X104584819Y-74833332D01*
X104584819Y-74833332D02*
X104584819Y-74214285D01*
X176833333Y-67084819D02*
X176500000Y-66608628D01*
X176261905Y-67084819D02*
X176261905Y-66084819D01*
X176261905Y-66084819D02*
X176642857Y-66084819D01*
X176642857Y-66084819D02*
X176738095Y-66132438D01*
X176738095Y-66132438D02*
X176785714Y-66180057D01*
X176785714Y-66180057D02*
X176833333Y-66275295D01*
X176833333Y-66275295D02*
X176833333Y-66418152D01*
X176833333Y-66418152D02*
X176785714Y-66513390D01*
X176785714Y-66513390D02*
X176738095Y-66561009D01*
X176738095Y-66561009D02*
X176642857Y-66608628D01*
X176642857Y-66608628D02*
X176261905Y-66608628D01*
X177738095Y-66084819D02*
X177261905Y-66084819D01*
X177261905Y-66084819D02*
X177214286Y-66561009D01*
X177214286Y-66561009D02*
X177261905Y-66513390D01*
X177261905Y-66513390D02*
X177357143Y-66465771D01*
X177357143Y-66465771D02*
X177595238Y-66465771D01*
X177595238Y-66465771D02*
X177690476Y-66513390D01*
X177690476Y-66513390D02*
X177738095Y-66561009D01*
X177738095Y-66561009D02*
X177785714Y-66656247D01*
X177785714Y-66656247D02*
X177785714Y-66894342D01*
X177785714Y-66894342D02*
X177738095Y-66989580D01*
X177738095Y-66989580D02*
X177690476Y-67037200D01*
X177690476Y-67037200D02*
X177595238Y-67084819D01*
X177595238Y-67084819D02*
X177357143Y-67084819D01*
X177357143Y-67084819D02*
X177261905Y-67037200D01*
X177261905Y-67037200D02*
X177214286Y-66989580D01*
X103753333Y-83504819D02*
X103420000Y-83028628D01*
X103181905Y-83504819D02*
X103181905Y-82504819D01*
X103181905Y-82504819D02*
X103562857Y-82504819D01*
X103562857Y-82504819D02*
X103658095Y-82552438D01*
X103658095Y-82552438D02*
X103705714Y-82600057D01*
X103705714Y-82600057D02*
X103753333Y-82695295D01*
X103753333Y-82695295D02*
X103753333Y-82838152D01*
X103753333Y-82838152D02*
X103705714Y-82933390D01*
X103705714Y-82933390D02*
X103658095Y-82981009D01*
X103658095Y-82981009D02*
X103562857Y-83028628D01*
X103562857Y-83028628D02*
X103181905Y-83028628D01*
X104705714Y-83504819D02*
X104134286Y-83504819D01*
X104420000Y-83504819D02*
X104420000Y-82504819D01*
X104420000Y-82504819D02*
X104324762Y-82647676D01*
X104324762Y-82647676D02*
X104229524Y-82742914D01*
X104229524Y-82742914D02*
X104134286Y-82790533D01*
X118333333Y-79529580D02*
X118285714Y-79577200D01*
X118285714Y-79577200D02*
X118142857Y-79624819D01*
X118142857Y-79624819D02*
X118047619Y-79624819D01*
X118047619Y-79624819D02*
X117904762Y-79577200D01*
X117904762Y-79577200D02*
X117809524Y-79481961D01*
X117809524Y-79481961D02*
X117761905Y-79386723D01*
X117761905Y-79386723D02*
X117714286Y-79196247D01*
X117714286Y-79196247D02*
X117714286Y-79053390D01*
X117714286Y-79053390D02*
X117761905Y-78862914D01*
X117761905Y-78862914D02*
X117809524Y-78767676D01*
X117809524Y-78767676D02*
X117904762Y-78672438D01*
X117904762Y-78672438D02*
X118047619Y-78624819D01*
X118047619Y-78624819D02*
X118142857Y-78624819D01*
X118142857Y-78624819D02*
X118285714Y-78672438D01*
X118285714Y-78672438D02*
X118333333Y-78720057D01*
X119285714Y-79624819D02*
X118714286Y-79624819D01*
X119000000Y-79624819D02*
X119000000Y-78624819D01*
X119000000Y-78624819D02*
X118904762Y-78767676D01*
X118904762Y-78767676D02*
X118809524Y-78862914D01*
X118809524Y-78862914D02*
X118714286Y-78910533D01*
X111753333Y-104744819D02*
X111420000Y-104268628D01*
X111181905Y-104744819D02*
X111181905Y-103744819D01*
X111181905Y-103744819D02*
X111562857Y-103744819D01*
X111562857Y-103744819D02*
X111658095Y-103792438D01*
X111658095Y-103792438D02*
X111705714Y-103840057D01*
X111705714Y-103840057D02*
X111753333Y-103935295D01*
X111753333Y-103935295D02*
X111753333Y-104078152D01*
X111753333Y-104078152D02*
X111705714Y-104173390D01*
X111705714Y-104173390D02*
X111658095Y-104221009D01*
X111658095Y-104221009D02*
X111562857Y-104268628D01*
X111562857Y-104268628D02*
X111181905Y-104268628D01*
X112086667Y-103744819D02*
X112753333Y-103744819D01*
X112753333Y-103744819D02*
X112324762Y-104744819D01*
X160444761Y-95150057D02*
X160349523Y-95102438D01*
X160349523Y-95102438D02*
X160254285Y-95007200D01*
X160254285Y-95007200D02*
X160111428Y-94864342D01*
X160111428Y-94864342D02*
X160016190Y-94816723D01*
X160016190Y-94816723D02*
X159920952Y-94816723D01*
X159968571Y-95054819D02*
X159873333Y-95007200D01*
X159873333Y-95007200D02*
X159778095Y-94911961D01*
X159778095Y-94911961D02*
X159730476Y-94721485D01*
X159730476Y-94721485D02*
X159730476Y-94388152D01*
X159730476Y-94388152D02*
X159778095Y-94197676D01*
X159778095Y-94197676D02*
X159873333Y-94102438D01*
X159873333Y-94102438D02*
X159968571Y-94054819D01*
X159968571Y-94054819D02*
X160159047Y-94054819D01*
X160159047Y-94054819D02*
X160254285Y-94102438D01*
X160254285Y-94102438D02*
X160349523Y-94197676D01*
X160349523Y-94197676D02*
X160397142Y-94388152D01*
X160397142Y-94388152D02*
X160397142Y-94721485D01*
X160397142Y-94721485D02*
X160349523Y-94911961D01*
X160349523Y-94911961D02*
X160254285Y-95007200D01*
X160254285Y-95007200D02*
X160159047Y-95054819D01*
X160159047Y-95054819D02*
X159968571Y-95054819D01*
X160730476Y-94054819D02*
X161349523Y-94054819D01*
X161349523Y-94054819D02*
X161016190Y-94435771D01*
X161016190Y-94435771D02*
X161159047Y-94435771D01*
X161159047Y-94435771D02*
X161254285Y-94483390D01*
X161254285Y-94483390D02*
X161301904Y-94531009D01*
X161301904Y-94531009D02*
X161349523Y-94626247D01*
X161349523Y-94626247D02*
X161349523Y-94864342D01*
X161349523Y-94864342D02*
X161301904Y-94959580D01*
X161301904Y-94959580D02*
X161254285Y-95007200D01*
X161254285Y-95007200D02*
X161159047Y-95054819D01*
X161159047Y-95054819D02*
X160873333Y-95054819D01*
X160873333Y-95054819D02*
X160778095Y-95007200D01*
X160778095Y-95007200D02*
X160730476Y-94959580D01*
X164666666Y-125834819D02*
X164666666Y-126549104D01*
X164666666Y-126549104D02*
X164619047Y-126691961D01*
X164619047Y-126691961D02*
X164523809Y-126787200D01*
X164523809Y-126787200D02*
X164380952Y-126834819D01*
X164380952Y-126834819D02*
X164285714Y-126834819D01*
X165571428Y-126168152D02*
X165571428Y-126834819D01*
X165333333Y-125787200D02*
X165095238Y-126501485D01*
X165095238Y-126501485D02*
X165714285Y-126501485D01*
X179333333Y-75109580D02*
X179285714Y-75157200D01*
X179285714Y-75157200D02*
X179142857Y-75204819D01*
X179142857Y-75204819D02*
X179047619Y-75204819D01*
X179047619Y-75204819D02*
X178904762Y-75157200D01*
X178904762Y-75157200D02*
X178809524Y-75061961D01*
X178809524Y-75061961D02*
X178761905Y-74966723D01*
X178761905Y-74966723D02*
X178714286Y-74776247D01*
X178714286Y-74776247D02*
X178714286Y-74633390D01*
X178714286Y-74633390D02*
X178761905Y-74442914D01*
X178761905Y-74442914D02*
X178809524Y-74347676D01*
X178809524Y-74347676D02*
X178904762Y-74252438D01*
X178904762Y-74252438D02*
X179047619Y-74204819D01*
X179047619Y-74204819D02*
X179142857Y-74204819D01*
X179142857Y-74204819D02*
X179285714Y-74252438D01*
X179285714Y-74252438D02*
X179333333Y-74300057D01*
X179714286Y-74300057D02*
X179761905Y-74252438D01*
X179761905Y-74252438D02*
X179857143Y-74204819D01*
X179857143Y-74204819D02*
X180095238Y-74204819D01*
X180095238Y-74204819D02*
X180190476Y-74252438D01*
X180190476Y-74252438D02*
X180238095Y-74300057D01*
X180238095Y-74300057D02*
X180285714Y-74395295D01*
X180285714Y-74395295D02*
X180285714Y-74490533D01*
X180285714Y-74490533D02*
X180238095Y-74633390D01*
X180238095Y-74633390D02*
X179666667Y-75204819D01*
X179666667Y-75204819D02*
X180285714Y-75204819D01*
X117454761Y-46350057D02*
X117359523Y-46302438D01*
X117359523Y-46302438D02*
X117264285Y-46207200D01*
X117264285Y-46207200D02*
X117121428Y-46064342D01*
X117121428Y-46064342D02*
X117026190Y-46016723D01*
X117026190Y-46016723D02*
X116930952Y-46016723D01*
X116978571Y-46254819D02*
X116883333Y-46207200D01*
X116883333Y-46207200D02*
X116788095Y-46111961D01*
X116788095Y-46111961D02*
X116740476Y-45921485D01*
X116740476Y-45921485D02*
X116740476Y-45588152D01*
X116740476Y-45588152D02*
X116788095Y-45397676D01*
X116788095Y-45397676D02*
X116883333Y-45302438D01*
X116883333Y-45302438D02*
X116978571Y-45254819D01*
X116978571Y-45254819D02*
X117169047Y-45254819D01*
X117169047Y-45254819D02*
X117264285Y-45302438D01*
X117264285Y-45302438D02*
X117359523Y-45397676D01*
X117359523Y-45397676D02*
X117407142Y-45588152D01*
X117407142Y-45588152D02*
X117407142Y-45921485D01*
X117407142Y-45921485D02*
X117359523Y-46111961D01*
X117359523Y-46111961D02*
X117264285Y-46207200D01*
X117264285Y-46207200D02*
X117169047Y-46254819D01*
X117169047Y-46254819D02*
X116978571Y-46254819D01*
X118359523Y-46254819D02*
X117788095Y-46254819D01*
X118073809Y-46254819D02*
X118073809Y-45254819D01*
X118073809Y-45254819D02*
X117978571Y-45397676D01*
X117978571Y-45397676D02*
X117883333Y-45492914D01*
X117883333Y-45492914D02*
X117788095Y-45540533D01*
X145175502Y-55109580D02*
X145127883Y-55157200D01*
X145127883Y-55157200D02*
X144985026Y-55204819D01*
X144985026Y-55204819D02*
X144889788Y-55204819D01*
X144889788Y-55204819D02*
X144746931Y-55157200D01*
X144746931Y-55157200D02*
X144651693Y-55061961D01*
X144651693Y-55061961D02*
X144604074Y-54966723D01*
X144604074Y-54966723D02*
X144556455Y-54776247D01*
X144556455Y-54776247D02*
X144556455Y-54633390D01*
X144556455Y-54633390D02*
X144604074Y-54442914D01*
X144604074Y-54442914D02*
X144651693Y-54347676D01*
X144651693Y-54347676D02*
X144746931Y-54252438D01*
X144746931Y-54252438D02*
X144889788Y-54204819D01*
X144889788Y-54204819D02*
X144985026Y-54204819D01*
X144985026Y-54204819D02*
X145127883Y-54252438D01*
X145127883Y-54252438D02*
X145175502Y-54300057D01*
X146080264Y-54204819D02*
X145604074Y-54204819D01*
X145604074Y-54204819D02*
X145556455Y-54681009D01*
X145556455Y-54681009D02*
X145604074Y-54633390D01*
X145604074Y-54633390D02*
X145699312Y-54585771D01*
X145699312Y-54585771D02*
X145937407Y-54585771D01*
X145937407Y-54585771D02*
X146032645Y-54633390D01*
X146032645Y-54633390D02*
X146080264Y-54681009D01*
X146080264Y-54681009D02*
X146127883Y-54776247D01*
X146127883Y-54776247D02*
X146127883Y-55014342D01*
X146127883Y-55014342D02*
X146080264Y-55109580D01*
X146080264Y-55109580D02*
X146032645Y-55157200D01*
X146032645Y-55157200D02*
X145937407Y-55204819D01*
X145937407Y-55204819D02*
X145699312Y-55204819D01*
X145699312Y-55204819D02*
X145604074Y-55157200D01*
X145604074Y-55157200D02*
X145556455Y-55109580D01*
X166609580Y-119166666D02*
X166657200Y-119214285D01*
X166657200Y-119214285D02*
X166704819Y-119357142D01*
X166704819Y-119357142D02*
X166704819Y-119452380D01*
X166704819Y-119452380D02*
X166657200Y-119595237D01*
X166657200Y-119595237D02*
X166561961Y-119690475D01*
X166561961Y-119690475D02*
X166466723Y-119738094D01*
X166466723Y-119738094D02*
X166276247Y-119785713D01*
X166276247Y-119785713D02*
X166133390Y-119785713D01*
X166133390Y-119785713D02*
X165942914Y-119738094D01*
X165942914Y-119738094D02*
X165847676Y-119690475D01*
X165847676Y-119690475D02*
X165752438Y-119595237D01*
X165752438Y-119595237D02*
X165704819Y-119452380D01*
X165704819Y-119452380D02*
X165704819Y-119357142D01*
X165704819Y-119357142D02*
X165752438Y-119214285D01*
X165752438Y-119214285D02*
X165800057Y-119166666D01*
X166038152Y-118309523D02*
X166704819Y-118309523D01*
X165657200Y-118547618D02*
X166371485Y-118785713D01*
X166371485Y-118785713D02*
X166371485Y-118166666D01*
X131753333Y-111004819D02*
X131420000Y-110528628D01*
X131181905Y-111004819D02*
X131181905Y-110004819D01*
X131181905Y-110004819D02*
X131562857Y-110004819D01*
X131562857Y-110004819D02*
X131658095Y-110052438D01*
X131658095Y-110052438D02*
X131705714Y-110100057D01*
X131705714Y-110100057D02*
X131753333Y-110195295D01*
X131753333Y-110195295D02*
X131753333Y-110338152D01*
X131753333Y-110338152D02*
X131705714Y-110433390D01*
X131705714Y-110433390D02*
X131658095Y-110481009D01*
X131658095Y-110481009D02*
X131562857Y-110528628D01*
X131562857Y-110528628D02*
X131181905Y-110528628D01*
X132324762Y-110433390D02*
X132229524Y-110385771D01*
X132229524Y-110385771D02*
X132181905Y-110338152D01*
X132181905Y-110338152D02*
X132134286Y-110242914D01*
X132134286Y-110242914D02*
X132134286Y-110195295D01*
X132134286Y-110195295D02*
X132181905Y-110100057D01*
X132181905Y-110100057D02*
X132229524Y-110052438D01*
X132229524Y-110052438D02*
X132324762Y-110004819D01*
X132324762Y-110004819D02*
X132515238Y-110004819D01*
X132515238Y-110004819D02*
X132610476Y-110052438D01*
X132610476Y-110052438D02*
X132658095Y-110100057D01*
X132658095Y-110100057D02*
X132705714Y-110195295D01*
X132705714Y-110195295D02*
X132705714Y-110242914D01*
X132705714Y-110242914D02*
X132658095Y-110338152D01*
X132658095Y-110338152D02*
X132610476Y-110385771D01*
X132610476Y-110385771D02*
X132515238Y-110433390D01*
X132515238Y-110433390D02*
X132324762Y-110433390D01*
X132324762Y-110433390D02*
X132229524Y-110481009D01*
X132229524Y-110481009D02*
X132181905Y-110528628D01*
X132181905Y-110528628D02*
X132134286Y-110623866D01*
X132134286Y-110623866D02*
X132134286Y-110814342D01*
X132134286Y-110814342D02*
X132181905Y-110909580D01*
X132181905Y-110909580D02*
X132229524Y-110957200D01*
X132229524Y-110957200D02*
X132324762Y-111004819D01*
X132324762Y-111004819D02*
X132515238Y-111004819D01*
X132515238Y-111004819D02*
X132610476Y-110957200D01*
X132610476Y-110957200D02*
X132658095Y-110909580D01*
X132658095Y-110909580D02*
X132705714Y-110814342D01*
X132705714Y-110814342D02*
X132705714Y-110623866D01*
X132705714Y-110623866D02*
X132658095Y-110528628D01*
X132658095Y-110528628D02*
X132610476Y-110481009D01*
X132610476Y-110481009D02*
X132515238Y-110433390D01*
X150404761Y-100850057D02*
X150309523Y-100802438D01*
X150309523Y-100802438D02*
X150214285Y-100707200D01*
X150214285Y-100707200D02*
X150071428Y-100564342D01*
X150071428Y-100564342D02*
X149976190Y-100516723D01*
X149976190Y-100516723D02*
X149880952Y-100516723D01*
X149928571Y-100754819D02*
X149833333Y-100707200D01*
X149833333Y-100707200D02*
X149738095Y-100611961D01*
X149738095Y-100611961D02*
X149690476Y-100421485D01*
X149690476Y-100421485D02*
X149690476Y-100088152D01*
X149690476Y-100088152D02*
X149738095Y-99897676D01*
X149738095Y-99897676D02*
X149833333Y-99802438D01*
X149833333Y-99802438D02*
X149928571Y-99754819D01*
X149928571Y-99754819D02*
X150119047Y-99754819D01*
X150119047Y-99754819D02*
X150214285Y-99802438D01*
X150214285Y-99802438D02*
X150309523Y-99897676D01*
X150309523Y-99897676D02*
X150357142Y-100088152D01*
X150357142Y-100088152D02*
X150357142Y-100421485D01*
X150357142Y-100421485D02*
X150309523Y-100611961D01*
X150309523Y-100611961D02*
X150214285Y-100707200D01*
X150214285Y-100707200D02*
X150119047Y-100754819D01*
X150119047Y-100754819D02*
X149928571Y-100754819D01*
X151214285Y-100088152D02*
X151214285Y-100754819D01*
X150976190Y-99707200D02*
X150738095Y-100421485D01*
X150738095Y-100421485D02*
X151357142Y-100421485D01*
X176753333Y-97084819D02*
X176420000Y-96608628D01*
X176181905Y-97084819D02*
X176181905Y-96084819D01*
X176181905Y-96084819D02*
X176562857Y-96084819D01*
X176562857Y-96084819D02*
X176658095Y-96132438D01*
X176658095Y-96132438D02*
X176705714Y-96180057D01*
X176705714Y-96180057D02*
X176753333Y-96275295D01*
X176753333Y-96275295D02*
X176753333Y-96418152D01*
X176753333Y-96418152D02*
X176705714Y-96513390D01*
X176705714Y-96513390D02*
X176658095Y-96561009D01*
X176658095Y-96561009D02*
X176562857Y-96608628D01*
X176562857Y-96608628D02*
X176181905Y-96608628D01*
X177229524Y-97084819D02*
X177420000Y-97084819D01*
X177420000Y-97084819D02*
X177515238Y-97037200D01*
X177515238Y-97037200D02*
X177562857Y-96989580D01*
X177562857Y-96989580D02*
X177658095Y-96846723D01*
X177658095Y-96846723D02*
X177705714Y-96656247D01*
X177705714Y-96656247D02*
X177705714Y-96275295D01*
X177705714Y-96275295D02*
X177658095Y-96180057D01*
X177658095Y-96180057D02*
X177610476Y-96132438D01*
X177610476Y-96132438D02*
X177515238Y-96084819D01*
X177515238Y-96084819D02*
X177324762Y-96084819D01*
X177324762Y-96084819D02*
X177229524Y-96132438D01*
X177229524Y-96132438D02*
X177181905Y-96180057D01*
X177181905Y-96180057D02*
X177134286Y-96275295D01*
X177134286Y-96275295D02*
X177134286Y-96513390D01*
X177134286Y-96513390D02*
X177181905Y-96608628D01*
X177181905Y-96608628D02*
X177229524Y-96656247D01*
X177229524Y-96656247D02*
X177324762Y-96703866D01*
X177324762Y-96703866D02*
X177515238Y-96703866D01*
X177515238Y-96703866D02*
X177610476Y-96656247D01*
X177610476Y-96656247D02*
X177658095Y-96608628D01*
X177658095Y-96608628D02*
X177705714Y-96513390D01*
D12*
%TO.C,Q2*%
X149890000Y-46990000D02*
X153040000Y-46990000D01*
X149890000Y-49100000D02*
X153040000Y-49100000D01*
X149890000Y-52210000D02*
X149890000Y-46990000D01*
X156060000Y-46990000D02*
X158490000Y-46990000D01*
X156060000Y-49100000D02*
X158490000Y-49100000D01*
X158350000Y-46990000D02*
X158350000Y-49100000D01*
X161510000Y-46990000D02*
X163940000Y-46990000D01*
X161510000Y-49100000D02*
X163940000Y-49100000D01*
X161650000Y-46990000D02*
X161650000Y-49100000D01*
X166960000Y-46990000D02*
X170110000Y-46990000D01*
X166960000Y-49100000D02*
X170110000Y-49100000D01*
X170110000Y-46990000D02*
X170110000Y-52210000D01*
X170110000Y-52210000D02*
X149890000Y-52210000D01*
%TO.C,R4*%
X154960000Y-81000000D02*
X155730000Y-81000000D01*
X163040000Y-81000000D02*
X162270000Y-81000000D01*
X155730000Y-79630000D02*
X162270000Y-79630000D01*
X162270000Y-82370000D01*
X155730000Y-82370000D01*
X155730000Y-79630000D01*
%TO.C,J3*%
X135880000Y-126497500D02*
X146120000Y-126497500D01*
X135880000Y-132617500D02*
X136520000Y-132617500D01*
X135880000Y-139237500D02*
X135880000Y-126497500D01*
X137150000Y-138617500D02*
X137150000Y-134597500D01*
X138200000Y-139237500D02*
X135880000Y-139237500D01*
X139850000Y-134597500D02*
X139850000Y-138617500D01*
X139850000Y-138617500D02*
X137150000Y-138617500D01*
X140480000Y-132617500D02*
X141520000Y-132617500D01*
X142150000Y-138617500D02*
X142150000Y-134065500D01*
X144850000Y-134065500D02*
X144850000Y-138617500D01*
X144850000Y-138617500D02*
X142150000Y-138617500D01*
X145480000Y-132617500D02*
X146120000Y-132617500D01*
X146120000Y-126497500D02*
X146120000Y-139237500D01*
X146120000Y-139237500D02*
X138800000Y-139237500D01*
X136750000Y-128117500D02*
G75*
G02*
X140250000Y-128117500I1750000J-459259D01*
G01*
X140250000Y-128117500D02*
G75*
G02*
X136750000Y-128117500I-1750000J459259D01*
G01*
X141750000Y-128117500D02*
G75*
G02*
X145250000Y-128117500I1750000J-459259D01*
G01*
X145250000Y-128117500D02*
G75*
G02*
X141750000Y-128117500I-1750000J459259D01*
G01*
X138940000Y-139847500D02*
X138060000Y-139847500D01*
X138500000Y-139237500D01*
X138940000Y-139847500D01*
G36*
X138940000Y-139847500D02*
G01*
X138060000Y-139847500D01*
X138500000Y-139237500D01*
X138940000Y-139847500D01*
G37*
%TO.C,J2*%
X110380000Y-126497500D02*
X120620000Y-126497500D01*
X110380000Y-132617500D02*
X111020000Y-132617500D01*
X110380000Y-139237500D02*
X110380000Y-126497500D01*
X111650000Y-138617500D02*
X111650000Y-134597500D01*
X112700000Y-139237500D02*
X110380000Y-139237500D01*
X114350000Y-134597500D02*
X114350000Y-138617500D01*
X114350000Y-138617500D02*
X111650000Y-138617500D01*
X114980000Y-132617500D02*
X116020000Y-132617500D01*
X116650000Y-138617500D02*
X116650000Y-134065500D01*
X119350000Y-134065500D02*
X119350000Y-138617500D01*
X119350000Y-138617500D02*
X116650000Y-138617500D01*
X119980000Y-132617500D02*
X120620000Y-132617500D01*
X120620000Y-126497500D02*
X120620000Y-139237500D01*
X120620000Y-139237500D02*
X113300000Y-139237500D01*
X111250000Y-128117500D02*
G75*
G02*
X114750000Y-128117500I1750000J-459259D01*
G01*
X114750000Y-128117500D02*
G75*
G02*
X111250000Y-128117500I-1750000J459259D01*
G01*
X116250000Y-128117500D02*
G75*
G02*
X119750000Y-128117500I1750000J-459259D01*
G01*
X119750000Y-128117500D02*
G75*
G02*
X116250000Y-128117500I-1750000J459259D01*
G01*
X113440000Y-139847500D02*
X112560000Y-139847500D01*
X113000000Y-139237500D01*
X113440000Y-139847500D01*
G36*
X113440000Y-139847500D02*
G01*
X112560000Y-139847500D01*
X113000000Y-139237500D01*
X113440000Y-139847500D01*
G37*
%TO.C,R3*%
X130747677Y-85420000D02*
X131517677Y-85420000D01*
X138827677Y-85420000D02*
X138057677Y-85420000D01*
X131517677Y-84050000D02*
X138057677Y-84050000D01*
X138057677Y-86790000D01*
X131517677Y-86790000D01*
X131517677Y-84050000D01*
%TO.C,R6*%
X172960000Y-92000000D02*
X173730000Y-92000000D01*
X181040000Y-92000000D02*
X180270000Y-92000000D01*
X173730000Y-90630000D02*
X180270000Y-90630000D01*
X180270000Y-93370000D01*
X173730000Y-93370000D01*
X173730000Y-90630000D01*
%TO.C,C3*%
X177067380Y-108661000D02*
X177697380Y-108661000D01*
X177382380Y-108346000D02*
X177382380Y-108976000D01*
X180567621Y-107270000D02*
X180567621Y-113730000D01*
X180607621Y-107270000D02*
X180607621Y-113730000D01*
X180647621Y-107271000D02*
X180647621Y-113729000D01*
X180687621Y-107272000D02*
X180687621Y-113728000D01*
X180727621Y-107274000D02*
X180727621Y-113726000D01*
X180767621Y-107276000D02*
X180767621Y-113724000D01*
X180807621Y-107279000D02*
X180807621Y-109460000D01*
X180807621Y-111540000D02*
X180807621Y-113721000D01*
X180847621Y-107282000D02*
X180847621Y-109460000D01*
X180847621Y-111540000D02*
X180847621Y-113718000D01*
X180887621Y-107286000D02*
X180887621Y-109460000D01*
X180887621Y-111540000D02*
X180887621Y-113714000D01*
X180927621Y-107290000D02*
X180927621Y-109460000D01*
X180927621Y-111540000D02*
X180927621Y-113710000D01*
X180967621Y-107295000D02*
X180967621Y-109460000D01*
X180967621Y-111540000D02*
X180967621Y-113705000D01*
X181007621Y-107300000D02*
X181007621Y-109460000D01*
X181007621Y-111540000D02*
X181007621Y-113700000D01*
X181047621Y-107305000D02*
X181047621Y-109460000D01*
X181047621Y-111540000D02*
X181047621Y-113695000D01*
X181087621Y-107312000D02*
X181087621Y-109460000D01*
X181087621Y-111540000D02*
X181087621Y-113688000D01*
X181127621Y-107318000D02*
X181127621Y-109460000D01*
X181127621Y-111540000D02*
X181127621Y-113682000D01*
X181167621Y-107326000D02*
X181167621Y-109460000D01*
X181167621Y-111540000D02*
X181167621Y-113674000D01*
X181207621Y-107333000D02*
X181207621Y-109460000D01*
X181207621Y-111540000D02*
X181207621Y-113667000D01*
X181247621Y-107341000D02*
X181247621Y-109460000D01*
X181247621Y-111540000D02*
X181247621Y-113659000D01*
X181287621Y-107350000D02*
X181287621Y-109460000D01*
X181287621Y-111540000D02*
X181287621Y-113650000D01*
X181327621Y-107360000D02*
X181327621Y-109460000D01*
X181327621Y-111540000D02*
X181327621Y-113640000D01*
X181367621Y-107369000D02*
X181367621Y-109460000D01*
X181367621Y-111540000D02*
X181367621Y-113631000D01*
X181407621Y-107380000D02*
X181407621Y-109460000D01*
X181407621Y-111540000D02*
X181407621Y-113620000D01*
X181447621Y-107391000D02*
X181447621Y-109460000D01*
X181447621Y-111540000D02*
X181447621Y-113609000D01*
X181487621Y-107402000D02*
X181487621Y-109460000D01*
X181487621Y-111540000D02*
X181487621Y-113598000D01*
X181527621Y-107414000D02*
X181527621Y-109460000D01*
X181527621Y-111540000D02*
X181527621Y-113586000D01*
X181567621Y-107427000D02*
X181567621Y-109460000D01*
X181567621Y-111540000D02*
X181567621Y-113573000D01*
X181607621Y-107440000D02*
X181607621Y-109460000D01*
X181607621Y-111540000D02*
X181607621Y-113560000D01*
X181647621Y-107453000D02*
X181647621Y-109460000D01*
X181647621Y-111540000D02*
X181647621Y-113547000D01*
X181687621Y-107468000D02*
X181687621Y-109460000D01*
X181687621Y-111540000D02*
X181687621Y-113532000D01*
X181727621Y-107483000D02*
X181727621Y-109460000D01*
X181727621Y-111540000D02*
X181727621Y-113517000D01*
X181767621Y-107498000D02*
X181767621Y-109460000D01*
X181767621Y-111540000D02*
X181767621Y-113502000D01*
X181807621Y-107514000D02*
X181807621Y-109460000D01*
X181807621Y-111540000D02*
X181807621Y-113486000D01*
X181847621Y-107531000D02*
X181847621Y-109460000D01*
X181847621Y-111540000D02*
X181847621Y-113469000D01*
X181887621Y-107548000D02*
X181887621Y-109460000D01*
X181887621Y-111540000D02*
X181887621Y-113452000D01*
X181927621Y-107566000D02*
X181927621Y-109460000D01*
X181927621Y-111540000D02*
X181927621Y-113434000D01*
X181967621Y-107585000D02*
X181967621Y-109460000D01*
X181967621Y-111540000D02*
X181967621Y-113415000D01*
X182007621Y-107604000D02*
X182007621Y-109460000D01*
X182007621Y-111540000D02*
X182007621Y-113396000D01*
X182047621Y-107624000D02*
X182047621Y-109460000D01*
X182047621Y-111540000D02*
X182047621Y-113376000D01*
X182087621Y-107645000D02*
X182087621Y-109460000D01*
X182087621Y-111540000D02*
X182087621Y-113355000D01*
X182127621Y-107666000D02*
X182127621Y-109460000D01*
X182127621Y-111540000D02*
X182127621Y-113334000D01*
X182167621Y-107688000D02*
X182167621Y-109460000D01*
X182167621Y-111540000D02*
X182167621Y-113312000D01*
X182207621Y-107711000D02*
X182207621Y-109460000D01*
X182207621Y-111540000D02*
X182207621Y-113289000D01*
X182247621Y-107735000D02*
X182247621Y-109460000D01*
X182247621Y-111540000D02*
X182247621Y-113265000D01*
X182287621Y-107759000D02*
X182287621Y-109460000D01*
X182287621Y-111540000D02*
X182287621Y-113241000D01*
X182327621Y-107784000D02*
X182327621Y-109460000D01*
X182327621Y-111540000D02*
X182327621Y-113216000D01*
X182367621Y-107810000D02*
X182367621Y-109460000D01*
X182367621Y-111540000D02*
X182367621Y-113190000D01*
X182407621Y-107837000D02*
X182407621Y-109460000D01*
X182407621Y-111540000D02*
X182407621Y-113163000D01*
X182447621Y-107864000D02*
X182447621Y-109460000D01*
X182447621Y-111540000D02*
X182447621Y-113136000D01*
X182487621Y-107893000D02*
X182487621Y-109460000D01*
X182487621Y-111540000D02*
X182487621Y-113107000D01*
X182527621Y-107923000D02*
X182527621Y-109460000D01*
X182527621Y-111540000D02*
X182527621Y-113077000D01*
X182567621Y-107953000D02*
X182567621Y-109460000D01*
X182567621Y-111540000D02*
X182567621Y-113047000D01*
X182607621Y-107984000D02*
X182607621Y-109460000D01*
X182607621Y-111540000D02*
X182607621Y-113016000D01*
X182647621Y-108017000D02*
X182647621Y-109460000D01*
X182647621Y-111540000D02*
X182647621Y-112983000D01*
X182687621Y-108050000D02*
X182687621Y-109460000D01*
X182687621Y-111540000D02*
X182687621Y-112950000D01*
X182727621Y-108085000D02*
X182727621Y-109460000D01*
X182727621Y-111540000D02*
X182727621Y-112915000D01*
X182767621Y-108121000D02*
X182767621Y-109460000D01*
X182767621Y-111540000D02*
X182767621Y-112879000D01*
X182807621Y-108158000D02*
X182807621Y-109460000D01*
X182807621Y-111540000D02*
X182807621Y-112842000D01*
X182847621Y-108196000D02*
X182847621Y-109460000D01*
X182847621Y-111540000D02*
X182847621Y-112804000D01*
X182887621Y-108236000D02*
X182887621Y-112764000D01*
X182927621Y-108277000D02*
X182927621Y-112723000D01*
X182967621Y-108319000D02*
X182967621Y-112681000D01*
X183007621Y-108363000D02*
X183007621Y-112637000D01*
X183047621Y-108409000D02*
X183047621Y-112591000D01*
X183087621Y-108456000D02*
X183087621Y-112544000D01*
X183127621Y-108505000D02*
X183127621Y-112495000D01*
X183167621Y-108557000D02*
X183167621Y-112443000D01*
X183207621Y-108610000D02*
X183207621Y-112390000D01*
X183247621Y-108666000D02*
X183247621Y-112334000D01*
X183287621Y-108725000D02*
X183287621Y-112275000D01*
X183327621Y-108786000D02*
X183327621Y-112214000D01*
X183367621Y-108851000D02*
X183367621Y-112149000D01*
X183407621Y-108919000D02*
X183407621Y-112081000D01*
X183447621Y-108991000D02*
X183447621Y-112009000D01*
X183487621Y-109068000D02*
X183487621Y-111932000D01*
X183527621Y-109150000D02*
X183527621Y-111850000D01*
X183567621Y-109239000D02*
X183567621Y-111761000D01*
X183607621Y-109335000D02*
X183607621Y-111665000D01*
X183647621Y-109442000D02*
X183647621Y-111558000D01*
X183687621Y-109561000D02*
X183687621Y-111439000D01*
X183727621Y-109699000D02*
X183727621Y-111301000D01*
X183767621Y-109867000D02*
X183767621Y-111133000D01*
X183807621Y-110098000D02*
X183807621Y-110902000D01*
X183837621Y-110500000D02*
G75*
G02*
X177297621Y-110500000I-3270000J0D01*
G01*
X177297621Y-110500000D02*
G75*
G02*
X183837621Y-110500000I3270000J0D01*
G01*
%TO.C,R2*%
X106500000Y-70960000D02*
X106500000Y-71730000D01*
X106500000Y-79040000D02*
X106500000Y-78270000D01*
X105130000Y-78270000D02*
X107870000Y-78270000D01*
X107870000Y-71730000D01*
X105130000Y-71730000D01*
X105130000Y-78270000D01*
%TO.C,R5*%
X172960000Y-69000000D02*
X173730000Y-69000000D01*
X181040000Y-69000000D02*
X180270000Y-69000000D01*
X173730000Y-67630000D02*
X180270000Y-67630000D01*
X180270000Y-70370000D01*
X173730000Y-70370000D01*
X173730000Y-67630000D01*
%TO.C,R1*%
X99880000Y-85420000D02*
X100650000Y-85420000D01*
X107960000Y-85420000D02*
X107190000Y-85420000D01*
X100650000Y-84050000D02*
X107190000Y-84050000D01*
X107190000Y-86790000D01*
X100650000Y-86790000D01*
X100650000Y-84050000D01*
%TO.C,C1*%
X113020354Y-82545000D02*
X114020354Y-82545000D01*
X113520354Y-82045000D02*
X113520354Y-83045000D01*
X118500000Y-80340000D02*
X118500000Y-90500000D01*
X118540000Y-80340000D02*
X118540000Y-90500000D01*
X118580000Y-80341000D02*
X118580000Y-90499000D01*
X118620000Y-80341000D02*
X118620000Y-90499000D01*
X118660000Y-80343000D02*
X118660000Y-90497000D01*
X118700000Y-80344000D02*
X118700000Y-90496000D01*
X118740000Y-80346000D02*
X118740000Y-90494000D01*
X118780000Y-80348000D02*
X118780000Y-90492000D01*
X118820000Y-80350000D02*
X118820000Y-90490000D01*
X118860000Y-80353000D02*
X118860000Y-90487000D01*
X118900000Y-80356000D02*
X118900000Y-90484000D01*
X118940000Y-80359000D02*
X118940000Y-90481000D01*
X118980000Y-80363000D02*
X118980000Y-90477000D01*
X119020000Y-80366000D02*
X119020000Y-90474000D01*
X119060000Y-80371000D02*
X119060000Y-90469000D01*
X119100000Y-80375000D02*
X119100000Y-90465000D01*
X119140000Y-80380000D02*
X119140000Y-90460000D01*
X119180000Y-80385000D02*
X119180000Y-90455000D01*
X119220000Y-80391000D02*
X119220000Y-90449000D01*
X119260000Y-80397000D02*
X119260000Y-90443000D01*
X119300000Y-80403000D02*
X119300000Y-90437000D01*
X119340000Y-80409000D02*
X119340000Y-90431000D01*
X119380000Y-80416000D02*
X119380000Y-90424000D01*
X119420000Y-80423000D02*
X119420000Y-90417000D01*
X119460000Y-80431000D02*
X119460000Y-90409000D01*
X119500000Y-80439000D02*
X119500000Y-90401000D01*
X119540000Y-80447000D02*
X119540000Y-90393000D01*
X119580000Y-80455000D02*
X119580000Y-90385000D01*
X119620000Y-80464000D02*
X119620000Y-90376000D01*
X119660000Y-80473000D02*
X119660000Y-90367000D01*
X119700000Y-80483000D02*
X119700000Y-90357000D01*
X119740000Y-80492000D02*
X119740000Y-90348000D01*
X119780000Y-80503000D02*
X119780000Y-84180000D01*
X119780000Y-86660000D02*
X119780000Y-90337000D01*
X119820000Y-80513000D02*
X119820000Y-84180000D01*
X119820000Y-86660000D02*
X119820000Y-90327000D01*
X119860000Y-80524000D02*
X119860000Y-84180000D01*
X119860000Y-86660000D02*
X119860000Y-90316000D01*
X119900000Y-80535000D02*
X119900000Y-84180000D01*
X119900000Y-86660000D02*
X119900000Y-90305000D01*
X119940000Y-80547000D02*
X119940000Y-84180000D01*
X119940000Y-86660000D02*
X119940000Y-90293000D01*
X119980000Y-80559000D02*
X119980000Y-84180000D01*
X119980000Y-86660000D02*
X119980000Y-90281000D01*
X120020000Y-80571000D02*
X120020000Y-84180000D01*
X120020000Y-86660000D02*
X120020000Y-90269000D01*
X120060000Y-80583000D02*
X120060000Y-84180000D01*
X120060000Y-86660000D02*
X120060000Y-90257000D01*
X120100000Y-80596000D02*
X120100000Y-84180000D01*
X120100000Y-86660000D02*
X120100000Y-90244000D01*
X120140000Y-80610000D02*
X120140000Y-84180000D01*
X120140000Y-86660000D02*
X120140000Y-90230000D01*
X120180000Y-80623000D02*
X120180000Y-84180000D01*
X120180000Y-86660000D02*
X120180000Y-90217000D01*
X120220000Y-80638000D02*
X120220000Y-84180000D01*
X120220000Y-86660000D02*
X120220000Y-90202000D01*
X120260000Y-80652000D02*
X120260000Y-84180000D01*
X120260000Y-86660000D02*
X120260000Y-90188000D01*
X120300000Y-80667000D02*
X120300000Y-84180000D01*
X120300000Y-86660000D02*
X120300000Y-90173000D01*
X120340000Y-80682000D02*
X120340000Y-84180000D01*
X120340000Y-86660000D02*
X120340000Y-90158000D01*
X120380000Y-80698000D02*
X120380000Y-84180000D01*
X120380000Y-86660000D02*
X120380000Y-90142000D01*
X120420000Y-80714000D02*
X120420000Y-84180000D01*
X120420000Y-86660000D02*
X120420000Y-90126000D01*
X120460000Y-80730000D02*
X120460000Y-84180000D01*
X120460000Y-86660000D02*
X120460000Y-90110000D01*
X120500000Y-80747000D02*
X120500000Y-84180000D01*
X120500000Y-86660000D02*
X120500000Y-90093000D01*
X120540000Y-80764000D02*
X120540000Y-84180000D01*
X120540000Y-86660000D02*
X120540000Y-90076000D01*
X120580000Y-80782000D02*
X120580000Y-84180000D01*
X120580000Y-86660000D02*
X120580000Y-90058000D01*
X120620000Y-80800000D02*
X120620000Y-84180000D01*
X120620000Y-86660000D02*
X120620000Y-90040000D01*
X120660000Y-80818000D02*
X120660000Y-84180000D01*
X120660000Y-86660000D02*
X120660000Y-90022000D01*
X120700000Y-80837000D02*
X120700000Y-84180000D01*
X120700000Y-86660000D02*
X120700000Y-90003000D01*
X120740000Y-80856000D02*
X120740000Y-84180000D01*
X120740000Y-86660000D02*
X120740000Y-89984000D01*
X120780000Y-80876000D02*
X120780000Y-84180000D01*
X120780000Y-86660000D02*
X120780000Y-89964000D01*
X120820000Y-80896000D02*
X120820000Y-84180000D01*
X120820000Y-86660000D02*
X120820000Y-89944000D01*
X120860000Y-80916000D02*
X120860000Y-84180000D01*
X120860000Y-86660000D02*
X120860000Y-89924000D01*
X120900000Y-80937000D02*
X120900000Y-84180000D01*
X120900000Y-86660000D02*
X120900000Y-89903000D01*
X120940000Y-80959000D02*
X120940000Y-84180000D01*
X120940000Y-86660000D02*
X120940000Y-89881000D01*
X120980000Y-80981000D02*
X120980000Y-84180000D01*
X120980000Y-86660000D02*
X120980000Y-89859000D01*
X121020000Y-81003000D02*
X121020000Y-84180000D01*
X121020000Y-86660000D02*
X121020000Y-89837000D01*
X121060000Y-81026000D02*
X121060000Y-84180000D01*
X121060000Y-86660000D02*
X121060000Y-89814000D01*
X121100000Y-81049000D02*
X121100000Y-84180000D01*
X121100000Y-86660000D02*
X121100000Y-89791000D01*
X121140000Y-81073000D02*
X121140000Y-84180000D01*
X121140000Y-86660000D02*
X121140000Y-89767000D01*
X121180000Y-81097000D02*
X121180000Y-84180000D01*
X121180000Y-86660000D02*
X121180000Y-89743000D01*
X121220000Y-81122000D02*
X121220000Y-84180000D01*
X121220000Y-86660000D02*
X121220000Y-89718000D01*
X121260000Y-81148000D02*
X121260000Y-84180000D01*
X121260000Y-86660000D02*
X121260000Y-89692000D01*
X121300000Y-81173000D02*
X121300000Y-84180000D01*
X121300000Y-86660000D02*
X121300000Y-89667000D01*
X121340000Y-81200000D02*
X121340000Y-84180000D01*
X121340000Y-86660000D02*
X121340000Y-89640000D01*
X121380000Y-81227000D02*
X121380000Y-84180000D01*
X121380000Y-86660000D02*
X121380000Y-89613000D01*
X121420000Y-81254000D02*
X121420000Y-84180000D01*
X121420000Y-86660000D02*
X121420000Y-89586000D01*
X121460000Y-81282000D02*
X121460000Y-84180000D01*
X121460000Y-86660000D02*
X121460000Y-89558000D01*
X121500000Y-81311000D02*
X121500000Y-84180000D01*
X121500000Y-86660000D02*
X121500000Y-89529000D01*
X121540000Y-81340000D02*
X121540000Y-84180000D01*
X121540000Y-86660000D02*
X121540000Y-89500000D01*
X121580000Y-81370000D02*
X121580000Y-84180000D01*
X121580000Y-86660000D02*
X121580000Y-89470000D01*
X121620000Y-81400000D02*
X121620000Y-84180000D01*
X121620000Y-86660000D02*
X121620000Y-89440000D01*
X121660000Y-81432000D02*
X121660000Y-84180000D01*
X121660000Y-86660000D02*
X121660000Y-89408000D01*
X121700000Y-81463000D02*
X121700000Y-84180000D01*
X121700000Y-86660000D02*
X121700000Y-89377000D01*
X121740000Y-81496000D02*
X121740000Y-84180000D01*
X121740000Y-86660000D02*
X121740000Y-89344000D01*
X121780000Y-81529000D02*
X121780000Y-84180000D01*
X121780000Y-86660000D02*
X121780000Y-89311000D01*
X121820000Y-81562000D02*
X121820000Y-84180000D01*
X121820000Y-86660000D02*
X121820000Y-89278000D01*
X121860000Y-81597000D02*
X121860000Y-84180000D01*
X121860000Y-86660000D02*
X121860000Y-89243000D01*
X121900000Y-81632000D02*
X121900000Y-84180000D01*
X121900000Y-86660000D02*
X121900000Y-89208000D01*
X121940000Y-81668000D02*
X121940000Y-84180000D01*
X121940000Y-86660000D02*
X121940000Y-89172000D01*
X121980000Y-81704000D02*
X121980000Y-84180000D01*
X121980000Y-86660000D02*
X121980000Y-89136000D01*
X122020000Y-81742000D02*
X122020000Y-84180000D01*
X122020000Y-86660000D02*
X122020000Y-89098000D01*
X122060000Y-81780000D02*
X122060000Y-84180000D01*
X122060000Y-86660000D02*
X122060000Y-89060000D01*
X122100000Y-81819000D02*
X122100000Y-84180000D01*
X122100000Y-86660000D02*
X122100000Y-89021000D01*
X122140000Y-81859000D02*
X122140000Y-84180000D01*
X122140000Y-86660000D02*
X122140000Y-88981000D01*
X122180000Y-81900000D02*
X122180000Y-84180000D01*
X122180000Y-86660000D02*
X122180000Y-88940000D01*
X122220000Y-81942000D02*
X122220000Y-84180000D01*
X122220000Y-86660000D02*
X122220000Y-88898000D01*
X122260000Y-81985000D02*
X122260000Y-88855000D01*
X122300000Y-82029000D02*
X122300000Y-88811000D01*
X122340000Y-82073000D02*
X122340000Y-88767000D01*
X122380000Y-82119000D02*
X122380000Y-88721000D01*
X122420000Y-82166000D02*
X122420000Y-88674000D01*
X122460000Y-82215000D02*
X122460000Y-88625000D01*
X122500000Y-82264000D02*
X122500000Y-88576000D01*
X122540000Y-82315000D02*
X122540000Y-88525000D01*
X122580000Y-82367000D02*
X122580000Y-88473000D01*
X122620000Y-82420000D02*
X122620000Y-88420000D01*
X122660000Y-82475000D02*
X122660000Y-88365000D01*
X122700000Y-82532000D02*
X122700000Y-88308000D01*
X122740000Y-82590000D02*
X122740000Y-88250000D01*
X122780000Y-82650000D02*
X122780000Y-88190000D01*
X122820000Y-82712000D02*
X122820000Y-88128000D01*
X122860000Y-82776000D02*
X122860000Y-88064000D01*
X122900000Y-82842000D02*
X122900000Y-87998000D01*
X122940000Y-82910000D02*
X122940000Y-87930000D01*
X122980000Y-82981000D02*
X122980000Y-87859000D01*
X123020000Y-83055000D02*
X123020000Y-87785000D01*
X123060000Y-83132000D02*
X123060000Y-87708000D01*
X123100000Y-83212000D02*
X123100000Y-87628000D01*
X123140000Y-83296000D02*
X123140000Y-87544000D01*
X123180000Y-83383000D02*
X123180000Y-87457000D01*
X123220000Y-83476000D02*
X123220000Y-87364000D01*
X123260000Y-83574000D02*
X123260000Y-87266000D01*
X123300000Y-83678000D02*
X123300000Y-87162000D01*
X123340000Y-83790000D02*
X123340000Y-87050000D01*
X123380000Y-83911000D02*
X123380000Y-86929000D01*
X123420000Y-84043000D02*
X123420000Y-86797000D01*
X123460000Y-84190000D02*
X123460000Y-86650000D01*
X123500000Y-84358000D02*
X123500000Y-86482000D01*
X123540000Y-84558000D02*
X123540000Y-86282000D01*
X123580000Y-84821000D02*
X123580000Y-86019000D01*
X123620000Y-85420000D02*
G75*
G02*
X113380000Y-85420000I-5120000J0D01*
G01*
X113380000Y-85420000D02*
G75*
G02*
X123620000Y-85420000I5120000J0D01*
G01*
%TO.C,R7*%
X107880000Y-101920000D02*
X108650000Y-101920000D01*
X115960000Y-101920000D02*
X115190000Y-101920000D01*
X115190000Y-103290000D02*
X108650000Y-103290000D01*
X108650000Y-100550000D01*
X115190000Y-100550000D01*
X115190000Y-103290000D01*
%TO.C,Q3*%
X155430000Y-89140000D02*
X165650000Y-89140000D01*
X155430000Y-93760000D02*
X155430000Y-89140000D01*
X158690000Y-93760000D02*
X158690000Y-92380000D01*
X162390000Y-93760000D02*
X162390000Y-92380000D01*
X165650000Y-89140000D02*
X165650000Y-93760000D01*
X165650000Y-92380000D02*
X155430000Y-92380000D01*
X165650000Y-93760000D02*
X155430000Y-93760000D01*
%TO.C,J4*%
X159880000Y-127380000D02*
X170120000Y-127380000D01*
X159880000Y-133500000D02*
X160520000Y-133500000D01*
X159880000Y-140120000D02*
X159880000Y-127380000D01*
X161150000Y-139500000D02*
X161150000Y-135480000D01*
X162200000Y-140120000D02*
X159880000Y-140120000D01*
X163850000Y-135480000D02*
X163850000Y-139500000D01*
X163850000Y-139500000D02*
X161150000Y-139500000D01*
X164480000Y-133500000D02*
X165520000Y-133500000D01*
X166150000Y-139500000D02*
X166150000Y-134948000D01*
X168850000Y-134948000D02*
X168850000Y-139500000D01*
X168850000Y-139500000D02*
X166150000Y-139500000D01*
X169480000Y-133500000D02*
X170120000Y-133500000D01*
X170120000Y-127380000D02*
X170120000Y-140120000D01*
X170120000Y-140120000D02*
X162800000Y-140120000D01*
X160750000Y-129000000D02*
G75*
G02*
X164250000Y-129000000I1750000J-459259D01*
G01*
X164250000Y-129000000D02*
G75*
G02*
X160750000Y-129000000I-1750000J459259D01*
G01*
X165750000Y-129000000D02*
G75*
G02*
X169250000Y-129000000I1750000J-459259D01*
G01*
X169250000Y-129000000D02*
G75*
G02*
X165750000Y-129000000I-1750000J459259D01*
G01*
X162940000Y-140730000D02*
X162060000Y-140730000D01*
X162500000Y-140120000D01*
X162940000Y-140730000D01*
G36*
X162940000Y-140730000D02*
G01*
X162060000Y-140730000D01*
X162500000Y-140120000D01*
X162940000Y-140730000D01*
G37*
%TO.C,C2*%
X174020354Y-78125000D02*
X175020354Y-78125000D01*
X174520354Y-77625000D02*
X174520354Y-78625000D01*
X179500000Y-75920000D02*
X179500000Y-86080000D01*
X179540000Y-75920000D02*
X179540000Y-86080000D01*
X179580000Y-75921000D02*
X179580000Y-86079000D01*
X179620000Y-75921000D02*
X179620000Y-86079000D01*
X179660000Y-75923000D02*
X179660000Y-86077000D01*
X179700000Y-75924000D02*
X179700000Y-86076000D01*
X179740000Y-75926000D02*
X179740000Y-86074000D01*
X179780000Y-75928000D02*
X179780000Y-86072000D01*
X179820000Y-75930000D02*
X179820000Y-86070000D01*
X179860000Y-75933000D02*
X179860000Y-86067000D01*
X179900000Y-75936000D02*
X179900000Y-86064000D01*
X179940000Y-75939000D02*
X179940000Y-86061000D01*
X179980000Y-75943000D02*
X179980000Y-86057000D01*
X180020000Y-75946000D02*
X180020000Y-86054000D01*
X180060000Y-75951000D02*
X180060000Y-86049000D01*
X180100000Y-75955000D02*
X180100000Y-86045000D01*
X180140000Y-75960000D02*
X180140000Y-86040000D01*
X180180000Y-75965000D02*
X180180000Y-86035000D01*
X180220000Y-75971000D02*
X180220000Y-86029000D01*
X180260000Y-75977000D02*
X180260000Y-86023000D01*
X180300000Y-75983000D02*
X180300000Y-86017000D01*
X180340000Y-75989000D02*
X180340000Y-86011000D01*
X180380000Y-75996000D02*
X180380000Y-86004000D01*
X180420000Y-76003000D02*
X180420000Y-85997000D01*
X180460000Y-76011000D02*
X180460000Y-85989000D01*
X180500000Y-76019000D02*
X180500000Y-85981000D01*
X180540000Y-76027000D02*
X180540000Y-85973000D01*
X180580000Y-76035000D02*
X180580000Y-85965000D01*
X180620000Y-76044000D02*
X180620000Y-85956000D01*
X180660000Y-76053000D02*
X180660000Y-85947000D01*
X180700000Y-76063000D02*
X180700000Y-85937000D01*
X180740000Y-76072000D02*
X180740000Y-85928000D01*
X180780000Y-76083000D02*
X180780000Y-79760000D01*
X180780000Y-82240000D02*
X180780000Y-85917000D01*
X180820000Y-76093000D02*
X180820000Y-79760000D01*
X180820000Y-82240000D02*
X180820000Y-85907000D01*
X180860000Y-76104000D02*
X180860000Y-79760000D01*
X180860000Y-82240000D02*
X180860000Y-85896000D01*
X180900000Y-76115000D02*
X180900000Y-79760000D01*
X180900000Y-82240000D02*
X180900000Y-85885000D01*
X180940000Y-76127000D02*
X180940000Y-79760000D01*
X180940000Y-82240000D02*
X180940000Y-85873000D01*
X180980000Y-76139000D02*
X180980000Y-79760000D01*
X180980000Y-82240000D02*
X180980000Y-85861000D01*
X181020000Y-76151000D02*
X181020000Y-79760000D01*
X181020000Y-82240000D02*
X181020000Y-85849000D01*
X181060000Y-76163000D02*
X181060000Y-79760000D01*
X181060000Y-82240000D02*
X181060000Y-85837000D01*
X181100000Y-76176000D02*
X181100000Y-79760000D01*
X181100000Y-82240000D02*
X181100000Y-85824000D01*
X181140000Y-76190000D02*
X181140000Y-79760000D01*
X181140000Y-82240000D02*
X181140000Y-85810000D01*
X181180000Y-76203000D02*
X181180000Y-79760000D01*
X181180000Y-82240000D02*
X181180000Y-85797000D01*
X181220000Y-76218000D02*
X181220000Y-79760000D01*
X181220000Y-82240000D02*
X181220000Y-85782000D01*
X181260000Y-76232000D02*
X181260000Y-79760000D01*
X181260000Y-82240000D02*
X181260000Y-85768000D01*
X181300000Y-76247000D02*
X181300000Y-79760000D01*
X181300000Y-82240000D02*
X181300000Y-85753000D01*
X181340000Y-76262000D02*
X181340000Y-79760000D01*
X181340000Y-82240000D02*
X181340000Y-85738000D01*
X181380000Y-76278000D02*
X181380000Y-79760000D01*
X181380000Y-82240000D02*
X181380000Y-85722000D01*
X181420000Y-76294000D02*
X181420000Y-79760000D01*
X181420000Y-82240000D02*
X181420000Y-85706000D01*
X181460000Y-76310000D02*
X181460000Y-79760000D01*
X181460000Y-82240000D02*
X181460000Y-85690000D01*
X181500000Y-76327000D02*
X181500000Y-79760000D01*
X181500000Y-82240000D02*
X181500000Y-85673000D01*
X181540000Y-76344000D02*
X181540000Y-79760000D01*
X181540000Y-82240000D02*
X181540000Y-85656000D01*
X181580000Y-76362000D02*
X181580000Y-79760000D01*
X181580000Y-82240000D02*
X181580000Y-85638000D01*
X181620000Y-76380000D02*
X181620000Y-79760000D01*
X181620000Y-82240000D02*
X181620000Y-85620000D01*
X181660000Y-76398000D02*
X181660000Y-79760000D01*
X181660000Y-82240000D02*
X181660000Y-85602000D01*
X181700000Y-76417000D02*
X181700000Y-79760000D01*
X181700000Y-82240000D02*
X181700000Y-85583000D01*
X181740000Y-76436000D02*
X181740000Y-79760000D01*
X181740000Y-82240000D02*
X181740000Y-85564000D01*
X181780000Y-76456000D02*
X181780000Y-79760000D01*
X181780000Y-82240000D02*
X181780000Y-85544000D01*
X181820000Y-76476000D02*
X181820000Y-79760000D01*
X181820000Y-82240000D02*
X181820000Y-85524000D01*
X181860000Y-76496000D02*
X181860000Y-79760000D01*
X181860000Y-82240000D02*
X181860000Y-85504000D01*
X181900000Y-76517000D02*
X181900000Y-79760000D01*
X181900000Y-82240000D02*
X181900000Y-85483000D01*
X181940000Y-76539000D02*
X181940000Y-79760000D01*
X181940000Y-82240000D02*
X181940000Y-85461000D01*
X181980000Y-76561000D02*
X181980000Y-79760000D01*
X181980000Y-82240000D02*
X181980000Y-85439000D01*
X182020000Y-76583000D02*
X182020000Y-79760000D01*
X182020000Y-82240000D02*
X182020000Y-85417000D01*
X182060000Y-76606000D02*
X182060000Y-79760000D01*
X182060000Y-82240000D02*
X182060000Y-85394000D01*
X182100000Y-76629000D02*
X182100000Y-79760000D01*
X182100000Y-82240000D02*
X182100000Y-85371000D01*
X182140000Y-76653000D02*
X182140000Y-79760000D01*
X182140000Y-82240000D02*
X182140000Y-85347000D01*
X182180000Y-76677000D02*
X182180000Y-79760000D01*
X182180000Y-82240000D02*
X182180000Y-85323000D01*
X182220000Y-76702000D02*
X182220000Y-79760000D01*
X182220000Y-82240000D02*
X182220000Y-85298000D01*
X182260000Y-76728000D02*
X182260000Y-79760000D01*
X182260000Y-82240000D02*
X182260000Y-85272000D01*
X182300000Y-76753000D02*
X182300000Y-79760000D01*
X182300000Y-82240000D02*
X182300000Y-85247000D01*
X182340000Y-76780000D02*
X182340000Y-79760000D01*
X182340000Y-82240000D02*
X182340000Y-85220000D01*
X182380000Y-76807000D02*
X182380000Y-79760000D01*
X182380000Y-82240000D02*
X182380000Y-85193000D01*
X182420000Y-76834000D02*
X182420000Y-79760000D01*
X182420000Y-82240000D02*
X182420000Y-85166000D01*
X182460000Y-76862000D02*
X182460000Y-79760000D01*
X182460000Y-82240000D02*
X182460000Y-85138000D01*
X182500000Y-76891000D02*
X182500000Y-79760000D01*
X182500000Y-82240000D02*
X182500000Y-85109000D01*
X182540000Y-76920000D02*
X182540000Y-79760000D01*
X182540000Y-82240000D02*
X182540000Y-85080000D01*
X182580000Y-76950000D02*
X182580000Y-79760000D01*
X182580000Y-82240000D02*
X182580000Y-85050000D01*
X182620000Y-76980000D02*
X182620000Y-79760000D01*
X182620000Y-82240000D02*
X182620000Y-85020000D01*
X182660000Y-77012000D02*
X182660000Y-79760000D01*
X182660000Y-82240000D02*
X182660000Y-84988000D01*
X182700000Y-77043000D02*
X182700000Y-79760000D01*
X182700000Y-82240000D02*
X182700000Y-84957000D01*
X182740000Y-77076000D02*
X182740000Y-79760000D01*
X182740000Y-82240000D02*
X182740000Y-84924000D01*
X182780000Y-77109000D02*
X182780000Y-79760000D01*
X182780000Y-82240000D02*
X182780000Y-84891000D01*
X182820000Y-77142000D02*
X182820000Y-79760000D01*
X182820000Y-82240000D02*
X182820000Y-84858000D01*
X182860000Y-77177000D02*
X182860000Y-79760000D01*
X182860000Y-82240000D02*
X182860000Y-84823000D01*
X182900000Y-77212000D02*
X182900000Y-79760000D01*
X182900000Y-82240000D02*
X182900000Y-84788000D01*
X182940000Y-77248000D02*
X182940000Y-79760000D01*
X182940000Y-82240000D02*
X182940000Y-84752000D01*
X182980000Y-77284000D02*
X182980000Y-79760000D01*
X182980000Y-82240000D02*
X182980000Y-84716000D01*
X183020000Y-77322000D02*
X183020000Y-79760000D01*
X183020000Y-82240000D02*
X183020000Y-84678000D01*
X183060000Y-77360000D02*
X183060000Y-79760000D01*
X183060000Y-82240000D02*
X183060000Y-84640000D01*
X183100000Y-77399000D02*
X183100000Y-79760000D01*
X183100000Y-82240000D02*
X183100000Y-84601000D01*
X183140000Y-77439000D02*
X183140000Y-79760000D01*
X183140000Y-82240000D02*
X183140000Y-84561000D01*
X183180000Y-77480000D02*
X183180000Y-79760000D01*
X183180000Y-82240000D02*
X183180000Y-84520000D01*
X183220000Y-77522000D02*
X183220000Y-79760000D01*
X183220000Y-82240000D02*
X183220000Y-84478000D01*
X183260000Y-77565000D02*
X183260000Y-84435000D01*
X183300000Y-77609000D02*
X183300000Y-84391000D01*
X183340000Y-77653000D02*
X183340000Y-84347000D01*
X183380000Y-77699000D02*
X183380000Y-84301000D01*
X183420000Y-77746000D02*
X183420000Y-84254000D01*
X183460000Y-77795000D02*
X183460000Y-84205000D01*
X183500000Y-77844000D02*
X183500000Y-84156000D01*
X183540000Y-77895000D02*
X183540000Y-84105000D01*
X183580000Y-77947000D02*
X183580000Y-84053000D01*
X183620000Y-78000000D02*
X183620000Y-84000000D01*
X183660000Y-78055000D02*
X183660000Y-83945000D01*
X183700000Y-78112000D02*
X183700000Y-83888000D01*
X183740000Y-78170000D02*
X183740000Y-83830000D01*
X183780000Y-78230000D02*
X183780000Y-83770000D01*
X183820000Y-78292000D02*
X183820000Y-83708000D01*
X183860000Y-78356000D02*
X183860000Y-83644000D01*
X183900000Y-78422000D02*
X183900000Y-83578000D01*
X183940000Y-78490000D02*
X183940000Y-83510000D01*
X183980000Y-78561000D02*
X183980000Y-83439000D01*
X184020000Y-78635000D02*
X184020000Y-83365000D01*
X184060000Y-78712000D02*
X184060000Y-83288000D01*
X184100000Y-78792000D02*
X184100000Y-83208000D01*
X184140000Y-78876000D02*
X184140000Y-83124000D01*
X184180000Y-78963000D02*
X184180000Y-83037000D01*
X184220000Y-79056000D02*
X184220000Y-82944000D01*
X184260000Y-79154000D02*
X184260000Y-82846000D01*
X184300000Y-79258000D02*
X184300000Y-82742000D01*
X184340000Y-79370000D02*
X184340000Y-82630000D01*
X184380000Y-79491000D02*
X184380000Y-82509000D01*
X184420000Y-79623000D02*
X184420000Y-82377000D01*
X184460000Y-79770000D02*
X184460000Y-82230000D01*
X184500000Y-79938000D02*
X184500000Y-82062000D01*
X184540000Y-80138000D02*
X184540000Y-81862000D01*
X184580000Y-80401000D02*
X184580000Y-81599000D01*
X184620000Y-81000000D02*
G75*
G02*
X174380000Y-81000000I-5120000J0D01*
G01*
X174380000Y-81000000D02*
G75*
G02*
X184620000Y-81000000I5120000J0D01*
G01*
%TO.C,Q1*%
X107440000Y-46990000D02*
X110590000Y-46990000D01*
X107440000Y-49100000D02*
X110590000Y-49100000D01*
X107440000Y-52210000D02*
X107440000Y-46990000D01*
X113610000Y-46990000D02*
X116040000Y-46990000D01*
X113610000Y-49100000D02*
X116040000Y-49100000D01*
X115900000Y-46990000D02*
X115900000Y-49100000D01*
X119060000Y-46990000D02*
X121490000Y-46990000D01*
X119060000Y-49100000D02*
X121490000Y-49100000D01*
X119200000Y-46990000D02*
X119200000Y-49100000D01*
X124510000Y-46990000D02*
X127660000Y-46990000D01*
X124510000Y-49100000D02*
X127660000Y-49100000D01*
X127660000Y-46990000D02*
X127660000Y-52210000D01*
X127660000Y-52210000D02*
X107440000Y-52210000D01*
%TO.C,C5*%
X133442832Y-60765000D02*
X135642832Y-60765000D01*
X134542832Y-59665000D02*
X134542832Y-61865000D01*
X145342169Y-55920000D02*
X145342169Y-78080000D01*
X145382169Y-55920000D02*
X145382169Y-78080000D01*
X145422169Y-55920000D02*
X145422169Y-78080000D01*
X145462169Y-55921000D02*
X145462169Y-78079000D01*
X145502169Y-55921000D02*
X145502169Y-78079000D01*
X145542169Y-55922000D02*
X145542169Y-78078000D01*
X145582169Y-55923000D02*
X145582169Y-78077000D01*
X145622169Y-55924000D02*
X145622169Y-78076000D01*
X145662169Y-55925000D02*
X145662169Y-78075000D01*
X145702169Y-55926000D02*
X145702169Y-78074000D01*
X145742169Y-55927000D02*
X145742169Y-78073000D01*
X145782169Y-55929000D02*
X145782169Y-78071000D01*
X145822169Y-55930000D02*
X145822169Y-78070000D01*
X145862169Y-55932000D02*
X145862169Y-78068000D01*
X145902169Y-55934000D02*
X145902169Y-78066000D01*
X145942169Y-55936000D02*
X145942169Y-78064000D01*
X145982169Y-55938000D02*
X145982169Y-78062000D01*
X146022169Y-55941000D02*
X146022169Y-78059000D01*
X146062169Y-55943000D02*
X146062169Y-78057000D01*
X146102169Y-55946000D02*
X146102169Y-78054000D01*
X146142169Y-55949000D02*
X146142169Y-78051000D01*
X146182169Y-55952000D02*
X146182169Y-78048000D01*
X146222169Y-55955000D02*
X146222169Y-78045000D01*
X146262169Y-55958000D02*
X146262169Y-78042000D01*
X146302169Y-55962000D02*
X146302169Y-78038000D01*
X146342169Y-55965000D02*
X146342169Y-78035000D01*
X146382169Y-55969000D02*
X146382169Y-78031000D01*
X146422169Y-55973000D02*
X146422169Y-78027000D01*
X146462169Y-55977000D02*
X146462169Y-78023000D01*
X146502169Y-55981000D02*
X146502169Y-78019000D01*
X146542169Y-55985000D02*
X146542169Y-78015000D01*
X146582169Y-55989000D02*
X146582169Y-78011000D01*
X146622169Y-55994000D02*
X146622169Y-78006000D01*
X146662169Y-55999000D02*
X146662169Y-78001000D01*
X146702169Y-56003000D02*
X146702169Y-77997000D01*
X146742169Y-56008000D02*
X146742169Y-77992000D01*
X146782169Y-56014000D02*
X146782169Y-77986000D01*
X146822169Y-56019000D02*
X146822169Y-77981000D01*
X146862169Y-56024000D02*
X146862169Y-77976000D01*
X146902169Y-56030000D02*
X146902169Y-77970000D01*
X146942169Y-56036000D02*
X146942169Y-77964000D01*
X146982169Y-56042000D02*
X146982169Y-77958000D01*
X147022169Y-56048000D02*
X147022169Y-77952000D01*
X147062169Y-56054000D02*
X147062169Y-77946000D01*
X147102169Y-56060000D02*
X147102169Y-77940000D01*
X147142169Y-56067000D02*
X147142169Y-77933000D01*
X147182169Y-56073000D02*
X147182169Y-77927000D01*
X147222169Y-56080000D02*
X147222169Y-77920000D01*
X147262169Y-56087000D02*
X147262169Y-77913000D01*
X147302169Y-56094000D02*
X147302169Y-77906000D01*
X147342169Y-56101000D02*
X147342169Y-77899000D01*
X147382169Y-56109000D02*
X147382169Y-77891000D01*
X147422169Y-56116000D02*
X147422169Y-77884000D01*
X147462169Y-56124000D02*
X147462169Y-77876000D01*
X147502169Y-56132000D02*
X147502169Y-77868000D01*
X147542169Y-56140000D02*
X147542169Y-77860000D01*
X147582169Y-56148000D02*
X147582169Y-77852000D01*
X147622169Y-56156000D02*
X147622169Y-77844000D01*
X147662169Y-56165000D02*
X147662169Y-77835000D01*
X147702169Y-56173000D02*
X147702169Y-77827000D01*
X147742169Y-56182000D02*
X147742169Y-77818000D01*
X147782169Y-56191000D02*
X147782169Y-77809000D01*
X147822169Y-56200000D02*
X147822169Y-77800000D01*
X147862169Y-56209000D02*
X147862169Y-77791000D01*
X147902169Y-56219000D02*
X147902169Y-77781000D01*
X147942169Y-56228000D02*
X147942169Y-77772000D01*
X147982169Y-56238000D02*
X147982169Y-77762000D01*
X148022169Y-56248000D02*
X148022169Y-77752000D01*
X148062169Y-56258000D02*
X148062169Y-77742000D01*
X148102169Y-56268000D02*
X148102169Y-77732000D01*
X148142169Y-56278000D02*
X148142169Y-64760000D01*
X148142169Y-69240000D02*
X148142169Y-77722000D01*
X148182169Y-56289000D02*
X148182169Y-64760000D01*
X148182169Y-69240000D02*
X148182169Y-77711000D01*
X148222169Y-56299000D02*
X148222169Y-64760000D01*
X148222169Y-69240000D02*
X148222169Y-77701000D01*
X148262169Y-56310000D02*
X148262169Y-64760000D01*
X148262169Y-69240000D02*
X148262169Y-77690000D01*
X148302169Y-56321000D02*
X148302169Y-64760000D01*
X148302169Y-69240000D02*
X148302169Y-77679000D01*
X148342169Y-56332000D02*
X148342169Y-64760000D01*
X148342169Y-69240000D02*
X148342169Y-77668000D01*
X148382169Y-56344000D02*
X148382169Y-64760000D01*
X148382169Y-69240000D02*
X148382169Y-77656000D01*
X148422169Y-56355000D02*
X148422169Y-64760000D01*
X148422169Y-69240000D02*
X148422169Y-77645000D01*
X148462169Y-56367000D02*
X148462169Y-64760000D01*
X148462169Y-69240000D02*
X148462169Y-77633000D01*
X148502169Y-56378000D02*
X148502169Y-64760000D01*
X148502169Y-69240000D02*
X148502169Y-77622000D01*
X148542169Y-56390000D02*
X148542169Y-64760000D01*
X148542169Y-69240000D02*
X148542169Y-77610000D01*
X148582169Y-56402000D02*
X148582169Y-64760000D01*
X148582169Y-69240000D02*
X148582169Y-77598000D01*
X148622169Y-56415000D02*
X148622169Y-64760000D01*
X148622169Y-69240000D02*
X148622169Y-77585000D01*
X148662169Y-56427000D02*
X148662169Y-64760000D01*
X148662169Y-69240000D02*
X148662169Y-77573000D01*
X148702169Y-56440000D02*
X148702169Y-64760000D01*
X148702169Y-69240000D02*
X148702169Y-77560000D01*
X148742169Y-56453000D02*
X148742169Y-64760000D01*
X148742169Y-69240000D02*
X148742169Y-77547000D01*
X148782169Y-56465000D02*
X148782169Y-64760000D01*
X148782169Y-69240000D02*
X148782169Y-77535000D01*
X148822169Y-56479000D02*
X148822169Y-64760000D01*
X148822169Y-69240000D02*
X148822169Y-77521000D01*
X148862169Y-56492000D02*
X148862169Y-64760000D01*
X148862169Y-69240000D02*
X148862169Y-77508000D01*
X148902169Y-56505000D02*
X148902169Y-64760000D01*
X148902169Y-69240000D02*
X148902169Y-77495000D01*
X148942169Y-56519000D02*
X148942169Y-64760000D01*
X148942169Y-69240000D02*
X148942169Y-77481000D01*
X148982169Y-56533000D02*
X148982169Y-64760000D01*
X148982169Y-69240000D02*
X148982169Y-77467000D01*
X149022169Y-56547000D02*
X149022169Y-64760000D01*
X149022169Y-69240000D02*
X149022169Y-77453000D01*
X149062169Y-56561000D02*
X149062169Y-64760000D01*
X149062169Y-69240000D02*
X149062169Y-77439000D01*
X149102169Y-56575000D02*
X149102169Y-64760000D01*
X149102169Y-69240000D02*
X149102169Y-77425000D01*
X149142169Y-56589000D02*
X149142169Y-64760000D01*
X149142169Y-69240000D02*
X149142169Y-77411000D01*
X149182169Y-56604000D02*
X149182169Y-64760000D01*
X149182169Y-69240000D02*
X149182169Y-77396000D01*
X149222169Y-56619000D02*
X149222169Y-64760000D01*
X149222169Y-69240000D02*
X149222169Y-77381000D01*
X149262169Y-56634000D02*
X149262169Y-64760000D01*
X149262169Y-69240000D02*
X149262169Y-77366000D01*
X149302169Y-56649000D02*
X149302169Y-64760000D01*
X149302169Y-69240000D02*
X149302169Y-77351000D01*
X149342169Y-56664000D02*
X149342169Y-64760000D01*
X149342169Y-69240000D02*
X149342169Y-77336000D01*
X149382169Y-56680000D02*
X149382169Y-64760000D01*
X149382169Y-69240000D02*
X149382169Y-77320000D01*
X149422169Y-56696000D02*
X149422169Y-64760000D01*
X149422169Y-69240000D02*
X149422169Y-77304000D01*
X149462169Y-56711000D02*
X149462169Y-64760000D01*
X149462169Y-69240000D02*
X149462169Y-77289000D01*
X149502169Y-56727000D02*
X149502169Y-64760000D01*
X149502169Y-69240000D02*
X149502169Y-77273000D01*
X149542169Y-56744000D02*
X149542169Y-64760000D01*
X149542169Y-69240000D02*
X149542169Y-77256000D01*
X149582169Y-56760000D02*
X149582169Y-64760000D01*
X149582169Y-69240000D02*
X149582169Y-77240000D01*
X149622169Y-56777000D02*
X149622169Y-64760000D01*
X149622169Y-69240000D02*
X149622169Y-77223000D01*
X149662169Y-56793000D02*
X149662169Y-64760000D01*
X149662169Y-69240000D02*
X149662169Y-77207000D01*
X149702169Y-56810000D02*
X149702169Y-64760000D01*
X149702169Y-69240000D02*
X149702169Y-77190000D01*
X149742169Y-56828000D02*
X149742169Y-64760000D01*
X149742169Y-69240000D02*
X149742169Y-77172000D01*
X149782169Y-56845000D02*
X149782169Y-64760000D01*
X149782169Y-69240000D02*
X149782169Y-77155000D01*
X149822169Y-56862000D02*
X149822169Y-64760000D01*
X149822169Y-69240000D02*
X149822169Y-77138000D01*
X149862169Y-56880000D02*
X149862169Y-64760000D01*
X149862169Y-69240000D02*
X149862169Y-77120000D01*
X149902169Y-56898000D02*
X149902169Y-64760000D01*
X149902169Y-69240000D02*
X149902169Y-77102000D01*
X149942169Y-56916000D02*
X149942169Y-64760000D01*
X149942169Y-69240000D02*
X149942169Y-77084000D01*
X149982169Y-56934000D02*
X149982169Y-64760000D01*
X149982169Y-69240000D02*
X149982169Y-77066000D01*
X150022169Y-56953000D02*
X150022169Y-64760000D01*
X150022169Y-69240000D02*
X150022169Y-77047000D01*
X150062169Y-56971000D02*
X150062169Y-64760000D01*
X150062169Y-69240000D02*
X150062169Y-77029000D01*
X150102169Y-56990000D02*
X150102169Y-64760000D01*
X150102169Y-69240000D02*
X150102169Y-77010000D01*
X150142169Y-57009000D02*
X150142169Y-64760000D01*
X150142169Y-69240000D02*
X150142169Y-76991000D01*
X150182169Y-57029000D02*
X150182169Y-64760000D01*
X150182169Y-69240000D02*
X150182169Y-76971000D01*
X150222169Y-57048000D02*
X150222169Y-64760000D01*
X150222169Y-69240000D02*
X150222169Y-76952000D01*
X150262169Y-57068000D02*
X150262169Y-64760000D01*
X150262169Y-69240000D02*
X150262169Y-76932000D01*
X150302169Y-57087000D02*
X150302169Y-64760000D01*
X150302169Y-69240000D02*
X150302169Y-76913000D01*
X150342169Y-57108000D02*
X150342169Y-64760000D01*
X150342169Y-69240000D02*
X150342169Y-76892000D01*
X150382169Y-57128000D02*
X150382169Y-64760000D01*
X150382169Y-69240000D02*
X150382169Y-76872000D01*
X150422169Y-57148000D02*
X150422169Y-64760000D01*
X150422169Y-69240000D02*
X150422169Y-76852000D01*
X150462169Y-57169000D02*
X150462169Y-64760000D01*
X150462169Y-69240000D02*
X150462169Y-76831000D01*
X150502169Y-57190000D02*
X150502169Y-64760000D01*
X150502169Y-69240000D02*
X150502169Y-76810000D01*
X150542169Y-57211000D02*
X150542169Y-64760000D01*
X150542169Y-69240000D02*
X150542169Y-76789000D01*
X150582169Y-57232000D02*
X150582169Y-64760000D01*
X150582169Y-69240000D02*
X150582169Y-76768000D01*
X150622169Y-57253000D02*
X150622169Y-64760000D01*
X150622169Y-69240000D02*
X150622169Y-76747000D01*
X150662169Y-57275000D02*
X150662169Y-64760000D01*
X150662169Y-69240000D02*
X150662169Y-76725000D01*
X150702169Y-57297000D02*
X150702169Y-64760000D01*
X150702169Y-69240000D02*
X150702169Y-76703000D01*
X150742169Y-57319000D02*
X150742169Y-64760000D01*
X150742169Y-69240000D02*
X150742169Y-76681000D01*
X150782169Y-57342000D02*
X150782169Y-64760000D01*
X150782169Y-69240000D02*
X150782169Y-76658000D01*
X150822169Y-57364000D02*
X150822169Y-64760000D01*
X150822169Y-69240000D02*
X150822169Y-76636000D01*
X150862169Y-57387000D02*
X150862169Y-64760000D01*
X150862169Y-69240000D02*
X150862169Y-76613000D01*
X150902169Y-57410000D02*
X150902169Y-64760000D01*
X150902169Y-69240000D02*
X150902169Y-76590000D01*
X150942169Y-57433000D02*
X150942169Y-64760000D01*
X150942169Y-69240000D02*
X150942169Y-76567000D01*
X150982169Y-57456000D02*
X150982169Y-64760000D01*
X150982169Y-69240000D02*
X150982169Y-76544000D01*
X151022169Y-57480000D02*
X151022169Y-64760000D01*
X151022169Y-69240000D02*
X151022169Y-76520000D01*
X151062169Y-57504000D02*
X151062169Y-64760000D01*
X151062169Y-69240000D02*
X151062169Y-76496000D01*
X151102169Y-57528000D02*
X151102169Y-64760000D01*
X151102169Y-69240000D02*
X151102169Y-76472000D01*
X151142169Y-57552000D02*
X151142169Y-64760000D01*
X151142169Y-69240000D02*
X151142169Y-76448000D01*
X151182169Y-57577000D02*
X151182169Y-64760000D01*
X151182169Y-69240000D02*
X151182169Y-76423000D01*
X151222169Y-57602000D02*
X151222169Y-64760000D01*
X151222169Y-69240000D02*
X151222169Y-76398000D01*
X151262169Y-57627000D02*
X151262169Y-64760000D01*
X151262169Y-69240000D02*
X151262169Y-76373000D01*
X151302169Y-57652000D02*
X151302169Y-64760000D01*
X151302169Y-69240000D02*
X151302169Y-76348000D01*
X151342169Y-57678000D02*
X151342169Y-64760000D01*
X151342169Y-69240000D02*
X151342169Y-76322000D01*
X151382169Y-57703000D02*
X151382169Y-64760000D01*
X151382169Y-69240000D02*
X151382169Y-76297000D01*
X151422169Y-57729000D02*
X151422169Y-64760000D01*
X151422169Y-69240000D02*
X151422169Y-76271000D01*
X151462169Y-57756000D02*
X151462169Y-64760000D01*
X151462169Y-69240000D02*
X151462169Y-76244000D01*
X151502169Y-57782000D02*
X151502169Y-64760000D01*
X151502169Y-69240000D02*
X151502169Y-76218000D01*
X151542169Y-57809000D02*
X151542169Y-64760000D01*
X151542169Y-69240000D02*
X151542169Y-76191000D01*
X151582169Y-57836000D02*
X151582169Y-64760000D01*
X151582169Y-69240000D02*
X151582169Y-76164000D01*
X151622169Y-57863000D02*
X151622169Y-64760000D01*
X151622169Y-69240000D02*
X151622169Y-76137000D01*
X151662169Y-57891000D02*
X151662169Y-64760000D01*
X151662169Y-69240000D02*
X151662169Y-76109000D01*
X151702169Y-57918000D02*
X151702169Y-64760000D01*
X151702169Y-69240000D02*
X151702169Y-76082000D01*
X151742169Y-57946000D02*
X151742169Y-64760000D01*
X151742169Y-69240000D02*
X151742169Y-76054000D01*
X151782169Y-57975000D02*
X151782169Y-64760000D01*
X151782169Y-69240000D02*
X151782169Y-76025000D01*
X151822169Y-58003000D02*
X151822169Y-64760000D01*
X151822169Y-69240000D02*
X151822169Y-75997000D01*
X151862169Y-58032000D02*
X151862169Y-64760000D01*
X151862169Y-69240000D02*
X151862169Y-75968000D01*
X151902169Y-58061000D02*
X151902169Y-64760000D01*
X151902169Y-69240000D02*
X151902169Y-75939000D01*
X151942169Y-58090000D02*
X151942169Y-64760000D01*
X151942169Y-69240000D02*
X151942169Y-75910000D01*
X151982169Y-58120000D02*
X151982169Y-64760000D01*
X151982169Y-69240000D02*
X151982169Y-75880000D01*
X152022169Y-58150000D02*
X152022169Y-64760000D01*
X152022169Y-69240000D02*
X152022169Y-75850000D01*
X152062169Y-58180000D02*
X152062169Y-64760000D01*
X152062169Y-69240000D02*
X152062169Y-75820000D01*
X152102169Y-58211000D02*
X152102169Y-64760000D01*
X152102169Y-69240000D02*
X152102169Y-75789000D01*
X152142169Y-58241000D02*
X152142169Y-64760000D01*
X152142169Y-69240000D02*
X152142169Y-75759000D01*
X152182169Y-58273000D02*
X152182169Y-64760000D01*
X152182169Y-69240000D02*
X152182169Y-75727000D01*
X152222169Y-58304000D02*
X152222169Y-64760000D01*
X152222169Y-69240000D02*
X152222169Y-75696000D01*
X152262169Y-58336000D02*
X152262169Y-64760000D01*
X152262169Y-69240000D02*
X152262169Y-75664000D01*
X152302169Y-58367000D02*
X152302169Y-64760000D01*
X152302169Y-69240000D02*
X152302169Y-75633000D01*
X152342169Y-58400000D02*
X152342169Y-64760000D01*
X152342169Y-69240000D02*
X152342169Y-75600000D01*
X152382169Y-58432000D02*
X152382169Y-64760000D01*
X152382169Y-69240000D02*
X152382169Y-75568000D01*
X152422169Y-58465000D02*
X152422169Y-64760000D01*
X152422169Y-69240000D02*
X152422169Y-75535000D01*
X152462169Y-58498000D02*
X152462169Y-64760000D01*
X152462169Y-69240000D02*
X152462169Y-75502000D01*
X152502169Y-58532000D02*
X152502169Y-64760000D01*
X152502169Y-69240000D02*
X152502169Y-75468000D01*
X152542169Y-58566000D02*
X152542169Y-64760000D01*
X152542169Y-69240000D02*
X152542169Y-75434000D01*
X152582169Y-58600000D02*
X152582169Y-75400000D01*
X152622169Y-58634000D02*
X152622169Y-75366000D01*
X152662169Y-58669000D02*
X152662169Y-75331000D01*
X152702169Y-58704000D02*
X152702169Y-75296000D01*
X152742169Y-58740000D02*
X152742169Y-75260000D01*
X152782169Y-58776000D02*
X152782169Y-75224000D01*
X152822169Y-58812000D02*
X152822169Y-75188000D01*
X152862169Y-58848000D02*
X152862169Y-75152000D01*
X152902169Y-58885000D02*
X152902169Y-75115000D01*
X152942169Y-58922000D02*
X152942169Y-75078000D01*
X152982169Y-58960000D02*
X152982169Y-75040000D01*
X153022169Y-58998000D02*
X153022169Y-75002000D01*
X153062169Y-59037000D02*
X153062169Y-74963000D01*
X153102169Y-59075000D02*
X153102169Y-74925000D01*
X153142169Y-59114000D02*
X153142169Y-74886000D01*
X153182169Y-59154000D02*
X153182169Y-74846000D01*
X153222169Y-59194000D02*
X153222169Y-74806000D01*
X153262169Y-59234000D02*
X153262169Y-74766000D01*
X153302169Y-59275000D02*
X153302169Y-74725000D01*
X153342169Y-59316000D02*
X153342169Y-74684000D01*
X153382169Y-59358000D02*
X153382169Y-74642000D01*
X153422169Y-59400000D02*
X153422169Y-74600000D01*
X153462169Y-59443000D02*
X153462169Y-74557000D01*
X153502169Y-59486000D02*
X153502169Y-74514000D01*
X153542169Y-59529000D02*
X153542169Y-74471000D01*
X153582169Y-59573000D02*
X153582169Y-74427000D01*
X153622169Y-59617000D02*
X153622169Y-74383000D01*
X153662169Y-59662000D02*
X153662169Y-74338000D01*
X153702169Y-59708000D02*
X153702169Y-74292000D01*
X153742169Y-59753000D02*
X153742169Y-74247000D01*
X153782169Y-59800000D02*
X153782169Y-74200000D01*
X153822169Y-59847000D02*
X153822169Y-74153000D01*
X153862169Y-59894000D02*
X153862169Y-74106000D01*
X153902169Y-59942000D02*
X153902169Y-74058000D01*
X153942169Y-59991000D02*
X153942169Y-74009000D01*
X153982169Y-60040000D02*
X153982169Y-73960000D01*
X154022169Y-60089000D02*
X154022169Y-73911000D01*
X154062169Y-60140000D02*
X154062169Y-73860000D01*
X154102169Y-60190000D02*
X154102169Y-73810000D01*
X154142169Y-60242000D02*
X154142169Y-73758000D01*
X154182169Y-60294000D02*
X154182169Y-73706000D01*
X154222169Y-60347000D02*
X154222169Y-73653000D01*
X154262169Y-60400000D02*
X154262169Y-73600000D01*
X154302169Y-60454000D02*
X154302169Y-73546000D01*
X154342169Y-60509000D02*
X154342169Y-73491000D01*
X154382169Y-60564000D02*
X154382169Y-73436000D01*
X154422169Y-60621000D02*
X154422169Y-73379000D01*
X154462169Y-60678000D02*
X154462169Y-73322000D01*
X154502169Y-60735000D02*
X154502169Y-73265000D01*
X154542169Y-60794000D02*
X154542169Y-73206000D01*
X154582169Y-60853000D02*
X154582169Y-73147000D01*
X154622169Y-60913000D02*
X154622169Y-73087000D01*
X154662169Y-60974000D02*
X154662169Y-73026000D01*
X154702169Y-61036000D02*
X154702169Y-72964000D01*
X154742169Y-61099000D02*
X154742169Y-72901000D01*
X154782169Y-61163000D02*
X154782169Y-72837000D01*
X154822169Y-61228000D02*
X154822169Y-72772000D01*
X154862169Y-61293000D02*
X154862169Y-72707000D01*
X154902169Y-61360000D02*
X154902169Y-72640000D01*
X154942169Y-61428000D02*
X154942169Y-72572000D01*
X154982169Y-61497000D02*
X154982169Y-72503000D01*
X155022169Y-61567000D02*
X155022169Y-72433000D01*
X155062169Y-61639000D02*
X155062169Y-72361000D01*
X155102169Y-61711000D02*
X155102169Y-72289000D01*
X155142169Y-61785000D02*
X155142169Y-72215000D01*
X155182169Y-61860000D02*
X155182169Y-72140000D01*
X155222169Y-61937000D02*
X155222169Y-72063000D01*
X155262169Y-62015000D02*
X155262169Y-71985000D01*
X155302169Y-62095000D02*
X155302169Y-71905000D01*
X155342169Y-62176000D02*
X155342169Y-71824000D01*
X155382169Y-62260000D02*
X155382169Y-71740000D01*
X155422169Y-62344000D02*
X155422169Y-71656000D01*
X155462169Y-62431000D02*
X155462169Y-71569000D01*
X155502169Y-62520000D02*
X155502169Y-71480000D01*
X155542169Y-62611000D02*
X155542169Y-71389000D01*
X155582169Y-62704000D02*
X155582169Y-71296000D01*
X155622169Y-62800000D02*
X155622169Y-71200000D01*
X155662169Y-62899000D02*
X155662169Y-71101000D01*
X155702169Y-63000000D02*
X155702169Y-71000000D01*
X155742169Y-63104000D02*
X155742169Y-70896000D01*
X155782169Y-63211000D02*
X155782169Y-70789000D01*
X155822169Y-63322000D02*
X155822169Y-70678000D01*
X155862169Y-63437000D02*
X155862169Y-70563000D01*
X155902169Y-63556000D02*
X155902169Y-70444000D01*
X155942169Y-63679000D02*
X155942169Y-70321000D01*
X155982169Y-63808000D02*
X155982169Y-70192000D01*
X156022169Y-63943000D02*
X156022169Y-70057000D01*
X156062169Y-64084000D02*
X156062169Y-69916000D01*
X156102169Y-64233000D02*
X156102169Y-69767000D01*
X156142169Y-64392000D02*
X156142169Y-69608000D01*
X156182169Y-64560000D02*
X156182169Y-69440000D01*
X156222169Y-64742000D02*
X156222169Y-69258000D01*
X156262169Y-64940000D02*
X156262169Y-69060000D01*
X156302169Y-65160000D02*
X156302169Y-68840000D01*
X156342169Y-65411000D02*
X156342169Y-68589000D01*
X156382169Y-65709000D02*
X156382169Y-68291000D01*
X156422169Y-66098000D02*
X156422169Y-67902000D01*
X156462169Y-67040000D02*
X156462169Y-66960000D01*
X156462169Y-67000000D02*
G75*
G02*
X134222169Y-67000000I-11120000J0D01*
G01*
X134222169Y-67000000D02*
G75*
G02*
X156462169Y-67000000I11120000J0D01*
G01*
%TO.C,C4*%
X161460000Y-119000000D02*
X159920000Y-119000000D01*
X161460000Y-119040000D02*
X159920000Y-119040000D01*
X161460000Y-119080000D02*
X159921000Y-119080000D01*
X161460000Y-119120000D02*
X159923000Y-119120000D01*
X161460000Y-119160000D02*
X159925000Y-119160000D01*
X161460000Y-119200000D02*
X159928000Y-119200000D01*
X161460000Y-119240000D02*
X159931000Y-119240000D01*
X161460000Y-119280000D02*
X159935000Y-119280000D01*
X161460000Y-119320000D02*
X159940000Y-119320000D01*
X161460000Y-119360000D02*
X159945000Y-119360000D01*
X161460000Y-119400000D02*
X159951000Y-119400000D01*
X161460000Y-119440000D02*
X159957000Y-119440000D01*
X161460000Y-119480000D02*
X159964000Y-119480000D01*
X161460000Y-119520000D02*
X159972000Y-119520000D01*
X161460000Y-119560000D02*
X159981000Y-119560000D01*
X161460000Y-119600000D02*
X159990000Y-119600000D01*
X161460000Y-119640000D02*
X159999000Y-119640000D01*
X161460000Y-119680000D02*
X160010000Y-119680000D01*
X161460000Y-119720000D02*
X160021000Y-119720000D01*
X161460000Y-119760000D02*
X160033000Y-119760000D01*
X161460000Y-119800000D02*
X160045000Y-119800000D01*
X161460000Y-119840000D02*
X160058000Y-119840000D01*
X161460000Y-119880000D02*
X160072000Y-119880000D01*
X161460000Y-119920000D02*
X160087000Y-119920000D01*
X161460000Y-119960000D02*
X160102000Y-119960000D01*
X161460000Y-120000000D02*
X160118000Y-120000000D01*
X161460000Y-120040000D02*
X160135000Y-120040000D01*
X161460000Y-120080000D02*
X160153000Y-120080000D01*
X161460000Y-120120000D02*
X160171000Y-120120000D01*
X161460000Y-120160000D02*
X160191000Y-120160000D01*
X161460000Y-120200000D02*
X160211000Y-120200000D01*
X161460000Y-120240000D02*
X160232000Y-120240000D01*
X161460000Y-120280000D02*
X160254000Y-120280000D01*
X161460000Y-120320000D02*
X160277000Y-120320000D01*
X161460000Y-120360000D02*
X160301000Y-120360000D01*
X161460000Y-120400000D02*
X160325000Y-120400000D01*
X161460000Y-120440000D02*
X160351000Y-120440000D01*
X161460000Y-120480000D02*
X160378000Y-120480000D01*
X161460000Y-120520000D02*
X160406000Y-120520000D01*
X161460000Y-120560000D02*
X160435000Y-120560000D01*
X161460000Y-120600000D02*
X160465000Y-120600000D01*
X161460000Y-120640000D02*
X160497000Y-120640000D01*
X161460000Y-120680000D02*
X160530000Y-120680000D01*
X161460000Y-120720000D02*
X160564000Y-120720000D01*
X161460000Y-120760000D02*
X160599000Y-120760000D01*
X161460000Y-120800000D02*
X160636000Y-120800000D01*
X161460000Y-120840000D02*
X160675000Y-120840000D01*
X161460000Y-120880000D02*
X160715000Y-120880000D01*
X161460000Y-120920000D02*
X160757000Y-120920000D01*
X161460000Y-120960000D02*
X160801000Y-120960000D01*
X161460000Y-121000000D02*
X160848000Y-121000000D01*
X162783000Y-121600000D02*
X162217000Y-121600000D01*
X163017000Y-121560000D02*
X161983000Y-121560000D01*
X163177000Y-121520000D02*
X161823000Y-121520000D01*
X163305000Y-121480000D02*
X161695000Y-121480000D01*
X163414000Y-121440000D02*
X161586000Y-121440000D01*
X163511000Y-121400000D02*
X161489000Y-121400000D01*
X163598000Y-121360000D02*
X161402000Y-121360000D01*
X163677000Y-121320000D02*
X161323000Y-121320000D01*
X163751000Y-121280000D02*
X161249000Y-121280000D01*
X163819000Y-121240000D02*
X161181000Y-121240000D01*
X163883000Y-121200000D02*
X161117000Y-121200000D01*
X163943000Y-121160000D02*
X161057000Y-121160000D01*
X163975000Y-116195225D02*
X163975000Y-116695225D01*
X163999000Y-121120000D02*
X161001000Y-121120000D01*
X164053000Y-121080000D02*
X160947000Y-121080000D01*
X164104000Y-121040000D02*
X160896000Y-121040000D01*
X164152000Y-121000000D02*
X163540000Y-121000000D01*
X164199000Y-120960000D02*
X163540000Y-120960000D01*
X164225000Y-116445225D02*
X163725000Y-116445225D01*
X164243000Y-120920000D02*
X163540000Y-120920000D01*
X164285000Y-120880000D02*
X163540000Y-120880000D01*
X164325000Y-120840000D02*
X163540000Y-120840000D01*
X164364000Y-120800000D02*
X163540000Y-120800000D01*
X164401000Y-120760000D02*
X163540000Y-120760000D01*
X164436000Y-120720000D02*
X163540000Y-120720000D01*
X164470000Y-120680000D02*
X163540000Y-120680000D01*
X164503000Y-120640000D02*
X163540000Y-120640000D01*
X164535000Y-120600000D02*
X163540000Y-120600000D01*
X164565000Y-120560000D02*
X163540000Y-120560000D01*
X164594000Y-120520000D02*
X163540000Y-120520000D01*
X164622000Y-120480000D02*
X163540000Y-120480000D01*
X164649000Y-120440000D02*
X163540000Y-120440000D01*
X164675000Y-120400000D02*
X163540000Y-120400000D01*
X164699000Y-120360000D02*
X163540000Y-120360000D01*
X164723000Y-120320000D02*
X163540000Y-120320000D01*
X164746000Y-120280000D02*
X163540000Y-120280000D01*
X164768000Y-120240000D02*
X163540000Y-120240000D01*
X164789000Y-120200000D02*
X163540000Y-120200000D01*
X164809000Y-120160000D02*
X163540000Y-120160000D01*
X164829000Y-120120000D02*
X163540000Y-120120000D01*
X164847000Y-120080000D02*
X163540000Y-120080000D01*
X164865000Y-120040000D02*
X163540000Y-120040000D01*
X164882000Y-120000000D02*
X163540000Y-120000000D01*
X164898000Y-119960000D02*
X163540000Y-119960000D01*
X164913000Y-119920000D02*
X163540000Y-119920000D01*
X164928000Y-119880000D02*
X163540000Y-119880000D01*
X164942000Y-119840000D02*
X163540000Y-119840000D01*
X164955000Y-119800000D02*
X163540000Y-119800000D01*
X164967000Y-119760000D02*
X163540000Y-119760000D01*
X164979000Y-119720000D02*
X163540000Y-119720000D01*
X164990000Y-119680000D02*
X163540000Y-119680000D01*
X165001000Y-119640000D02*
X163540000Y-119640000D01*
X165010000Y-119600000D02*
X163540000Y-119600000D01*
X165019000Y-119560000D02*
X163540000Y-119560000D01*
X165028000Y-119520000D02*
X163540000Y-119520000D01*
X165036000Y-119480000D02*
X163540000Y-119480000D01*
X165043000Y-119440000D02*
X163540000Y-119440000D01*
X165049000Y-119400000D02*
X163540000Y-119400000D01*
X165055000Y-119360000D02*
X163540000Y-119360000D01*
X165060000Y-119320000D02*
X163540000Y-119320000D01*
X165065000Y-119280000D02*
X163540000Y-119280000D01*
X165069000Y-119240000D02*
X163540000Y-119240000D01*
X165072000Y-119200000D02*
X163540000Y-119200000D01*
X165075000Y-119160000D02*
X163540000Y-119160000D01*
X165077000Y-119120000D02*
X163540000Y-119120000D01*
X165079000Y-119080000D02*
X163540000Y-119080000D01*
X165080000Y-119000000D02*
X163540000Y-119000000D01*
X165080000Y-119040000D02*
X163540000Y-119040000D01*
X165120000Y-119000000D02*
G75*
G02*
X159880000Y-119000000I-2620000J0D01*
G01*
X159880000Y-119000000D02*
G75*
G02*
X165120000Y-119000000I2620000J0D01*
G01*
%TO.C,R8*%
X127880000Y-112920000D02*
X128650000Y-112920000D01*
X135960000Y-112920000D02*
X135190000Y-112920000D01*
X128650000Y-111550000D02*
X135190000Y-111550000D01*
X135190000Y-114290000D01*
X128650000Y-114290000D01*
X128650000Y-111550000D01*
%TO.C,Q4*%
X148700000Y-105710000D02*
X152300000Y-105710000D01*
X148661522Y-105698478D02*
G75*
G02*
X150500000Y-101259999I1838478J1838478D01*
G01*
X150500000Y-101260000D02*
G75*
G02*
X152338478Y-105698478I0J-2600000D01*
G01*
%TO.C,R9*%
X172880000Y-99000000D02*
X173650000Y-99000000D01*
X180960000Y-99000000D02*
X180190000Y-99000000D01*
X173650000Y-97630000D02*
X180190000Y-97630000D01*
X180190000Y-100370000D01*
X173650000Y-100370000D01*
X173650000Y-97630000D01*
%TD*%
M02*
