%TF.GenerationSoftware,KiCad,Pcbnew,9.0.5*%
%TF.CreationDate,2025-10-15T22:39:10-03:00*%
%TF.ProjectId,BDNM-01,42444e4d-2d30-4312-9e6b-696361645f70,rev?*%
%TF.SameCoordinates,Original*%
%TF.FileFunction,Copper,L1,Top*%
%TF.FilePolarity,Positive*%
%FSLAX46Y46*%
G04 Gerber Fmt 4.6, Leading zero omitted, Abs format (unit mm)*
G04 Created by KiCad (PCBNEW 9.0.5) date 2025-10-15 22:39:10*
%MOMM*%
%LPD*%
G01*
G04 APERTURE LIST*
G04 Aperture macros list*
%AMRoundRect*
0 Rectangle with rounded corners*
0 $1 Rounding radius*
0 $2 $3 $4 $5 $6 $7 $8 $9 X,Y pos of 4 corners*
0 Add a 4 corners polygon primitive as box body*
4,1,4,$2,$3,$4,$5,$6,$7,$8,$9,$2,$3,0*
0 Add four circle primitives for the rounded corners*
1,1,$1+$1,$2,$3*
1,1,$1+$1,$4,$5*
1,1,$1+$1,$6,$7*
1,1,$1+$1,$8,$9*
0 Add four rect primitives between the rounded corners*
20,1,$1+$1,$2,$3,$4,$5,0*
20,1,$1+$1,$4,$5,$6,$7,0*
20,1,$1+$1,$6,$7,$8,$9,0*
20,1,$1+$1,$8,$9,$2,$3,0*%
G04 Aperture macros list end*
%TA.AperFunction,ComponentPad*%
%ADD10R,2.500000X4.500000*%
%TD*%
%TA.AperFunction,ComponentPad*%
%ADD11O,2.500000X4.500000*%
%TD*%
%TA.AperFunction,ComponentPad*%
%ADD12C,1.600000*%
%TD*%
%TA.AperFunction,ComponentPad*%
%ADD13RoundRect,0.249999X-1.250001X-1.250001X1.250001X-1.250001X1.250001X1.250001X-1.250001X1.250001X0*%
%TD*%
%TA.AperFunction,ComponentPad*%
%ADD14C,3.000000*%
%TD*%
%TA.AperFunction,ComponentPad*%
%ADD15RoundRect,0.250000X-0.550000X-0.550000X0.550000X-0.550000X0.550000X0.550000X-0.550000X0.550000X0*%
%TD*%
%TA.AperFunction,ComponentPad*%
%ADD16RoundRect,0.250000X-0.750000X-0.750000X0.750000X-0.750000X0.750000X0.750000X-0.750000X0.750000X0*%
%TD*%
%TA.AperFunction,ComponentPad*%
%ADD17C,2.000000*%
%TD*%
%TA.AperFunction,ComponentPad*%
%ADD18R,1.905000X2.000000*%
%TD*%
%TA.AperFunction,ComponentPad*%
%ADD19O,1.905000X2.000000*%
%TD*%
%TA.AperFunction,ComponentPad*%
%ADD20RoundRect,0.250000X-1.750000X-1.750000X1.750000X-1.750000X1.750000X1.750000X-1.750000X1.750000X0*%
%TD*%
%TA.AperFunction,ComponentPad*%
%ADD21C,4.000000*%
%TD*%
%TA.AperFunction,ComponentPad*%
%ADD22RoundRect,0.250000X-0.550000X0.550000X-0.550000X-0.550000X0.550000X-0.550000X0.550000X0.550000X0*%
%TD*%
%TA.AperFunction,ComponentPad*%
%ADD23R,1.050000X1.500000*%
%TD*%
%TA.AperFunction,ComponentPad*%
%ADD24O,1.050000X1.500000*%
%TD*%
%TA.AperFunction,Conductor*%
%ADD25C,0.200000*%
%TD*%
G04 APERTURE END LIST*
D10*
%TO.P,Q2,1,B*%
%TO.N,Net-(Q2-B)*%
X154550000Y-49000000D03*
D11*
%TO.P,Q2,2,C*%
%TO.N,Net-(Q1-E)*%
X160000000Y-49000000D03*
%TO.P,Q2,3,E*%
%TO.N,GND*%
X165450000Y-49000000D03*
%TD*%
D12*
%TO.P,R4,1*%
%TO.N,Net-(Q4-C)*%
X153920000Y-81000000D03*
%TO.P,R4,2*%
%TO.N,Net-(C2-Pad1)*%
X164080000Y-81000000D03*
%TD*%
D13*
%TO.P,J3,1,Pin_1*%
%TO.N,Net-(J3-Pin_1)*%
X138500000Y-132617500D03*
D14*
%TO.P,J3,2,Pin_2*%
%TO.N,GND*%
X143500000Y-132617500D03*
%TD*%
D13*
%TO.P,J2,1,Pin_1*%
%TO.N,Net-(J2-Pin_1)*%
X113000000Y-132617500D03*
D14*
%TO.P,J2,2,Pin_2*%
%TO.N,GND*%
X118000000Y-132617500D03*
%TD*%
D12*
%TO.P,R3,1*%
%TO.N,Net-(Q1-E)*%
X129707677Y-85420000D03*
%TO.P,R3,2*%
%TO.N,Net-(Q4-C)*%
X139867677Y-85420000D03*
%TD*%
%TO.P,R6,1*%
%TO.N,Net-(Q3-B)*%
X171920000Y-92000000D03*
%TO.P,R6,2*%
%TO.N,GND*%
X182080000Y-92000000D03*
%TD*%
D15*
%TO.P,C3,1*%
%TO.N,Net-(C3-Pad1)*%
X179317621Y-110500000D03*
D12*
%TO.P,C3,2*%
%TO.N,GND*%
X181817621Y-110500000D03*
%TD*%
%TO.P,R2,1*%
%TO.N,Net-(C1-Pad1)*%
X106500000Y-80080000D03*
%TO.P,R2,2*%
%TO.N,Net-(Q1-B)*%
X106500000Y-69920000D03*
%TD*%
%TO.P,R5,1*%
%TO.N,Net-(Q2-B)*%
X171920000Y-69000000D03*
%TO.P,R5,2*%
%TO.N,GND*%
X182080000Y-69000000D03*
%TD*%
%TO.P,R1,1*%
%TO.N,Net-(J2-Pin_1)*%
X98840000Y-85420000D03*
%TO.P,R1,2*%
%TO.N,Net-(C1-Pad1)*%
X109000000Y-85420000D03*
%TD*%
D16*
%TO.P,C1,1*%
%TO.N,Net-(C1-Pad1)*%
X116000000Y-85420000D03*
D17*
%TO.P,C1,2*%
%TO.N,Net-(Q1-E)*%
X121000000Y-85420000D03*
%TD*%
D12*
%TO.P,R7,1*%
%TO.N,Net-(C3-Pad1)*%
X117000000Y-101920000D03*
%TO.P,R7,2*%
%TO.N,Net-(J2-Pin_1)*%
X106840000Y-101920000D03*
%TD*%
D18*
%TO.P,Q3,1,E*%
%TO.N,Net-(Q2-B)*%
X163080000Y-90500000D03*
D19*
%TO.P,Q3,2,C*%
%TO.N,Net-(Q1-B)*%
X160540000Y-90500000D03*
%TO.P,Q3,3,B*%
%TO.N,Net-(Q3-B)*%
X158000000Y-90500000D03*
%TD*%
D13*
%TO.P,J4,1,Pin_1*%
%TO.N,Net-(J4-Pin_1)*%
X162500000Y-133500000D03*
D14*
%TO.P,J4,2,Pin_2*%
%TO.N,GND*%
X167500000Y-133500000D03*
%TD*%
D16*
%TO.P,C2,1*%
%TO.N,Net-(C2-Pad1)*%
X177000000Y-81000000D03*
D17*
%TO.P,C2,2*%
%TO.N,GND*%
X182000000Y-81000000D03*
%TD*%
D10*
%TO.P,Q1,1,B*%
%TO.N,Net-(Q1-B)*%
X112100000Y-49000000D03*
D11*
%TO.P,Q1,2,C*%
%TO.N,Net-(J2-Pin_1)*%
X117550000Y-49000000D03*
%TO.P,Q1,3,E*%
%TO.N,Net-(Q1-E)*%
X123000000Y-49000000D03*
%TD*%
D20*
%TO.P,C5,1*%
%TO.N,Net-(Q1-E)*%
X140342169Y-67000000D03*
D21*
%TO.P,C5,2*%
%TO.N,Net-(J3-Pin_1)*%
X150342169Y-67000000D03*
%TD*%
D22*
%TO.P,C4,1*%
%TO.N,Net-(Q4-B)*%
X162500000Y-118000000D03*
D12*
%TO.P,C4,2*%
%TO.N,Net-(J4-Pin_1)*%
X162500000Y-120000000D03*
%TD*%
%TO.P,R8,1*%
%TO.N,Net-(C3-Pad1)*%
X126840000Y-112920000D03*
%TO.P,R8,2*%
%TO.N,Net-(Q4-B)*%
X137000000Y-112920000D03*
%TD*%
D23*
%TO.P,Q4,1,C*%
%TO.N,Net-(Q4-C)*%
X149230000Y-103860000D03*
D24*
%TO.P,Q4,2,B*%
%TO.N,Net-(Q4-B)*%
X150500000Y-103860000D03*
%TO.P,Q4,3,E*%
%TO.N,Net-(Q3-B)*%
X151770000Y-103860000D03*
%TD*%
D12*
%TO.P,R9,1*%
%TO.N,Net-(Q4-B)*%
X171840000Y-99000000D03*
%TO.P,R9,2*%
%TO.N,GND*%
X182000000Y-99000000D03*
%TD*%
D25*
%TO.N,Net-(C1-Pad1)*%
X109000000Y-85420000D02*
X116000000Y-85420000D01*
X109000000Y-82580000D02*
X106500000Y-80080000D01*
X109000000Y-85420000D02*
X109000000Y-82580000D01*
%TO.N,Net-(Q1-E)*%
X140342169Y-74657831D02*
X140342169Y-67000000D01*
X140342169Y-66342169D02*
X123000000Y-49000000D01*
X140342169Y-67000000D02*
X142000000Y-67000000D01*
X129707677Y-85420000D02*
X129707677Y-85292323D01*
X140342169Y-67000000D02*
X140342169Y-66342169D01*
X142000000Y-67000000D02*
X160000000Y-49000000D01*
X129707677Y-85292323D02*
X140342169Y-74657831D01*
X121000000Y-85420000D02*
X129707677Y-85420000D01*
%TO.N,GND*%
X154500000Y-138500000D02*
X164500000Y-138500000D01*
X182000000Y-92080000D02*
X182080000Y-92000000D01*
X165450000Y-51790000D02*
X165450000Y-49000000D01*
X181817621Y-99182379D02*
X182000000Y-99000000D01*
X182000000Y-81000000D02*
X182000000Y-80500000D01*
X182000000Y-99000000D02*
X182000000Y-92080000D01*
X143500000Y-132617500D02*
X148617500Y-132617500D01*
X182080000Y-92000000D02*
X182080000Y-81080000D01*
X182000000Y-80500000D02*
X182080000Y-80420000D01*
X167500000Y-135500000D02*
X167500000Y-133500000D01*
X182080000Y-81080000D02*
X182000000Y-81000000D01*
X181817621Y-119182379D02*
X167500000Y-133500000D01*
X181817621Y-110500000D02*
X181817621Y-99182379D01*
X182080000Y-68420000D02*
X165450000Y-51790000D01*
X182080000Y-69000000D02*
X182080000Y-68420000D01*
X182080000Y-80420000D02*
X182080000Y-69000000D01*
X122882500Y-137500000D02*
X143500000Y-137500000D01*
X118000000Y-132617500D02*
X122882500Y-137500000D01*
X143500000Y-137500000D02*
X143500000Y-132617500D01*
X164500000Y-138500000D02*
X167500000Y-135500000D01*
X148617500Y-132617500D02*
X154500000Y-138500000D01*
X181817621Y-110500000D02*
X181817621Y-119182379D01*
%TO.N,Net-(C3-Pad1)*%
X117000000Y-103080000D02*
X126840000Y-112920000D01*
X117000000Y-101920000D02*
X117000000Y-103080000D01*
%TO.N,Net-(J4-Pin_1)*%
X162500000Y-120000000D02*
X162500000Y-133500000D01*
%TO.N,Net-(Q4-B)*%
X142390000Y-112920000D02*
X145655000Y-109655000D01*
X145655000Y-109655000D02*
X150500000Y-104810000D01*
X154000000Y-118000000D02*
X145655000Y-109655000D01*
X150500000Y-104810000D02*
X150500000Y-103860000D01*
X137000000Y-112920000D02*
X142390000Y-112920000D01*
X171840000Y-99000000D02*
X171840000Y-108660000D01*
X171840000Y-108660000D02*
X162500000Y-118000000D01*
X162500000Y-118000000D02*
X154000000Y-118000000D01*
%TO.N,Net-(J3-Pin_1)*%
X131500000Y-117500000D02*
X131500000Y-106000000D01*
X138500000Y-132617500D02*
X138500000Y-124500000D01*
X131500000Y-106000000D02*
X145000000Y-92500000D01*
X145000000Y-72342169D02*
X150342169Y-67000000D01*
X145000000Y-92500000D02*
X145000000Y-72342169D01*
X138500000Y-124500000D02*
X131500000Y-117500000D01*
%TO.N,Net-(J2-Pin_1)*%
X113000000Y-132617500D02*
X113000000Y-108080000D01*
X106840000Y-101920000D02*
X106840000Y-93420000D01*
X106840000Y-93420000D02*
X98840000Y-85420000D01*
X98840000Y-67710000D02*
X117550000Y-49000000D01*
X113000000Y-108080000D02*
X106840000Y-101920000D01*
X98840000Y-85420000D02*
X98840000Y-67710000D01*
%TO.N,Net-(Q2-B)*%
X171920000Y-69000000D02*
X171920000Y-81660000D01*
X171920000Y-81660000D02*
X163080000Y-90500000D01*
%TO.N,Net-(Q3-B)*%
X171920000Y-92000000D02*
X166920000Y-97000000D01*
X158000000Y-97000000D02*
X158000000Y-97630000D01*
X166920000Y-97000000D02*
X158000000Y-97000000D01*
X158000000Y-97630000D02*
X151770000Y-103860000D01*
X158000000Y-90500000D02*
X158000000Y-97000000D01*
%TO.N,Net-(Q4-C)*%
X149230000Y-85690000D02*
X149230000Y-103860000D01*
X153920000Y-81000000D02*
X149230000Y-85690000D01*
%TD*%
M02*
