%TF.GenerationSoftware,KiCad,Pcbnew,9.0.5*%
%TF.CreationDate,2025-11-08T09:12:19-03:00*%
%TF.ProjectId,BDNM-01,42444e4d-2d30-4312-9e6b-696361645f70,rev?*%
%TF.SameCoordinates,Original*%
%TF.FileFunction,Copper,L2,Bot*%
%TF.FilePolarity,Positive*%
%FSLAX46Y46*%
G04 Gerber Fmt 4.6, Leading zero omitted, Abs format (unit mm)*
G04 Created by KiCad (PCBNEW 9.0.5) date 2025-11-08 09:12:19*
%MOMM*%
%LPD*%
G01*
G04 APERTURE LIST*
G04 Aperture macros list*
%AMRoundRect*
0 Rectangle with rounded corners*
0 $1 Rounding radius*
0 $2 $3 $4 $5 $6 $7 $8 $9 X,Y pos of 4 corners*
0 Add a 4 corners polygon primitive as box body*
4,1,4,$2,$3,$4,$5,$6,$7,$8,$9,$2,$3,0*
0 Add four circle primitives for the rounded corners*
1,1,$1+$1,$2,$3*
1,1,$1+$1,$4,$5*
1,1,$1+$1,$6,$7*
1,1,$1+$1,$8,$9*
0 Add four rect primitives between the rounded corners*
20,1,$1+$1,$2,$3,$4,$5,0*
20,1,$1+$1,$4,$5,$6,$7,0*
20,1,$1+$1,$6,$7,$8,$9,0*
20,1,$1+$1,$8,$9,$2,$3,0*%
G04 Aperture macros list end*
%TA.AperFunction,ComponentPad*%
%ADD10RoundRect,0.500000X1.100000X1.100000X-1.100000X1.100000X-1.100000X-1.100000X1.100000X-1.100000X0*%
%TD*%
%TA.AperFunction,ComponentPad*%
%ADD11C,3.200000*%
%TD*%
%TA.AperFunction,ComponentPad*%
%ADD12RoundRect,0.249999X-1.250001X1.250001X-1.250001X-1.250001X1.250001X-1.250001X1.250001X1.250001X0*%
%TD*%
%TA.AperFunction,ComponentPad*%
%ADD13C,3.000000*%
%TD*%
%TA.AperFunction,ComponentPad*%
%ADD14RoundRect,0.500000X-1.100000X1.100000X-1.100000X-1.100000X1.100000X-1.100000X1.100000X1.100000X0*%
%TD*%
%TA.AperFunction,ComponentPad*%
%ADD15C,4.000000*%
%TD*%
%TA.AperFunction,ComponentPad*%
%ADD16RoundRect,0.249999X1.250001X-1.250001X1.250001X1.250001X-1.250001X1.250001X-1.250001X-1.250001X0*%
%TD*%
%TA.AperFunction,ComponentPad*%
%ADD17R,3.000000X2.100000*%
%TD*%
%TA.AperFunction,ComponentPad*%
%ADD18O,4.000000X3.000000*%
%TD*%
%TA.AperFunction,ComponentPad*%
%ADD19O,4.000000X3.200000*%
%TD*%
%TA.AperFunction,ComponentPad*%
%ADD20RoundRect,0.500000X-1.500000X1.500000X-1.500000X-1.500000X1.500000X-1.500000X1.500000X1.500000X0*%
%TD*%
%TA.AperFunction,ComponentPad*%
%ADD21R,4.000000X4.000000*%
%TD*%
%TA.AperFunction,ComponentPad*%
%ADD22O,4.000000X4.000000*%
%TD*%
%TA.AperFunction,ComponentPad*%
%ADD23R,4.500000X2.500000*%
%TD*%
%TA.AperFunction,ComponentPad*%
%ADD24O,4.500000X2.500000*%
%TD*%
%TA.AperFunction,ComponentPad*%
%ADD25RoundRect,0.250000X1.750000X-1.750000X1.750000X1.750000X-1.750000X1.750000X-1.750000X-1.750000X0*%
%TD*%
%TA.AperFunction,Conductor*%
%ADD26C,2.500000*%
%TD*%
G04 APERTURE END LIST*
D10*
%TO.P,C4,1*%
%TO.N,Net-(Q4-B)*%
X21620000Y-42000000D03*
D11*
%TO.P,C4,2*%
%TO.N,Net-(J4-Pin_1)*%
X16380000Y-42000000D03*
%TD*%
%TO.P,R4,1*%
%TO.N,Net-(Q4-C)*%
X75920000Y-82000000D03*
%TO.P,R4,2*%
%TO.N,Net-(C2-Pad1)*%
X75920000Y-92160000D03*
%TD*%
D12*
%TO.P,J4,1,Pin_1*%
%TO.N,Net-(J4-Pin_1)*%
X13920000Y-54160000D03*
D13*
%TO.P,J4,2,Pin_2*%
%TO.N,GND*%
X13920000Y-59160000D03*
%TD*%
D14*
%TO.P,C3,1*%
%TO.N,Net-(C3-Pad1)*%
X30920000Y-55640000D03*
D11*
%TO.P,C3,2*%
%TO.N,GND*%
X30920000Y-62180000D03*
%TD*%
%TO.P,R1,1*%
%TO.N,Net-(J2-Pin_1)*%
X71420000Y-14000000D03*
%TO.P,R1,2*%
%TO.N,Net-(C1-Pad1)*%
X71420000Y-24160000D03*
%TD*%
%TO.P,R3,1*%
%TO.N,Net-(Q1-E)*%
X76920000Y-58000000D03*
%TO.P,R3,2*%
%TO.N,Net-(Q4-C)*%
X76920000Y-68160000D03*
%TD*%
%TO.P,R7,1*%
%TO.N,Net-(C3-Pad1)*%
X46260000Y-13160000D03*
%TO.P,R7,2*%
%TO.N,Net-(J2-Pin_1)*%
X56420000Y-13160000D03*
%TD*%
D15*
%TO.P,GND1,1,Pin_1*%
%TO.N,GND*%
X29420000Y-25660000D03*
%TD*%
D16*
%TO.P,J3,1,Pin_1*%
%TO.N,Net-(J3-Pin_1)*%
X116420000Y-94160000D03*
D13*
%TO.P,J3,2,Pin_2*%
%TO.N,GND*%
X116420000Y-89160000D03*
%TD*%
D17*
%TO.P,Q4,1,C*%
%TO.N,Net-(Q4-C)*%
X61420000Y-64120000D03*
D18*
%TO.P,Q4,2,B*%
%TO.N,Net-(Q4-B)*%
X61420000Y-68390000D03*
D19*
%TO.P,Q4,3,E*%
%TO.N,Net-(Q3-B)*%
X61420000Y-73120000D03*
%TD*%
D20*
%TO.P,C2,1*%
%TO.N,Net-(C2-Pad1)*%
X55420000Y-82160000D03*
D15*
%TO.P,C2,2*%
%TO.N,GND*%
X55420000Y-89920000D03*
%TD*%
D11*
%TO.P,R9,1*%
%TO.N,Net-(Q4-B)*%
X44920000Y-50580000D03*
%TO.P,R9,2*%
%TO.N,GND*%
X44920000Y-60740000D03*
%TD*%
D21*
%TO.P,Q3,1,E*%
%TO.N,Net-(Q2-B)*%
X101920000Y-86740000D03*
D22*
%TO.P,Q3,2,C*%
%TO.N,Net-(Q1-B)*%
X101920000Y-80200000D03*
%TO.P,Q3,3,B*%
%TO.N,Net-(Q3-B)*%
X101920000Y-73740000D03*
%TD*%
D23*
%TO.P,Q1,1,B*%
%TO.N,Net-(Q1-B)*%
X120920000Y-18660000D03*
D24*
%TO.P,Q1,2,C*%
%TO.N,Net-(J2-Pin_1)*%
X120920000Y-24110000D03*
%TO.P,Q1,3,E*%
%TO.N,Net-(Q1-E)*%
X120920000Y-29560000D03*
%TD*%
D11*
%TO.P,R8,1*%
%TO.N,Net-(C3-Pad1)*%
X44920000Y-25500000D03*
%TO.P,R8,2*%
%TO.N,Net-(Q4-B)*%
X44920000Y-35660000D03*
%TD*%
%TO.P,R2,1*%
%TO.N,Net-(C1-Pad1)*%
X84260000Y-26160000D03*
%TO.P,R2,2*%
%TO.N,Net-(Q1-B)*%
X94420000Y-26160000D03*
%TD*%
%TO.P,R6,1*%
%TO.N,Net-(Q3-B)*%
X52420000Y-73240000D03*
%TO.P,R6,2*%
%TO.N,GND*%
X52420000Y-63080000D03*
%TD*%
D20*
%TO.P,C1,1*%
%TO.N,Net-(C1-Pad1)*%
X77420000Y-38672323D03*
D15*
%TO.P,C1,2*%
%TO.N,Net-(Q1-E)*%
X77420000Y-48672323D03*
%TD*%
D25*
%TO.P,C5,1*%
%TO.N,Net-(Q1-E)*%
X104420000Y-46660000D03*
D15*
%TO.P,C5,2*%
%TO.N,Net-(J3-Pin_1)*%
X104420000Y-36660000D03*
%TD*%
D23*
%TO.P,Q2,1,B*%
%TO.N,Net-(Q2-B)*%
X120820000Y-49760000D03*
D24*
%TO.P,Q2,2,C*%
%TO.N,Net-(Q1-E)*%
X120920000Y-57210000D03*
%TO.P,Q2,3,E*%
%TO.N,GND*%
X120820000Y-65745000D03*
%TD*%
D12*
%TO.P,J2,1,Pin_1*%
%TO.N,Net-(J2-Pin_1)*%
X13802500Y-14660000D03*
D13*
%TO.P,J2,2,Pin_2*%
%TO.N,GND*%
X13802500Y-19660000D03*
%TD*%
D11*
%TO.P,R5,1*%
%TO.N,Net-(Q2-B)*%
X98000000Y-95160000D03*
%TO.P,R5,2*%
%TO.N,GND*%
X87840000Y-95160000D03*
%TD*%
D26*
%TO.N,Net-(Q1-E)*%
X98000000Y-33580000D02*
X100080000Y-31500000D01*
X100080000Y-31500000D02*
X118980000Y-31500000D01*
X102407677Y-48672323D02*
X104420000Y-46660000D01*
X98000000Y-40660000D02*
X98000000Y-33580000D01*
X76920000Y-58000000D02*
X76920000Y-49172323D01*
X76920000Y-49172323D02*
X77420000Y-48672323D01*
X104420000Y-48660000D02*
X112970000Y-57210000D01*
X104420000Y-46660000D02*
X98420000Y-40660000D01*
X98420000Y-40660000D02*
X98000000Y-40660000D01*
X118980000Y-31500000D02*
X120920000Y-29560000D01*
X112970000Y-57210000D02*
X120920000Y-57210000D01*
X77420000Y-48672323D02*
X102407677Y-48672323D01*
X104420000Y-46660000D02*
X104420000Y-48660000D01*
%TO.N,Net-(C1-Pad1)*%
X71420000Y-26660000D02*
X77420000Y-32660000D01*
X84260000Y-26160000D02*
X71920000Y-26160000D01*
X77420000Y-32660000D02*
X77420000Y-38672323D01*
X71920000Y-26160000D02*
X71420000Y-26660000D01*
X71420000Y-24160000D02*
X71420000Y-26660000D01*
%TO.N,GND*%
X7920000Y-60660000D02*
X12420000Y-60660000D01*
X87840000Y-95160000D02*
X87840000Y-99080000D01*
X22160000Y-59160000D02*
X25180000Y-62180000D01*
X44920000Y-60740000D02*
X44500000Y-60740000D01*
X120920000Y-84660000D02*
X120820000Y-84560000D01*
X30920000Y-62180000D02*
X30920000Y-64160000D01*
X120920000Y-84660000D02*
X116420000Y-89160000D01*
X54160000Y-88660000D02*
X62160000Y-96660000D01*
X38420000Y-74920000D02*
X52160000Y-88660000D01*
X87840000Y-99080000D02*
X87920000Y-99160000D01*
X30920000Y-64160000D02*
X38420000Y-71660000D01*
X23920000Y-31160000D02*
X6420000Y-31160000D01*
X47260000Y-63080000D02*
X44920000Y-60740000D01*
X87920000Y-99160000D02*
X102920000Y-99160000D01*
X13920000Y-59160000D02*
X22160000Y-59160000D01*
X25180000Y-62180000D02*
X30920000Y-62180000D01*
X38420000Y-71660000D02*
X38420000Y-74920000D01*
X52420000Y-63080000D02*
X47260000Y-63080000D01*
X12420000Y-60660000D02*
X13920000Y-59160000D01*
X29420000Y-25660000D02*
X23920000Y-31160000D01*
X47000000Y-63080000D02*
X38420000Y-71660000D01*
X23420000Y-19660000D02*
X13802500Y-19660000D01*
X52160000Y-88660000D02*
X54160000Y-88660000D01*
X120820000Y-84560000D02*
X120820000Y-65745000D01*
X112920000Y-89160000D02*
X116420000Y-89160000D01*
X62160000Y-96660000D02*
X84420000Y-96660000D01*
X102920000Y-99160000D02*
X112920000Y-89160000D01*
X6420000Y-59160000D02*
X7920000Y-60660000D01*
X84420000Y-96660000D02*
X85920000Y-95160000D01*
X47260000Y-63080000D02*
X47000000Y-63080000D01*
X6420000Y-31160000D02*
X6420000Y-59160000D01*
X85920000Y-95160000D02*
X87840000Y-95160000D01*
X29420000Y-25660000D02*
X23420000Y-19660000D01*
%TO.N,Net-(C2-Pad1)*%
X55420000Y-82160000D02*
X58420000Y-82160000D01*
X68420000Y-92160000D02*
X75920000Y-92160000D01*
X58420000Y-82160000D02*
X68420000Y-92160000D01*
%TO.N,Net-(C3-Pad1)*%
X39900000Y-55640000D02*
X39920000Y-55660000D01*
X30920000Y-55640000D02*
X39900000Y-55640000D01*
X51500000Y-55660000D02*
X51500000Y-32080000D01*
X46260000Y-24160000D02*
X44920000Y-25500000D01*
X39920000Y-55660000D02*
X51500000Y-55660000D01*
X46260000Y-13160000D02*
X46260000Y-24160000D01*
X51500000Y-32080000D02*
X44920000Y-25500000D01*
%TO.N,Net-(Q4-B)*%
X51000000Y-10240000D02*
X51000000Y-18240000D01*
X51000000Y-18240000D02*
X56920000Y-24160000D01*
X42000000Y-7500000D02*
X48260000Y-7500000D01*
X40420000Y-9080000D02*
X42000000Y-7500000D01*
X44920000Y-35660000D02*
X44920000Y-50580000D01*
X35080000Y-42000000D02*
X21620000Y-42000000D01*
X56920000Y-24160000D02*
X56920000Y-67160000D01*
X56920000Y-67160000D02*
X58150000Y-68390000D01*
X40420000Y-34660000D02*
X40420000Y-9080000D01*
X48260000Y-7500000D02*
X51000000Y-10240000D01*
X41420000Y-35660000D02*
X35080000Y-42000000D01*
X58150000Y-68390000D02*
X61420000Y-68390000D01*
X41420000Y-35660000D02*
X40420000Y-34660000D01*
X41420000Y-35660000D02*
X44920000Y-35660000D01*
%TO.N,Net-(J4-Pin_1)*%
X13920000Y-54160000D02*
X13920000Y-44460000D01*
X13920000Y-44460000D02*
X16380000Y-42000000D01*
%TO.N,Net-(J3-Pin_1)*%
X131000000Y-90080000D02*
X126920000Y-94160000D01*
X104420000Y-36660000D02*
X120160000Y-36660000D01*
X126920000Y-94160000D02*
X116420000Y-94160000D01*
X120160000Y-36660000D02*
X131000000Y-47500000D01*
X131000000Y-47500000D02*
X131000000Y-90080000D01*
%TO.N,Net-(J2-Pin_1)*%
X13802500Y-14660000D02*
X23501000Y-14660000D01*
X126920000Y-24160000D02*
X126870000Y-24110000D01*
X110420000Y-10160000D02*
X123920000Y-10160000D01*
X56420000Y-5080000D02*
X56420000Y-13160000D01*
X56500000Y-3161000D02*
X56500000Y-5000000D01*
X71420000Y-14000000D02*
X106580000Y-14000000D01*
X23501000Y-14660000D02*
X35000000Y-3161000D01*
X126870000Y-24110000D02*
X120920000Y-24110000D01*
X123920000Y-10160000D02*
X126920000Y-13160000D01*
X56420000Y-13160000D02*
X70580000Y-13160000D01*
X70580000Y-13160000D02*
X71420000Y-14000000D01*
X126920000Y-13160000D02*
X126920000Y-24160000D01*
X35000000Y-3161000D02*
X56500000Y-3161000D01*
X56500000Y-5000000D02*
X56420000Y-5080000D01*
X106580000Y-14000000D02*
X110420000Y-10160000D01*
%TO.N,Net-(Q1-B)*%
X94420000Y-30660000D02*
X81420000Y-43660000D01*
X68920000Y-59660000D02*
X72920000Y-63660000D01*
X105420000Y-26160000D02*
X112920000Y-18660000D01*
X94420000Y-26160000D02*
X94420000Y-30660000D01*
X104880000Y-80200000D02*
X101920000Y-80200000D01*
X72920000Y-63660000D02*
X107500000Y-63660000D01*
X81420000Y-43660000D02*
X68920000Y-43660000D01*
X68920000Y-43660000D02*
X68920000Y-59660000D01*
X112920000Y-18660000D02*
X120920000Y-18660000D01*
X107500000Y-80160000D02*
X104920000Y-80160000D01*
X107500000Y-63660000D02*
X107500000Y-80160000D01*
X104920000Y-80160000D02*
X104880000Y-80200000D01*
X94420000Y-26160000D02*
X105420000Y-26160000D01*
%TO.N,Net-(Q2-B)*%
X98000000Y-95160000D02*
X98000000Y-90660000D01*
X98000000Y-90660000D02*
X101920000Y-86740000D01*
X121060000Y-50000000D02*
X120820000Y-49760000D01*
X112000000Y-62580000D02*
X113080000Y-61500000D01*
X126500000Y-61500000D02*
X126500000Y-50000000D01*
X112000000Y-81000000D02*
X112000000Y-62580000D01*
X101920000Y-86740000D02*
X106260000Y-86740000D01*
X113080000Y-61500000D02*
X126500000Y-61500000D01*
X126500000Y-50000000D02*
X121060000Y-50000000D01*
X106260000Y-86740000D02*
X112000000Y-81000000D01*
%TO.N,Net-(Q3-B)*%
X94000000Y-80080000D02*
X86920000Y-87160000D01*
X61420000Y-75160000D02*
X61420000Y-73000000D01*
X52660000Y-73000000D02*
X52420000Y-73240000D01*
X61420000Y-73000000D02*
X52660000Y-73000000D01*
X95500000Y-74000000D02*
X94000000Y-74000000D01*
X101920000Y-73740000D02*
X95760000Y-73740000D01*
X94000000Y-74000000D02*
X94000000Y-80080000D01*
X73420000Y-87160000D02*
X61420000Y-75160000D01*
X86920000Y-87160000D02*
X73420000Y-87160000D01*
X95760000Y-73740000D02*
X95500000Y-74000000D01*
%TO.N,Net-(Q4-C)*%
X75920000Y-70500000D02*
X75920000Y-69160000D01*
X66000000Y-64000000D02*
X62040000Y-64000000D01*
X75920000Y-69160000D02*
X76920000Y-68160000D01*
X75920000Y-82000000D02*
X75920000Y-70500000D01*
X75920000Y-70500000D02*
X72500000Y-70500000D01*
X72500000Y-70500000D02*
X66000000Y-64000000D01*
%TD*%
M02*
