M48
; DRILL file {KiCad 9.0.5} date 2025-11-26T07:47:48-0300
; FORMAT={-:-/ absolute / metric / decimal}
; #@! TF.CreationDate,2025-11-26T07:47:48-03:00
; #@! TF.GenerationSoftware,Kicad,Pcbnew,9.0.5
; #@! TF.FileFunction,MixedPlating,1,2
FMAT,2
METRIC
; #@! TA.AperFunction,Plated,PTH,ComponentDrill
T1C0.500
; #@! TA.AperFunction,Plated,PTH,ComponentDrill
T2C2.000
%
G90
G05
T1
X13.803Y-14.66
X13.803Y-19.66
X13.92Y-54.16
X13.92Y-59.16
X16.38Y-42.0
X21.62Y-42.0
X30.92Y-55.64
X30.92Y-62.18
X44.92Y-25.5
X44.92Y-35.66
X44.92Y-50.58
X44.92Y-60.74
X46.26Y-13.16
X52.42Y-63.08
X52.42Y-73.24
X55.42Y-82.16
X55.42Y-89.92
X56.42Y-13.16
X61.42Y-64.12
X61.42Y-68.39
X61.42Y-73.12
X71.42Y-14.0
X71.42Y-24.16
X75.92Y-82.0
X75.92Y-92.16
X76.92Y-58.0
X76.92Y-68.16
X77.42Y-38.672
X77.42Y-48.672
X84.26Y-26.16
X87.735Y-99.392
X94.265Y-91.608
X94.42Y-26.16
X101.92Y-73.74
X101.92Y-80.2
X101.92Y-86.74
X104.42Y-36.66
X104.42Y-46.66
X116.42Y-89.16
X116.42Y-94.16
X120.425Y-14.912
X120.425Y-23.412
X120.425Y-31.912
X120.82Y-49.76
X120.82Y-65.745
X120.92Y-57.21
T2
X29.42Y-25.66
M30
