%TF.GenerationSoftware,KiCad,Pcbnew,9.0.5*%
%TF.CreationDate,2025-10-15T22:39:10-03:00*%
%TF.ProjectId,BDNM-01,42444e4d-2d30-4312-9e6b-696361645f70,rev?*%
%TF.SameCoordinates,Original*%
%TF.FileFunction,Soldermask,Top*%
%TF.FilePolarity,Negative*%
%FSLAX46Y46*%
G04 Gerber Fmt 4.6, Leading zero omitted, Abs format (unit mm)*
G04 Created by KiCad (PCBNEW 9.0.5) date 2025-10-15 22:39:10*
%MOMM*%
%LPD*%
G01*
G04 APERTURE LIST*
G04 Aperture macros list*
%AMRoundRect*
0 Rectangle with rounded corners*
0 $1 Rounding radius*
0 $2 $3 $4 $5 $6 $7 $8 $9 X,Y pos of 4 corners*
0 Add a 4 corners polygon primitive as box body*
4,1,4,$2,$3,$4,$5,$6,$7,$8,$9,$2,$3,0*
0 Add four circle primitives for the rounded corners*
1,1,$1+$1,$2,$3*
1,1,$1+$1,$4,$5*
1,1,$1+$1,$6,$7*
1,1,$1+$1,$8,$9*
0 Add four rect primitives between the rounded corners*
20,1,$1+$1,$2,$3,$4,$5,0*
20,1,$1+$1,$4,$5,$6,$7,0*
20,1,$1+$1,$6,$7,$8,$9,0*
20,1,$1+$1,$8,$9,$2,$3,0*%
G04 Aperture macros list end*
%ADD10R,2.500000X4.500000*%
%ADD11O,2.500000X4.500000*%
%ADD12C,1.600000*%
%ADD13RoundRect,0.249999X-1.250001X-1.250001X1.250001X-1.250001X1.250001X1.250001X-1.250001X1.250001X0*%
%ADD14C,3.000000*%
%ADD15RoundRect,0.250000X-0.550000X-0.550000X0.550000X-0.550000X0.550000X0.550000X-0.550000X0.550000X0*%
%ADD16RoundRect,0.250000X-0.750000X-0.750000X0.750000X-0.750000X0.750000X0.750000X-0.750000X0.750000X0*%
%ADD17C,2.000000*%
%ADD18R,1.905000X2.000000*%
%ADD19O,1.905000X2.000000*%
%ADD20RoundRect,0.250000X-1.750000X-1.750000X1.750000X-1.750000X1.750000X1.750000X-1.750000X1.750000X0*%
%ADD21C,4.000000*%
%ADD22RoundRect,0.250000X-0.550000X0.550000X-0.550000X-0.550000X0.550000X-0.550000X0.550000X0.550000X0*%
%ADD23R,1.050000X1.500000*%
%ADD24O,1.050000X1.500000*%
G04 APERTURE END LIST*
D10*
%TO.C,Q2*%
X154550000Y-49000000D03*
D11*
X160000000Y-49000000D03*
X165450000Y-49000000D03*
%TD*%
D12*
%TO.C,R4*%
X153920000Y-81000000D03*
X164080000Y-81000000D03*
%TD*%
D13*
%TO.C,J3*%
X138500000Y-132617500D03*
D14*
X143500000Y-132617500D03*
%TD*%
D13*
%TO.C,J2*%
X113000000Y-132617500D03*
D14*
X118000000Y-132617500D03*
%TD*%
D12*
%TO.C,R3*%
X129707677Y-85420000D03*
X139867677Y-85420000D03*
%TD*%
%TO.C,R6*%
X171920000Y-92000000D03*
X182080000Y-92000000D03*
%TD*%
D15*
%TO.C,C3*%
X179317621Y-110500000D03*
D12*
X181817621Y-110500000D03*
%TD*%
%TO.C,R2*%
X106500000Y-80080000D03*
X106500000Y-69920000D03*
%TD*%
%TO.C,R5*%
X171920000Y-69000000D03*
X182080000Y-69000000D03*
%TD*%
%TO.C,R1*%
X98840000Y-85420000D03*
X109000000Y-85420000D03*
%TD*%
D16*
%TO.C,C1*%
X116000000Y-85420000D03*
D17*
X121000000Y-85420000D03*
%TD*%
D12*
%TO.C,R7*%
X117000000Y-101920000D03*
X106840000Y-101920000D03*
%TD*%
D18*
%TO.C,Q3*%
X163080000Y-90500000D03*
D19*
X160540000Y-90500000D03*
X158000000Y-90500000D03*
%TD*%
D13*
%TO.C,J4*%
X162500000Y-133500000D03*
D14*
X167500000Y-133500000D03*
%TD*%
D16*
%TO.C,C2*%
X177000000Y-81000000D03*
D17*
X182000000Y-81000000D03*
%TD*%
D10*
%TO.C,Q1*%
X112100000Y-49000000D03*
D11*
X117550000Y-49000000D03*
X123000000Y-49000000D03*
%TD*%
D20*
%TO.C,C5*%
X140342169Y-67000000D03*
D21*
X150342169Y-67000000D03*
%TD*%
D22*
%TO.C,C4*%
X162500000Y-118000000D03*
D12*
X162500000Y-120000000D03*
%TD*%
%TO.C,R8*%
X126840000Y-112920000D03*
X137000000Y-112920000D03*
%TD*%
D23*
%TO.C,Q4*%
X149230000Y-103860000D03*
D24*
X150500000Y-103860000D03*
X151770000Y-103860000D03*
%TD*%
D12*
%TO.C,R9*%
X171840000Y-99000000D03*
X182000000Y-99000000D03*
%TD*%
M02*
