<?xml version="1.0" standalone="no"?>
<!DOCTYPE svg PUBLIC "-//W3C//DTD SVG 1.1//EN"
"http://www.w3.org/Graphics/SVG/1.1/DTD/svg11.dtd">
<svg width="504.756" height="400.819" viewBox="0 0 10515.7 8350.39" version="1.1"
xmlns="http://www.w3.org/2000/svg"
xmlns:xlink="http://www.w3.org/1999/xlink">
<circle cx="1016.38" cy="1143.7" r="39.3701" style=""/>
<circle cx="1016.38" cy="1537.4" r="39.3701" style=""/>
<circle cx="1219.29" cy="3296.46" r="39.3701" style=""/>
<circle cx="1631.89" cy="3296.46" r="39.3701" style=""/>
<circle cx="1025.59" cy="4253.94" r="39.3701" style=""/>
<circle cx="1025.59" cy="4647.64" r="39.3701" style=""/>
<circle cx="2364.17" cy="4370.47" r="39.3701" style=""/>
<circle cx="2364.17" cy="4885.43" r="39.3701" style=""/>
<circle cx="3466.54" cy="3972.05" r="39.3701" style=""/>
<circle cx="3466.54" cy="4772.05" r="39.3701" style=""/>
<circle cx="4057.09" cy="4956.3" r="39.3701" style=""/>
<circle cx="4765.75" cy="5038.19" r="39.3701" style=""/>
<circle cx="4765.75" cy="5374.41" r="39.3701" style=""/>
<circle cx="4765.75" cy="5746.85" r="39.3701" style=""/>
<circle cx="4057.09" cy="5756.3" r="39.3701" style=""/>
<circle cx="4293.31" cy="6458.66" r="39.3701" style=""/>
<circle cx="4293.31" cy="7069.69" r="39.3701" style=""/>
<circle cx="5907.48" cy="6446.06" r="39.3701" style=""/>
<circle cx="5907.48" cy="7246.06" r="39.3701" style=""/>
<circle cx="6837.8" cy="7815.51" r="39.3701" style=""/>
<circle cx="7351.97" cy="7202.6" r="39.3701" style=""/>
<circle cx="7954.72" cy="6819.29" r="39.3701" style=""/>
<circle cx="9096.46" cy="7403.54" r="39.3701" style=""/>
<circle cx="9096.46" cy="7009.84" r="39.3701" style=""/>
<circle cx="7954.72" cy="6304.33" r="39.3701" style=""/>
<circle cx="7954.72" cy="5795.67" r="39.3701" style=""/>
<circle cx="9442.91" cy="5166.14" r="39.3701" style=""/>
<circle cx="9450.79" cy="4494.09" r="39.3701" style=""/>
<circle cx="9442.91" cy="3907.48" r="39.3701" style=""/>
<circle cx="8151.57" cy="2875.98" r="39.3701" style=""/>
<circle cx="8151.57" cy="3663.39" r="39.3701" style=""/>
<circle cx="9411.81" cy="2502.13" r="39.3701" style=""/>
<circle cx="9411.81" cy="1832.83" r="39.3701" style=""/>
<circle cx="9411.81" cy="1163.54" r="39.3701" style=""/>
<circle cx="7364.17" cy="2049.21" r="39.3701" style=""/>
<circle cx="6564.17" cy="2049.21" r="39.3701" style=""/>
<circle cx="6025.59" cy="3034.41" r="39.3701" style=""/>
<circle cx="6025.59" cy="3821.81" r="39.3701" style=""/>
<circle cx="5986.22" cy="4556.3" r="39.3701" style=""/>
<circle cx="5986.22" cy="5356.3" r="39.3701" style=""/>
<circle cx="3466.54" cy="2797.24" r="39.3701" style=""/>
<circle cx="3466.54" cy="1997.24" r="39.3701" style=""/>
<circle cx="3572.05" cy="1025.59" r="39.3701" style=""/>
<circle cx="4372.05" cy="1025.59" r="39.3701" style=""/>
<circle cx="5553.15" cy="1091.73" r="39.3701" style=""/>
<circle cx="5553.15" cy="1891.73" r="39.3701" style=""/>
<circle cx="2246.06" cy="2009.84" r="98.4252" style=""/>
</svg>
