<?xml version="1.0" standalone="no"?>
<!DOCTYPE svg PUBLIC "-//W3C//DTD SVG 1.1//EN"
"http://www.w3.org/Graphics/SVG/1.1/DTD/svg11.dtd">
<svg width="504.756" height="400.819" viewBox="0 0 10515.7 8350.39" version="1.1"
xmlns="http://www.w3.org/2000/svg"
xmlns:xlink="http://www.w3.org/1999/xlink">
<g fill-rule="evenodd"><path d="M 336.612,4647.64 L 336.612,2442.91 L 338.504,2423.71 L 344.105,2405.25 L 353.2,2388.23 L 365.44,2373.31 L 380.355,2361.07 L 397.372,2351.98 L 415.836,2346.38 L 435.038,2344.49 L 1772.22,2344.49 L 2090.32,2026.39 L 2088.58,2009.84 L 2090.32,1993.29 L 1732.85,1635.83 L 1138.47,1635.83 L 1121.71,1654.43 L 1095.08,1673.78 L 1065,1687.17 L 1032.8,1694.02 L 999.877,1694.02 L 967.674,1687.17 L 937.598,1673.78 L 910.964,1654.43 L 888.934,1629.97 L 872.473,1601.45 L 862.3,1570.14 L 858.858,1537.4 L 862.3,1504.66 L 872.473,1473.35 L 888.934,1444.84 L 910.964,1420.37 L 937.598,1401.02 L 967.674,1387.63 L 999.877,1380.78 L 1032.8,1380.78 L 1065,1387.63 L 1095.08,1401.02 L 1121.71,1420.37 L 1138.46,1438.97 L 1773.62,1438.97 L 1792.82,1440.87 L 1811.29,1446.47 L 1828.3,1455.56 L 1843.22,1467.8 L 2228.81,1853.39 L 2262.52,1853.22 L 2294.73,1860.07 L 2324.8,1873.46 L 2351.44,1892.81 L 2373.47,1917.28 L 2389.93,1945.79 L 2400.1,1977.1 L 2403.54,2009.84 L 2400.1,2042.58 L 2389.93,2073.9 L 2373.47,2102.41 L 2351.44,2126.87 L 2324.8,2146.22 L 2294.73,2159.62 L 2262.52,2166.46 L 2228.81,2166.29 L 1882.59,2512.51 L 1870.84,2522.54 L 1857.68,2530.61 L 1843.41,2536.52 L 1828.39,2540.13 L 1812.99,2541.34 L 533.463,2541.34 L 533.463,4606.87 L 593.918,4667.32 L 866.711,4667.32 L 869.849,4664.18 L 868.11,4647.64 L 871.552,4614.9 L 881.725,4583.58 L 898.186,4555.07 L 920.216,4530.61 L 946.85,4511.26 L 976.926,4497.87 L 1009.13,4491.02 L 1042.05,4491.02 L 1074.25,4497.87 L 1104.33,4511.26 L 1130.97,4530.61 L 1147.72,4549.21 L 1674.41,4549.21 L 1693.61,4551.1 L 1712.07,4556.7 L 1729.09,4565.8 L 1744,4578.04 L 1952.97,4787.01 L 2242.05,4787.01 L 2258.8,4768.4 L 2285.43,4749.05 L 2315.51,4735.66 L 2347.71,4728.82 L 2380.63,4728.82 L 2412.84,4735.66 L 2442.91,4749.05 L 2469.55,4768.4 L 2491.58,4792.87 L 2508.04,4821.38 L 2518.21,4852.69 L 2521.65,4885.43 L 2518.21,4918.18 L 2508.04,4949.49 L 2491.58,4978 L 2469.55,5002.46 L 2466.62,5004.59 L 2954.72,5492.69 L 3501.36,4946.06 L 3483.79,4928.5 L 3450.07,4928.66 L 3417.87,4921.82 L 3387.8,4908.43 L 3361.16,4889.08 L 3339.13,4864.61 L 3322.67,4836.1 L 3312.5,4804.79 L 3309.06,4772.05 L 3312.5,4739.31 L 3322.67,4707.99 L 3339.13,4679.48 L 3361.16,4655.02 L 3387.8,4635.67 L 3417.87,4622.27 L 3450.07,4615.43 L 3483,4615.43 L 3515.2,4622.27 L 3545.28,4635.67 L 3571.91,4655.02 L 3593.94,4679.48 L 3610.4,4707.99 L 3620.57,4739.31 L 3624.02,4772.05 L 3622.28,4788.59 L 3691.55,4857.87 L 3934.96,4857.87 L 3951.71,4839.27 L 3978.35,4819.92 L 4008.42,4806.53 L 4040.63,4799.68 L 4073.55,4799.68 L 4105.75,4806.53 L 4135.83,4819.92 L 4162.46,4839.27 L 4184.49,4863.73 L 4200.95,4892.25 L 4211.13,4923.56 L 4214.57,4956.3 L 4211.13,4989.04 L 4200.95,5020.35 L 4184.49,5048.86 L 4162.46,5073.33 L 4135.83,5092.68 L 4105.75,5106.07 L 4073.55,5112.92 L 4040.63,5112.92 L 4008.42,5106.07 L 3978.35,5092.68 L 3951.71,5073.33 L 3934.96,5054.72 L 3671.08,5054.72 L 3053.15,5672.66 L 3053.15,5847.81 L 4077.38,6872.05 L 4194.09,6872.05 L 4213.3,6873.94 L 4231.76,6879.54 L 4248.78,6888.63 L 4263.69,6900.87 L 4276.05,6913.24 L 4309.77,6913.07 L 4341.97,6919.91 L 4372.05,6933.3 L 4398.68,6952.65 L 4420.71,6977.12 L 4437.17,7005.63 L 4447.35,7036.94 L 4450.79,7069.69 L 4449.05,7086.23 L 4864.78,7501.97 L 6477.56,7501.97 L 6496.76,7503.86 L 6515.22,7509.46 L 6532.24,7518.55 L 6547.15,7530.79 L 6724.06,7707.7 L 6732.39,7698.44 L 6759.03,7679.09 L 6789.1,7665.7 L 6821.31,7658.86 L 6854.23,7658.86 L 6886.43,7665.7 L 6916.51,7679.09 L 6943.14,7698.44 L 6959.89,7717.05 L 7974.47,7717.05 L 8751.27,6940.24 L 8766.18,6928 L 8783.2,6918.91 L 8801.66,6913.31 L 8820.87,6911.42 L 8974.33,6911.42 L 8991.08,6892.81 L 9017.72,6873.46 L 9047.79,6860.07 L 9080,6853.22 L 9113.71,6853.39 L 9344.49,6622.62 L 9344.49,5282.18 L 9339.62,5281.67 L 9316.13,5274.04 L 9294.75,5261.69 L 9276.4,5245.17 L 9261.89,5225.2 L 9251.84,5202.64 L 9246.71,5178.49 L 9246.71,5153.8 L 9251.84,5129.64 L 9261.89,5107.09 L 9276.4,5087.11 L 9294.75,5070.59 L 9316.13,5058.24 L 9339.62,5050.61 L 9364.17,5048.03 L 9521.65,5048.03 L 9546.21,5050.61 L 9569.69,5058.24 L 9591.08,5070.59 L 9609.43,5087.11 L 9623.94,5107.09 L 9633.98,5129.64 L 9639.12,5153.8 L 9639.12,5178.49 L 9633.98,5202.64 L 9623.94,5225.2 L 9609.43,5245.17 L 9591.08,5261.69 L 9569.69,5274.04 L 9546.21,5281.67 L 9541.34,5282.18 L 9541.34,6617.13 L 9547.32,6636.31 L 9549.21,6655.51 L 9547.32,6674.71 L 9541.72,6693.18 L 9532.62,6710.19 L 9520.38,6725.11 L 9252.2,6993.29 L 9253.94,7009.84 L 9250.5,7042.58 L 9240.32,7073.9 L 9223.86,7102.41 L 9201.83,7126.87 L 9175.2,7146.22 L 9145.12,7159.62 L 9112.92,7166.46 L 9080,7166.46 L 9047.79,7159.62 L 9017.72,7146.22 L 8991.08,7126.87 L 8974.33,7108.27 L 8861.63,7108.27 L 8084.83,7885.07 L 8069.92,7897.31 L 8052.9,7906.41 L 8034.44,7912.01 L 8015.24,7913.9 L 6959.89,7913.9 L 6943.14,7932.5 L 6916.51,7951.85 L 6886.43,7965.25 L 6854.23,7972.09 L 6821.31,7972.09 L 6789.1,7965.25 L 6759.03,7951.85 L 6732.39,7932.5 L 6715.64,7913.9 L 6692.64,7913.9 L 6673.44,7912.01 L 6654.97,7906.41 L 6637.96,7897.31 L 6623.04,7885.07 L 6436.79,7698.82 L 4824.02,7698.82 L 4804.81,7696.93 L 4786.35,7691.33 L 4769.33,7682.23 L 4754.42,7669.99 L 4310.56,7226.13 L 4276.85,7226.3 L 4244.64,7219.46 L 4214.57,7206.07 L 4187.93,7186.72 L 4165.9,7162.25 L 4149.44,7133.74 L 4139.27,7102.43 L 4135.91,7068.9 L 4036.61,7068.9 L 4017.41,7067.01 L 3998.95,7061.41 L 3981.93,7052.31 L 3967.02,7040.07 L 2885.13,5958.18 L 2872.89,5943.26 L 2863.79,5926.25 L 2858.19,5907.78 L 2856.3,5888.58 L 2856.3,5672.66 L 2294.57,5110.94 L 2284.54,5099.19 L 2276.47,5086.02 L 2270.56,5071.75 L 2266.96,5056.74 L 2265.75,5041.34 L 2265.75,5007.51 L 2258.8,5002.46 L 2242.04,4983.86 L 1912.2,4983.86 L 1893,4981.97 L 1874.54,4976.37 L 1857.52,4967.27 L 1842.61,4955.03 L 1633.64,4746.06 L 1147.72,4746.06 L 1130.97,4764.67 L 1104.33,4784.02 L 1074.25,4797.41 L 1042.05,4804.26 L 1008.33,4804.09 L 977.077,4835.34 L 962.162,4847.58 L 945.145,4856.68 L 926.681,4862.28 L 907.48,4864.17 L 553.15,4864.17 L 533.948,4862.28 L 515.484,4856.68 L 498.468,4847.58 L 483.553,4835.34 L 365.441,4717.23 L 355.41,4705.49 L 347.34,4692.32 L 341.43,4678.05 L 337.824,4663.03 L 336.612,4647.64 z " style="fill-opacity:1.000000;fill:rgb(167,241,217);stroke:rgb(0,0,0);stroke-width:2"/></g>
<g fill-rule="evenodd"><path d="M 858.858,1274.93 L 858.858,1012.47 L 859.432,1007.01 L 861.127,1001.79 L 863.871,997.04 L 867.542,992.962 L 871.982,989.737 L 876.994,987.505 L 882.361,986.364 L 1147.57,986.22 L 1150.32,986.364 L 1155.68,987.505 L 1160.7,989.737 L 1165.13,992.962 L 1168.81,997.04 L 1171.55,1001.79 L 1173.25,1007.01 L 1173.82,1012.47 L 1173.82,1045.27 L 1739.23,1045.27 L 2615.83,168.669 L 2627.58,158.638 L 2640.75,150.569 L 2655.02,144.658 L 2670.03,141.053 L 2685.43,139.841 L 4378.35,139.841 L 4397.55,141.732 L 4416.01,147.333 L 4433.03,156.429 L 4447.94,168.669 L 4460.18,183.584 L 4469.28,200.6 L 4474.88,219.064 L 4476.77,238.266 L 4476.77,383.07 L 4475.56,398.467 L 4471.95,413.485 L 4470.47,417.065 L 4470.47,903.509 L 4477.42,908.56 L 4494.17,927.163 L 5487.01,927.163 L 5502.4,928.375 L 5517.42,931.98 L 5528.96,936.758 L 5536.69,935.115 L 5569.61,935.115 L 5601.81,941.96 L 5631.89,955.35 L 5658.52,974.702 L 5675.28,993.307 L 8280.88,993.307 L 8554.42,719.773 L 8569.33,707.532 L 8586.35,698.437 L 8604.81,692.836 L 8624.02,690.945 L 9687.01,690.945 L 9706.21,692.836 L 9724.67,698.437 L 9741.69,707.532 L 9756.6,719.773 L 9992.82,955.991 L 10002.9,967.735 L 10010.9,980.904 L 10016.8,995.173 L 10020.4,1010.19 L 10021.7,1025.59 L 10021.7,1767.32 L 10020.4,1782.72 L 10016.8,1797.74 L 10010.9,1812.01 L 10002.9,1825.18 L 9992.82,1836.92 L 9927.27,1902.47 L 9912.36,1914.71 L 9895.34,1923.81 L 9876.88,1929.41 L 9857.68,1931.3 L 9573.26,1931.3 L 9568.21,1938.25 L 9543.75,1960.28 L 9515.23,1976.74 L 9483.92,1986.91 L 9451.18,1990.35 L 9372.44,1990.35 L 9339.7,1986.91 L 9308.39,1976.74 L 9279.88,1960.28 L 9255.41,1938.25 L 9236.06,1911.61 L 9222.67,1881.54 L 9215.82,1849.34 L 9215.82,1816.41 L 9222.67,1784.21 L 9236.06,1754.13 L 9255.41,1727.5 L 9279.88,1705.47 L 9308.39,1689.01 L 9339.7,1678.84 L 9372.44,1675.39 L 9451.18,1675.39 L 9483.92,1678.84 L 9515.23,1689.01 L 9543.75,1705.47 L 9568.21,1727.5 L 9573.26,1734.45 L 9816.91,1734.45 L 9824.8,1726.55 L 9824.8,1066.36 L 9646.24,887.795 L 8664.78,887.795 L 8391.25,1161.33 L 8376.33,1173.57 L 8359.32,1182.67 L 8340.85,1188.27 L 8321.65,1190.16 L 5675.28,1190.16 L 5658.52,1208.76 L 5631.89,1228.11 L 5601.81,1241.5 L 5569.61,1248.35 L 5536.69,1248.35 L 5504.49,1241.5 L 5474.41,1228.11 L 5447.77,1208.76 L 5425.75,1184.3 L 5409.28,1155.79 L 5399.06,1124.01 L 4494.18,1124.01 L 4477.42,1142.62 L 4450.79,1161.97 L 4420.71,1175.36 L 4388.51,1182.21 L 4355.59,1182.21 L 4323.38,1175.36 L 4293.31,1161.97 L 4266.67,1142.62 L 4244.64,1118.16 L 4228.18,1089.64 L 4218.01,1058.33 L 4214.57,1025.59 L 4218.01,992.849 L 4228.18,961.538 L 4244.64,933.026 L 4266.67,908.56 L 4273.62,903.512 L 4273.62,389.37 L 4274.83,373.973 L 4278.44,358.955 L 4279.92,355.375 L 4279.92,336.691 L 2726.2,336.691 L 1849.6,1213.3 L 1837.85,1223.33 L 1824.68,1231.4 L 1810.41,1237.31 L 1795.4,1240.91 L 1780,1242.13 L 1173.82,1242.13 L 1173.82,1274.93 L 1173.25,1280.39 L 1171.55,1285.61 L 1168.81,1290.36 L 1165.13,1294.44 L 1160.7,1297.66 L 1155.68,1299.9 L 1150.32,1301.04 L 885.105,1301.18 L 882.361,1301.04 L 876.994,1299.9 L 871.982,1297.66 L 867.542,1294.44 L 863.871,1290.36 L 861.127,1285.61 L 859.432,1280.39 L 858.858,1274.93 z " style="fill-opacity:1.000000;fill:rgb(42,130,200);stroke:rgb(0,0,0);stroke-width:2"/></g>
<g fill-rule="evenodd"><path d="M 868.11,4385.17 L 868.11,4122.7 L 868.684,4117.25 L 870.379,4112.03 L 873.123,4107.28 L 876.794,4103.2 L 881.234,4099.97 L 886.246,4097.74 L 891.613,4096.6 L 894.357,4096.46 L 927.164,4096.46 L 927.164,3490.16 L 928.376,3474.76 L 931.982,3459.74 L 937.892,3445.47 L 945.962,3432.3 L 955.992,3420.56 L 1063.55,3313 L 1061.81,3296.46 L 1065.25,3263.71 L 1075.43,3232.4 L 1091.89,3203.89 L 1113.92,3179.43 L 1140.55,3160.07 L 1170.63,3146.68 L 1202.83,3139.84 L 1235.75,3139.84 L 1267.96,3146.68 L 1298.03,3160.07 L 1324.67,3179.43 L 1346.7,3203.89 L 1363.16,3232.4 L 1373.33,3263.71 L 1376.77,3296.46 L 1373.33,3329.2 L 1363.16,3360.51 L 1346.7,3389.02 L 1324.67,3413.49 L 1298.03,3432.84 L 1267.96,3446.23 L 1235.75,3453.07 L 1202.03,3452.91 L 1124.01,3530.93 L 1124.01,4096.46 L 1156.82,4096.46 L 1159.57,4096.6 L 1164.93,4097.74 L 1169.95,4099.97 L 1174.39,4103.2 L 1178.06,4107.28 L 1180.8,4112.03 L 1182.5,4117.25 L 1183.07,4122.7 L 1183.07,4385.17 L 1182.5,4390.63 L 1180.8,4395.85 L 1178.06,4400.6 L 1174.39,4404.68 L 1169.95,4407.9 L 1164.93,4410.13 L 1159.57,4411.27 L 894.357,4411.42 L 891.613,4411.27 L 886.246,4410.13 L 881.234,4407.9 L 876.794,4404.68 L 873.123,4400.6 L 870.379,4395.85 L 868.684,4390.63 L 868.11,4385.17 z " style="fill-opacity:1.000000;fill:rgb(216,254,67);stroke:rgb(0,0,0);stroke-width:2"/></g>
<g fill-rule="evenodd"><path d="M 1474.41,3404.72 L 1474.41,3188.19 L 1475.48,3177.96 L 1478.66,3168.17 L 1483.81,3159.26 L 1490.69,3151.62 L 1499.02,3145.57 L 1508.41,3141.39 L 1518.48,3139.25 L 1523.62,3139.25 L 1523.62,3138.98 L 1740.16,3138.98 L 1740.16,3139.25 L 1745.3,3139.25 L 1755.37,3141.39 L 1764.76,3145.57 L 1773.09,3151.62 L 1779.97,3159.26 L 1785.12,3168.17 L 1788.29,3177.96 L 1789.37,3188.19 L 1789.37,3198.03 L 2650.96,3198.03 L 3051.75,2797.24 L 3042.61,2788.1 L 3030.37,2773.18 L 3021.27,2756.17 L 3015.67,2737.7 L 3013.78,2718.5 L 3013.78,704.33 L 3015.67,685.128 L 3021.27,666.664 L 3030.37,649.648 L 3042.61,634.733 L 3167.02,510.323 L 3178.76,500.292 L 3191.93,492.223 L 3206.2,486.312 L 3221.22,482.707 L 3236.61,481.495 L 3729.53,481.495 L 3748.73,483.386 L 3767.19,488.987 L 3784.21,498.083 L 3799.12,510.323 L 4014.87,726.071 L 4027.11,740.986 L 4036.21,758.002 L 4041.81,776.466 L 4043.7,795.668 L 4043.7,1384.82 L 4481.01,1822.14 L 4493.25,1837.05 L 4502.35,1854.07 L 4507.95,1872.53 L 4509.84,1891.73 L 4509.84,5236.79 L 4549.04,5275.98 L 4661.93,5275.98 L 4678.34,5266.51 L 4701.82,5258.88 L 4726.38,5256.3 L 4805.12,5256.3 L 4829.67,5258.88 L 4853.16,5266.51 L 4874.54,5278.86 L 4892.89,5295.38 L 4907.4,5315.35 L 4917.45,5337.91 L 4922.58,5362.06 L 4922.58,5386.76 L 4917.45,5410.91 L 4907.4,5433.46 L 4892.89,5453.44 L 4874.54,5469.96 L 4853.16,5482.31 L 4829.67,5489.94 L 4805.12,5492.52 L 4726.38,5492.52 L 4701.82,5489.94 L 4678.34,5482.31 L 4661.93,5472.83 L 4508.27,5472.83 L 4489.07,5470.94 L 4470.6,5465.34 L 4453.59,5456.25 L 4438.67,5444.01 L 4341.82,5347.16 L 4331.79,5335.41 L 4323.72,5322.24 L 4317.81,5307.97 L 4314.2,5292.96 L 4312.99,5277.56 L 4312.99,1932.5 L 3875.68,1495.19 L 3863.44,1480.27 L 3854.34,1463.26 L 3848.74,1444.79 L 3846.85,1425.59 L 3846.85,836.437 L 3688.76,678.345 L 3277.38,678.345 L 3210.63,745.099 L 3210.63,2677.73 L 3231.71,2698.82 L 3344.41,2698.82 L 3361.16,2680.21 L 3387.8,2660.86 L 3417.87,2647.47 L 3450.07,2640.63 L 3483,2640.63 L 3515.2,2647.47 L 3545.28,2660.86 L 3571.91,2680.21 L 3593.94,2704.68 L 3610.4,2733.19 L 3620.57,2764.5 L 3624.02,2797.24 L 3620.57,2829.99 L 3610.4,2861.3 L 3593.94,2889.81 L 3571.91,2914.27 L 3564.96,2919.33 L 3564.96,3849.97 L 3571.91,3855.02 L 3593.94,3879.48 L 3610.4,3907.99 L 3620.57,3939.31 L 3624.02,3972.05 L 3620.57,4004.79 L 3610.4,4036.1 L 3593.94,4064.61 L 3571.91,4089.08 L 3545.28,4108.43 L 3515.2,4121.82 L 3483,4128.66 L 3450.07,4128.66 L 3417.87,4121.82 L 3387.8,4108.43 L 3361.16,4089.08 L 3339.13,4064.61 L 3322.67,4036.1 L 3312.5,4004.79 L 3309.06,3972.05 L 3312.5,3939.31 L 3322.67,3907.99 L 3339.13,3879.48 L 3361.16,3855.02 L 3368.11,3849.97 L 3368.11,2919.32 L 3361.16,2914.27 L 3344.41,2895.67 L 3231.71,2895.67 L 2761.33,3366.05 L 2746.41,3378.29 L 2729.4,3387.39 L 2710.93,3392.99 L 2691.73,3394.88 L 1789.37,3394.88 L 1789.37,3404.72 L 1788.29,3414.96 L 1785.12,3424.74 L 1779.97,3433.65 L 1773.09,3441.3 L 1764.76,3447.34 L 1755.37,3451.53 L 1745.3,3453.67 L 1740.16,3453.67 L 1740.16,3453.94 L 1523.62,3453.94 L 1523.62,3453.67 L 1518.48,3453.67 L 1508.41,3451.53 L 1499.02,3447.34 L 1490.69,3441.3 L 1483.81,3433.65 L 1478.66,3424.74 L 1475.48,3414.96 L 1474.41,3404.72 z " style="fill-opacity:1.000000;fill:rgb(77,152,85);stroke:rgb(0,0,0);stroke-width:2"/></g>
<g fill-rule="evenodd"><path d="M 2206.69,4478.74 L 2206.69,4262.2 L 2207.77,4251.97 L 2210.95,4242.19 L 2216.09,4233.28 L 2222.98,4225.63 L 2231.3,4219.59 L 2240.7,4215.4 L 2250.76,4213.26 L 2255.91,4213.26 L 2255.91,4212.99 L 2472.44,4212.99 L 2472.44,4213.26 L 2477.59,4213.26 L 2487.65,4215.4 L 2497.05,4219.59 L 2505.37,4225.63 L 2512.25,4233.28 L 2517.4,4242.19 L 2520.58,4251.97 L 2521.65,4262.2 L 2521.65,4272.05 L 3071.26,4272.05 L 3087.24,4273.62 L 3886.22,4273.62 L 3886.22,2556.12 L 3483.79,2153.69 L 3450.07,2153.86 L 3417.87,2147.02 L 3387.8,2133.63 L 3361.16,2114.27 L 3339.13,2089.81 L 3322.67,2061.3 L 3312.5,2029.99 L 3309.06,1997.24 L 3312.5,1964.5 L 3322.67,1933.19 L 3339.13,1904.68 L 3361.16,1880.21 L 3387.8,1860.86 L 3417.87,1847.47 L 3450.07,1840.63 L 3473.62,1840.63 L 3473.62,1147.67 L 3466.67,1142.62 L 3444.64,1118.16 L 3428.18,1089.64 L 3418.01,1058.33 L 3414.57,1025.59 L 3418.01,992.849 L 3428.18,961.538 L 3444.64,933.026 L 3466.67,908.56 L 3493.31,889.209 L 3523.38,875.818 L 3555.59,868.973 L 3588.51,868.973 L 3620.71,875.818 L 3650.79,889.209 L 3677.42,908.56 L 3699.45,933.026 L 3715.91,961.538 L 3726.09,992.849 L 3729.53,1025.59 L 3726.09,1058.33 L 3715.91,1089.64 L 3699.45,1118.16 L 3677.42,1142.62 L 3670.47,1147.67 L 3670.47,1891.73 L 3668.58,1910.93 L 3662.98,1929.4 L 3653.88,1946.41 L 3641.64,1961.33 L 3622.28,1980.7 L 3624.02,1997.24 L 3622.28,2013.79 L 4054.24,2445.76 L 4064.27,2457.5 L 4072.34,2470.67 L 4078.25,2484.94 L 4081.86,2499.96 L 4083.07,2515.35 L 4083.07,4372.05 L 4081.18,4391.25 L 4075.58,4409.71 L 4066.48,4426.73 L 4054.24,4441.64 L 4039.33,4453.88 L 4022.31,4462.98 L 4003.85,4468.58 L 3984.65,4470.47 L 3072.83,4470.47 L 3056.85,4468.9 L 2521.65,4468.9 L 2521.65,4478.74 L 2520.58,4488.97 L 2517.4,4498.76 L 2512.25,4507.67 L 2505.37,4515.31 L 2497.05,4521.36 L 2487.65,4525.54 L 2477.59,4527.68 L 2472.44,4527.68 L 2472.44,4527.95 L 2255.91,4527.95 L 2255.91,4527.68 L 2250.76,4527.68 L 2240.7,4525.54 L 2231.3,4521.36 L 2222.98,4515.31 L 2216.09,4507.67 L 2210.95,4498.76 L 2207.77,4488.97 L 2206.69,4478.74 z " style="fill-opacity:1.000000;fill:rgb(140,226,179);stroke:rgb(0,0,0);stroke-width:2"/></g>
<g fill-rule="evenodd"><path d="M 3899.61,5756.3 L 3903.05,5723.56 L 3913.22,5692.25 L 3929.68,5663.73 L 3951.71,5639.27 L 3978.35,5619.92 L 4008.42,5606.53 L 4040.63,5599.68 L 4073.55,5599.68 L 4105.75,5606.53 L 4135.83,5619.92 L 4162.06,5638.97 L 4670.51,5638.97 L 4683.01,5631.76 L 4708.06,5623.62 L 4734.25,5620.87 L 4797.24,5620.87 L 4823.44,5623.62 L 4848.49,5631.76 L 4871.3,5644.93 L 4890.87,5662.55 L 4906.35,5683.86 L 4917.06,5707.92 L 4922.54,5733.68 L 4922.54,5760.02 L 4917.06,5785.78 L 4906.35,5809.84 L 4890.87,5831.15 L 4871.3,5848.77 L 4864.17,5852.89 L 4864.17,5866.71 L 5751.4,6753.94 L 6732.85,6753.94 L 7232.68,6254.11 L 7232.68,5816.14 L 7234.57,5796.94 L 7240.17,5778.47 L 7249.26,5761.46 L 7261.5,5746.54 L 7276.42,5734.3 L 7293.44,5725.21 L 7311.9,5719.61 L 7331.1,5717.71 L 7410.27,5717.71 L 7415,5713.83 L 7432.02,5704.74 L 7450.48,5699.13 L 7469.68,5697.24 L 7832.6,5697.24 L 7849.35,5678.64 L 7875.98,5659.29 L 7906.06,5645.9 L 7938.26,5639.05 L 7971.19,5639.05 L 8003.39,5645.9 L 8033.46,5659.29 L 8060.1,5678.64 L 8082.13,5703.1 L 8098.59,5731.62 L 8108.76,5762.93 L 8112.2,5795.67 L 8108.76,5828.41 L 8098.59,5859.72 L 8082.13,5888.23 L 8060.1,5912.7 L 8033.46,5932.05 L 8003.39,5945.44 L 7971.19,5952.29 L 7938.26,5952.29 L 7906.06,5945.44 L 7875.98,5932.05 L 7849.35,5912.7 L 7832.6,5894.09 L 7508.63,5894.09 L 7503.89,5897.98 L 7486.88,5907.07 L 7468.41,5912.67 L 7449.21,5914.57 L 7429.53,5914.57 L 7429.53,6294.88 L 7427.64,6314.08 L 7422.03,6332.55 L 7412.94,6349.56 L 7400.7,6364.48 L 6843.22,6921.96 L 6831.47,6931.99 L 6818.31,6940.06 L 6804.04,6945.97 L 6789.02,6949.58 L 6773.62,6950.79 L 5710.63,6950.79 L 5691.43,6948.9 L 5672.96,6943.3 L 5655.95,6934.2 L 5641.03,6921.96 L 4696.15,5977.08 L 4683.91,5962.16 L 4674.81,5945.15 L 4669.21,5926.68 L 4667.32,5907.48 L 4667.32,5852.89 L 4660.2,5848.77 L 4645.82,5835.83 L 4192.02,5835.83 L 4184.49,5848.86 L 4162.46,5873.33 L 4135.83,5892.68 L 4105.75,5906.07 L 4073.55,5912.92 L 4040.63,5912.92 L 4008.42,5906.07 L 3978.35,5892.68 L 3951.71,5873.33 L 3929.68,5848.86 L 3913.22,5820.35 L 3903.05,5789.04 L 3899.61,5756.3 z " style="fill-opacity:1.000000;fill:rgb(71,23,17);stroke:rgb(0,0,0);stroke-width:2"/></g>
<g fill-rule="evenodd"><path d="M 4135.83,6576.77 L 4135.83,6340.55 L 4136.69,6332.37 L 4139.23,6324.54 L 4143.35,6317.41 L 4148.85,6311.29 L 4155.51,6306.46 L 4163.03,6303.11 L 4171.08,6301.4 L 4175.2,6301.4 L 4175.2,6301.18 L 4411.42,6301.18 L 4411.42,6301.4 L 4415.53,6301.4 L 4423.58,6303.11 L 4431.1,6306.46 L 4437.76,6311.29 L 4443.27,6317.41 L 4447.38,6324.54 L 4449.93,6332.37 L 4450.79,6340.55 L 4450.79,6360.23 L 4529.53,6360.23 L 4544.92,6361.45 L 4559.94,6365.05 L 4574.21,6370.96 L 4587.38,6379.03 L 4599.12,6389.06 L 5357.7,7147.64 L 5785.35,7147.64 L 5802.11,7129.03 L 5828.74,7109.68 L 5858.82,7096.29 L 5891.02,7089.45 L 5923.94,7089.45 L 5956.14,7096.29 L 5986.22,7109.68 L 6012.86,7129.03 L 6034.88,7153.5 L 6051.35,7182.01 L 6061.52,7213.32 L 6064.96,7246.06 L 6061.52,7278.8 L 6051.35,7310.12 L 6034.88,7338.63 L 6012.86,7363.09 L 5986.22,7382.44 L 5956.14,7395.84 L 5923.94,7402.68 L 5891.02,7402.68 L 5858.82,7395.84 L 5828.74,7382.44 L 5802.11,7363.09 L 5785.35,7344.49 L 5316.93,7344.49 L 5301.53,7343.28 L 5286.51,7339.67 L 5272.24,7333.76 L 5259.07,7325.69 L 5247.33,7315.66 L 4488.76,6557.09 L 4450.79,6557.09 L 4450.79,6576.77 L 4449.93,6584.96 L 4447.38,6592.78 L 4443.27,6599.91 L 4437.76,6606.03 L 4431.1,6610.87 L 4423.58,6614.21 L 4415.53,6615.93 L 4411.42,6615.93 L 4411.42,6616.14 L 4175.2,6616.14 L 4175.2,6615.93 L 4171.08,6615.93 L 4163.03,6614.21 L 4155.51,6610.87 L 4148.85,6606.03 L 4143.35,6599.91 L 4139.23,6592.78 L 4136.69,6584.96 L 4135.83,6576.77 z " style="fill-opacity:1.000000;fill:rgb(152,84,47);stroke:rgb(0,0,0);stroke-width:2"/></g>
<g fill-rule="evenodd"><path d="M 4647.64,5136.61 L 4647.64,4939.76 L 4773.24,4939.76 L 4776.9,4937.81 L 4795.36,4932.21 L 4814.57,4930.31 L 5126.38,4930.31 L 5145.58,4932.21 L 5164.04,4937.81 L 5181.06,4946.9 L 5195.97,4959.14 L 5678.96,5442.12 L 5809.05,5442.12 L 5809.05,5435.04 L 5810.95,5415.84 L 5816.55,5397.37 L 5825.64,5380.36 L 5830.63,5374.28 L 5828.74,5356.3 L 5832.18,5323.56 L 5842.36,5292.25 L 5858.82,5263.73 L 5880.85,5239.27 L 5907.48,5219.92 L 5937.56,5206.53 L 5969.76,5199.68 L 6002.68,5199.68 L 6034.88,5206.53 L 6064.96,5219.92 L 6091.6,5239.27 L 6113.62,5263.73 L 6130.09,5292.25 L 6140.26,5323.56 L 6143.7,5356.3 L 6140.26,5389.04 L 6130.09,5420.35 L 6113.62,5448.86 L 6091.6,5473.33 L 6064.96,5492.68 L 6034.88,5506.07 L 6005.9,5512.23 L 6005.9,6323.98 L 6012.86,6329.03 L 6034.88,6353.5 L 6051.35,6382.01 L 6061.52,6413.32 L 6064.96,6446.06 L 6061.52,6478.8 L 6051.35,6510.12 L 6034.88,6538.63 L 6012.86,6563.09 L 5986.22,6582.44 L 5956.14,6595.84 L 5923.94,6602.68 L 5891.02,6602.68 L 5858.82,6595.84 L 5828.74,6582.44 L 5802.11,6563.09 L 5780.08,6538.63 L 5763.61,6510.12 L 5753.44,6478.8 L 5750,6446.06 L 5753.44,6413.32 L 5763.61,6382.01 L 5780.08,6353.5 L 5802.11,6329.03 L 5809.05,6323.98 L 5809.05,5638.98 L 5638.19,5638.98 L 5618.99,5637.08 L 5600.52,5631.48 L 5583.51,5622.39 L 5568.59,5610.15 L 5085.61,5127.17 L 4883.86,5127.17 L 4883.86,5136.61 L 4647.64,5136.61 z " style="fill-opacity:1.000000;fill:rgb(17,45,5);stroke:rgb(0,0,0);stroke-width:2"/></g>
<g fill-rule="evenodd"><path d="M 5257.87,4687.01 L 5257.87,3427.16 L 5259.76,3407.96 L 5265.36,3389.5 L 5274.46,3372.48 L 5286.7,3357.57 L 5301.62,3345.33 L 5318.63,3336.23 L 5337.1,3330.63 L 5356.3,3328.74 L 6299.78,3328.74 L 7265.75,2362.77 L 7265.75,2171.29 L 7258.8,2166.24 L 7236.77,2141.78 L 7220.31,2113.27 L 7210.13,2081.95 L 7206.69,2049.21 L 7210.13,2016.47 L 7220.31,1985.16 L 7236.77,1956.65 L 7258.8,1932.18 L 7285.43,1912.83 L 7315.51,1899.44 L 7347.71,1892.59 L 7380.63,1892.59 L 7412.84,1899.44 L 7442.91,1912.83 L 7469.55,1932.18 L 7486.3,1950.79 L 8189.54,1950.79 L 8735.04,1405.29 L 8735.04,1361.02 L 8736.25,1345.62 L 8739.86,1330.61 L 8745.77,1316.34 L 8753.84,1303.17 L 8763.87,1291.42 L 8961.31,1093.98 L 8976.22,1081.74 L 8993.24,1072.65 L 9011.7,1067.05 L 9030.9,1065.16 L 9214.96,1065.16 L 9214.96,1045.47 L 9608.66,1045.47 L 9608.66,1281.69 L 9214.96,1281.69 L 9214.96,1262.01 L 9071.67,1262.01 L 8931.89,1401.79 L 8931.89,1446.06 L 8930.68,1461.46 L 8927.07,1476.48 L 8921.16,1490.75 L 8913.09,1503.91 L 8903.06,1515.66 L 8299.91,2118.81 L 8285,2131.05 L 8267.98,2140.15 L 8249.52,2145.75 L 8230.31,2147.64 L 7486.3,2147.64 L 7469.55,2166.24 L 7462.6,2171.29 L 7462.6,2403.54 L 7460.71,2422.74 L 7455.1,2441.21 L 7446.01,2458.22 L 7433.77,2473.14 L 6410.15,3496.76 L 6395.23,3509 L 6378.22,3518.1 L 6359.75,3523.7 L 6340.55,3525.59 L 5454.72,3525.59 L 5454.72,4646.24 L 5712.03,4903.54 L 8394.09,4903.54 L 8413.3,4905.43 L 8431.76,4911.04 L 8448.78,4920.13 L 8463.69,4932.37 L 8475.93,4947.29 L 8485.03,4964.3 L 8490.63,4982.77 L 8492.52,5001.97 L 8492.52,6301.18 L 8490.63,6320.38 L 8485.03,6338.85 L 8475.93,6355.86 L 8463.69,6370.78 L 8448.78,6383.02 L 8431.76,6392.11 L 8413.3,6397.71 L 8394.09,6399.61 L 8211.15,6399.61 L 8207,6400.86 L 8187.79,6402.76 L 8076.85,6402.76 L 8060.1,6421.36 L 8033.46,6440.71 L 8003.39,6454.1 L 7971.19,6460.95 L 7938.26,6460.95 L 7906.06,6454.1 L 7875.98,6440.71 L 7849.35,6421.36 L 7827.32,6396.9 L 7810.86,6368.38 L 7800.69,6337.07 L 7797.24,6304.33 L 7800.69,6271.59 L 7810.86,6240.28 L 7827.32,6211.77 L 7849.35,6187.3 L 7875.98,6167.95 L 7906.06,6154.56 L 7938.26,6147.71 L 7971.19,6147.71 L 8003.39,6154.56 L 8033.46,6167.95 L 8060.1,6187.3 L 8076.85,6205.9 L 8167.59,6205.9 L 8171.74,6204.65 L 8190.94,6202.75 L 8295.67,6202.75 L 8295.67,5100.39 L 5671.26,5100.39 L 5652.06,5098.5 L 5633.59,5092.9 L 5616.58,5083.81 L 5601.66,5071.57 L 5286.7,4756.6 L 5274.46,4741.69 L 5265.36,4724.67 L 5259.76,4706.21 L 5257.87,4687.01 z " style="fill-opacity:1.000000;fill:rgb(88,245,107);stroke:rgb(0,0,0);stroke-width:2"/></g>
<g fill-rule="evenodd"><path d="M 5395.67,1891.73 L 5399.11,1858.99 L 5409.28,1827.68 L 5425.75,1799.17 L 5447.77,1774.7 L 5474.41,1755.35 L 5504.49,1741.96 L 5536.69,1735.11 L 5569.61,1735.11 L 5601.81,1741.96 L 5631.89,1755.35 L 5658.52,1774.7 L 5680.55,1799.17 L 5697.02,1827.68 L 5707.19,1858.99 L 5710.63,1891.73 L 5707.19,1924.47 L 5698.64,1950.79 L 6442.05,1950.79 L 6458.8,1932.18 L 6485.43,1912.83 L 6515.51,1899.44 L 6547.71,1892.59 L 6580.63,1892.59 L 6612.84,1899.44 L 6642.91,1912.83 L 6669.55,1932.18 L 6691.58,1956.65 L 6708.04,1985.16 L 6718.21,2016.47 L 6721.65,2049.21 L 6718.21,2081.95 L 6708.04,2113.27 L 6691.58,2141.78 L 6669.55,2166.24 L 6642.91,2185.59 L 6612.84,2198.99 L 6580.63,2205.83 L 6547.71,2205.83 L 6515.51,2198.99 L 6485.43,2185.59 L 6458.8,2166.24 L 6442.05,2147.64 L 5751.4,2147.64 L 6095.19,2491.42 L 6107.43,2506.34 L 6116.52,2523.36 L 6122.12,2541.82 L 6124.01,2561.02 L 6124.01,2876.95 L 6147.82,2877.17 L 6155.87,2878.88 L 6163.39,2882.23 L 6170.04,2887.07 L 6175.55,2893.18 L 6179.67,2900.31 L 6182.21,2908.14 L 6183.07,2916.32 L 6183.07,3152.55 L 6182.21,3160.73 L 6179.67,3168.56 L 6175.55,3175.69 L 6170.04,3181.8 L 6163.39,3186.64 L 6155.87,3189.99 L 6147.82,3191.7 L 6143.7,3191.7 L 6143.7,3191.92 L 5907.48,3191.92 L 5907.48,3191.7 L 5903.37,3191.7 L 5895.31,3189.99 L 5887.8,3186.64 L 5881.14,3181.8 L 5875.63,3175.69 L 5871.51,3168.56 L 5868.97,3160.73 L 5868.11,3152.55 L 5868.11,2916.32 L 5868.97,2908.14 L 5871.51,2900.31 L 5875.63,2893.18 L 5881.14,2887.07 L 5887.8,2882.23 L 5895.31,2878.88 L 5903.37,2877.17 L 5927.16,2876.95 L 5927.16,2601.79 L 5483.55,2158.18 L 5471.31,2143.26 L 5462.22,2126.25 L 5456.62,2107.78 L 5454.72,2088.58 L 5454.72,2013.81 L 5447.77,2008.76 L 5425.75,1984.3 L 5409.28,1955.79 L 5399.11,1924.47 L 5395.67,1891.73 z " style="fill-opacity:1.000000;fill:rgb(214,136,7);stroke:rgb(0,0,0);stroke-width:2"/></g>
<g fill-rule="evenodd"><path d="M 5828.74,4556.3 L 5832.18,4523.56 L 5842.36,4492.25 L 5858.82,4463.73 L 5880.85,4439.27 L 5887.79,4434.22 L 5887.79,3896.4 L 5881.73,3885.89 L 5871.55,3854.58 L 5868.11,3821.84 L 5871.55,3789.09 L 5881.73,3757.78 L 5898.19,3729.27 L 5920.22,3704.81 L 5946.85,3685.45 L 5976.93,3672.06 L 6009.13,3665.22 L 6042.05,3665.22 L 6074.25,3672.06 L 6104.33,3685.45 L 6130.97,3704.81 L 6147.72,3723.41 L 7915.35,3723.41 L 7915.35,3566.36 L 7637.52,3288.53 L 7626.86,3287.48 L 7608.4,3281.88 L 7591.38,3272.78 L 7576.46,3260.54 L 7564.22,3245.63 L 7555.13,3228.61 L 7549.53,3210.15 L 7547.64,3190.94 L 7547.64,2587.79 L 7549.53,2568.59 L 7555.13,2550.13 L 7564.22,2533.11 L 7576.46,2518.2 L 7773.31,2321.35 L 7785.06,2311.32 L 7798.23,2303.25 L 7812.5,2297.34 L 7827.51,2293.73 L 7842.91,2292.52 L 9300.59,2292.52 L 9319.79,2294.41 L 9338.26,2300.01 L 9355.27,2309.11 L 9370.19,2321.35 L 9393.52,2344.69 L 9451.18,2344.69 L 9483.92,2348.13 L 9515.23,2358.3 L 9543.75,2374.76 L 9568.21,2396.79 L 9587.56,2423.43 L 9600.95,2453.5 L 9607.8,2485.7 L 9607.8,2518.63 L 9600.95,2550.83 L 9587.56,2580.91 L 9568.21,2607.54 L 9543.75,2629.57 L 9515.23,2646.03 L 9483.92,2656.2 L 9451.18,2659.65 L 9372.44,2659.65 L 9339.7,2656.2 L 9308.39,2646.03 L 9279.88,2629.57 L 9255.41,2607.54 L 9236.06,2580.91 L 9222.67,2550.83 L 9215.82,2518.63 L 9215.82,2489.37 L 7883.68,2489.37 L 7744.49,2628.56 L 7744.49,3117.86 L 7748.73,3121.35 L 8054.55,3427.17 L 8358.27,3427.17 L 8361.35,3427.33 L 8367.39,3428.61 L 8373.03,3431.12 L 8378.03,3434.75 L 8382.16,3439.34 L 8385.24,3444.68 L 8387.15,3450.55 L 8387.8,3456.69 L 8387.8,3870.08 L 8387.15,3876.22 L 8385.24,3882.09 L 8382.16,3887.43 L 8378.03,3892.02 L 8373.03,3895.65 L 8367.86,3897.95 L 8865.57,4395.67 L 9307.6,4395.67 L 9324.01,4386.2 L 9347.49,4378.57 L 9372.05,4375.98 L 9529.53,4375.98 L 9554.08,4378.57 L 9577.57,4386.2 L 9598.95,4398.54 L 9617.3,4415.06 L 9631.81,4435.04 L 9641.86,4457.6 L 9646.99,4481.75 L 9646.99,4506.44 L 9641.86,4530.59 L 9631.81,4553.15 L 9617.3,4573.13 L 9598.95,4589.65 L 9577.57,4601.99 L 9554.08,4609.62 L 9529.53,4612.2 L 9372.05,4612.2 L 9347.49,4609.62 L 9324.01,4601.99 L 9307.6,4592.52 L 8824.8,4592.52 L 8805.6,4590.63 L 8787.14,4585.03 L 8770.12,4575.93 L 8755.2,4563.69 L 8091.12,3899.61 L 8053.15,3899.61 L 8050.98,3901.46 L 8037.81,3909.53 L 8023.54,3915.44 L 8008.52,3919.05 L 7993.12,3920.26 L 6147.72,3920.26 L 6130.97,3938.87 L 6104.33,3958.22 L 6084.64,3966.98 L 6084.64,4434.22 L 6091.6,4439.27 L 6113.62,4463.73 L 6130.09,4492.25 L 6140.26,4523.56 L 6143.7,4556.3 L 6140.26,4589.04 L 6130.09,4620.35 L 6113.62,4648.86 L 6091.6,4673.33 L 6064.96,4692.68 L 6034.88,4706.07 L 6002.68,4712.92 L 5969.76,4712.92 L 5937.56,4706.07 L 5907.48,4692.68 L 5880.85,4673.33 L 5858.82,4648.86 L 5842.36,4620.35 L 5832.18,4589.04 L 5828.74,4556.3 z " style="fill-opacity:1.000000;fill:rgb(153,146,72);stroke:rgb(0,0,0);stroke-width:2"/></g>
<g fill-rule="evenodd"><path d="M 7194.52,7202.64 L 7197.96,7169.9 L 7208.13,7138.58 L 7224.59,7110.07 L 7246.62,7085.61 L 7273.26,7066.26 L 7303.33,7052.86 L 7335.54,7046.02 L 7369.25,7046.19 L 7417.35,6998.09 L 7432.26,6985.85 L 7449.28,6976.75 L 7467.74,6971.15 L 7486.95,6969.26 L 7665.56,6969.26 L 7797.24,6837.57 L 7797.24,6661.81 L 8112.2,6661.81 L 8112.2,6720.86 L 8255.69,6720.86 L 8650,6326.55 L 8650,4916.93 L 8651.89,4897.73 L 8657.49,4879.26 L 8666.59,4862.25 L 8678.83,4847.33 L 8763.87,4762.29 L 8775.61,4752.26 L 8788.78,4744.19 L 8803.05,4738.28 L 8818.07,4734.67 L 8833.46,4733.46 L 9791.73,4733.46 L 9791.73,4024.8 L 9639.76,4024.8 L 9639.76,4025.59 L 9246.06,4025.59 L 9246.06,3789.37 L 9639.76,3789.37 L 9639.76,3827.95 L 9890.16,3827.95 L 9909.36,3829.84 L 9927.82,3835.44 L 9944.84,3844.54 L 9959.75,3856.78 L 9971.99,3871.69 L 9981.09,3888.71 L 9986.69,3907.17 L 9988.58,3926.38 L 9988.58,4831.89 L 9986.69,4851.09 L 9981.09,4869.55 L 9971.99,4886.57 L 9959.75,4901.49 L 9944.84,4913.73 L 9927.82,4922.82 L 9909.36,4928.42 L 9890.16,4930.31 L 8874.23,4930.31 L 8846.85,4957.7 L 8846.85,6367.32 L 8845.64,6382.72 L 8842.03,6397.74 L 8836.12,6412.01 L 8828.05,6425.17 L 8818.02,6436.92 L 8366.05,6888.89 L 8351.14,6901.13 L 8334.12,6910.22 L 8315.66,6915.82 L 8296.46,6917.72 L 8112.2,6917.72 L 8112.2,6976.77 L 7936.44,6976.77 L 7775.93,7137.28 L 7764.18,7147.32 L 7751.01,7155.39 L 7736.74,7161.3 L 7721.72,7164.9 L 7706.33,7166.11 L 7527.71,7166.11 L 7507.74,7186.09 L 7509.48,7202.64 L 7506.04,7235.38 L 7495.86,7266.69 L 7479.4,7295.2 L 7457.37,7319.67 L 7430.74,7339.02 L 7400.66,7352.41 L 7368.46,7359.25 L 7335.54,7359.25 L 7303.33,7352.41 L 7273.26,7339.02 L 7246.62,7319.67 L 7224.59,7295.2 L 7208.13,7266.69 L 7197.96,7235.38 L 7194.52,7202.64 z " style="fill-opacity:1.000000;fill:rgb(51,98,65);stroke:rgb(0,0,0);stroke-width:2"/></g>
<g fill-rule="evenodd"><path d="M 7915.35,2875.98 L 7920.52,2826.87 L 7935.78,2779.9 L 7960.47,2737.14 L 7993.51,2700.44 L 8033.46,2671.41 L 8078.58,2651.33 L 8126.88,2641.06 L 8176.27,2641.06 L 8224.57,2651.33 L 8269.69,2671.41 L 8309.64,2700.44 L 8342.68,2737.14 L 8366.02,2777.56 L 9390.94,2777.56 L 9410.15,2779.45 L 9428.61,2785.05 L 9445.63,2794.15 L 9460.54,2806.39 L 10314.1,3659.93 L 10324.1,3671.67 L 10332.2,3684.84 L 10338.1,3699.11 L 10341.7,3714.13 L 10342.9,3729.53 L 10342.9,7082.28 L 10341.7,7097.68 L 10338.1,7112.7 L 10332.2,7126.97 L 10324.1,7140.13 L 10314.1,7151.88 L 9992.82,7473.14 L 9977.91,7485.38 L 9960.89,7494.48 L 9942.43,7500.08 L 9923.23,7501.97 L 9253.94,7501.97 L 9253.94,7534.78 L 9253.36,7540.23 L 9251.67,7545.45 L 9248.92,7550.2 L 9245.25,7554.28 L 9240.81,7557.51 L 9235.8,7559.74 L 9230.43,7560.88 L 8965.22,7561.02 L 8962.48,7560.88 L 8957.11,7559.74 L 8952.1,7557.51 L 8947.66,7554.28 L 8943.99,7550.2 L 8941.25,7545.45 L 8939.55,7540.23 L 8938.98,7534.78 L 8938.98,7272.31 L 8939.55,7266.85 L 8941.25,7261.63 L 8943.99,7256.88 L 8947.66,7252.8 L 8952.1,7249.58 L 8957.11,7247.35 L 8962.48,7246.21 L 9227.69,7246.06 L 9230.43,7246.21 L 9235.8,7247.35 L 9240.81,7249.58 L 9245.25,7252.8 L 9248.92,7256.88 L 9251.67,7261.63 L 9253.36,7266.85 L 9253.94,7272.31 L 9253.94,7305.12 L 9882.46,7305.12 L 10146.1,7041.51 L 10146.1,3770.3 L 9350.17,2974.41 L 8366.02,2974.41 L 8342.68,3014.83 L 8309.64,3051.53 L 8269.69,3080.56 L 8224.57,3100.64 L 8176.27,3110.91 L 8126.88,3110.91 L 8078.58,3100.64 L 8033.46,3080.56 L 7993.51,3051.53 L 7960.47,3014.83 L 7935.78,2972.06 L 7920.52,2925.1 L 7915.35,2875.98 z " style="fill-opacity:1.000000;fill:rgb(243,13,35);stroke:rgb(0,0,0);stroke-width:2"/></g>
</svg>
