<?xml version="1.0" standalone="no"?>
<!DOCTYPE svg PUBLIC "-//W3C//DTD SVG 1.1//EN"
"http://www.w3.org/Graphics/SVG/1.1/DTD/svg11.dtd">
<svg width="504.756" height="400.819" viewBox="0 0 10515.7 8350.39" version="1.1"
xmlns="http://www.w3.org/2000/svg"
xmlns:xlink="http://www.w3.org/1999/xlink">
<polyline points="850.984,1274.93 851.026,1011.64 851.73,1005.37 853.638,999.358 857.5,992.408 862.274,987.11 867.352,983.366 875.356,979.802 882.356,978.49 1147.57,978.346 1151.95,978.662 1158.89,980.31 1164.63,982.916 1169.76,986.59 1175.18,992.408 1178.74,998.588 1180.95,1005.37 1181.65,1011.64 1181.69,1037.4 1735.97,1037.4 2610.27,163.1 2622.46,152.65 2636.63,143.854 2653.18,137 2669.42,133.202 2685.43,131.966 4379.12,132.004 4399.83,134.196 4419.72,140.388 4437.4,149.88 4452.94,162.582 4466.27,178.588 4476.22,196.888 4482.72,218.292 4484.64,238.266 4484.64,383.07 4483.21,400.304 4479.61,415.322 4478.34,418.63 4478.34,899.496 4483.27,903.29 4497.68,919.288 5487.62,919.312 5504.24,920.718 5519.26,924.322 5529.71,928.546 5536.69,927.24 5570.43,927.282 5604.25,934.47 5636.52,948.98 5663.79,968.848 5678.78,985.432 8277.62,985.432 8548.85,714.204 8565.62,700.588 8584.06,690.9 8602.53,685.3 8624.02,683.07 9687.01,683.07 9708.49,685.3 9726.96,690.9 9745.4,700.586 9762.17,714.204 9998.39,950.422 10008.8,962.62 10017.6,976.788 10024.5,993.334 10028.3,1009.57 10029.5,1025.59 10029.5,1767.94 10028.1,1784.56 10024.1,1800.75 10017.6,1816.12 10008.8,1830.29 9998.39,1842.49 9932.84,1908.04 9917.35,1920.8 9899.05,1930.75 9879.16,1936.94 9857.68,1939.17 9577.27,1939.17 9573.48,1944.1 9547.68,1967.1 9518.44,1983.93 9484.75,1994.74 9451.18,1998.23 9371.62,1998.18 9338.06,1994.61 9305.18,1983.93 9275.25,1966.65 9249.56,1943.52 9229.24,1915.55 9215.47,1884.74 9207.99,1850.16 9207.99,1815.59 9215.18,1781.78 9229.24,1750.2 9249.56,1722.23 9275.25,1699.1 9305.18,1681.81 9338.06,1671.13 9372.44,1667.52 9451.18,1667.52 9485.56,1671.13 9518.44,1681.81 9547.68,1698.65 9573.48,1721.65 9577.27,1726.57 9813.65,1726.57 9816.93,1723.29 9816.93,1069.62 9642.98,895.668 8668.05,895.668 8396.24,1167.42 8380.04,1180.51 8361.6,1190.2 8341.62,1196.1 8322.42,1197.99 5678.78,1198.03 5663.79,1214.61 5636.52,1234.48 5605.02,1248.7 5570.43,1256.18 5536.69,1256.22 5501.28,1248.7 5470.47,1234.93 5442.51,1214.61 5418.93,1188.23 5402.09,1158.98 5393.32,1131.89 4497.68,1131.89 4482.69,1148.47 4455.42,1168.34 4423.14,1182.85 4388.51,1190.08 4354.76,1190.04 4321.75,1183.06 4288.68,1168.34 4261.4,1148.47 4238.27,1122.78 4220.69,1092.08 4210.31,1059.97 4206.74,1026.41 4210.31,991.21 4220.99,958.334 4238.27,928.396 4260.82,903.29 4265.75,899.498 4265.75,389.37 4267.18,372.134 4270.78,357.116 4272.05,353.808 4272.05,344.564 2729.46,344.564 1855.16,1218.86 1841.97,1230.04 1827.7,1238.67 1813.43,1244.58 1797.23,1248.57 1780,1250 1181.69,1250 1181.65,1275.76 1180.95,1282.03 1178.37,1289.55 1174.66,1295.63 1170.4,1300.29 1165.32,1304.03 1158.12,1307.38 1150.32,1308.91 881.948,1308.9 874.56,1307.38 868.778,1304.86 861.69,1299.71 857.5,1294.99 853.934,1288.81 851.73,1282.03 850.984,1274.93" style="stroke:rgb(167,241,217);stroke-width:15.748031;fill:none;stroke-opacity:0.5;stroke-linecap:round;stroke-linejoin:round;;fill:none"/>
<polyline points="850.984,1274.93 851.026,1011.64 851.73,1005.37 853.638,999.358 857.5,992.408 862.274,987.11 867.352,983.366 875.356,979.802 882.356,978.49 1147.57,978.346 1151.95,978.662 1158.89,980.31 1164.63,982.916 1169.76,986.59 1175.18,992.408 1178.74,998.588 1180.95,1005.37 1181.65,1011.64 1181.69,1037.4 1735.97,1037.4 2610.27,163.1 2622.46,152.65 2636.63,143.854 2653.18,137 2669.42,133.202 2685.43,131.966 4379.12,132.004 4399.83,134.196 4419.72,140.388 4437.4,149.88 4452.94,162.582 4466.27,178.588 4476.22,196.888 4482.72,218.292 4484.64,238.266 4484.64,383.07 4483.21,400.304 4479.61,415.322 4478.34,418.63 4478.34,899.496 4483.27,903.29 4497.68,919.288 5487.62,919.312 5504.24,920.718 5519.26,924.322 5529.71,928.546 5536.69,927.24 5570.43,927.282 5604.25,934.47 5636.52,948.98 5663.79,968.848 5678.78,985.432 8277.62,985.432 8548.85,714.204 8565.62,700.588 8584.06,690.9 8602.53,685.3 8624.02,683.07 9687.01,683.07 9708.49,685.3 9726.96,690.9 9745.4,700.586 9762.17,714.204 9998.39,950.422 10008.8,962.62 10017.6,976.788 10024.5,993.334 10028.3,1009.57 10029.5,1025.59 10029.5,1767.94 10028.1,1784.56 10024.1,1800.75 10017.6,1816.12 10008.8,1830.29 9998.39,1842.49 9932.84,1908.04 9917.35,1920.8 9899.05,1930.75 9879.16,1936.94 9857.68,1939.17 9577.27,1939.17 9573.48,1944.1 9547.68,1967.1 9518.44,1983.93 9484.75,1994.74 9451.18,1998.23 9371.62,1998.18 9338.06,1994.61 9305.18,1983.93 9275.25,1966.65 9249.56,1943.52 9229.24,1915.55 9215.47,1884.74 9207.99,1850.16 9207.99,1815.59 9215.18,1781.78 9229.24,1750.2 9249.56,1722.23 9275.25,1699.1 9305.18,1681.81 9338.06,1671.13 9372.44,1667.52 9451.18,1667.52 9485.56,1671.13 9518.44,1681.81 9547.68,1698.65 9573.48,1721.65 9577.27,1726.57 9813.65,1726.57 9816.93,1723.29 9816.93,1069.62 9642.98,895.668 8668.05,895.668 8396.24,1167.42 8380.04,1180.51 8361.6,1190.2 8341.62,1196.1 8322.42,1197.99 5678.78,1198.03 5663.79,1214.61 5636.52,1234.48 5605.02,1248.7 5570.43,1256.18 5536.69,1256.22 5501.28,1248.7 5470.47,1234.93 5442.51,1214.61 5418.93,1188.23 5402.09,1158.98 5393.32,1131.89 4497.68,1131.89 4482.69,1148.47 4455.42,1168.34 4423.14,1182.85 4388.51,1190.08 4354.76,1190.04 4321.75,1183.06 4288.68,1168.34 4261.4,1148.47 4238.27,1122.78 4220.69,1092.08 4210.31,1059.97 4206.74,1026.41 4210.31,991.21 4220.99,958.334 4238.27,928.396 4260.82,903.29 4265.75,899.498 4265.75,389.37 4267.18,372.134 4270.78,357.116 4272.05,353.808 4272.05,344.564 2729.46,344.564 1855.16,1218.86 1841.97,1230.04 1827.7,1238.67 1813.43,1244.58 1797.23,1248.57 1780,1250 1181.69,1250 1181.65,1275.76 1180.95,1282.03 1178.37,1289.55 1174.66,1295.63 1170.4,1300.29 1165.32,1304.03 1158.12,1307.38 1150.32,1308.91 881.948,1308.9 874.56,1307.38 868.778,1304.86 861.69,1299.71 857.5,1294.99 853.934,1288.81 851.73,1282.03 850.984,1274.93" style="stroke:rgb(0,0,0);stroke-width:1px;fill:none;stroke-opacity:1;stroke-linecap:round;stroke-linejoin:round;;fill:none"/>
<polyline points="1466.53,3404.72 1466.53,3188.19 1467.65,3177.13 1471.47,3164.97 1477.96,3153.99 1485.42,3145.76 1494.39,3139.2 1505.21,3134.19 1516.84,3131.54 1523.62,3131.1 1740.16,3131.1 1746.94,3131.54 1757.8,3133.9 1768.7,3138.75 1778.36,3145.76 1785.82,3153.99 1792.31,3164.97 1795.78,3175.52 1797.2,3187.36 1797.24,3190.16 2647.7,3190.16 3040.61,2797.24 3036.52,2793.09 3024.28,2778.18 3014.33,2759.88 3008.13,2739.99 3005.9,2718.5 3005.9,704.33 3007.83,684.356 3013.74,664.378 3023.42,645.936 3037.04,629.164 3161.9,504.334 3174.65,493.578 3188.92,484.946 3203.18,479.036 3219.38,475.05 3236.61,473.62 3729.53,473.62 3751.01,475.85 3770.9,482.042 3787.92,491.138 3804.69,504.752 4020.44,720.502 4034.06,737.274 4043.15,754.29 4049.34,774.18 4051.57,795.668 4051.57,1381.56 4486.58,1816.57 4500.2,1833.34 4509.88,1851.78 4515.48,1870.24 4517.71,1891.73 4517.71,5233.53 4552.3,5268.11 4659.82,5268.11 4675.13,5259.32 4699.39,5251.39 4726.38,5248.42 4805.94,5248.47 4831.31,5251.18 4857.09,5259.69 4879.17,5272.48 4898.74,5290.11 4914.22,5311.42 4924.94,5335.48 4930.41,5361.24 4930.41,5387.58 4924.94,5413.34 4914.22,5437.4 4898.74,5458.71 4878.48,5476.78 4855.59,5489.8 4831.31,5497.64 4805.94,5500.35 4726.38,5500.39 4701,5497.77 4675.13,5489.5 4659.82,5480.71 4508.27,5480.71 4486.78,5478.48 4468.32,5472.88 4449.87,5463.19 4433.1,5449.57 4335.83,5352.27 4325.8,5340.52 4317,5326.36 4310.15,5309.81 4306.35,5293.57 4305.12,5277.56 4305.12,1935.76 3870.11,1500.75 3857.35,1485.27 3847.4,1466.97 3841.21,1447.08 3838.98,1425.59 3838.98,839.698 3685.5,686.218 3280.64,686.218 3218.5,748.36 3218.5,2674.47 3234.97,2690.94 3340.9,2690.94 3355.89,2674.36 3383.17,2654.49 3415.44,2639.98 3450.07,2632.75 3483.82,2632.79 3516.84,2639.77 3549.21,2654.04 3577.76,2674.94 3600.31,2700.05 3617.22,2729.25 3628.06,2762.07 3631.85,2798.07 3628.28,2831.62 3617.89,2863.73 3600.31,2894.44 3577.76,2919.54 3572.83,2923.34 3572.83,3845.95 3577.76,3849.75 3600.31,3874.85 3617.59,3904.79 3628.28,3937.67 3631.89,3972.05 3628.28,4006.43 3617.89,4038.53 3599.79,4069.88 3577.18,4094.93 3549.9,4114.8 3517.63,4129.31 3483,4136.54 3449.25,4136.49 3416.23,4129.52 3383.86,4115.25 3355.31,4094.34 3332.76,4069.24 3315.85,4040.03 3304.79,4006.43 3301.22,3971.22 3304.79,3937.67 3315.18,3905.56 3332.76,3874.85 3355.31,3849.75 3360.23,3845.96 3360.23,2923.33 3355.31,2919.54 3340.9,2903.54 3234.97,2903.54 2766.9,3371.62 2750.12,3385.24 2733.11,3394.33 2713.22,3400.52 2691.73,3402.75 1797.24,3402.75 1797.2,3405.55 1796,3416.59 1792.31,3427.94 1786.34,3438.28 1778.94,3446.56 1768.7,3454.16 1758.57,3458.72 1746.94,3461.37 1740.16,3461.81 1523.62,3461.81 1516.84,3461.37 1505.98,3459.02 1495.08,3454.16 1485.42,3447.15 1477.96,3438.92 1471.17,3427.17 1467.78,3416.59 1466.53,3404.72" style="stroke:rgb(167,241,217);stroke-width:15.748031;fill:none;stroke-opacity:0.5;stroke-linecap:round;stroke-linejoin:round;;fill:none"/>
<polyline points="1466.53,3404.72 1466.53,3188.19 1467.65,3177.13 1471.47,3164.97 1477.96,3153.99 1485.42,3145.76 1494.39,3139.2 1505.21,3134.19 1516.84,3131.54 1523.62,3131.1 1740.16,3131.1 1746.94,3131.54 1757.8,3133.9 1768.7,3138.75 1778.36,3145.76 1785.82,3153.99 1792.31,3164.97 1795.78,3175.52 1797.2,3187.36 1797.24,3190.16 2647.7,3190.16 3040.61,2797.24 3036.52,2793.09 3024.28,2778.18 3014.33,2759.88 3008.13,2739.99 3005.9,2718.5 3005.9,704.33 3007.83,684.356 3013.74,664.378 3023.42,645.936 3037.04,629.164 3161.9,504.334 3174.65,493.578 3188.92,484.946 3203.18,479.036 3219.38,475.05 3236.61,473.62 3729.53,473.62 3751.01,475.85 3770.9,482.042 3787.92,491.138 3804.69,504.752 4020.44,720.502 4034.06,737.274 4043.15,754.29 4049.34,774.18 4051.57,795.668 4051.57,1381.56 4486.58,1816.57 4500.2,1833.34 4509.88,1851.78 4515.48,1870.24 4517.71,1891.73 4517.71,5233.53 4552.3,5268.11 4659.82,5268.11 4675.13,5259.32 4699.39,5251.39 4726.38,5248.42 4805.94,5248.47 4831.31,5251.18 4857.09,5259.69 4879.17,5272.48 4898.74,5290.11 4914.22,5311.42 4924.94,5335.48 4930.41,5361.24 4930.41,5387.58 4924.94,5413.34 4914.22,5437.4 4898.74,5458.71 4878.48,5476.78 4855.59,5489.8 4831.31,5497.64 4805.94,5500.35 4726.38,5500.39 4701,5497.77 4675.13,5489.5 4659.82,5480.71 4508.27,5480.71 4486.78,5478.48 4468.32,5472.88 4449.87,5463.19 4433.1,5449.57 4335.83,5352.27 4325.8,5340.52 4317,5326.36 4310.15,5309.81 4306.35,5293.57 4305.12,5277.56 4305.12,1935.76 3870.11,1500.75 3857.35,1485.27 3847.4,1466.97 3841.21,1447.08 3838.98,1425.59 3838.98,839.698 3685.5,686.218 3280.64,686.218 3218.5,748.36 3218.5,2674.47 3234.97,2690.94 3340.9,2690.94 3355.89,2674.36 3383.17,2654.49 3415.44,2639.98 3450.07,2632.75 3483.82,2632.79 3516.84,2639.77 3549.21,2654.04 3577.76,2674.94 3600.31,2700.05 3617.22,2729.25 3628.06,2762.07 3631.85,2798.07 3628.28,2831.62 3617.89,2863.73 3600.31,2894.44 3577.76,2919.54 3572.83,2923.34 3572.83,3845.95 3577.76,3849.75 3600.31,3874.85 3617.59,3904.79 3628.28,3937.67 3631.89,3972.05 3628.28,4006.43 3617.89,4038.53 3599.79,4069.88 3577.18,4094.93 3549.9,4114.8 3517.63,4129.31 3483,4136.54 3449.25,4136.49 3416.23,4129.52 3383.86,4115.25 3355.31,4094.34 3332.76,4069.24 3315.85,4040.03 3304.79,4006.43 3301.22,3971.22 3304.79,3937.67 3315.18,3905.56 3332.76,3874.85 3355.31,3849.75 3360.23,3845.96 3360.23,2923.33 3355.31,2919.54 3340.9,2903.54 3234.97,2903.54 2766.9,3371.62 2750.12,3385.24 2733.11,3394.33 2713.22,3400.52 2691.73,3402.75 1797.24,3402.75 1797.2,3405.55 1796,3416.59 1792.31,3427.94 1786.34,3438.28 1778.94,3446.56 1768.7,3454.16 1758.57,3458.72 1746.94,3461.37 1740.16,3461.81 1523.62,3461.81 1516.84,3461.37 1505.98,3459.02 1495.08,3454.16 1485.42,3447.15 1477.96,3438.92 1471.17,3427.17 1467.78,3416.59 1466.53,3404.72" style="stroke:rgb(0,0,0);stroke-width:1px;fill:none;stroke-opacity:1;stroke-linecap:round;stroke-linejoin:round;;fill:none"/>
<polyline points="328.738,4647.64 330.168,4664.87 334.154,4681.06 340.626,4696.43 348.696,4709.6 359.454,4722.35 478.558,4841.43 494.756,4854.53 511.772,4863.62 533.176,4870.12 553.15,4872.04 907.48,4872.04 927.452,4870.12 947.43,4864.21 966.534,4854.13 982.644,4840.91 1011.58,4811.98 1042.85,4812.09 1075.89,4805.11 1108.27,4790.84 1136.23,4770.52 1151.22,4753.93 1630.38,4753.93 1837.04,4960.6 1853.15,4973.82 1872.25,4983.9 1892.23,4989.8 1912.2,4991.73 2238.54,4991.73 2252.95,5007.73 2257.87,5011.52 2257.87,5041.34 2259.11,5057.35 2262.91,5073.59 2269.76,5090.14 2278.56,5104.3 2288.59,5116.05 2848.42,5675.92 2848.42,5888.58 2850.35,5908.55 2856.85,5929.96 2866.34,5947.64 2879.56,5963.75 3962.02,7046.15 3977.56,7058.86 3995.24,7068.35 4016.64,7074.84 4036.61,7076.77 4128.78,7076.77 4131.56,7104.04 4142.25,7136.94 4159.53,7166.88 4182.66,7192.57 4210.63,7212.89 4242.21,7226.95 4276.04,7234.13 4307.32,7234.02 4748.85,7675.56 4765.62,7689.17 4784.06,7698.86 4802.53,7704.46 4824.02,7706.69 6433.53,7706.69 6617.47,7890.64 6633.58,7903.86 6651.26,7913.35 6671.15,7919.54 6691.87,7921.73 6712.13,7921.77 6727.12,7938.35 6755.09,7958.67 6786.67,7972.73 6820.48,7979.92 6855.05,7979.92 6889.63,7972.44 6921.13,7958.22 6948.41,7938.35 6963.4,7921.77 8015.24,7921.77 8035.97,7919.73 8056.61,7913.35 8074.91,7903.4 8090.4,7890.64 8864.9,7116.14 8970.82,7116.14 8985.81,7132.72 9013.78,7153.04 9045.36,7167.1 9079.99,7174.33 9113.74,7174.29 9147.55,7167.1 9179.13,7153.04 9207.1,7132.72 9230.23,7107.03 9247.51,7077.1 9258.2,7044.22 9261.81,7009.84 9260.42,6996.2 9525.95,6730.67 9539.57,6713.9 9549.25,6695.46 9554.85,6677 9557.05,6654.74 9555.04,6634.74 9549.21,6615.93 9549.21,5288.97 9572.9,5281.23 9595.7,5268.06 9615.28,5250.44 9630.31,5229.82 9641.68,5204.28 9646.95,5179.31 9646.95,5152.97 9641.18,5126.44 9630.76,5103.15 9615.8,5082.48 9595.7,5064.22 9572.13,5050.75 9547.85,5042.91 9521.65,5040.16 9364.17,5040.16 9338.79,5042.78 9312.2,5051.42 9290.12,5064.22 9270.55,5081.84 9255.07,5103.15 9244.65,5126.44 9238.84,5153.79 9238.88,5179.31 9244.14,5204.28 9255.52,5229.82 9270.55,5250.44 9290.12,5268.06 9312.93,5281.23 9336.61,5288.97 9336.61,6619.35 9110.46,6845.5 9079.19,6845.39 9044.59,6852.88 9013.09,6867.09 8985.81,6886.96 8970.82,6903.54 8820.09,6903.58 8800.13,6905.58 8780.91,6911.37 8761.19,6921.92 8745.7,6934.68 7971.2,7709.17 6963.4,7709.17 6948.41,7692.59 6920.44,7672.27 6888.86,7658.21 6854.23,7650.98 6820.48,7651.02 6786.67,7658.21 6755.09,7672.27 6727.76,7692.07 6723.76,7696.26 6552.15,7524.71 6536.61,7512.01 6518.93,7502.51 6499.04,7496.32 6478.33,7494.13 4868.05,7494.09 4457.27,7083.32 4458.66,7069.68 4455.05,7035.3 4444.37,7002.43 4427.08,6972.49 4403.95,6946.8 4375.98,6926.48 4344.4,6912.42 4310.57,6905.23 4279.3,6905.34 4268.69,6894.79 4252.49,6881.69 4234.04,6872 4215.58,6866.4 4194.09,6864.17 4080.64,6864.17 3061.02,5844.55 3061.02,5675.92 3674.34,5062.6 3931.45,5062.6 3946.44,5079.18 3974.41,5099.5 4005.99,5113.56 4040.62,5120.79 4074.37,5120.75 4108.18,5113.56 4139.76,5099.5 4167.73,5079.18 4190.86,5053.49 4208.14,5023.55 4218.83,4990.68 4222.4,4955.48 4218.61,4921.12 4208.14,4889.04 4191.31,4859.8 4167.73,4833.42 4140.45,4813.55 4107.39,4798.82 4074.37,4791.85 4039.8,4791.85 4005.99,4799.04 3974.41,4813.1 3946.44,4833.42 3931.45,4850 3694.82,4850 3630.5,4785.68 3631.89,4772.05 3628.28,4737.67 3617.22,4704.06 3600.31,4674.85 3577.76,4649.75 3549.9,4629.29 3517.63,4614.78 3483,4607.55 3449.25,4607.6 3416.23,4614.57 3383.86,4628.85 3355.89,4649.16 3333.28,4674.21 3315.18,4705.56 3304.79,4737.67 3301.18,4772.05 3304.79,4806.43 3315.18,4838.53 3333.28,4869.88 3355.89,4894.93 3383.86,4915.25 3416.23,4929.52 3449.27,4936.5 3480.54,4936.39 3490.22,4946.06 2954.72,5481.56 2478,5004.84 2497.95,4982.62 2514.86,4953.42 2525.7,4920.61 2529.53,4885.43 2525.91,4851.05 2514.86,4817.44 2497.95,4788.24 2475.4,4763.13 2446.85,4742.23 2415.27,4728.17 2380.63,4720.94 2346.89,4720.98 2313.08,4728.17 2280.8,4742.68 2253.53,4762.55 2238.54,4779.13 1956.23,4779.13 1749.57,4572.47 1733.46,4559.25 1714.36,4549.17 1694.38,4543.26 1674.41,4541.34 1151.22,4541.34 1136.23,4524.75 1108.27,4504.44 1076.69,4490.38 1042.05,4483.15 1008.31,4483.19 974.492,4490.38 942.912,4504.44 914.946,4524.75 891.816,4550.44 874.532,4580.38 863.85,4613.26 860.278,4646.81 861.434,4659.45 597.18,4659.45 541.336,4603.6 541.336,2549.21 1812.99,2549.21 1829.01,2547.97 1845.24,2544.18 1861.79,2537.32 1875.96,2528.53 1888.16,2518.08 2232.05,2174.18 2263.33,2174.29 2296.36,2167.32 2328.74,2153.04 2356.71,2132.72 2379.32,2107.67 2397.42,2076.33 2407.8,2044.22 2411.37,2010.66 2407.8,1975.46 2396.75,1941.85 2379.84,1912.65 2357.29,1887.54 2328.74,1866.64 2297.16,1852.58 2263.33,1845.39 2232.05,1845.5 1848.79,1462.23 1832.01,1448.62 1814.3,1439.19 1795.11,1433.33 1773.62,1431.1 1141.97,1431.1 1126.98,1414.52 1099.71,1394.65 1068.2,1380.43 1033.62,1372.95 999.054,1372.95 965.24,1380.14 933.66,1394.2 905.694,1414.52 883.082,1439.57 864.984,1470.91 854.598,1503.02 850.984,1537.4 854.598,1571.78 864.984,1603.89 883.082,1635.23 905.694,1660.28 933.66,1680.6 965.24,1694.66 999.054,1701.85 1033.62,1701.85 1068.2,1694.37 1099.71,1680.15 1126.98,1660.28 1141.97,1643.7 1729.59,1643.7 2082.1,1996.2 2080.71,2009.84 2082.1,2023.47 1768.96,2336.61 435.038,2336.61 413.55,2338.84 394.358,2344.7 376.644,2354.13 359.354,2368.32 346.652,2383.85 337.16,2401.53 330.78,2422.17 328.738,2442.91 328.738,4647.64" style="stroke:rgb(167,241,217);stroke-width:15.748031;fill:none;stroke-opacity:0.5;stroke-linecap:round;stroke-linejoin:round;;fill:none"/>
<polyline points="328.738,4647.64 330.168,4664.87 334.154,4681.06 340.626,4696.43 348.696,4709.6 359.454,4722.35 478.558,4841.43 494.756,4854.53 511.772,4863.62 533.176,4870.12 553.15,4872.04 907.48,4872.04 927.452,4870.12 947.43,4864.21 966.534,4854.13 982.644,4840.91 1011.58,4811.98 1042.85,4812.09 1075.89,4805.11 1108.27,4790.84 1136.23,4770.52 1151.22,4753.93 1630.38,4753.93 1837.04,4960.6 1853.15,4973.82 1872.25,4983.9 1892.23,4989.8 1912.2,4991.73 2238.54,4991.73 2252.95,5007.73 2257.87,5011.52 2257.87,5041.34 2259.11,5057.35 2262.91,5073.59 2269.76,5090.14 2278.56,5104.3 2288.59,5116.05 2848.42,5675.92 2848.42,5888.58 2850.35,5908.55 2856.85,5929.96 2866.34,5947.64 2879.56,5963.75 3962.02,7046.15 3977.56,7058.86 3995.24,7068.35 4016.64,7074.84 4036.61,7076.77 4128.78,7076.77 4131.56,7104.04 4142.25,7136.94 4159.53,7166.88 4182.66,7192.57 4210.63,7212.89 4242.21,7226.95 4276.04,7234.13 4307.32,7234.02 4748.85,7675.56 4765.62,7689.17 4784.06,7698.86 4802.53,7704.46 4824.02,7706.69 6433.53,7706.69 6617.47,7890.64 6633.58,7903.86 6651.26,7913.35 6671.15,7919.54 6691.87,7921.73 6712.13,7921.77 6727.12,7938.35 6755.09,7958.67 6786.67,7972.73 6820.48,7979.92 6855.05,7979.92 6889.63,7972.44 6921.13,7958.22 6948.41,7938.35 6963.4,7921.77 8015.24,7921.77 8035.97,7919.73 8056.61,7913.35 8074.91,7903.4 8090.4,7890.64 8864.9,7116.14 8970.82,7116.14 8985.81,7132.72 9013.78,7153.04 9045.36,7167.1 9079.99,7174.33 9113.74,7174.29 9147.55,7167.1 9179.13,7153.04 9207.1,7132.72 9230.23,7107.03 9247.51,7077.1 9258.2,7044.22 9261.81,7009.84 9260.42,6996.2 9525.95,6730.67 9539.57,6713.9 9549.25,6695.46 9554.85,6677 9557.05,6654.74 9555.04,6634.74 9549.21,6615.93 9549.21,5288.97 9572.9,5281.23 9595.7,5268.06 9615.28,5250.44 9630.31,5229.82 9641.68,5204.28 9646.95,5179.31 9646.95,5152.97 9641.18,5126.44 9630.76,5103.15 9615.8,5082.48 9595.7,5064.22 9572.13,5050.75 9547.85,5042.91 9521.65,5040.16 9364.17,5040.16 9338.79,5042.78 9312.2,5051.42 9290.12,5064.22 9270.55,5081.84 9255.07,5103.15 9244.65,5126.44 9238.84,5153.79 9238.88,5179.31 9244.14,5204.28 9255.52,5229.82 9270.55,5250.44 9290.12,5268.06 9312.93,5281.23 9336.61,5288.97 9336.61,6619.35 9110.46,6845.5 9079.19,6845.39 9044.59,6852.88 9013.09,6867.09 8985.81,6886.96 8970.82,6903.54 8820.09,6903.58 8800.13,6905.58 8780.91,6911.37 8761.19,6921.92 8745.7,6934.68 7971.2,7709.17 6963.4,7709.17 6948.41,7692.59 6920.44,7672.27 6888.86,7658.21 6854.23,7650.98 6820.48,7651.02 6786.67,7658.21 6755.09,7672.27 6727.76,7692.07 6723.76,7696.26 6552.15,7524.71 6536.61,7512.01 6518.93,7502.51 6499.04,7496.32 6478.33,7494.13 4868.05,7494.09 4457.27,7083.32 4458.66,7069.68 4455.05,7035.3 4444.37,7002.43 4427.08,6972.49 4403.95,6946.8 4375.98,6926.48 4344.4,6912.42 4310.57,6905.23 4279.3,6905.34 4268.69,6894.79 4252.49,6881.69 4234.04,6872 4215.58,6866.4 4194.09,6864.17 4080.64,6864.17 3061.02,5844.55 3061.02,5675.92 3674.34,5062.6 3931.45,5062.6 3946.44,5079.18 3974.41,5099.5 4005.99,5113.56 4040.62,5120.79 4074.37,5120.75 4108.18,5113.56 4139.76,5099.5 4167.73,5079.18 4190.86,5053.49 4208.14,5023.55 4218.83,4990.68 4222.4,4955.48 4218.61,4921.12 4208.14,4889.04 4191.31,4859.8 4167.73,4833.42 4140.45,4813.55 4107.39,4798.82 4074.37,4791.85 4039.8,4791.85 4005.99,4799.04 3974.41,4813.1 3946.44,4833.42 3931.45,4850 3694.82,4850 3630.5,4785.68 3631.89,4772.05 3628.28,4737.67 3617.22,4704.06 3600.31,4674.85 3577.76,4649.75 3549.9,4629.29 3517.63,4614.78 3483,4607.55 3449.25,4607.6 3416.23,4614.57 3383.86,4628.85 3355.89,4649.16 3333.28,4674.21 3315.18,4705.56 3304.79,4737.67 3301.18,4772.05 3304.79,4806.43 3315.18,4838.53 3333.28,4869.88 3355.89,4894.93 3383.86,4915.25 3416.23,4929.52 3449.27,4936.5 3480.54,4936.39 3490.22,4946.06 2954.72,5481.56 2478,5004.84 2497.95,4982.62 2514.86,4953.42 2525.7,4920.61 2529.53,4885.43 2525.91,4851.05 2514.86,4817.44 2497.95,4788.24 2475.4,4763.13 2446.85,4742.23 2415.27,4728.17 2380.63,4720.94 2346.89,4720.98 2313.08,4728.17 2280.8,4742.68 2253.53,4762.55 2238.54,4779.13 1956.23,4779.13 1749.57,4572.47 1733.46,4559.25 1714.36,4549.17 1694.38,4543.26 1674.41,4541.34 1151.22,4541.34 1136.23,4524.75 1108.27,4504.44 1076.69,4490.38 1042.05,4483.15 1008.31,4483.19 974.492,4490.38 942.912,4504.44 914.946,4524.75 891.816,4550.44 874.532,4580.38 863.85,4613.26 860.278,4646.81 861.434,4659.45 597.18,4659.45 541.336,4603.6 541.336,2549.21 1812.99,2549.21 1829.01,2547.97 1845.24,2544.18 1861.79,2537.32 1875.96,2528.53 1888.16,2518.08 2232.05,2174.18 2263.33,2174.29 2296.36,2167.32 2328.74,2153.04 2356.71,2132.72 2379.32,2107.67 2397.42,2076.33 2407.8,2044.22 2411.37,2010.66 2407.8,1975.46 2396.75,1941.85 2379.84,1912.65 2357.29,1887.54 2328.74,1866.64 2297.16,1852.58 2263.33,1845.39 2232.05,1845.5 1848.79,1462.23 1832.01,1448.62 1814.3,1439.19 1795.11,1433.33 1773.62,1431.1 1141.97,1431.1 1126.98,1414.52 1099.71,1394.65 1068.2,1380.43 1033.62,1372.95 999.054,1372.95 965.24,1380.14 933.66,1394.2 905.694,1414.52 883.082,1439.57 864.984,1470.91 854.598,1503.02 850.984,1537.4 854.598,1571.78 864.984,1603.89 883.082,1635.23 905.694,1660.28 933.66,1680.6 965.24,1694.66 999.054,1701.85 1033.62,1701.85 1068.2,1694.37 1099.71,1680.15 1126.98,1660.28 1141.97,1643.7 1729.59,1643.7 2082.1,1996.2 2080.71,2009.84 2082.1,2023.47 1768.96,2336.61 435.038,2336.61 413.55,2338.84 394.358,2344.7 376.644,2354.13 359.354,2368.32 346.652,2383.85 337.16,2401.53 330.78,2422.17 328.738,2442.91 328.738,4647.64" style="stroke:rgb(0,0,0);stroke-width:1px;fill:none;stroke-opacity:1;stroke-linecap:round;stroke-linejoin:round;;fill:none"/>
<polyline points="860.236,4385.17 860.982,4392.26 863.186,4399.05 866.752,4405.23 870.942,4409.94 877.296,4414.72 883.042,4417.32 889.976,4418.97 893.944,4419.28 1160.39,4419.1 1168.14,4417.32 1173.88,4414.72 1179.01,4411.04 1184.43,4405.23 1188.29,4398.28 1190.2,4392.26 1190.94,4385.17 1190.94,4122.7 1190.2,4115.61 1187.99,4108.82 1184.43,4102.65 1179.65,4097.35 1173.15,4092.78 1167.37,4090.25 1159.98,4088.74 1131.89,4088.58 1131.89,3534.19 1205.28,3460.79 1236.56,3460.91 1270.39,3453.72 1301.97,3439.66 1329.93,3419.34 1353.07,3393.65 1370.35,3363.71 1381.03,3330.83 1384.6,3297.28 1380.82,3261.28 1370.35,3229.2 1353.07,3199.26 1329.29,3173.05 1301.97,3153.25 1270.39,3139.19 1235.75,3131.96 1202.01,3132.01 1168.99,3138.98 1136.61,3153.25 1108.65,3173.57 1085.52,3199.26 1068.23,3229.2 1057.42,3262.89 1053.94,3296.46 1055.33,3310.09 950.002,3415.44 939.974,3427.19 931.176,3441.36 924.706,3456.73 920.72,3472.92 919.29,3490.16 919.29,4088.58 891.2,4088.74 883.812,4090.25 878.03,4092.78 871.526,4097.35 866.752,4102.65 863.186,4108.82 860.982,4115.61 860.236,4122.7 860.236,4385.17" style="stroke:rgb(167,241,217);stroke-width:15.748031;fill:none;stroke-opacity:0.5;stroke-linecap:round;stroke-linejoin:round;;fill:none"/>
<polyline points="860.236,4385.17 860.982,4392.26 863.186,4399.05 866.752,4405.23 870.942,4409.94 877.296,4414.72 883.042,4417.32 889.976,4418.97 893.944,4419.28 1160.39,4419.1 1168.14,4417.32 1173.88,4414.72 1179.01,4411.04 1184.43,4405.23 1188.29,4398.28 1190.2,4392.26 1190.94,4385.17 1190.94,4122.7 1190.2,4115.61 1187.99,4108.82 1184.43,4102.65 1179.65,4097.35 1173.15,4092.78 1167.37,4090.25 1159.98,4088.74 1131.89,4088.58 1131.89,3534.19 1205.28,3460.79 1236.56,3460.91 1270.39,3453.72 1301.97,3439.66 1329.93,3419.34 1353.07,3393.65 1370.35,3363.71 1381.03,3330.83 1384.6,3297.28 1380.82,3261.28 1370.35,3229.2 1353.07,3199.26 1329.29,3173.05 1301.97,3153.25 1270.39,3139.19 1235.75,3131.96 1202.01,3132.01 1168.99,3138.98 1136.61,3153.25 1108.65,3173.57 1085.52,3199.26 1068.23,3229.2 1057.42,3262.89 1053.94,3296.46 1055.33,3310.09 950.002,3415.44 939.974,3427.19 931.176,3441.36 924.706,3456.73 920.72,3472.92 919.29,3490.16 919.29,4088.58 891.2,4088.74 883.812,4090.25 878.03,4092.78 871.526,4097.35 866.752,4102.65 863.186,4108.82 860.982,4115.61 860.236,4122.7 860.236,4385.17" style="stroke:rgb(0,0,0);stroke-width:1px;fill:none;stroke-opacity:1;stroke-linecap:round;stroke-linejoin:round;;fill:none"/>
<polyline points="2198.82,4478.74 2198.82,4262.2 2200.07,4250.33 2203.75,4238.98 2209.27,4229.34 2217.71,4219.78 2227.36,4212.77 2237.49,4208.21 2249.94,4205.43 2255.9,4205.12 2472.44,4205.12 2479.22,4205.56 2490.08,4207.91 2500.98,4212.77 2510.64,4219.78 2518.11,4228.01 2524.59,4238.98 2528.07,4249.54 2529.48,4261.38 2529.53,4264.17 3071.26,4264.17 3087.63,4265.75 3878.35,4265.75 3878.35,2559.38 3480.54,2161.58 3449.27,2161.69 3415.44,2154.5 3383.86,2140.44 3355.89,2120.13 3332.76,2094.44 3315.48,2064.5 3304.79,2031.62 3301.22,1998.07 3304.79,1962.86 3315.48,1929.99 3332.76,1900.05 3355.31,1874.94 3383.86,1854.04 3415.44,1839.98 3449.25,1832.79 3465.75,1832.75 3465.75,1151.68 3460.82,1147.89 3438.27,1122.78 3420.69,1092.08 3410.31,1059.97 3406.74,1026.41 3410.52,990.414 3420.99,958.334 3438.27,928.396 3461.4,902.708 3489.37,882.388 3520.95,868.328 3554.76,861.14 3589.33,861.14 3623.91,868.624 3654.72,882.388 3682.05,902.188 3705.82,928.396 3723.11,958.334 3733.57,990.414 3737.4,1025.59 3733.79,1059.97 3723.11,1092.85 3705.82,1122.78 3683.27,1147.89 3678.34,1151.68 3678.31,1892.5 3676.11,1913.22 3669.92,1933.11 3659.97,1951.41 3647.21,1966.9 3630.5,1983.61 3631.89,1997.24 3630.5,2010.88 4059.81,2440.19 4070.99,2453.39 4079.62,2467.66 4085.91,2483.1 4089.71,2499.34 4090.94,2515.35 4090.94,4372.05 4089.01,4392.02 4083.11,4412 4072.57,4431.72 4059.81,4447.21 4043.7,4460.43 4024.6,4470.51 4004.62,4476.42 3985.42,4478.31 3072.83,4478.34 3056.47,4476.77 2529.53,4476.77 2529.48,4479.56 2528.28,4490.61 2524.59,4501.96 2518.62,4512.29 2511.22,4520.58 2500.98,4528.18 2490.85,4532.74 2479.22,4535.38 2472.44,4535.83 2255.9,4535.83 2249.12,4535.38 2238.26,4533.03 2227.36,4528.18 2217.71,4521.16 2210.24,4512.93 2203.46,4501.19 2200.07,4490.61 2198.82,4478.74" style="stroke:rgb(167,241,217);stroke-width:15.748031;fill:none;stroke-opacity:0.5;stroke-linecap:round;stroke-linejoin:round;;fill:none"/>
<polyline points="2198.82,4478.74 2198.82,4262.2 2200.07,4250.33 2203.75,4238.98 2209.27,4229.34 2217.71,4219.78 2227.36,4212.77 2237.49,4208.21 2249.94,4205.43 2255.9,4205.12 2472.44,4205.12 2479.22,4205.56 2490.08,4207.91 2500.98,4212.77 2510.64,4219.78 2518.11,4228.01 2524.59,4238.98 2528.07,4249.54 2529.48,4261.38 2529.53,4264.17 3071.26,4264.17 3087.63,4265.75 3878.35,4265.75 3878.35,2559.38 3480.54,2161.58 3449.27,2161.69 3415.44,2154.5 3383.86,2140.44 3355.89,2120.13 3332.76,2094.44 3315.48,2064.5 3304.79,2031.62 3301.22,1998.07 3304.79,1962.86 3315.48,1929.99 3332.76,1900.05 3355.31,1874.94 3383.86,1854.04 3415.44,1839.98 3449.25,1832.79 3465.75,1832.75 3465.75,1151.68 3460.82,1147.89 3438.27,1122.78 3420.69,1092.08 3410.31,1059.97 3406.74,1026.41 3410.52,990.414 3420.99,958.334 3438.27,928.396 3461.4,902.708 3489.37,882.388 3520.95,868.328 3554.76,861.14 3589.33,861.14 3623.91,868.624 3654.72,882.388 3682.05,902.188 3705.82,928.396 3723.11,958.334 3733.57,990.414 3737.4,1025.59 3733.79,1059.97 3723.11,1092.85 3705.82,1122.78 3683.27,1147.89 3678.34,1151.68 3678.31,1892.5 3676.11,1913.22 3669.92,1933.11 3659.97,1951.41 3647.21,1966.9 3630.5,1983.61 3631.89,1997.24 3630.5,2010.88 4059.81,2440.19 4070.99,2453.39 4079.62,2467.66 4085.91,2483.1 4089.71,2499.34 4090.94,2515.35 4090.94,4372.05 4089.01,4392.02 4083.11,4412 4072.57,4431.72 4059.81,4447.21 4043.7,4460.43 4024.6,4470.51 4004.62,4476.42 3985.42,4478.31 3072.83,4478.34 3056.47,4476.77 2529.53,4476.77 2529.48,4479.56 2528.28,4490.61 2524.59,4501.96 2518.62,4512.29 2511.22,4520.58 2500.98,4528.18 2490.85,4532.74 2479.22,4535.38 2472.44,4535.83 2255.9,4535.83 2249.12,4535.38 2238.26,4533.03 2227.36,4528.18 2217.71,4521.16 2210.24,4512.93 2203.46,4501.19 2200.07,4490.61 2198.82,4478.74" style="stroke:rgb(0,0,0);stroke-width:1px;fill:none;stroke-opacity:1;stroke-linecap:round;stroke-linejoin:round;;fill:none"/>
<polyline points="4127.95,6576.77 4128,6339.73 4128.98,6330.73 4132.04,6321.33 4136.98,6312.78 4143.58,6305.44 4151.57,6299.64 4160.6,6295.62 4170.26,6293.56 4175.2,6293.31 4411.42,6293.31 4416.36,6293.56 4426.02,6295.62 4435.04,6299.64 4443.03,6305.44 4449.64,6312.78 4454.2,6320.6 4457.76,6331.54 4458.66,6340.55 4458.66,6352.36 4529.53,6352.36 4546.76,6353.79 4562.96,6357.78 4577.22,6363.69 4591.49,6372.32 4604.24,6383.07 5360.96,7139.76 5781.85,7139.76 5796.84,7123.18 5824.11,7103.31 5856.38,7088.8 5891.02,7081.57 5924.76,7081.61 5957.78,7088.59 5990.16,7102.86 6018.12,7123.18 6041.25,7148.87 6058.54,7178.81 6069.22,7211.68 6072.83,7246.06 6069.22,7280.44 6058.83,7312.55 6040.74,7343.9 6018.12,7368.94 5990.85,7388.81 5958.58,7403.32 5923.94,7410.55 5890.2,7410.51 5855.61,7403.03 5824.11,7388.81 5796.84,7368.94 5781.85,7352.36 5316.93,7352.36 5299.69,7350.93 5283.5,7346.94 5269.23,7341.03 5254.96,7332.4 5241.76,7321.23 4485.5,6564.96 4458.66,6564.96 4458.66,6576.77 4457.63,6586.59 4454.58,6595.99 4449.64,6604.54 4443.03,6611.88 4434.3,6618.06 4425.22,6621.92 4416.36,6623.76 4411.42,6624.01 4175.2,6624.01 4169.44,6623.63 4160.6,6621.7 4151.57,6617.69 4143.58,6611.88 4137.49,6605.18 4131.74,6595.22 4128.98,6586.59 4127.95,6576.77" style="stroke:rgb(167,241,217);stroke-width:15.748031;fill:none;stroke-opacity:0.5;stroke-linecap:round;stroke-linejoin:round;;fill:none"/>
<polyline points="4127.95,6576.77 4128,6339.73 4128.98,6330.73 4132.04,6321.33 4136.98,6312.78 4143.58,6305.44 4151.57,6299.64 4160.6,6295.62 4170.26,6293.56 4175.2,6293.31 4411.42,6293.31 4416.36,6293.56 4426.02,6295.62 4435.04,6299.64 4443.03,6305.44 4449.64,6312.78 4454.2,6320.6 4457.76,6331.54 4458.66,6340.55 4458.66,6352.36 4529.53,6352.36 4546.76,6353.79 4562.96,6357.78 4577.22,6363.69 4591.49,6372.32 4604.24,6383.07 5360.96,7139.76 5781.85,7139.76 5796.84,7123.18 5824.11,7103.31 5856.38,7088.8 5891.02,7081.57 5924.76,7081.61 5957.78,7088.59 5990.16,7102.86 6018.12,7123.18 6041.25,7148.87 6058.54,7178.81 6069.22,7211.68 6072.83,7246.06 6069.22,7280.44 6058.83,7312.55 6040.74,7343.9 6018.12,7368.94 5990.85,7388.81 5958.58,7403.32 5923.94,7410.55 5890.2,7410.51 5855.61,7403.03 5824.11,7388.81 5796.84,7368.94 5781.85,7352.36 5316.93,7352.36 5299.69,7350.93 5283.5,7346.94 5269.23,7341.03 5254.96,7332.4 5241.76,7321.23 4485.5,6564.96 4458.66,6564.96 4458.66,6576.77 4457.63,6586.59 4454.58,6595.99 4449.64,6604.54 4443.03,6611.88 4434.3,6618.06 4425.22,6621.92 4416.36,6623.76 4411.42,6624.01 4175.2,6624.01 4169.44,6623.63 4160.6,6621.7 4151.57,6617.69 4143.58,6611.88 4137.49,6605.18 4131.74,6595.22 4128.98,6586.59 4127.95,6576.77" style="stroke:rgb(0,0,0);stroke-width:1px;fill:none;stroke-opacity:1;stroke-linecap:round;stroke-linejoin:round;;fill:none"/>
<polyline points="3891.73,5756.3 3895.35,5721.92 3905.73,5689.81 3923.83,5658.46 3946.44,5633.42 3974.41,5613.1 4005.99,5599.04 4039.8,5591.85 4074.37,5591.85 4108.18,5599.04 4139.76,5613.1 4164.62,5631.1 4668.4,5631.1 4679.81,5624.56 4705.62,5616.13 4734.25,5612.99 4798.07,5613.03 4825.07,5615.92 4852.42,5624.94 4876.56,5639.07 4896.72,5657.28 4912.72,5679.23 4924.55,5705.48 4930.37,5732.86 4930.24,5761.66 4924.55,5788.21 4913.54,5813.04 4896.72,5836.42 4876.56,5854.62 4872.05,5857.43 4872.05,5863.45 5754.66,6746.06 6729.59,6746.06 7224.8,6250.85 7224.8,5816.14 7226.73,5796.17 7233.22,5774.76 7243.18,5756.46 7255.94,5740.97 7271.42,5728.21 7290.42,5717.93 7309.61,5712.07 7330.33,5709.88 7407.45,5709.84 7411.29,5706.89 7429.73,5697.2 7449.71,5691.3 7468.91,5689.41 7829.09,5689.37 7844.08,5672.79 7871.36,5652.92 7902.86,5638.7 7937.44,5631.22 7972.01,5631.22 8005.82,5638.41 8037.4,5652.47 8065.37,5672.79 8087.98,5697.83 8106.08,5729.18 8116.46,5761.29 8120.08,5795.67 8116.46,5830.05 8106.08,5862.15 8087.98,5893.5 8065.37,5918.55 8037.4,5938.87 8005.82,5952.93 7972.82,5959.99 7937.44,5960.12 7902.86,5952.63 7871.36,5938.42 7844.08,5918.55 7829.09,5901.97 7511.44,5901.97 7507.6,5904.92 7490.59,5914.02 7470.7,5920.21 7449.98,5922.4 7437.4,5922.44 7437.4,6294.88 7435.17,6316.37 7429.57,6334.83 7419.88,6353.27 7406.27,6370.04 6848.79,6927.53 6835.59,6938.7 6821.32,6947.33 6807.05,6953.24 6790.86,6957.23 6773.62,6958.66 5710.63,6958.66 5689.14,6956.43 5669.25,6950.24 5651.57,6940.75 5635.46,6927.53 4690.58,5982.64 4676.97,5965.87 4667.87,5948.86 4661.68,5928.97 4659.45,5907.48 4659.45,5857.43 4654.93,5854.62 4642.8,5843.7 4196.56,5843.7 4190.34,5854.13 4167.73,5879.18 4139.03,5899.87 4108.18,5913.56 4075.18,5920.62 4039.8,5920.75 4005.99,5913.56 3974.41,5899.5 3946.44,5879.18 3923.83,5854.13 3905.73,5822.78 3895.35,5790.68 3891.73,5756.3" style="stroke:rgb(167,241,217);stroke-width:15.748031;fill:none;stroke-opacity:0.5;stroke-linecap:round;stroke-linejoin:round;;fill:none"/>
<polyline points="3891.73,5756.3 3895.35,5721.92 3905.73,5689.81 3923.83,5658.46 3946.44,5633.42 3974.41,5613.1 4005.99,5599.04 4039.8,5591.85 4074.37,5591.85 4108.18,5599.04 4139.76,5613.1 4164.62,5631.1 4668.4,5631.1 4679.81,5624.56 4705.62,5616.13 4734.25,5612.99 4798.07,5613.03 4825.07,5615.92 4852.42,5624.94 4876.56,5639.07 4896.72,5657.28 4912.72,5679.23 4924.55,5705.48 4930.37,5732.86 4930.24,5761.66 4924.55,5788.21 4913.54,5813.04 4896.72,5836.42 4876.56,5854.62 4872.05,5857.43 4872.05,5863.45 5754.66,6746.06 6729.59,6746.06 7224.8,6250.85 7224.8,5816.14 7226.73,5796.17 7233.22,5774.76 7243.18,5756.46 7255.94,5740.97 7271.42,5728.21 7290.42,5717.93 7309.61,5712.07 7330.33,5709.88 7407.45,5709.84 7411.29,5706.89 7429.73,5697.2 7449.71,5691.3 7468.91,5689.41 7829.09,5689.37 7844.08,5672.79 7871.36,5652.92 7902.86,5638.7 7937.44,5631.22 7972.01,5631.22 8005.82,5638.41 8037.4,5652.47 8065.37,5672.79 8087.98,5697.83 8106.08,5729.18 8116.46,5761.29 8120.08,5795.67 8116.46,5830.05 8106.08,5862.15 8087.98,5893.5 8065.37,5918.55 8037.4,5938.87 8005.82,5952.93 7972.82,5959.99 7937.44,5960.12 7902.86,5952.63 7871.36,5938.42 7844.08,5918.55 7829.09,5901.97 7511.44,5901.97 7507.6,5904.92 7490.59,5914.02 7470.7,5920.21 7449.98,5922.4 7437.4,5922.44 7437.4,6294.88 7435.17,6316.37 7429.57,6334.83 7419.88,6353.27 7406.27,6370.04 6848.79,6927.53 6835.59,6938.7 6821.32,6947.33 6807.05,6953.24 6790.86,6957.23 6773.62,6958.66 5710.63,6958.66 5689.14,6956.43 5669.25,6950.24 5651.57,6940.75 5635.46,6927.53 4690.58,5982.64 4676.97,5965.87 4667.87,5948.86 4661.68,5928.97 4659.45,5907.48 4659.45,5857.43 4654.93,5854.62 4642.8,5843.7 4196.56,5843.7 4190.34,5854.13 4167.73,5879.18 4139.03,5899.87 4108.18,5913.56 4075.18,5920.62 4039.8,5920.75 4005.99,5913.56 3974.41,5899.5 3946.44,5879.18 3923.83,5854.13 3905.73,5822.78 3895.35,5790.68 3891.73,5756.3" style="stroke:rgb(0,0,0);stroke-width:1px;fill:none;stroke-opacity:1;stroke-linecap:round;stroke-linejoin:round;;fill:none"/>
<polyline points="4639.76,5136.61 4639.76,4939.76 4639.91,4938.23 4641.09,4935.39 4642.07,4934.19 4644.62,4932.49 4647.64,4931.89 4771.27,4931.89 4774.61,4930.27 4793.08,4924.67 4814.57,4922.44 5127.15,4922.48 5147.86,4924.67 5167.75,4930.86 5185.43,4940.35 5201.54,4953.57 5682.22,5434.25 5801.22,5434.25 5803.11,5415.06 5809.01,5395.09 5818.7,5376.64 5822.45,5371.83 5820.87,5356.3 5824.35,5322.73 5835.16,5289.04 5852.45,5259.11 5874.99,5234 5904.28,5212.72 5935.12,5199.04 5968.12,5191.98 6003.5,5191.85 6037.32,5199.04 6068.16,5212.72 6097.45,5234 6120.44,5259.8 6137.28,5289.04 6147.75,5321.12 6151.57,5356.3 6147.75,5391.47 6137.28,5423.55 6120.44,5452.8 6096.86,5479.18 6068.16,5499.87 6037.32,5513.56 6013.78,5518.61 6013.78,6319.97 6018.71,6323.76 6041.25,6348.87 6058.54,6378.81 6069.22,6411.68 6072.83,6446.06 6069.22,6480.44 6058.54,6513.32 6041.25,6543.25 6018.12,6568.94 5989.42,6589.64 5958.58,6603.32 5925.58,6610.38 5890.2,6610.51 5856.38,6603.32 5824.11,6588.81 5796.84,6568.94 5774.22,6543.9 5756.42,6513.32 5745.74,6480.44 5742.17,6445.24 5745.74,6411.68 5756.13,6379.58 5773.71,6348.87 5796.25,6323.76 5801.18,6319.97 5801.18,5646.85 5637.42,5646.81 5618.21,5644.92 5598.24,5639.02 5579.13,5628.93 5563.02,5615.71 5082.35,5135.04 4891.73,5135.04 4891.58,5138.15 4891.13,5139.63 4889.43,5142.18 4886.87,5143.89 4883.86,5144.49 4647.64,5144.49 4644.62,5143.89 4642.07,5142.18 4640.36,5139.63 4639.76,5136.61" style="stroke:rgb(167,241,217);stroke-width:15.748031;fill:none;stroke-opacity:0.5;stroke-linecap:round;stroke-linejoin:round;;fill:none"/>
<polyline points="4639.76,5136.61 4639.76,4939.76 4639.91,4938.23 4641.09,4935.39 4642.07,4934.19 4644.62,4932.49 4647.64,4931.89 4771.27,4931.89 4774.61,4930.27 4793.08,4924.67 4814.57,4922.44 5127.15,4922.48 5147.86,4924.67 5167.75,4930.86 5185.43,4940.35 5201.54,4953.57 5682.22,5434.25 5801.22,5434.25 5803.11,5415.06 5809.01,5395.09 5818.7,5376.64 5822.45,5371.83 5820.87,5356.3 5824.35,5322.73 5835.16,5289.04 5852.45,5259.11 5874.99,5234 5904.28,5212.72 5935.12,5199.04 5968.12,5191.98 6003.5,5191.85 6037.32,5199.04 6068.16,5212.72 6097.45,5234 6120.44,5259.8 6137.28,5289.04 6147.75,5321.12 6151.57,5356.3 6147.75,5391.47 6137.28,5423.55 6120.44,5452.8 6096.86,5479.18 6068.16,5499.87 6037.32,5513.56 6013.78,5518.61 6013.78,6319.97 6018.71,6323.76 6041.25,6348.87 6058.54,6378.81 6069.22,6411.68 6072.83,6446.06 6069.22,6480.44 6058.54,6513.32 6041.25,6543.25 6018.12,6568.94 5989.42,6589.64 5958.58,6603.32 5925.58,6610.38 5890.2,6610.51 5856.38,6603.32 5824.11,6588.81 5796.84,6568.94 5774.22,6543.9 5756.42,6513.32 5745.74,6480.44 5742.17,6445.24 5745.74,6411.68 5756.13,6379.58 5773.71,6348.87 5796.25,6323.76 5801.18,6319.97 5801.18,5646.85 5637.42,5646.81 5618.21,5644.92 5598.24,5639.02 5579.13,5628.93 5563.02,5615.71 5082.35,5135.04 4891.73,5135.04 4891.58,5138.15 4891.13,5139.63 4889.43,5142.18 4886.87,5143.89 4883.86,5144.49 4647.64,5144.49 4644.62,5143.89 4642.07,5142.18 4640.36,5139.63 4639.76,5136.61" style="stroke:rgb(0,0,0);stroke-width:1px;fill:none;stroke-opacity:1;stroke-linecap:round;stroke-linejoin:round;;fill:none"/>
<polyline points="7186.64,7202.64 7190.26,7237.02 7201.31,7270.63 7218.22,7299.83 7240.77,7324.94 7269.32,7345.84 7300.9,7359.9 7335.54,7367.13 7370.09,7366.96 7403.09,7359.9 7433.94,7346.21 7463.22,7324.94 7485.77,7299.83 7502.68,7270.63 7513.74,7237.02 7517.35,7202.64 7515.96,7189 7530.98,7173.99 7706.33,7173.99 7722.34,7172.75 7738.58,7168.95 7755.13,7162.1 7769.29,7153.3 7781.04,7143.27 7939.7,6984.64 8113.74,6984.49 8115.22,6984.05 8117.77,6982.34 8118.75,6981.15 8119.93,6978.31 8120.08,6925.59 8297.23,6925.55 8317.94,6923.36 8337.83,6917.17 8354.85,6908.07 8371.62,6894.45 8823.59,6442.49 8834.04,6430.29 8842.83,6416.12 8849.31,6400.75 8853.29,6384.56 8854.72,6367.32 8854.72,4960.96 8877.49,4938.19 9890.16,4938.19 9910.89,4936.14 9931.53,4929.76 9949.83,4919.81 9965.32,4907.05 9978.54,4890.94 9988.03,4873.26 9994.22,4853.37 9996.45,4831.89 9996.45,3926.38 9994.41,3905.64 9988.03,3885 9978.54,3867.32 9964.75,3850.69 9949.83,3838.45 9931.53,3828.5 9910.89,3822.12 9890.93,3820.11 9647.64,3820.08 9647.49,3787.83 9646.31,3784.99 9644.14,3782.82 9642.78,3782.09 9639.76,3781.49 9246.06,3781.49 9243.05,3782.09 9240.49,3783.8 9238.79,3786.36 9238.19,3789.37 9238.19,4025.59 9238.79,4028.6 9239.52,4029.96 9240.49,4031.16 9243.05,4032.86 9246.06,4033.46 9639.76,4033.46 9641.3,4033.31 9643.13,4032.67 9783.86,4032.67 9783.86,4725.59 8833.46,4725.59 8816.23,4727.02 8800.03,4731 8785.77,4736.91 8771.5,4745.55 8758.3,4756.72 8673.26,4841.76 8660.04,4857.87 8649.96,4876.98 8644.05,4896.95 8642.16,4916.16 8642.12,6323.29 8252.42,6712.99 8120.08,6712.99 8119.93,6660.27 8119.48,6658.8 8117.77,6656.24 8116.58,6655.26 8113.74,6654.09 7797.24,6653.94 7795.71,6654.09 7792.87,6655.26 7790.7,6657.44 7789.97,6658.8 7789.37,6661.81 7789.37,6834.31 7662.3,6961.39 7486.95,6961.39 7465.46,6963.62 7445.57,6969.81 7428.55,6978.9 7412.35,6992 7366,7038.3 7334.73,7038.19 7300.9,7045.37 7269.32,7059.44 7241.35,7079.75 7218.22,7105.44 7200.94,7135.38 7190.26,7168.26 7186.64,7202.64" style="stroke:rgb(167,241,217);stroke-width:15.748031;fill:none;stroke-opacity:0.5;stroke-linecap:round;stroke-linejoin:round;;fill:none"/>
<polyline points="7186.64,7202.64 7190.26,7237.02 7201.31,7270.63 7218.22,7299.83 7240.77,7324.94 7269.32,7345.84 7300.9,7359.9 7335.54,7367.13 7370.09,7366.96 7403.09,7359.9 7433.94,7346.21 7463.22,7324.94 7485.77,7299.83 7502.68,7270.63 7513.74,7237.02 7517.35,7202.64 7515.96,7189 7530.98,7173.99 7706.33,7173.99 7722.34,7172.75 7738.58,7168.95 7755.13,7162.1 7769.29,7153.3 7781.04,7143.27 7939.7,6984.64 8113.74,6984.49 8115.22,6984.05 8117.77,6982.34 8118.75,6981.15 8119.93,6978.31 8120.08,6925.59 8297.23,6925.55 8317.94,6923.36 8337.83,6917.17 8354.85,6908.07 8371.62,6894.45 8823.59,6442.49 8834.04,6430.29 8842.83,6416.12 8849.31,6400.75 8853.29,6384.56 8854.72,6367.32 8854.72,4960.96 8877.49,4938.19 9890.16,4938.19 9910.89,4936.14 9931.53,4929.76 9949.83,4919.81 9965.32,4907.05 9978.54,4890.94 9988.03,4873.26 9994.22,4853.37 9996.45,4831.89 9996.45,3926.38 9994.41,3905.64 9988.03,3885 9978.54,3867.32 9964.75,3850.69 9949.83,3838.45 9931.53,3828.5 9910.89,3822.12 9890.93,3820.11 9647.64,3820.08 9647.49,3787.83 9646.31,3784.99 9644.14,3782.82 9642.78,3782.09 9639.76,3781.49 9246.06,3781.49 9243.05,3782.09 9240.49,3783.8 9238.79,3786.36 9238.19,3789.37 9238.19,4025.59 9238.79,4028.6 9239.52,4029.96 9240.49,4031.16 9243.05,4032.86 9246.06,4033.46 9639.76,4033.46 9641.3,4033.31 9643.13,4032.67 9783.86,4032.67 9783.86,4725.59 8833.46,4725.59 8816.23,4727.02 8800.03,4731 8785.77,4736.91 8771.5,4745.55 8758.3,4756.72 8673.26,4841.76 8660.04,4857.87 8649.96,4876.98 8644.05,4896.95 8642.16,4916.16 8642.12,6323.29 8252.42,6712.99 8120.08,6712.99 8119.93,6660.27 8119.48,6658.8 8117.77,6656.24 8116.58,6655.26 8113.74,6654.09 7797.24,6653.94 7795.71,6654.09 7792.87,6655.26 7790.7,6657.44 7789.97,6658.8 7789.37,6661.81 7789.37,6834.31 7662.3,6961.39 7486.95,6961.39 7465.46,6963.62 7445.57,6969.81 7428.55,6978.9 7412.35,6992 7366,7038.3 7334.73,7038.19 7300.9,7045.37 7269.32,7059.44 7241.35,7079.75 7218.22,7105.44 7200.94,7135.38 7190.26,7168.26 7186.64,7202.64" style="stroke:rgb(0,0,0);stroke-width:1px;fill:none;stroke-opacity:1;stroke-linecap:round;stroke-linejoin:round;;fill:none"/>
<polyline points="5250,4687.01 5252.23,4708.49 5258.42,4728.38 5267.91,4746.06 5281.13,4762.17 5596.09,5077.13 5612.2,5090.35 5629.88,5099.84 5651.29,5106.34 5671.26,5108.27 8287.79,5108.27 8287.79,6194.88 8190.94,6194.88 8170.97,6196.81 8166.42,6198.03 8080.36,6198.03 8065.37,6181.45 8038.09,6161.58 8005.82,6147.07 7971.19,6139.84 7937.44,6139.88 7903.63,6147.07 7872.05,6161.13 7844.72,6180.93 7820.5,6207.83 7803.67,6237.07 7792.98,6269.95 7789.37,6304.33 7792.85,6337.89 7804.04,6372.32 7820.95,6401.52 7844.08,6427.21 7872.05,6447.53 7902.86,6461.3 7937.44,6468.78 7972.01,6468.78 8006.59,6461.3 8038.09,6447.08 8065.37,6427.21 8080.36,6410.63 8187.79,6410.63 8207.77,6408.7 8212.31,6407.48 8394.86,6407.44 8414.83,6405.44 8435.47,6399.06 8453.77,6389.1 8468.69,6376.86 8482.48,6360.24 8491.97,6342.56 8498.16,6322.67 8500.39,6301.18 8500.39,5001.97 8498.16,4980.48 8491.97,4960.59 8482.48,4942.91 8469.26,4926.8 8453.77,4914.04 8435.47,4904.09 8414.83,4897.71 8394.09,4895.67 5715.29,4895.67 5462.6,4642.97 5462.6,3533.46 6340.55,3533.46 6362.04,3531.23 6381.93,3525.04 6399.61,3515.55 6415.71,3502.33 7439.34,2478.71 7452.1,2463.22 7462.64,2443.49 7468.43,2424.28 7470.43,2404.31 7470.47,2175.3 7475.4,2171.51 7489.81,2155.51 8230.31,2155.51 8251.05,2153.47 8271.69,2147.09 8289.99,2137.14 8305.48,2124.38 8909.05,1520.77 8919.08,1509.03 8927.87,1494.86 8934.73,1478.31 8938.53,1462.08 8939.74,1446.68 8939.76,1405.05 9074.93,1269.88 9207.09,1269.88 9207.09,1281.69 9207.69,1284.71 9209.39,1287.26 9210.59,1288.24 9211.95,1288.97 9214.96,1289.57 9608.66,1289.57 9611.67,1288.97 9614.23,1287.26 9615.94,1284.71 9616.53,1281.69 9616.53,1045.47 9615.94,1042.46 9614.23,1039.9 9611.67,1038.2 9608.66,1037.6 9214.96,1037.6 9211.95,1038.2 9210.59,1038.92 9209.39,1039.9 9207.69,1042.46 9207.09,1045.47 9207.09,1057.28 9030.13,1057.32 9009.42,1059.51 8989.53,1065.7 8972.51,1074.8 8955.74,1088.42 8758.3,1285.86 8747.85,1298.05 8738.49,1313.32 8732.58,1327.59 8728.59,1343.79 8727.16,1361.02 8727.16,1402.03 8186.28,1942.91 7489.81,1942.91 7474.82,1926.33 7446.85,1906.01 7415.27,1891.95 7382.27,1884.89 7346.89,1884.76 7313.87,1891.74 7280.8,1906.46 7253.53,1926.33 7230.92,1951.38 7213.49,1981.22 7202.43,2014.83 7198.82,2049.21 7202.43,2083.59 7213.11,2116.47 7230.4,2146.4 7252.95,2171.51 7257.87,2175.3 7257.87,2359.51 6296.52,3320.86 5356.3,3320.86 5335.56,3322.91 5316.35,3328.7 5297.24,3338.78 5281.7,3351.48 5268.37,3367.49 5258.42,3385.79 5252.04,3406.43 5250,3427.16 5250,4687.01" style="stroke:rgb(167,241,217);stroke-width:15.748031;fill:none;stroke-opacity:0.5;stroke-linecap:round;stroke-linejoin:round;;fill:none"/>
<polyline points="5250,4687.01 5252.23,4708.49 5258.42,4728.38 5267.91,4746.06 5281.13,4762.17 5596.09,5077.13 5612.2,5090.35 5629.88,5099.84 5651.29,5106.34 5671.26,5108.27 8287.79,5108.27 8287.79,6194.88 8190.94,6194.88 8170.97,6196.81 8166.42,6198.03 8080.36,6198.03 8065.37,6181.45 8038.09,6161.58 8005.82,6147.07 7971.19,6139.84 7937.44,6139.88 7903.63,6147.07 7872.05,6161.13 7844.72,6180.93 7820.5,6207.83 7803.67,6237.07 7792.98,6269.95 7789.37,6304.33 7792.85,6337.89 7804.04,6372.32 7820.95,6401.52 7844.08,6427.21 7872.05,6447.53 7902.86,6461.3 7937.44,6468.78 7972.01,6468.78 8006.59,6461.3 8038.09,6447.08 8065.37,6427.21 8080.36,6410.63 8187.79,6410.63 8207.77,6408.7 8212.31,6407.48 8394.86,6407.44 8414.83,6405.44 8435.47,6399.06 8453.77,6389.1 8468.69,6376.86 8482.48,6360.24 8491.97,6342.56 8498.16,6322.67 8500.39,6301.18 8500.39,5001.97 8498.16,4980.48 8491.97,4960.59 8482.48,4942.91 8469.26,4926.8 8453.77,4914.04 8435.47,4904.09 8414.83,4897.71 8394.09,4895.67 5715.29,4895.67 5462.6,4642.97 5462.6,3533.46 6340.55,3533.46 6362.04,3531.23 6381.93,3525.04 6399.61,3515.55 6415.71,3502.33 7439.34,2478.71 7452.1,2463.22 7462.64,2443.49 7468.43,2424.28 7470.43,2404.31 7470.47,2175.3 7475.4,2171.51 7489.81,2155.51 8230.31,2155.51 8251.05,2153.47 8271.69,2147.09 8289.99,2137.14 8305.48,2124.38 8909.05,1520.77 8919.08,1509.03 8927.87,1494.86 8934.73,1478.31 8938.53,1462.08 8939.74,1446.68 8939.76,1405.05 9074.93,1269.88 9207.09,1269.88 9207.09,1281.69 9207.69,1284.71 9209.39,1287.26 9210.59,1288.24 9211.95,1288.97 9214.96,1289.57 9608.66,1289.57 9611.67,1288.97 9614.23,1287.26 9615.94,1284.71 9616.53,1281.69 9616.53,1045.47 9615.94,1042.46 9614.23,1039.9 9611.67,1038.2 9608.66,1037.6 9214.96,1037.6 9211.95,1038.2 9210.59,1038.92 9209.39,1039.9 9207.69,1042.46 9207.09,1045.47 9207.09,1057.28 9030.13,1057.32 9009.42,1059.51 8989.53,1065.7 8972.51,1074.8 8955.74,1088.42 8758.3,1285.86 8747.85,1298.05 8738.49,1313.32 8732.58,1327.59 8728.59,1343.79 8727.16,1361.02 8727.16,1402.03 8186.28,1942.91 7489.81,1942.91 7474.82,1926.33 7446.85,1906.01 7415.27,1891.95 7382.27,1884.89 7346.89,1884.76 7313.87,1891.74 7280.8,1906.46 7253.53,1926.33 7230.92,1951.38 7213.49,1981.22 7202.43,2014.83 7198.82,2049.21 7202.43,2083.59 7213.11,2116.47 7230.4,2146.4 7252.95,2171.51 7257.87,2175.3 7257.87,2359.51 6296.52,3320.86 5356.3,3320.86 5335.56,3322.91 5316.35,3328.7 5297.24,3338.78 5281.7,3351.48 5268.37,3367.49 5258.42,3385.79 5252.04,3406.43 5250,3427.16 5250,4687.01" style="stroke:rgb(0,0,0);stroke-width:1px;fill:none;stroke-opacity:1;stroke-linecap:round;stroke-linejoin:round;;fill:none"/>
<polyline points="5820.87,4556.3 5824.48,4521.92 5835.16,4489.04 5852.45,4459.11 5874.99,4434 5879.92,4430.21 5879.92,3898.51 5874.24,3888.32 5863.72,3855.4 5860.24,3821.84 5863.85,3787.46 5874.53,3754.58 5892.33,3724 5915.59,3698.43 5942.91,3678.63 5973.72,3664.87 6009.13,3657.34 6042.87,3657.39 6076.69,3664.57 6108.96,3679.08 6136.23,3698.95 6151.22,3715.54 7907.48,3715.54 7907.48,3569.62 7633.95,3296.09 7625.32,3295.2 7604.68,3288.82 7587,3279.33 7570.9,3266.11 7558.14,3250.62 7548.18,3232.32 7541.8,3211.68 7539.8,3191.71 7539.76,2587.79 7541.99,2566.31 7548.18,2546.42 7557.28,2529.4 7570.9,2512.63 7767.75,2315.78 7779.94,2305.33 7794.11,2296.53 7810.66,2289.68 7826.9,2285.88 7842.91,2284.64 9301.36,2284.68 9322.08,2286.87 9341.97,2293.07 9358.98,2302.16 9375.75,2315.78 9396.79,2336.81 9451.18,2336.81 9484.75,2340.29 9518.44,2351.11 9549.01,2368.91 9574.06,2391.52 9594.38,2419.49 9608.44,2451.07 9615.67,2485.7 9615.63,2519.45 9608.66,2552.47 9594.76,2584.11 9574.06,2612.81 9548.37,2635.94 9518.44,2653.22 9484.75,2664.03 9451.18,2667.52 9372.44,2667.52 9338.88,2664.03 9305.18,2653.22 9275.94,2636.39 9249.56,2612.81 9228.87,2584.11 9214.97,2552.47 9207.99,2519.45 9207.95,2497.24 7886.94,2497.24 7752.36,2631.82 7752.36,3114.14 7754.3,3115.78 8057.81,3419.29 8358.68,3419.3 8362.99,3419.62 8369.82,3421.12 8376.97,3424.3 8383.29,3428.9 8388.53,3434.71 8392.44,3441.48 8394.64,3448.12 8395.67,3456.69 8395.67,3870.08 8394.85,3877.85 8392.44,3885.29 8388.53,3892.06 8383.29,3897.87 8380.79,3899.75 8868.83,4387.79 9305.49,4387.79 9320.8,4379 9345.06,4371.08 9371.22,4368.15 9529.53,4368.11 9556.52,4371.08 9580.77,4379 9602.89,4391.72 9623.15,4409.79 9639.01,4431.84 9649.35,4455.16 9654.69,4480.11 9654.82,4507.26 9649.35,4533.02 9638.18,4557.78 9623.15,4578.39 9604.22,4595.5 9581.5,4608.81 9555.72,4617.32 9530.35,4620.03 9372.05,4620.08 9345.06,4617.11 9320.8,4609.19 9305.49,4600.39 8824.8,4600.39 8804.06,4598.35 8783.42,4591.97 8765.12,4582.02 8749.64,4569.26 8087.86,3907.48 8056.05,3907.48 8041.92,3916.25 8026.55,3922.72 8010.36,3926.7 7993.12,3928.13 6151.22,3928.13 6135.59,3945.24 6108.27,3965.04 6092.52,3972.1 6092.52,4430.21 6097.45,4434 6120.44,4459.8 6137.28,4489.04 6147.96,4521.92 6151.57,4556.3 6148.09,4589.86 6136.9,4624.29 6119.99,4653.49 6097.45,4678.6 6068.16,4699.87 6037.32,4713.56 6003.5,4720.75 5968.94,4720.75 5935.92,4713.77 5902.85,4699.05 5875.58,4679.18 5852.45,4653.49 5835.16,4623.55 5824.69,4591.47 5820.87,4556.3" style="stroke:rgb(167,241,217);stroke-width:15.748031;fill:none;stroke-opacity:0.5;stroke-linecap:round;stroke-linejoin:round;;fill:none"/>
<polyline points="5820.87,4556.3 5824.48,4521.92 5835.16,4489.04 5852.45,4459.11 5874.99,4434 5879.92,4430.21 5879.92,3898.51 5874.24,3888.32 5863.72,3855.4 5860.24,3821.84 5863.85,3787.46 5874.53,3754.58 5892.33,3724 5915.59,3698.43 5942.91,3678.63 5973.72,3664.87 6009.13,3657.34 6042.87,3657.39 6076.69,3664.57 6108.96,3679.08 6136.23,3698.95 6151.22,3715.54 7907.48,3715.54 7907.48,3569.62 7633.95,3296.09 7625.32,3295.2 7604.68,3288.82 7587,3279.33 7570.9,3266.11 7558.14,3250.62 7548.18,3232.32 7541.8,3211.68 7539.8,3191.71 7539.76,2587.79 7541.99,2566.31 7548.18,2546.42 7557.28,2529.4 7570.9,2512.63 7767.75,2315.78 7779.94,2305.33 7794.11,2296.53 7810.66,2289.68 7826.9,2285.88 7842.91,2284.64 9301.36,2284.68 9322.08,2286.87 9341.97,2293.07 9358.98,2302.16 9375.75,2315.78 9396.79,2336.81 9451.18,2336.81 9484.75,2340.29 9518.44,2351.11 9549.01,2368.91 9574.06,2391.52 9594.38,2419.49 9608.44,2451.07 9615.67,2485.7 9615.63,2519.45 9608.66,2552.47 9594.76,2584.11 9574.06,2612.81 9548.37,2635.94 9518.44,2653.22 9484.75,2664.03 9451.18,2667.52 9372.44,2667.52 9338.88,2664.03 9305.18,2653.22 9275.94,2636.39 9249.56,2612.81 9228.87,2584.11 9214.97,2552.47 9207.99,2519.45 9207.95,2497.24 7886.94,2497.24 7752.36,2631.82 7752.36,3114.14 7754.3,3115.78 8057.81,3419.29 8358.68,3419.3 8362.99,3419.62 8369.82,3421.12 8376.97,3424.3 8383.29,3428.9 8388.53,3434.71 8392.44,3441.48 8394.64,3448.12 8395.67,3456.69 8395.67,3870.08 8394.85,3877.85 8392.44,3885.29 8388.53,3892.06 8383.29,3897.87 8380.79,3899.75 8868.83,4387.79 9305.49,4387.79 9320.8,4379 9345.06,4371.08 9371.22,4368.15 9529.53,4368.11 9556.52,4371.08 9580.77,4379 9602.89,4391.72 9623.15,4409.79 9639.01,4431.84 9649.35,4455.16 9654.69,4480.11 9654.82,4507.26 9649.35,4533.02 9638.18,4557.78 9623.15,4578.39 9604.22,4595.5 9581.5,4608.81 9555.72,4617.32 9530.35,4620.03 9372.05,4620.08 9345.06,4617.11 9320.8,4609.19 9305.49,4600.39 8824.8,4600.39 8804.06,4598.35 8783.42,4591.97 8765.12,4582.02 8749.64,4569.26 8087.86,3907.48 8056.05,3907.48 8041.92,3916.25 8026.55,3922.72 8010.36,3926.7 7993.12,3928.13 6151.22,3928.13 6135.59,3945.24 6108.27,3965.04 6092.52,3972.1 6092.52,4430.21 6097.45,4434 6120.44,4459.8 6137.28,4489.04 6147.96,4521.92 6151.57,4556.3 6148.09,4589.86 6136.9,4624.29 6119.99,4653.49 6097.45,4678.6 6068.16,4699.87 6037.32,4713.56 6003.5,4720.75 5968.94,4720.75 5935.92,4713.77 5902.85,4699.05 5875.58,4679.18 5852.45,4653.49 5835.16,4623.55 5824.69,4591.47 5820.87,4556.3" style="stroke:rgb(0,0,0);stroke-width:1px;fill:none;stroke-opacity:1;stroke-linecap:round;stroke-linejoin:round;;fill:none"/>
<polyline points="7907.48,2875.98 7912.81,2926.73 7928.58,2975.27 7954.1,3019.46 7987.66,3056.8 8030.26,3087.75 8076.14,3108.13 8126.06,3118.74 8177.9,3118.61 8227,3108.13 8273.62,3087.38 8315.49,3056.8 8349.05,3019.46 8370.56,2982.28 9346.91,2982.28 10138.2,3773.56 10138.2,7038.25 9879.2,7297.24 9261.81,7297.24 9261.77,7271.49 9261.06,7265.21 9258.49,7257.7 9255.29,7252.25 9251.1,7247.53 9244.75,7242.76 9238.23,7239.86 9232.07,7238.5 9228.1,7238.2 8961.65,7238.38 8954.68,7239.86 8948.16,7242.76 8942.39,7246.95 8938.14,7251.61 8933.76,7259.2 8931.85,7265.21 8931.1,7272.31 8931.14,7535.6 8931.85,7541.87 8933.76,7547.88 8937.62,7554.83 8942.39,7560.13 8947.47,7563.88 8955.47,7567.44 8960.84,7568.58 8965.23,7568.9 9232.07,7568.58 9239,7566.93 9244.75,7564.33 9249.88,7560.65 9255.29,7554.83 9258.86,7548.65 9261.06,7541.87 9261.77,7535.6 9261.81,7509.84 9923.23,7509.84 9943.96,7507.8 9964.6,7501.42 9982.9,7491.47 9998.39,7478.71 10319.7,7157.45 10330.8,7144.25 10339.5,7129.98 10345.8,7114.53 10349.5,7098.3 10350.8,7082.28 10350.8,3729.53 10349.4,3712.29 10345.4,3696.1 10339.5,3681.83 10330.8,3667.56 10319.7,3654.36 9466.11,2800.82 9449.34,2787.2 9430.89,2777.51 9410.92,2771.61 9390.94,2769.68 8370.56,2769.68 8349.05,2732.51 8315.49,2695.17 8273.62,2664.59 8227,2643.84 8177.9,2633.35 8126.06,2633.23 8076.14,2643.84 8030.26,2664.22 7987.66,2695.17 7954.1,2732.51 7928.58,2776.7 7912.81,2825.23 7907.48,2875.98" style="stroke:rgb(167,241,217);stroke-width:15.748031;fill:none;stroke-opacity:0.5;stroke-linecap:round;stroke-linejoin:round;;fill:none"/>
<polyline points="7907.48,2875.98 7912.81,2926.73 7928.58,2975.27 7954.1,3019.46 7987.66,3056.8 8030.26,3087.75 8076.14,3108.13 8126.06,3118.74 8177.9,3118.61 8227,3108.13 8273.62,3087.38 8315.49,3056.8 8349.05,3019.46 8370.56,2982.28 9346.91,2982.28 10138.2,3773.56 10138.2,7038.25 9879.2,7297.24 9261.81,7297.24 9261.77,7271.49 9261.06,7265.21 9258.49,7257.7 9255.29,7252.25 9251.1,7247.53 9244.75,7242.76 9238.23,7239.86 9232.07,7238.5 9228.1,7238.2 8961.65,7238.38 8954.68,7239.86 8948.16,7242.76 8942.39,7246.95 8938.14,7251.61 8933.76,7259.2 8931.85,7265.21 8931.1,7272.31 8931.14,7535.6 8931.85,7541.87 8933.76,7547.88 8937.62,7554.83 8942.39,7560.13 8947.47,7563.88 8955.47,7567.44 8960.84,7568.58 8965.23,7568.9 9232.07,7568.58 9239,7566.93 9244.75,7564.33 9249.88,7560.65 9255.29,7554.83 9258.86,7548.65 9261.06,7541.87 9261.77,7535.6 9261.81,7509.84 9923.23,7509.84 9943.96,7507.8 9964.6,7501.42 9982.9,7491.47 9998.39,7478.71 10319.7,7157.45 10330.8,7144.25 10339.5,7129.98 10345.8,7114.53 10349.5,7098.3 10350.8,7082.28 10350.8,3729.53 10349.4,3712.29 10345.4,3696.1 10339.5,3681.83 10330.8,3667.56 10319.7,3654.36 9466.11,2800.82 9449.34,2787.2 9430.89,2777.51 9410.92,2771.61 9390.94,2769.68 8370.56,2769.68 8349.05,2732.51 8315.49,2695.17 8273.62,2664.59 8227,2643.84 8177.9,2633.35 8126.06,2633.23 8076.14,2643.84 8030.26,2664.22 7987.66,2695.17 7954.1,2732.51 7928.58,2776.7 7912.81,2825.23 7907.48,2875.98" style="stroke:rgb(0,0,0);stroke-width:1px;fill:none;stroke-opacity:1;stroke-linecap:round;stroke-linejoin:round;;fill:none"/>
<polyline points="5387.79,1891.73 5391.41,1926.11 5402.09,1958.99 5419.37,1988.92 5441.92,2014.03 5446.85,2017.82 5446.85,2088.58 5448.78,2108.55 5455.27,2129.96 5465.22,2148.26 5477.98,2163.75 5919.29,2605.05 5919.29,2869.15 5902.51,2869.34 5892.88,2871.39 5883.86,2875.41 5876.51,2880.7 5869.26,2888.55 5864.32,2897.11 5861.27,2906.5 5860.28,2915.5 5860.24,3152.54 5861.48,3163.16 5864.32,3171.76 5868.81,3179.62 5875.87,3187.65 5883.86,3193.46 5893.68,3197.69 5902.54,3199.53 5907.48,3199.79 6143.7,3199.79 6148.64,3199.53 6157.5,3197.69 6167.32,3193.46 6175.31,3187.65 6182.37,3179.62 6187.16,3170.99 6189.91,3162.37 6190.9,3153.37 6190.9,2915.5 6189.91,2906.5 6186.86,2897.11 6181.92,2888.55 6174.67,2880.7 6167.32,2875.41 6158.3,2871.39 6148.67,2869.34 6131.89,2869.15 6131.89,2561.02 6129.85,2540.28 6124.06,2521.07 6114.37,2502.63 6100.75,2485.86 5770.41,2155.51 6438.54,2155.51 6453.53,2172.09 6480.8,2191.96 6513.08,2206.47 6547.71,2213.7 6581.46,2213.66 6614.47,2206.69 6646.85,2192.41 6674.82,2172.09 6697.95,2146.4 6715.53,2115.7 6725.91,2083.59 6729.48,2048.39 6725.7,2014.03 6715.23,1981.96 6698.4,1952.71 6674.82,1926.33 6646.85,1906.01 6615.27,1891.95 6580.63,1884.72 6546.89,1884.76 6512.31,1892.25 6480.8,1906.46 6453.53,1926.33 6438.54,1942.91 5709.48,1942.91 5714.89,1926.11 5718.46,1892.55 5715.02,1858.17 5704.21,1824.48 5686.92,1794.54 5663.79,1768.85 5635.83,1748.53 5604.25,1734.47 5569.61,1727.24 5535.86,1727.28 5502.05,1734.47 5470.47,1748.53 5442.51,1768.85 5419.37,1794.54 5402.09,1824.48 5391.41,1857.35 5387.79,1891.73" style="stroke:rgb(167,241,217);stroke-width:15.748031;fill:none;stroke-opacity:0.5;stroke-linecap:round;stroke-linejoin:round;;fill:none"/>
<polyline points="5387.79,1891.73 5391.41,1926.11 5402.09,1958.99 5419.37,1988.92 5441.92,2014.03 5446.85,2017.82 5446.85,2088.58 5448.78,2108.55 5455.27,2129.96 5465.22,2148.26 5477.98,2163.75 5919.29,2605.05 5919.29,2869.15 5902.51,2869.34 5892.88,2871.39 5883.86,2875.41 5876.51,2880.7 5869.26,2888.55 5864.32,2897.11 5861.27,2906.5 5860.28,2915.5 5860.24,3152.54 5861.48,3163.16 5864.32,3171.76 5868.81,3179.62 5875.87,3187.65 5883.86,3193.46 5893.68,3197.69 5902.54,3199.53 5907.48,3199.79 6143.7,3199.79 6148.64,3199.53 6157.5,3197.69 6167.32,3193.46 6175.31,3187.65 6182.37,3179.62 6187.16,3170.99 6189.91,3162.37 6190.9,3153.37 6190.9,2915.5 6189.91,2906.5 6186.86,2897.11 6181.92,2888.55 6174.67,2880.7 6167.32,2875.41 6158.3,2871.39 6148.67,2869.34 6131.89,2869.15 6131.89,2561.02 6129.85,2540.28 6124.06,2521.07 6114.37,2502.63 6100.75,2485.86 5770.41,2155.51 6438.54,2155.51 6453.53,2172.09 6480.8,2191.96 6513.08,2206.47 6547.71,2213.7 6581.46,2213.66 6614.47,2206.69 6646.85,2192.41 6674.82,2172.09 6697.95,2146.4 6715.53,2115.7 6725.91,2083.59 6729.48,2048.39 6725.7,2014.03 6715.23,1981.96 6698.4,1952.71 6674.82,1926.33 6646.85,1906.01 6615.27,1891.95 6580.63,1884.72 6546.89,1884.76 6512.31,1892.25 6480.8,1906.46 6453.53,1926.33 6438.54,1942.91 5709.48,1942.91 5714.89,1926.11 5718.46,1892.55 5715.02,1858.17 5704.21,1824.48 5686.92,1794.54 5663.79,1768.85 5635.83,1748.53 5604.25,1734.47 5569.61,1727.24 5535.86,1727.28 5502.05,1734.47 5470.47,1748.53 5442.51,1768.85 5419.37,1794.54 5402.09,1824.48 5391.41,1857.35 5387.79,1891.73" style="stroke:rgb(0,0,0);stroke-width:1px;fill:none;stroke-opacity:1;stroke-linecap:round;stroke-linejoin:round;;fill:none"/>
</svg>
