<?xml version="1.0" standalone="no"?>
<!DOCTYPE svg PUBLIC "-//W3C//DTD SVG 1.1//EN"
"http://www.w3.org/Graphics/SVG/1.1/DTD/svg11.dtd">
<svg width="504.756" height="400.819" viewBox="0 0 10515.7 8350.39" version="1.1"
xmlns="http://www.w3.org/2000/svg"
xmlns:xlink="http://www.w3.org/1999/xlink">
<polyline points="61.0216,8230.31 62.1556,8241.83 65.5176,8252.91 70.9736,8263.12 78.3176,8272.07 87.2676,8279.42 97.4776,8284.87 108.556,8288.23 120.078,8289.37 10395.7,8289.37 10407.2,8288.23 10418.3,8284.87 10428.5,8279.42 10437.4,8272.07 10444.8,8263.12 10450.2,8252.91 10453.6,8241.83 10454.7,8230.31 10454.7,120.076 10453.6,108.556 10450.2,97.4781 10444.8,87.2681 10437.4,78.3181 10428.5,70.9741 10418.3,65.5181 10407.2,62.1561 10395.7,61.0221 120.078,61.0221 108.556,62.1561 97.4776,65.5181 87.2676,70.9741 78.3176,78.3181 70.9736,87.2681 65.5176,97.4781 62.1556,108.556 61.0216,120.076 61.0216,8230.31" style="stroke:rgb(167,241,217);stroke-width:118.110236;fill:none;stroke-opacity:0.5;stroke-linecap:round;stroke-linejoin:round;;fill:none"/>
<polyline points="61.0216,8230.31 62.1556,8241.83 65.5176,8252.91 70.9736,8263.12 78.3176,8272.07 87.2676,8279.42 97.4776,8284.87 108.556,8288.23 120.078,8289.37 10395.7,8289.37 10407.2,8288.23 10418.3,8284.87 10428.5,8279.42 10437.4,8272.07 10444.8,8263.12 10450.2,8252.91 10453.6,8241.83 10454.7,8230.31 10454.7,120.076 10453.6,108.556 10450.2,97.4781 10444.8,87.2681 10437.4,78.3181 10428.5,70.9741 10418.3,65.5181 10407.2,62.1561 10395.7,61.0221 120.078,61.0221 108.556,62.1561 97.4776,65.5181 87.2676,70.9741 78.3176,78.3181 70.9736,87.2681 65.5176,97.4781 62.1556,108.556 61.0216,120.076 61.0216,8230.31" style="stroke:rgb(0,0,0);stroke-width:1px;fill:none;stroke-opacity:1;stroke-linecap:round;stroke-linejoin:round;;fill:none"/>
</svg>
